<?xml version="1.0" standalone="no"?>
<!DOCTYPE svg PUBLIC "-//W3C//DTD SVG 1.1//EN" 
  "http://www.w3.org/Graphics/SVG/1.1/DTD/svg11.dtd">
<svg viewBox="5000 4920 162 237" width="10000" height="10000" version="1.1"
    id="toplevel" xmlns="http://www.w3.org/2000/svg"
    xmlns:xlink="http://www.w3.org/1999/xlink">
  <symbol id="fractal">
    <line x1="5162.00" y1="5000.00" x2="5162.00" y2="5000.00" stroke="black"/>
    <line x1="5162.00" y1="5000.00" x2="5162.00" y2="5001.00" stroke="black"/>
    <line x1="5162.00" y1="5001.00" x2="5162.00" y2="5002.00" stroke="black"/>
    <line x1="5162.00" y1="5002.00" x2="5162.00" y2="5003.00" stroke="black"/>
    <line x1="5162.00" y1="5003.00" x2="5162.00" y2="5004.00" stroke="black"/>
    <line x1="5162.00" y1="5004.00" x2="5162.00" y2="5005.00" stroke="black"/>
    <line x1="5162.00" y1="5005.00" x2="5161.13" y2="5005.50" stroke="black"/>
    <line x1="5161.13" y1="5005.50" x2="5160.27" y2="5006.00" stroke="black"/>
    <line x1="5160.27" y1="5006.00" x2="5159.40" y2="5006.50" stroke="black"/>
    <line x1="5159.40" y1="5006.50" x2="5158.54" y2="5007.00" stroke="black"/>
    <line x1="5158.54" y1="5007.00" x2="5157.67" y2="5007.50" stroke="black"/>
    <line x1="5157.67" y1="5007.50" x2="5156.80" y2="5007.00" stroke="black"/>
    <line x1="5156.80" y1="5007.00" x2="5155.94" y2="5006.50" stroke="black"/>
    <line x1="5155.94" y1="5006.50" x2="5155.07" y2="5006.00" stroke="black"/>
    <line x1="5155.07" y1="5006.00" x2="5154.21" y2="5005.50" stroke="black"/>
    <line x1="5154.21" y1="5005.50" x2="5153.34" y2="5005.00" stroke="black"/>
    <line x1="5153.34" y1="5005.00" x2="5152.47" y2="5005.50" stroke="black"/>
    <line x1="5152.47" y1="5005.50" x2="5151.61" y2="5006.00" stroke="black"/>
    <line x1="5151.61" y1="5006.00" x2="5150.74" y2="5006.50" stroke="black"/>
    <line x1="5150.74" y1="5006.50" x2="5149.88" y2="5007.00" stroke="black"/>
    <line x1="5149.88" y1="5007.00" x2="5149.01" y2="5007.50" stroke="black"/>
    <line x1="5149.01" y1="5007.50" x2="5149.01" y2="5008.50" stroke="black"/>
    <line x1="5149.01" y1="5008.50" x2="5149.01" y2="5009.50" stroke="black"/>
    <line x1="5149.01" y1="5009.50" x2="5149.01" y2="5010.50" stroke="black"/>
    <line x1="5149.01" y1="5010.50" x2="5149.01" y2="5011.50" stroke="black"/>
    <line x1="5149.01" y1="5011.50" x2="5149.01" y2="5012.50" stroke="black"/>
    <line x1="5149.01" y1="5012.50" x2="5149.88" y2="5013.00" stroke="black"/>
    <line x1="5149.88" y1="5013.00" x2="5150.74" y2="5013.50" stroke="black"/>
    <line x1="5150.74" y1="5013.50" x2="5151.61" y2="5014.00" stroke="black"/>
    <line x1="5151.61" y1="5014.00" x2="5152.47" y2="5014.50" stroke="black"/>
    <line x1="5152.47" y1="5014.50" x2="5153.34" y2="5015.00" stroke="black"/>
    <line x1="5153.34" y1="5015.00" x2="5154.21" y2="5014.50" stroke="black"/>
    <line x1="5154.21" y1="5014.50" x2="5155.07" y2="5014.00" stroke="black"/>
    <line x1="5155.07" y1="5014.00" x2="5155.94" y2="5013.50" stroke="black"/>
    <line x1="5155.94" y1="5013.50" x2="5156.80" y2="5013.00" stroke="black"/>
    <line x1="5156.80" y1="5013.00" x2="5157.67" y2="5012.50" stroke="black"/>
    <line x1="5157.67" y1="5012.50" x2="5158.54" y2="5013.00" stroke="black"/>
    <line x1="5158.54" y1="5013.00" x2="5159.40" y2="5013.50" stroke="black"/>
    <line x1="5159.40" y1="5013.50" x2="5160.27" y2="5014.00" stroke="black"/>
    <line x1="5160.27" y1="5014.00" x2="5161.13" y2="5014.50" stroke="black"/>
    <line x1="5161.13" y1="5014.50" x2="5162.00" y2="5015.00" stroke="black"/>
    <line x1="5162.00" y1="5015.00" x2="5162.00" y2="5016.00" stroke="black"/>
    <line x1="5162.00" y1="5016.00" x2="5162.00" y2="5017.00" stroke="black"/>
    <line x1="5162.00" y1="5017.00" x2="5162.00" y2="5018.00" stroke="black"/>
    <line x1="5162.00" y1="5018.00" x2="5162.00" y2="5019.00" stroke="black"/>
    <line x1="5162.00" y1="5019.00" x2="5162.00" y2="5020.00" stroke="black"/>
    <line x1="5162.00" y1="5020.00" x2="5161.13" y2="5020.50" stroke="black"/>
    <line x1="5161.13" y1="5020.50" x2="5160.27" y2="5021.00" stroke="black"/>
    <line x1="5160.27" y1="5021.00" x2="5159.40" y2="5021.50" stroke="black"/>
    <line x1="5159.40" y1="5021.50" x2="5158.54" y2="5022.00" stroke="black"/>
    <line x1="5158.54" y1="5022.00" x2="5157.67" y2="5022.50" stroke="black"/>
    <line x1="5157.67" y1="5022.50" x2="5157.67" y2="5023.50" stroke="black"/>
    <line x1="5157.67" y1="5023.50" x2="5157.67" y2="5024.50" stroke="black"/>
    <line x1="5157.67" y1="5024.50" x2="5157.67" y2="5025.50" stroke="black"/>
    <line x1="5157.67" y1="5025.50" x2="5157.67" y2="5026.50" stroke="black"/>
    <line x1="5157.67" y1="5026.50" x2="5157.67" y2="5027.50" stroke="black"/>
    <line x1="5157.67" y1="5027.50" x2="5158.54" y2="5028.00" stroke="black"/>
    <line x1="5158.54" y1="5028.00" x2="5159.40" y2="5028.50" stroke="black"/>
    <line x1="5159.40" y1="5028.50" x2="5160.27" y2="5029.00" stroke="black"/>
    <line x1="5160.27" y1="5029.00" x2="5161.13" y2="5029.50" stroke="black"/>
    <line x1="5161.13" y1="5029.50" x2="5162.00" y2="5030.00" stroke="black"/>
    <line x1="5162.00" y1="5030.00" x2="5162.00" y2="5031.00" stroke="black"/>
    <line x1="5162.00" y1="5031.00" x2="5162.00" y2="5032.00" stroke="black"/>
    <line x1="5162.00" y1="5032.00" x2="5162.00" y2="5033.00" stroke="black"/>
    <line x1="5162.00" y1="5033.00" x2="5162.00" y2="5034.00" stroke="black"/>
    <line x1="5162.00" y1="5034.00" x2="5162.00" y2="5035.00" stroke="black"/>
    <line x1="5162.00" y1="5035.00" x2="5161.13" y2="5035.50" stroke="black"/>
    <line x1="5161.13" y1="5035.50" x2="5160.27" y2="5036.00" stroke="black"/>
    <line x1="5160.27" y1="5036.00" x2="5159.40" y2="5036.50" stroke="black"/>
    <line x1="5159.40" y1="5036.50" x2="5158.54" y2="5037.00" stroke="black"/>
    <line x1="5158.54" y1="5037.00" x2="5157.67" y2="5037.50" stroke="black"/>
    <line x1="5157.67" y1="5037.50" x2="5156.80" y2="5037.00" stroke="black"/>
    <line x1="5156.80" y1="5037.00" x2="5155.94" y2="5036.50" stroke="black"/>
    <line x1="5155.94" y1="5036.50" x2="5155.07" y2="5036.00" stroke="black"/>
    <line x1="5155.07" y1="5036.00" x2="5154.21" y2="5035.50" stroke="black"/>
    <line x1="5154.21" y1="5035.50" x2="5153.34" y2="5035.00" stroke="black"/>
    <line x1="5153.34" y1="5035.00" x2="5153.34" y2="5034.00" stroke="black"/>
    <line x1="5153.34" y1="5034.00" x2="5153.34" y2="5033.00" stroke="black"/>
    <line x1="5153.34" y1="5033.00" x2="5153.34" y2="5032.00" stroke="black"/>
    <line x1="5153.34" y1="5032.00" x2="5153.34" y2="5031.00" stroke="black"/>
    <line x1="5153.34" y1="5031.00" x2="5153.34" y2="5030.00" stroke="black"/>
    <line x1="5153.34" y1="5030.00" x2="5152.47" y2="5029.50" stroke="black"/>
    <line x1="5152.47" y1="5029.50" x2="5151.61" y2="5029.00" stroke="black"/>
    <line x1="5151.61" y1="5029.00" x2="5150.74" y2="5028.50" stroke="black"/>
    <line x1="5150.74" y1="5028.50" x2="5149.88" y2="5028.00" stroke="black"/>
    <line x1="5149.88" y1="5028.00" x2="5149.01" y2="5027.50" stroke="black"/>
    <line x1="5149.01" y1="5027.50" x2="5148.14" y2="5028.00" stroke="black"/>
    <line x1="5148.14" y1="5028.00" x2="5147.28" y2="5028.50" stroke="black"/>
    <line x1="5147.28" y1="5028.50" x2="5146.41" y2="5029.00" stroke="black"/>
    <line x1="5146.41" y1="5029.00" x2="5145.55" y2="5029.50" stroke="black"/>
    <line x1="5145.55" y1="5029.50" x2="5144.68" y2="5030.00" stroke="black"/>
    <line x1="5144.68" y1="5030.00" x2="5143.81" y2="5029.50" stroke="black"/>
    <line x1="5143.81" y1="5029.50" x2="5142.95" y2="5029.00" stroke="black"/>
    <line x1="5142.95" y1="5029.00" x2="5142.08" y2="5028.50" stroke="black"/>
    <line x1="5142.08" y1="5028.50" x2="5141.22" y2="5028.00" stroke="black"/>
    <line x1="5141.22" y1="5028.00" x2="5140.35" y2="5027.50" stroke="black"/>
    <line x1="5140.35" y1="5027.50" x2="5140.35" y2="5026.50" stroke="black"/>
    <line x1="5140.35" y1="5026.50" x2="5140.35" y2="5025.50" stroke="black"/>
    <line x1="5140.35" y1="5025.50" x2="5140.35" y2="5024.50" stroke="black"/>
    <line x1="5140.35" y1="5024.50" x2="5140.35" y2="5023.50" stroke="black"/>
    <line x1="5140.35" y1="5023.50" x2="5140.35" y2="5022.50" stroke="black"/>
    <line x1="5140.35" y1="5022.50" x2="5141.22" y2="5022.00" stroke="black"/>
    <line x1="5141.22" y1="5022.00" x2="5142.08" y2="5021.50" stroke="black"/>
    <line x1="5142.08" y1="5021.50" x2="5142.95" y2="5021.00" stroke="black"/>
    <line x1="5142.95" y1="5021.00" x2="5143.81" y2="5020.50" stroke="black"/>
    <line x1="5143.81" y1="5020.50" x2="5144.68" y2="5020.00" stroke="black"/>
    <line x1="5144.68" y1="5020.00" x2="5144.68" y2="5019.00" stroke="black"/>
    <line x1="5144.68" y1="5019.00" x2="5144.68" y2="5018.00" stroke="black"/>
    <line x1="5144.68" y1="5018.00" x2="5144.68" y2="5017.00" stroke="black"/>
    <line x1="5144.68" y1="5017.00" x2="5144.68" y2="5016.00" stroke="black"/>
    <line x1="5144.68" y1="5016.00" x2="5144.68" y2="5015.00" stroke="black"/>
    <line x1="5144.68" y1="5015.00" x2="5143.81" y2="5014.50" stroke="black"/>
    <line x1="5143.81" y1="5014.50" x2="5142.95" y2="5014.00" stroke="black"/>
    <line x1="5142.95" y1="5014.00" x2="5142.08" y2="5013.50" stroke="black"/>
    <line x1="5142.08" y1="5013.50" x2="5141.22" y2="5013.00" stroke="black"/>
    <line x1="5141.22" y1="5013.00" x2="5140.35" y2="5012.50" stroke="black"/>
    <line x1="5140.35" y1="5012.50" x2="5139.48" y2="5013.00" stroke="black"/>
    <line x1="5139.48" y1="5013.00" x2="5138.62" y2="5013.50" stroke="black"/>
    <line x1="5138.62" y1="5013.50" x2="5137.75" y2="5014.00" stroke="black"/>
    <line x1="5137.75" y1="5014.00" x2="5136.89" y2="5014.50" stroke="black"/>
    <line x1="5136.89" y1="5014.50" x2="5136.02" y2="5015.00" stroke="black"/>
    <line x1="5136.02" y1="5015.00" x2="5136.02" y2="5016.00" stroke="black"/>
    <line x1="5136.02" y1="5016.00" x2="5136.02" y2="5017.00" stroke="black"/>
    <line x1="5136.02" y1="5017.00" x2="5136.02" y2="5018.00" stroke="black"/>
    <line x1="5136.02" y1="5018.00" x2="5136.02" y2="5019.00" stroke="black"/>
    <line x1="5136.02" y1="5019.00" x2="5136.02" y2="5020.00" stroke="black"/>
    <line x1="5136.02" y1="5020.00" x2="5135.15" y2="5020.50" stroke="black"/>
    <line x1="5135.15" y1="5020.50" x2="5134.29" y2="5021.00" stroke="black"/>
    <line x1="5134.29" y1="5021.00" x2="5133.42" y2="5021.50" stroke="black"/>
    <line x1="5133.42" y1="5021.50" x2="5132.56" y2="5022.00" stroke="black"/>
    <line x1="5132.56" y1="5022.00" x2="5131.69" y2="5022.50" stroke="black"/>
    <line x1="5131.69" y1="5022.50" x2="5130.82" y2="5022.00" stroke="black"/>
    <line x1="5130.82" y1="5022.00" x2="5129.96" y2="5021.50" stroke="black"/>
    <line x1="5129.96" y1="5021.50" x2="5129.09" y2="5021.00" stroke="black"/>
    <line x1="5129.09" y1="5021.00" x2="5128.23" y2="5020.50" stroke="black"/>
    <line x1="5128.23" y1="5020.50" x2="5127.36" y2="5020.00" stroke="black"/>
    <line x1="5127.36" y1="5020.00" x2="5126.49" y2="5020.50" stroke="black"/>
    <line x1="5126.49" y1="5020.50" x2="5125.63" y2="5021.00" stroke="black"/>
    <line x1="5125.63" y1="5021.00" x2="5124.76" y2="5021.50" stroke="black"/>
    <line x1="5124.76" y1="5021.50" x2="5123.89" y2="5022.00" stroke="black"/>
    <line x1="5123.89" y1="5022.00" x2="5123.03" y2="5022.50" stroke="black"/>
    <line x1="5123.03" y1="5022.50" x2="5123.03" y2="5023.50" stroke="black"/>
    <line x1="5123.03" y1="5023.50" x2="5123.03" y2="5024.50" stroke="black"/>
    <line x1="5123.03" y1="5024.50" x2="5123.03" y2="5025.50" stroke="black"/>
    <line x1="5123.03" y1="5025.50" x2="5123.03" y2="5026.50" stroke="black"/>
    <line x1="5123.03" y1="5026.50" x2="5123.03" y2="5027.50" stroke="black"/>
    <line x1="5123.03" y1="5027.50" x2="5123.89" y2="5028.00" stroke="black"/>
    <line x1="5123.89" y1="5028.00" x2="5124.76" y2="5028.50" stroke="black"/>
    <line x1="5124.76" y1="5028.50" x2="5125.63" y2="5029.00" stroke="black"/>
    <line x1="5125.63" y1="5029.00" x2="5126.49" y2="5029.50" stroke="black"/>
    <line x1="5126.49" y1="5029.50" x2="5127.36" y2="5030.00" stroke="black"/>
    <line x1="5127.36" y1="5030.00" x2="5127.36" y2="5031.00" stroke="black"/>
    <line x1="5127.36" y1="5031.00" x2="5127.36" y2="5032.00" stroke="black"/>
    <line x1="5127.36" y1="5032.00" x2="5127.36" y2="5033.00" stroke="black"/>
    <line x1="5127.36" y1="5033.00" x2="5127.36" y2="5034.00" stroke="black"/>
    <line x1="5127.36" y1="5034.00" x2="5127.36" y2="5035.00" stroke="black"/>
    <line x1="5127.36" y1="5035.00" x2="5126.49" y2="5035.50" stroke="black"/>
    <line x1="5126.49" y1="5035.50" x2="5125.63" y2="5036.00" stroke="black"/>
    <line x1="5125.63" y1="5036.00" x2="5124.76" y2="5036.50" stroke="black"/>
    <line x1="5124.76" y1="5036.50" x2="5123.89" y2="5037.00" stroke="black"/>
    <line x1="5123.89" y1="5037.00" x2="5123.03" y2="5037.50" stroke="black"/>
    <line x1="5123.03" y1="5037.50" x2="5122.16" y2="5037.00" stroke="black"/>
    <line x1="5122.16" y1="5037.00" x2="5121.30" y2="5036.50" stroke="black"/>
    <line x1="5121.30" y1="5036.50" x2="5120.43" y2="5036.00" stroke="black"/>
    <line x1="5120.43" y1="5036.00" x2="5119.56" y2="5035.50" stroke="black"/>
    <line x1="5119.56" y1="5035.50" x2="5118.70" y2="5035.00" stroke="black"/>
    <line x1="5118.70" y1="5035.00" x2="5118.70" y2="5034.00" stroke="black"/>
    <line x1="5118.70" y1="5034.00" x2="5118.70" y2="5033.00" stroke="black"/>
    <line x1="5118.70" y1="5033.00" x2="5118.70" y2="5032.00" stroke="black"/>
    <line x1="5118.70" y1="5032.00" x2="5118.70" y2="5031.00" stroke="black"/>
    <line x1="5118.70" y1="5031.00" x2="5118.70" y2="5030.00" stroke="black"/>
    <line x1="5118.70" y1="5030.00" x2="5117.83" y2="5029.50" stroke="black"/>
    <line x1="5117.83" y1="5029.50" x2="5116.97" y2="5029.00" stroke="black"/>
    <line x1="5116.97" y1="5029.00" x2="5116.10" y2="5028.50" stroke="black"/>
    <line x1="5116.10" y1="5028.50" x2="5115.23" y2="5028.00" stroke="black"/>
    <line x1="5115.23" y1="5028.00" x2="5114.37" y2="5027.50" stroke="black"/>
    <line x1="5114.37" y1="5027.50" x2="5113.50" y2="5028.00" stroke="black"/>
    <line x1="5113.50" y1="5028.00" x2="5112.64" y2="5028.50" stroke="black"/>
    <line x1="5112.64" y1="5028.50" x2="5111.77" y2="5029.00" stroke="black"/>
    <line x1="5111.77" y1="5029.00" x2="5110.90" y2="5029.50" stroke="black"/>
    <line x1="5110.90" y1="5029.50" x2="5110.04" y2="5030.00" stroke="black"/>
    <line x1="5110.04" y1="5030.00" x2="5110.04" y2="5031.00" stroke="black"/>
    <line x1="5110.04" y1="5031.00" x2="5110.04" y2="5032.00" stroke="black"/>
    <line x1="5110.04" y1="5032.00" x2="5110.04" y2="5033.00" stroke="black"/>
    <line x1="5110.04" y1="5033.00" x2="5110.04" y2="5034.00" stroke="black"/>
    <line x1="5110.04" y1="5034.00" x2="5110.04" y2="5035.00" stroke="black"/>
    <line x1="5110.04" y1="5035.00" x2="5109.17" y2="5035.50" stroke="black"/>
    <line x1="5109.17" y1="5035.50" x2="5108.31" y2="5036.00" stroke="black"/>
    <line x1="5108.31" y1="5036.00" x2="5107.44" y2="5036.50" stroke="black"/>
    <line x1="5107.44" y1="5036.50" x2="5106.57" y2="5037.00" stroke="black"/>
    <line x1="5106.57" y1="5037.00" x2="5105.71" y2="5037.50" stroke="black"/>
    <line x1="5105.71" y1="5037.50" x2="5104.84" y2="5037.00" stroke="black"/>
    <line x1="5104.84" y1="5037.00" x2="5103.98" y2="5036.50" stroke="black"/>
    <line x1="5103.98" y1="5036.50" x2="5103.11" y2="5036.00" stroke="black"/>
    <line x1="5103.11" y1="5036.00" x2="5102.24" y2="5035.50" stroke="black"/>
    <line x1="5102.24" y1="5035.50" x2="5101.38" y2="5035.00" stroke="black"/>
    <line x1="5101.38" y1="5035.00" x2="5100.51" y2="5035.50" stroke="black"/>
    <line x1="5100.51" y1="5035.50" x2="5099.65" y2="5036.00" stroke="black"/>
    <line x1="5099.65" y1="5036.00" x2="5098.78" y2="5036.50" stroke="black"/>
    <line x1="5098.78" y1="5036.50" x2="5097.91" y2="5037.00" stroke="black"/>
    <line x1="5097.91" y1="5037.00" x2="5097.05" y2="5037.50" stroke="black"/>
    <line x1="5097.05" y1="5037.50" x2="5097.05" y2="5038.50" stroke="black"/>
    <line x1="5097.05" y1="5038.50" x2="5097.05" y2="5039.50" stroke="black"/>
    <line x1="5097.05" y1="5039.50" x2="5097.05" y2="5040.50" stroke="black"/>
    <line x1="5097.05" y1="5040.50" x2="5097.05" y2="5041.50" stroke="black"/>
    <line x1="5097.05" y1="5041.50" x2="5097.05" y2="5042.50" stroke="black"/>
    <line x1="5097.05" y1="5042.50" x2="5097.91" y2="5043.00" stroke="black"/>
    <line x1="5097.91" y1="5043.00" x2="5098.78" y2="5043.50" stroke="black"/>
    <line x1="5098.78" y1="5043.50" x2="5099.65" y2="5044.00" stroke="black"/>
    <line x1="5099.65" y1="5044.00" x2="5100.51" y2="5044.50" stroke="black"/>
    <line x1="5100.51" y1="5044.50" x2="5101.38" y2="5045.00" stroke="black"/>
    <line x1="5101.38" y1="5045.00" x2="5102.24" y2="5044.50" stroke="black"/>
    <line x1="5102.24" y1="5044.50" x2="5103.11" y2="5044.00" stroke="black"/>
    <line x1="5103.11" y1="5044.00" x2="5103.98" y2="5043.50" stroke="black"/>
    <line x1="5103.98" y1="5043.50" x2="5104.84" y2="5043.00" stroke="black"/>
    <line x1="5104.84" y1="5043.00" x2="5105.71" y2="5042.50" stroke="black"/>
    <line x1="5105.71" y1="5042.50" x2="5106.57" y2="5043.00" stroke="black"/>
    <line x1="5106.57" y1="5043.00" x2="5107.44" y2="5043.50" stroke="black"/>
    <line x1="5107.44" y1="5043.50" x2="5108.31" y2="5044.00" stroke="black"/>
    <line x1="5108.31" y1="5044.00" x2="5109.17" y2="5044.50" stroke="black"/>
    <line x1="5109.17" y1="5044.50" x2="5110.04" y2="5045.00" stroke="black"/>
    <line x1="5110.04" y1="5045.00" x2="5110.04" y2="5046.00" stroke="black"/>
    <line x1="5110.04" y1="5046.00" x2="5110.04" y2="5047.00" stroke="black"/>
    <line x1="5110.04" y1="5047.00" x2="5110.04" y2="5048.00" stroke="black"/>
    <line x1="5110.04" y1="5048.00" x2="5110.04" y2="5049.00" stroke="black"/>
    <line x1="5110.04" y1="5049.00" x2="5110.04" y2="5050.00" stroke="black"/>
    <line x1="5110.04" y1="5050.00" x2="5110.90" y2="5050.50" stroke="black"/>
    <line x1="5110.90" y1="5050.50" x2="5111.77" y2="5051.00" stroke="black"/>
    <line x1="5111.77" y1="5051.00" x2="5112.64" y2="5051.50" stroke="black"/>
    <line x1="5112.64" y1="5051.50" x2="5113.50" y2="5052.00" stroke="black"/>
    <line x1="5113.50" y1="5052.00" x2="5114.37" y2="5052.50" stroke="black"/>
    <line x1="5114.37" y1="5052.50" x2="5115.23" y2="5052.00" stroke="black"/>
    <line x1="5115.23" y1="5052.00" x2="5116.10" y2="5051.50" stroke="black"/>
    <line x1="5116.10" y1="5051.50" x2="5116.97" y2="5051.00" stroke="black"/>
    <line x1="5116.97" y1="5051.00" x2="5117.83" y2="5050.50" stroke="black"/>
    <line x1="5117.83" y1="5050.50" x2="5118.70" y2="5050.00" stroke="black"/>
    <line x1="5118.70" y1="5050.00" x2="5118.70" y2="5049.00" stroke="black"/>
    <line x1="5118.70" y1="5049.00" x2="5118.70" y2="5048.00" stroke="black"/>
    <line x1="5118.70" y1="5048.00" x2="5118.70" y2="5047.00" stroke="black"/>
    <line x1="5118.70" y1="5047.00" x2="5118.70" y2="5046.00" stroke="black"/>
    <line x1="5118.70" y1="5046.00" x2="5118.70" y2="5045.00" stroke="black"/>
    <line x1="5118.70" y1="5045.00" x2="5119.56" y2="5044.50" stroke="black"/>
    <line x1="5119.56" y1="5044.50" x2="5120.43" y2="5044.00" stroke="black"/>
    <line x1="5120.43" y1="5044.00" x2="5121.30" y2="5043.50" stroke="black"/>
    <line x1="5121.30" y1="5043.50" x2="5122.16" y2="5043.00" stroke="black"/>
    <line x1="5122.16" y1="5043.00" x2="5123.03" y2="5042.50" stroke="black"/>
    <line x1="5123.03" y1="5042.50" x2="5123.89" y2="5043.00" stroke="black"/>
    <line x1="5123.89" y1="5043.00" x2="5124.76" y2="5043.50" stroke="black"/>
    <line x1="5124.76" y1="5043.50" x2="5125.63" y2="5044.00" stroke="black"/>
    <line x1="5125.63" y1="5044.00" x2="5126.49" y2="5044.50" stroke="black"/>
    <line x1="5126.49" y1="5044.50" x2="5127.36" y2="5045.00" stroke="black"/>
    <line x1="5127.36" y1="5045.00" x2="5127.36" y2="5046.00" stroke="black"/>
    <line x1="5127.36" y1="5046.00" x2="5127.36" y2="5047.00" stroke="black"/>
    <line x1="5127.36" y1="5047.00" x2="5127.36" y2="5048.00" stroke="black"/>
    <line x1="5127.36" y1="5048.00" x2="5127.36" y2="5049.00" stroke="black"/>
    <line x1="5127.36" y1="5049.00" x2="5127.36" y2="5050.00" stroke="black"/>
    <line x1="5127.36" y1="5050.00" x2="5126.49" y2="5050.50" stroke="black"/>
    <line x1="5126.49" y1="5050.50" x2="5125.63" y2="5051.00" stroke="black"/>
    <line x1="5125.63" y1="5051.00" x2="5124.76" y2="5051.50" stroke="black"/>
    <line x1="5124.76" y1="5051.50" x2="5123.89" y2="5052.00" stroke="black"/>
    <line x1="5123.89" y1="5052.00" x2="5123.03" y2="5052.50" stroke="black"/>
    <line x1="5123.03" y1="5052.50" x2="5123.03" y2="5053.50" stroke="black"/>
    <line x1="5123.03" y1="5053.50" x2="5123.03" y2="5054.50" stroke="black"/>
    <line x1="5123.03" y1="5054.50" x2="5123.03" y2="5055.50" stroke="black"/>
    <line x1="5123.03" y1="5055.50" x2="5123.03" y2="5056.50" stroke="black"/>
    <line x1="5123.03" y1="5056.50" x2="5123.03" y2="5057.50" stroke="black"/>
    <line x1="5123.03" y1="5057.50" x2="5123.89" y2="5058.00" stroke="black"/>
    <line x1="5123.89" y1="5058.00" x2="5124.76" y2="5058.50" stroke="black"/>
    <line x1="5124.76" y1="5058.50" x2="5125.63" y2="5059.00" stroke="black"/>
    <line x1="5125.63" y1="5059.00" x2="5126.49" y2="5059.50" stroke="black"/>
    <line x1="5126.49" y1="5059.50" x2="5127.36" y2="5060.00" stroke="black"/>
    <line x1="5127.36" y1="5060.00" x2="5128.23" y2="5059.50" stroke="black"/>
    <line x1="5128.23" y1="5059.50" x2="5129.09" y2="5059.00" stroke="black"/>
    <line x1="5129.09" y1="5059.00" x2="5129.96" y2="5058.50" stroke="black"/>
    <line x1="5129.96" y1="5058.50" x2="5130.82" y2="5058.00" stroke="black"/>
    <line x1="5130.82" y1="5058.00" x2="5131.69" y2="5057.50" stroke="black"/>
    <line x1="5131.69" y1="5057.50" x2="5132.56" y2="5058.00" stroke="black"/>
    <line x1="5132.56" y1="5058.00" x2="5133.42" y2="5058.50" stroke="black"/>
    <line x1="5133.42" y1="5058.50" x2="5134.29" y2="5059.00" stroke="black"/>
    <line x1="5134.29" y1="5059.00" x2="5135.15" y2="5059.50" stroke="black"/>
    <line x1="5135.15" y1="5059.50" x2="5136.02" y2="5060.00" stroke="black"/>
    <line x1="5136.02" y1="5060.00" x2="5136.02" y2="5061.00" stroke="black"/>
    <line x1="5136.02" y1="5061.00" x2="5136.02" y2="5062.00" stroke="black"/>
    <line x1="5136.02" y1="5062.00" x2="5136.02" y2="5063.00" stroke="black"/>
    <line x1="5136.02" y1="5063.00" x2="5136.02" y2="5064.00" stroke="black"/>
    <line x1="5136.02" y1="5064.00" x2="5136.02" y2="5065.00" stroke="black"/>
    <line x1="5136.02" y1="5065.00" x2="5136.89" y2="5065.50" stroke="black"/>
    <line x1="5136.89" y1="5065.50" x2="5137.75" y2="5066.00" stroke="black"/>
    <line x1="5137.75" y1="5066.00" x2="5138.62" y2="5066.50" stroke="black"/>
    <line x1="5138.62" y1="5066.50" x2="5139.48" y2="5067.00" stroke="black"/>
    <line x1="5139.48" y1="5067.00" x2="5140.35" y2="5067.50" stroke="black"/>
    <line x1="5140.35" y1="5067.50" x2="5141.22" y2="5067.00" stroke="black"/>
    <line x1="5141.22" y1="5067.00" x2="5142.08" y2="5066.50" stroke="black"/>
    <line x1="5142.08" y1="5066.50" x2="5142.95" y2="5066.00" stroke="black"/>
    <line x1="5142.95" y1="5066.00" x2="5143.81" y2="5065.50" stroke="black"/>
    <line x1="5143.81" y1="5065.50" x2="5144.68" y2="5065.00" stroke="black"/>
    <line x1="5144.68" y1="5065.00" x2="5144.68" y2="5064.00" stroke="black"/>
    <line x1="5144.68" y1="5064.00" x2="5144.68" y2="5063.00" stroke="black"/>
    <line x1="5144.68" y1="5063.00" x2="5144.68" y2="5062.00" stroke="black"/>
    <line x1="5144.68" y1="5062.00" x2="5144.68" y2="5061.00" stroke="black"/>
    <line x1="5144.68" y1="5061.00" x2="5144.68" y2="5060.00" stroke="black"/>
    <line x1="5144.68" y1="5060.00" x2="5143.81" y2="5059.50" stroke="black"/>
    <line x1="5143.81" y1="5059.50" x2="5142.95" y2="5059.00" stroke="black"/>
    <line x1="5142.95" y1="5059.00" x2="5142.08" y2="5058.50" stroke="black"/>
    <line x1="5142.08" y1="5058.50" x2="5141.22" y2="5058.00" stroke="black"/>
    <line x1="5141.22" y1="5058.00" x2="5140.35" y2="5057.50" stroke="black"/>
    <line x1="5140.35" y1="5057.50" x2="5140.35" y2="5056.50" stroke="black"/>
    <line x1="5140.35" y1="5056.50" x2="5140.35" y2="5055.50" stroke="black"/>
    <line x1="5140.35" y1="5055.50" x2="5140.35" y2="5054.50" stroke="black"/>
    <line x1="5140.35" y1="5054.50" x2="5140.35" y2="5053.50" stroke="black"/>
    <line x1="5140.35" y1="5053.50" x2="5140.35" y2="5052.50" stroke="black"/>
    <line x1="5140.35" y1="5052.50" x2="5141.22" y2="5052.00" stroke="black"/>
    <line x1="5141.22" y1="5052.00" x2="5142.08" y2="5051.50" stroke="black"/>
    <line x1="5142.08" y1="5051.50" x2="5142.95" y2="5051.00" stroke="black"/>
    <line x1="5142.95" y1="5051.00" x2="5143.81" y2="5050.50" stroke="black"/>
    <line x1="5143.81" y1="5050.50" x2="5144.68" y2="5050.00" stroke="black"/>
    <line x1="5144.68" y1="5050.00" x2="5145.55" y2="5050.50" stroke="black"/>
    <line x1="5145.55" y1="5050.50" x2="5146.41" y2="5051.00" stroke="black"/>
    <line x1="5146.41" y1="5051.00" x2="5147.28" y2="5051.50" stroke="black"/>
    <line x1="5147.28" y1="5051.50" x2="5148.14" y2="5052.00" stroke="black"/>
    <line x1="5148.14" y1="5052.00" x2="5149.01" y2="5052.50" stroke="black"/>
    <line x1="5149.01" y1="5052.50" x2="5149.88" y2="5052.00" stroke="black"/>
    <line x1="5149.88" y1="5052.00" x2="5150.74" y2="5051.50" stroke="black"/>
    <line x1="5150.74" y1="5051.50" x2="5151.61" y2="5051.00" stroke="black"/>
    <line x1="5151.61" y1="5051.00" x2="5152.47" y2="5050.50" stroke="black"/>
    <line x1="5152.47" y1="5050.50" x2="5153.34" y2="5050.00" stroke="black"/>
    <line x1="5153.34" y1="5050.00" x2="5153.34" y2="5049.00" stroke="black"/>
    <line x1="5153.34" y1="5049.00" x2="5153.34" y2="5048.00" stroke="black"/>
    <line x1="5153.34" y1="5048.00" x2="5153.34" y2="5047.00" stroke="black"/>
    <line x1="5153.34" y1="5047.00" x2="5153.34" y2="5046.00" stroke="black"/>
    <line x1="5153.34" y1="5046.00" x2="5153.34" y2="5045.00" stroke="black"/>
    <line x1="5153.34" y1="5045.00" x2="5154.21" y2="5044.50" stroke="black"/>
    <line x1="5154.21" y1="5044.50" x2="5155.07" y2="5044.00" stroke="black"/>
    <line x1="5155.07" y1="5044.00" x2="5155.94" y2="5043.50" stroke="black"/>
    <line x1="5155.94" y1="5043.50" x2="5156.80" y2="5043.00" stroke="black"/>
    <line x1="5156.80" y1="5043.00" x2="5157.67" y2="5042.50" stroke="black"/>
    <line x1="5157.67" y1="5042.50" x2="5158.54" y2="5043.00" stroke="black"/>
    <line x1="5158.54" y1="5043.00" x2="5159.40" y2="5043.50" stroke="black"/>
    <line x1="5159.40" y1="5043.50" x2="5160.27" y2="5044.00" stroke="black"/>
    <line x1="5160.27" y1="5044.00" x2="5161.13" y2="5044.50" stroke="black"/>
    <line x1="5161.13" y1="5044.50" x2="5162.00" y2="5045.00" stroke="black"/>
    <line x1="5162.00" y1="5045.00" x2="5162.00" y2="5046.00" stroke="black"/>
    <line x1="5162.00" y1="5046.00" x2="5162.00" y2="5047.00" stroke="black"/>
    <line x1="5162.00" y1="5047.00" x2="5162.00" y2="5048.00" stroke="black"/>
    <line x1="5162.00" y1="5048.00" x2="5162.00" y2="5049.00" stroke="black"/>
    <line x1="5162.00" y1="5049.00" x2="5162.00" y2="5050.00" stroke="black"/>
    <line x1="5162.00" y1="5050.00" x2="5161.13" y2="5050.50" stroke="black"/>
    <line x1="5161.13" y1="5050.50" x2="5160.27" y2="5051.00" stroke="black"/>
    <line x1="5160.27" y1="5051.00" x2="5159.40" y2="5051.50" stroke="black"/>
    <line x1="5159.40" y1="5051.50" x2="5158.54" y2="5052.00" stroke="black"/>
    <line x1="5158.54" y1="5052.00" x2="5157.67" y2="5052.50" stroke="black"/>
    <line x1="5157.67" y1="5052.50" x2="5157.67" y2="5053.50" stroke="black"/>
    <line x1="5157.67" y1="5053.50" x2="5157.67" y2="5054.50" stroke="black"/>
    <line x1="5157.67" y1="5054.50" x2="5157.67" y2="5055.50" stroke="black"/>
    <line x1="5157.67" y1="5055.50" x2="5157.67" y2="5056.50" stroke="black"/>
    <line x1="5157.67" y1="5056.50" x2="5157.67" y2="5057.50" stroke="black"/>
    <line x1="5157.67" y1="5057.50" x2="5158.54" y2="5058.00" stroke="black"/>
    <line x1="5158.54" y1="5058.00" x2="5159.40" y2="5058.50" stroke="black"/>
    <line x1="5159.40" y1="5058.50" x2="5160.27" y2="5059.00" stroke="black"/>
    <line x1="5160.27" y1="5059.00" x2="5161.13" y2="5059.50" stroke="black"/>
    <line x1="5161.13" y1="5059.50" x2="5162.00" y2="5060.00" stroke="black"/>
    <line x1="5162.00" y1="5060.00" x2="5162.00" y2="5061.00" stroke="black"/>
    <line x1="5162.00" y1="5061.00" x2="5162.00" y2="5062.00" stroke="black"/>
    <line x1="5162.00" y1="5062.00" x2="5162.00" y2="5063.00" stroke="black"/>
    <line x1="5162.00" y1="5063.00" x2="5162.00" y2="5064.00" stroke="black"/>
    <line x1="5162.00" y1="5064.00" x2="5162.00" y2="5065.00" stroke="black"/>
    <line x1="5162.00" y1="5065.00" x2="5161.13" y2="5065.50" stroke="black"/>
    <line x1="5161.13" y1="5065.50" x2="5160.27" y2="5066.00" stroke="black"/>
    <line x1="5160.27" y1="5066.00" x2="5159.40" y2="5066.50" stroke="black"/>
    <line x1="5159.40" y1="5066.50" x2="5158.54" y2="5067.00" stroke="black"/>
    <line x1="5158.54" y1="5067.00" x2="5157.67" y2="5067.50" stroke="black"/>
    <line x1="5157.67" y1="5067.50" x2="5156.80" y2="5067.00" stroke="black"/>
    <line x1="5156.80" y1="5067.00" x2="5155.94" y2="5066.50" stroke="black"/>
    <line x1="5155.94" y1="5066.50" x2="5155.07" y2="5066.00" stroke="black"/>
    <line x1="5155.07" y1="5066.00" x2="5154.21" y2="5065.50" stroke="black"/>
    <line x1="5154.21" y1="5065.50" x2="5153.34" y2="5065.00" stroke="black"/>
    <line x1="5153.34" y1="5065.00" x2="5152.47" y2="5065.50" stroke="black"/>
    <line x1="5152.47" y1="5065.50" x2="5151.61" y2="5066.00" stroke="black"/>
    <line x1="5151.61" y1="5066.00" x2="5150.74" y2="5066.50" stroke="black"/>
    <line x1="5150.74" y1="5066.50" x2="5149.88" y2="5067.00" stroke="black"/>
    <line x1="5149.88" y1="5067.00" x2="5149.01" y2="5067.50" stroke="black"/>
    <line x1="5149.01" y1="5067.50" x2="5149.01" y2="5068.50" stroke="black"/>
    <line x1="5149.01" y1="5068.50" x2="5149.01" y2="5069.50" stroke="black"/>
    <line x1="5149.01" y1="5069.50" x2="5149.01" y2="5070.50" stroke="black"/>
    <line x1="5149.01" y1="5070.50" x2="5149.01" y2="5071.50" stroke="black"/>
    <line x1="5149.01" y1="5071.50" x2="5149.01" y2="5072.50" stroke="black"/>
    <line x1="5149.01" y1="5072.50" x2="5149.88" y2="5073.00" stroke="black"/>
    <line x1="5149.88" y1="5073.00" x2="5150.74" y2="5073.50" stroke="black"/>
    <line x1="5150.74" y1="5073.50" x2="5151.61" y2="5074.00" stroke="black"/>
    <line x1="5151.61" y1="5074.00" x2="5152.47" y2="5074.50" stroke="black"/>
    <line x1="5152.47" y1="5074.50" x2="5153.34" y2="5075.00" stroke="black"/>
    <line x1="5153.34" y1="5075.00" x2="5154.21" y2="5074.50" stroke="black"/>
    <line x1="5154.21" y1="5074.50" x2="5155.07" y2="5074.00" stroke="black"/>
    <line x1="5155.07" y1="5074.00" x2="5155.94" y2="5073.50" stroke="black"/>
    <line x1="5155.94" y1="5073.50" x2="5156.80" y2="5073.00" stroke="black"/>
    <line x1="5156.80" y1="5073.00" x2="5157.67" y2="5072.50" stroke="black"/>
    <line x1="5157.67" y1="5072.50" x2="5158.54" y2="5073.00" stroke="black"/>
    <line x1="5158.54" y1="5073.00" x2="5159.40" y2="5073.50" stroke="black"/>
    <line x1="5159.40" y1="5073.50" x2="5160.27" y2="5074.00" stroke="black"/>
    <line x1="5160.27" y1="5074.00" x2="5161.13" y2="5074.50" stroke="black"/>
    <line x1="5161.13" y1="5074.50" x2="5162.00" y2="5075.00" stroke="black"/>
    <line x1="5162.00" y1="5075.00" x2="5162.00" y2="5076.00" stroke="black"/>
    <line x1="5162.00" y1="5076.00" x2="5162.00" y2="5077.00" stroke="black"/>
    <line x1="5162.00" y1="5077.00" x2="5162.00" y2="5078.00" stroke="black"/>
    <line x1="5162.00" y1="5078.00" x2="5162.00" y2="5079.00" stroke="black"/>
    <line x1="5162.00" y1="5079.00" x2="5162.00" y2="5080.00" stroke="black"/>
    <line x1="5162.00" y1="5080.00" x2="5161.13" y2="5080.50" stroke="black"/>
    <line x1="5161.13" y1="5080.50" x2="5160.27" y2="5081.00" stroke="black"/>
    <line x1="5160.27" y1="5081.00" x2="5159.40" y2="5081.50" stroke="black"/>
    <line x1="5159.40" y1="5081.50" x2="5158.54" y2="5082.00" stroke="black"/>
    <line x1="5158.54" y1="5082.00" x2="5157.67" y2="5082.50" stroke="black"/>
    <line x1="5157.67" y1="5082.50" x2="5157.67" y2="5083.50" stroke="black"/>
    <line x1="5157.67" y1="5083.50" x2="5157.67" y2="5084.50" stroke="black"/>
    <line x1="5157.67" y1="5084.50" x2="5157.67" y2="5085.50" stroke="black"/>
    <line x1="5157.67" y1="5085.50" x2="5157.67" y2="5086.50" stroke="black"/>
    <line x1="5157.67" y1="5086.50" x2="5157.67" y2="5087.50" stroke="black"/>
    <line x1="5157.67" y1="5087.50" x2="5158.54" y2="5088.00" stroke="black"/>
    <line x1="5158.54" y1="5088.00" x2="5159.40" y2="5088.50" stroke="black"/>
    <line x1="5159.40" y1="5088.50" x2="5160.27" y2="5089.00" stroke="black"/>
    <line x1="5160.27" y1="5089.00" x2="5161.13" y2="5089.50" stroke="black"/>
    <line x1="5161.13" y1="5089.50" x2="5162.00" y2="5090.00" stroke="black"/>
    <line x1="5162.00" y1="5090.00" x2="5162.00" y2="5091.00" stroke="black"/>
    <line x1="5162.00" y1="5091.00" x2="5162.00" y2="5092.00" stroke="black"/>
    <line x1="5162.00" y1="5092.00" x2="5162.00" y2="5093.00" stroke="black"/>
    <line x1="5162.00" y1="5093.00" x2="5162.00" y2="5094.00" stroke="black"/>
    <line x1="5162.00" y1="5094.00" x2="5162.00" y2="5095.00" stroke="black"/>
    <line x1="5162.00" y1="5095.00" x2="5161.13" y2="5095.50" stroke="black"/>
    <line x1="5161.13" y1="5095.50" x2="5160.27" y2="5096.00" stroke="black"/>
    <line x1="5160.27" y1="5096.00" x2="5159.40" y2="5096.50" stroke="black"/>
    <line x1="5159.40" y1="5096.50" x2="5158.54" y2="5097.00" stroke="black"/>
    <line x1="5158.54" y1="5097.00" x2="5157.67" y2="5097.50" stroke="black"/>
    <line x1="5157.67" y1="5097.50" x2="5156.80" y2="5097.00" stroke="black"/>
    <line x1="5156.80" y1="5097.00" x2="5155.94" y2="5096.50" stroke="black"/>
    <line x1="5155.94" y1="5096.50" x2="5155.07" y2="5096.00" stroke="black"/>
    <line x1="5155.07" y1="5096.00" x2="5154.21" y2="5095.50" stroke="black"/>
    <line x1="5154.21" y1="5095.50" x2="5153.34" y2="5095.00" stroke="black"/>
    <line x1="5153.34" y1="5095.00" x2="5153.34" y2="5094.00" stroke="black"/>
    <line x1="5153.34" y1="5094.00" x2="5153.34" y2="5093.00" stroke="black"/>
    <line x1="5153.34" y1="5093.00" x2="5153.34" y2="5092.00" stroke="black"/>
    <line x1="5153.34" y1="5092.00" x2="5153.34" y2="5091.00" stroke="black"/>
    <line x1="5153.34" y1="5091.00" x2="5153.34" y2="5090.00" stroke="black"/>
    <line x1="5153.34" y1="5090.00" x2="5152.47" y2="5089.50" stroke="black"/>
    <line x1="5152.47" y1="5089.50" x2="5151.61" y2="5089.00" stroke="black"/>
    <line x1="5151.61" y1="5089.00" x2="5150.74" y2="5088.50" stroke="black"/>
    <line x1="5150.74" y1="5088.50" x2="5149.88" y2="5088.00" stroke="black"/>
    <line x1="5149.88" y1="5088.00" x2="5149.01" y2="5087.50" stroke="black"/>
    <line x1="5149.01" y1="5087.50" x2="5148.14" y2="5088.00" stroke="black"/>
    <line x1="5148.14" y1="5088.00" x2="5147.28" y2="5088.50" stroke="black"/>
    <line x1="5147.28" y1="5088.50" x2="5146.41" y2="5089.00" stroke="black"/>
    <line x1="5146.41" y1="5089.00" x2="5145.55" y2="5089.50" stroke="black"/>
    <line x1="5145.55" y1="5089.50" x2="5144.68" y2="5090.00" stroke="black"/>
    <line x1="5144.68" y1="5090.00" x2="5144.68" y2="5091.00" stroke="black"/>
    <line x1="5144.68" y1="5091.00" x2="5144.68" y2="5092.00" stroke="black"/>
    <line x1="5144.68" y1="5092.00" x2="5144.68" y2="5093.00" stroke="black"/>
    <line x1="5144.68" y1="5093.00" x2="5144.68" y2="5094.00" stroke="black"/>
    <line x1="5144.68" y1="5094.00" x2="5144.68" y2="5095.00" stroke="black"/>
    <line x1="5144.68" y1="5095.00" x2="5143.81" y2="5095.50" stroke="black"/>
    <line x1="5143.81" y1="5095.50" x2="5142.95" y2="5096.00" stroke="black"/>
    <line x1="5142.95" y1="5096.00" x2="5142.08" y2="5096.50" stroke="black"/>
    <line x1="5142.08" y1="5096.50" x2="5141.22" y2="5097.00" stroke="black"/>
    <line x1="5141.22" y1="5097.00" x2="5140.35" y2="5097.50" stroke="black"/>
    <line x1="5140.35" y1="5097.50" x2="5139.48" y2="5097.00" stroke="black"/>
    <line x1="5139.48" y1="5097.00" x2="5138.62" y2="5096.50" stroke="black"/>
    <line x1="5138.62" y1="5096.50" x2="5137.75" y2="5096.00" stroke="black"/>
    <line x1="5137.75" y1="5096.00" x2="5136.89" y2="5095.50" stroke="black"/>
    <line x1="5136.89" y1="5095.50" x2="5136.02" y2="5095.00" stroke="black"/>
    <line x1="5136.02" y1="5095.00" x2="5135.15" y2="5095.50" stroke="black"/>
    <line x1="5135.15" y1="5095.50" x2="5134.29" y2="5096.00" stroke="black"/>
    <line x1="5134.29" y1="5096.00" x2="5133.42" y2="5096.50" stroke="black"/>
    <line x1="5133.42" y1="5096.50" x2="5132.56" y2="5097.00" stroke="black"/>
    <line x1="5132.56" y1="5097.00" x2="5131.69" y2="5097.50" stroke="black"/>
    <line x1="5131.69" y1="5097.50" x2="5131.69" y2="5098.50" stroke="black"/>
    <line x1="5131.69" y1="5098.50" x2="5131.69" y2="5099.50" stroke="black"/>
    <line x1="5131.69" y1="5099.50" x2="5131.69" y2="5100.50" stroke="black"/>
    <line x1="5131.69" y1="5100.50" x2="5131.69" y2="5101.50" stroke="black"/>
    <line x1="5131.69" y1="5101.50" x2="5131.69" y2="5102.50" stroke="black"/>
    <line x1="5131.69" y1="5102.50" x2="5132.56" y2="5103.00" stroke="black"/>
    <line x1="5132.56" y1="5103.00" x2="5133.42" y2="5103.50" stroke="black"/>
    <line x1="5133.42" y1="5103.50" x2="5134.29" y2="5104.00" stroke="black"/>
    <line x1="5134.29" y1="5104.00" x2="5135.15" y2="5104.50" stroke="black"/>
    <line x1="5135.15" y1="5104.50" x2="5136.02" y2="5105.00" stroke="black"/>
    <line x1="5136.02" y1="5105.00" x2="5136.89" y2="5104.50" stroke="black"/>
    <line x1="5136.89" y1="5104.50" x2="5137.75" y2="5104.00" stroke="black"/>
    <line x1="5137.75" y1="5104.00" x2="5138.62" y2="5103.50" stroke="black"/>
    <line x1="5138.62" y1="5103.50" x2="5139.48" y2="5103.00" stroke="black"/>
    <line x1="5139.48" y1="5103.00" x2="5140.35" y2="5102.50" stroke="black"/>
    <line x1="5140.35" y1="5102.50" x2="5141.22" y2="5103.00" stroke="black"/>
    <line x1="5141.22" y1="5103.00" x2="5142.08" y2="5103.50" stroke="black"/>
    <line x1="5142.08" y1="5103.50" x2="5142.95" y2="5104.00" stroke="black"/>
    <line x1="5142.95" y1="5104.00" x2="5143.81" y2="5104.50" stroke="black"/>
    <line x1="5143.81" y1="5104.50" x2="5144.68" y2="5105.00" stroke="black"/>
    <line x1="5144.68" y1="5105.00" x2="5144.68" y2="5106.00" stroke="black"/>
    <line x1="5144.68" y1="5106.00" x2="5144.68" y2="5107.00" stroke="black"/>
    <line x1="5144.68" y1="5107.00" x2="5144.68" y2="5108.00" stroke="black"/>
    <line x1="5144.68" y1="5108.00" x2="5144.68" y2="5109.00" stroke="black"/>
    <line x1="5144.68" y1="5109.00" x2="5144.68" y2="5110.00" stroke="black"/>
    <line x1="5144.68" y1="5110.00" x2="5145.55" y2="5110.50" stroke="black"/>
    <line x1="5145.55" y1="5110.50" x2="5146.41" y2="5111.00" stroke="black"/>
    <line x1="5146.41" y1="5111.00" x2="5147.28" y2="5111.50" stroke="black"/>
    <line x1="5147.28" y1="5111.50" x2="5148.14" y2="5112.00" stroke="black"/>
    <line x1="5148.14" y1="5112.00" x2="5149.01" y2="5112.50" stroke="black"/>
    <line x1="5149.01" y1="5112.50" x2="5149.88" y2="5112.00" stroke="black"/>
    <line x1="5149.88" y1="5112.00" x2="5150.74" y2="5111.50" stroke="black"/>
    <line x1="5150.74" y1="5111.50" x2="5151.61" y2="5111.00" stroke="black"/>
    <line x1="5151.61" y1="5111.00" x2="5152.47" y2="5110.50" stroke="black"/>
    <line x1="5152.47" y1="5110.50" x2="5153.34" y2="5110.00" stroke="black"/>
    <line x1="5153.34" y1="5110.00" x2="5153.34" y2="5109.00" stroke="black"/>
    <line x1="5153.34" y1="5109.00" x2="5153.34" y2="5108.00" stroke="black"/>
    <line x1="5153.34" y1="5108.00" x2="5153.34" y2="5107.00" stroke="black"/>
    <line x1="5153.34" y1="5107.00" x2="5153.34" y2="5106.00" stroke="black"/>
    <line x1="5153.34" y1="5106.00" x2="5153.34" y2="5105.00" stroke="black"/>
    <line x1="5153.34" y1="5105.00" x2="5154.21" y2="5104.50" stroke="black"/>
    <line x1="5154.21" y1="5104.50" x2="5155.07" y2="5104.00" stroke="black"/>
    <line x1="5155.07" y1="5104.00" x2="5155.94" y2="5103.50" stroke="black"/>
    <line x1="5155.94" y1="5103.50" x2="5156.80" y2="5103.00" stroke="black"/>
    <line x1="5156.80" y1="5103.00" x2="5157.67" y2="5102.50" stroke="black"/>
    <line x1="5157.67" y1="5102.50" x2="5158.54" y2="5103.00" stroke="black"/>
    <line x1="5158.54" y1="5103.00" x2="5159.40" y2="5103.50" stroke="black"/>
    <line x1="5159.40" y1="5103.50" x2="5160.27" y2="5104.00" stroke="black"/>
    <line x1="5160.27" y1="5104.00" x2="5161.13" y2="5104.50" stroke="black"/>
    <line x1="5161.13" y1="5104.50" x2="5162.00" y2="5105.00" stroke="black"/>
    <line x1="5162.00" y1="5105.00" x2="5162.00" y2="5106.00" stroke="black"/>
    <line x1="5162.00" y1="5106.00" x2="5162.00" y2="5107.00" stroke="black"/>
    <line x1="5162.00" y1="5107.00" x2="5162.00" y2="5108.00" stroke="black"/>
    <line x1="5162.00" y1="5108.00" x2="5162.00" y2="5109.00" stroke="black"/>
    <line x1="5162.00" y1="5109.00" x2="5162.00" y2="5110.00" stroke="black"/>
    <line x1="5162.00" y1="5110.00" x2="5161.13" y2="5110.50" stroke="black"/>
    <line x1="5161.13" y1="5110.50" x2="5160.27" y2="5111.00" stroke="black"/>
    <line x1="5160.27" y1="5111.00" x2="5159.40" y2="5111.50" stroke="black"/>
    <line x1="5159.40" y1="5111.50" x2="5158.54" y2="5112.00" stroke="black"/>
    <line x1="5158.54" y1="5112.00" x2="5157.67" y2="5112.50" stroke="black"/>
    <line x1="5157.67" y1="5112.50" x2="5157.67" y2="5113.50" stroke="black"/>
    <line x1="5157.67" y1="5113.50" x2="5157.67" y2="5114.50" stroke="black"/>
    <line x1="5157.67" y1="5114.50" x2="5157.67" y2="5115.50" stroke="black"/>
    <line x1="5157.67" y1="5115.50" x2="5157.67" y2="5116.50" stroke="black"/>
    <line x1="5157.67" y1="5116.50" x2="5157.67" y2="5117.50" stroke="black"/>
    <line x1="5157.67" y1="5117.50" x2="5158.54" y2="5118.00" stroke="black"/>
    <line x1="5158.54" y1="5118.00" x2="5159.40" y2="5118.50" stroke="black"/>
    <line x1="5159.40" y1="5118.50" x2="5160.27" y2="5119.00" stroke="black"/>
    <line x1="5160.27" y1="5119.00" x2="5161.13" y2="5119.50" stroke="black"/>
    <line x1="5161.13" y1="5119.50" x2="5162.00" y2="5120.00" stroke="black"/>
    <line x1="5162.00" y1="5120.00" x2="5162.00" y2="5121.00" stroke="black"/>
    <line x1="5162.00" y1="5121.00" x2="5162.00" y2="5122.00" stroke="black"/>
    <line x1="5162.00" y1="5122.00" x2="5162.00" y2="5123.00" stroke="black"/>
    <line x1="5162.00" y1="5123.00" x2="5162.00" y2="5124.00" stroke="black"/>
    <line x1="5162.00" y1="5124.00" x2="5162.00" y2="5125.00" stroke="black"/>
    <line x1="5162.00" y1="5125.00" x2="5161.13" y2="5125.50" stroke="black"/>
    <line x1="5161.13" y1="5125.50" x2="5160.27" y2="5126.00" stroke="black"/>
    <line x1="5160.27" y1="5126.00" x2="5159.40" y2="5126.50" stroke="black"/>
    <line x1="5159.40" y1="5126.50" x2="5158.54" y2="5127.00" stroke="black"/>
    <line x1="5158.54" y1="5127.00" x2="5157.67" y2="5127.50" stroke="black"/>
    <line x1="5157.67" y1="5127.50" x2="5156.80" y2="5127.00" stroke="black"/>
    <line x1="5156.80" y1="5127.00" x2="5155.94" y2="5126.50" stroke="black"/>
    <line x1="5155.94" y1="5126.50" x2="5155.07" y2="5126.00" stroke="black"/>
    <line x1="5155.07" y1="5126.00" x2="5154.21" y2="5125.50" stroke="black"/>
    <line x1="5154.21" y1="5125.50" x2="5153.34" y2="5125.00" stroke="black"/>
    <line x1="5153.34" y1="5125.00" x2="5152.47" y2="5125.50" stroke="black"/>
    <line x1="5152.47" y1="5125.50" x2="5151.61" y2="5126.00" stroke="black"/>
    <line x1="5151.61" y1="5126.00" x2="5150.74" y2="5126.50" stroke="black"/>
    <line x1="5150.74" y1="5126.50" x2="5149.88" y2="5127.00" stroke="black"/>
    <line x1="5149.88" y1="5127.00" x2="5149.01" y2="5127.50" stroke="black"/>
    <line x1="5149.01" y1="5127.50" x2="5149.01" y2="5128.50" stroke="black"/>
    <line x1="5149.01" y1="5128.50" x2="5149.01" y2="5129.50" stroke="black"/>
    <line x1="5149.01" y1="5129.50" x2="5149.01" y2="5130.50" stroke="black"/>
    <line x1="5149.01" y1="5130.50" x2="5149.01" y2="5131.50" stroke="black"/>
    <line x1="5149.01" y1="5131.50" x2="5149.01" y2="5132.50" stroke="black"/>
    <line x1="5149.01" y1="5132.50" x2="5149.88" y2="5133.00" stroke="black"/>
    <line x1="5149.88" y1="5133.00" x2="5150.74" y2="5133.50" stroke="black"/>
    <line x1="5150.74" y1="5133.50" x2="5151.61" y2="5134.00" stroke="black"/>
    <line x1="5151.61" y1="5134.00" x2="5152.47" y2="5134.50" stroke="black"/>
    <line x1="5152.47" y1="5134.50" x2="5153.34" y2="5135.00" stroke="black"/>
    <line x1="5153.34" y1="5135.00" x2="5154.21" y2="5134.50" stroke="black"/>
    <line x1="5154.21" y1="5134.50" x2="5155.07" y2="5134.00" stroke="black"/>
    <line x1="5155.07" y1="5134.00" x2="5155.94" y2="5133.50" stroke="black"/>
    <line x1="5155.94" y1="5133.50" x2="5156.80" y2="5133.00" stroke="black"/>
    <line x1="5156.80" y1="5133.00" x2="5157.67" y2="5132.50" stroke="black"/>
    <line x1="5157.67" y1="5132.50" x2="5158.54" y2="5133.00" stroke="black"/>
    <line x1="5158.54" y1="5133.00" x2="5159.40" y2="5133.50" stroke="black"/>
    <line x1="5159.40" y1="5133.50" x2="5160.27" y2="5134.00" stroke="black"/>
    <line x1="5160.27" y1="5134.00" x2="5161.13" y2="5134.50" stroke="black"/>
    <line x1="5161.13" y1="5134.50" x2="5162.00" y2="5135.00" stroke="black"/>
    <line x1="5162.00" y1="5135.00" x2="5162.00" y2="5136.00" stroke="black"/>
    <line x1="5162.00" y1="5136.00" x2="5162.00" y2="5137.00" stroke="black"/>
    <line x1="5162.00" y1="5137.00" x2="5162.00" y2="5138.00" stroke="black"/>
    <line x1="5162.00" y1="5138.00" x2="5162.00" y2="5139.00" stroke="black"/>
    <line x1="5162.00" y1="5139.00" x2="5162.00" y2="5140.00" stroke="black"/>
    <line x1="5162.00" y1="5140.00" x2="5161.13" y2="5140.50" stroke="black"/>
    <line x1="5161.13" y1="5140.50" x2="5160.27" y2="5141.00" stroke="black"/>
    <line x1="5160.27" y1="5141.00" x2="5159.40" y2="5141.50" stroke="black"/>
    <line x1="5159.40" y1="5141.50" x2="5158.54" y2="5142.00" stroke="black"/>
    <line x1="5158.54" y1="5142.00" x2="5157.67" y2="5142.50" stroke="black"/>
    <line x1="5157.67" y1="5142.50" x2="5157.67" y2="5143.50" stroke="black"/>
    <line x1="5157.67" y1="5143.50" x2="5157.67" y2="5144.50" stroke="black"/>
    <line x1="5157.67" y1="5144.50" x2="5157.67" y2="5145.50" stroke="black"/>
    <line x1="5157.67" y1="5145.50" x2="5157.67" y2="5146.50" stroke="black"/>
    <line x1="5157.67" y1="5146.50" x2="5157.67" y2="5147.50" stroke="black"/>
    <line x1="5157.67" y1="5147.50" x2="5158.54" y2="5148.00" stroke="black"/>
    <line x1="5158.54" y1="5148.00" x2="5159.40" y2="5148.50" stroke="black"/>
    <line x1="5159.40" y1="5148.50" x2="5160.27" y2="5149.00" stroke="black"/>
    <line x1="5160.27" y1="5149.00" x2="5161.13" y2="5149.50" stroke="black"/>
    <line x1="5161.13" y1="5149.50" x2="5162.00" y2="5150.00" stroke="black"/>
    <line x1="5162.00" y1="5150.00" x2="5162.00" y2="5151.00" stroke="black"/>
    <line x1="5162.00" y1="5151.00" x2="5162.00" y2="5152.00" stroke="black"/>
    <line x1="5162.00" y1="5152.00" x2="5162.00" y2="5153.00" stroke="black"/>
    <line x1="5162.00" y1="5153.00" x2="5162.00" y2="5154.00" stroke="black"/>
    <line x1="5162.00" y1="5154.00" x2="5162.00" y2="5155.00" stroke="black"/>
    <line x1="5162.00" y1="5155.00" x2="5161.13" y2="5155.50" stroke="black"/>
    <line x1="5161.13" y1="5155.50" x2="5160.27" y2="5156.00" stroke="black"/>
    <line x1="5160.27" y1="5156.00" x2="5159.40" y2="5156.50" stroke="black"/>
    <line x1="5159.40" y1="5156.50" x2="5158.54" y2="5157.00" stroke="black"/>
    <line x1="5158.54" y1="5157.00" x2="5157.67" y2="5157.50" stroke="black"/>
    <line x1="5157.67" y1="5157.50" x2="5156.80" y2="5157.00" stroke="black"/>
    <line x1="5156.80" y1="5157.00" x2="5155.94" y2="5156.50" stroke="black"/>
    <line x1="5155.94" y1="5156.50" x2="5155.07" y2="5156.00" stroke="black"/>
    <line x1="5155.07" y1="5156.00" x2="5154.21" y2="5155.50" stroke="black"/>
    <line x1="5154.21" y1="5155.50" x2="5153.34" y2="5155.00" stroke="black"/>
    <line x1="5153.34" y1="5155.00" x2="5153.34" y2="5154.00" stroke="black"/>
    <line x1="5153.34" y1="5154.00" x2="5153.34" y2="5153.00" stroke="black"/>
    <line x1="5153.34" y1="5153.00" x2="5153.34" y2="5152.00" stroke="black"/>
    <line x1="5153.34" y1="5152.00" x2="5153.34" y2="5151.00" stroke="black"/>
    <line x1="5153.34" y1="5151.00" x2="5153.34" y2="5150.00" stroke="black"/>
    <line x1="5153.34" y1="5150.00" x2="5152.47" y2="5149.50" stroke="black"/>
    <line x1="5152.47" y1="5149.50" x2="5151.61" y2="5149.00" stroke="black"/>
    <line x1="5151.61" y1="5149.00" x2="5150.74" y2="5148.50" stroke="black"/>
    <line x1="5150.74" y1="5148.50" x2="5149.88" y2="5148.00" stroke="black"/>
    <line x1="5149.88" y1="5148.00" x2="5149.01" y2="5147.50" stroke="black"/>
    <line x1="5149.01" y1="5147.50" x2="5148.14" y2="5148.00" stroke="black"/>
    <line x1="5148.14" y1="5148.00" x2="5147.28" y2="5148.50" stroke="black"/>
    <line x1="5147.28" y1="5148.50" x2="5146.41" y2="5149.00" stroke="black"/>
    <line x1="5146.41" y1="5149.00" x2="5145.55" y2="5149.50" stroke="black"/>
    <line x1="5145.55" y1="5149.50" x2="5144.68" y2="5150.00" stroke="black"/>
    <line x1="5144.68" y1="5150.00" x2="5143.81" y2="5149.50" stroke="black"/>
    <line x1="5143.81" y1="5149.50" x2="5142.95" y2="5149.00" stroke="black"/>
    <line x1="5142.95" y1="5149.00" x2="5142.08" y2="5148.50" stroke="black"/>
    <line x1="5142.08" y1="5148.50" x2="5141.22" y2="5148.00" stroke="black"/>
    <line x1="5141.22" y1="5148.00" x2="5140.35" y2="5147.50" stroke="black"/>
    <line x1="5140.35" y1="5147.50" x2="5140.35" y2="5146.50" stroke="black"/>
    <line x1="5140.35" y1="5146.50" x2="5140.35" y2="5145.50" stroke="black"/>
    <line x1="5140.35" y1="5145.50" x2="5140.35" y2="5144.50" stroke="black"/>
    <line x1="5140.35" y1="5144.50" x2="5140.35" y2="5143.50" stroke="black"/>
    <line x1="5140.35" y1="5143.50" x2="5140.35" y2="5142.50" stroke="black"/>
    <line x1="5140.35" y1="5142.50" x2="5141.22" y2="5142.00" stroke="black"/>
    <line x1="5141.22" y1="5142.00" x2="5142.08" y2="5141.50" stroke="black"/>
    <line x1="5142.08" y1="5141.50" x2="5142.95" y2="5141.00" stroke="black"/>
    <line x1="5142.95" y1="5141.00" x2="5143.81" y2="5140.50" stroke="black"/>
    <line x1="5143.81" y1="5140.50" x2="5144.68" y2="5140.00" stroke="black"/>
    <line x1="5144.68" y1="5140.00" x2="5144.68" y2="5139.00" stroke="black"/>
    <line x1="5144.68" y1="5139.00" x2="5144.68" y2="5138.00" stroke="black"/>
    <line x1="5144.68" y1="5138.00" x2="5144.68" y2="5137.00" stroke="black"/>
    <line x1="5144.68" y1="5137.00" x2="5144.68" y2="5136.00" stroke="black"/>
    <line x1="5144.68" y1="5136.00" x2="5144.68" y2="5135.00" stroke="black"/>
    <line x1="5144.68" y1="5135.00" x2="5143.81" y2="5134.50" stroke="black"/>
    <line x1="5143.81" y1="5134.50" x2="5142.95" y2="5134.00" stroke="black"/>
    <line x1="5142.95" y1="5134.00" x2="5142.08" y2="5133.50" stroke="black"/>
    <line x1="5142.08" y1="5133.50" x2="5141.22" y2="5133.00" stroke="black"/>
    <line x1="5141.22" y1="5133.00" x2="5140.35" y2="5132.50" stroke="black"/>
    <line x1="5140.35" y1="5132.50" x2="5139.48" y2="5133.00" stroke="black"/>
    <line x1="5139.48" y1="5133.00" x2="5138.62" y2="5133.50" stroke="black"/>
    <line x1="5138.62" y1="5133.50" x2="5137.75" y2="5134.00" stroke="black"/>
    <line x1="5137.75" y1="5134.00" x2="5136.89" y2="5134.50" stroke="black"/>
    <line x1="5136.89" y1="5134.50" x2="5136.02" y2="5135.00" stroke="black"/>
    <line x1="5136.02" y1="5135.00" x2="5136.02" y2="5136.00" stroke="black"/>
    <line x1="5136.02" y1="5136.00" x2="5136.02" y2="5137.00" stroke="black"/>
    <line x1="5136.02" y1="5137.00" x2="5136.02" y2="5138.00" stroke="black"/>
    <line x1="5136.02" y1="5138.00" x2="5136.02" y2="5139.00" stroke="black"/>
    <line x1="5136.02" y1="5139.00" x2="5136.02" y2="5140.00" stroke="black"/>
    <line x1="5136.02" y1="5140.00" x2="5135.15" y2="5140.50" stroke="black"/>
    <line x1="5135.15" y1="5140.50" x2="5134.29" y2="5141.00" stroke="black"/>
    <line x1="5134.29" y1="5141.00" x2="5133.42" y2="5141.50" stroke="black"/>
    <line x1="5133.42" y1="5141.50" x2="5132.56" y2="5142.00" stroke="black"/>
    <line x1="5132.56" y1="5142.00" x2="5131.69" y2="5142.50" stroke="black"/>
    <line x1="5131.69" y1="5142.50" x2="5130.82" y2="5142.00" stroke="black"/>
    <line x1="5130.82" y1="5142.00" x2="5129.96" y2="5141.50" stroke="black"/>
    <line x1="5129.96" y1="5141.50" x2="5129.09" y2="5141.00" stroke="black"/>
    <line x1="5129.09" y1="5141.00" x2="5128.23" y2="5140.50" stroke="black"/>
    <line x1="5128.23" y1="5140.50" x2="5127.36" y2="5140.00" stroke="black"/>
    <line x1="5127.36" y1="5140.00" x2="5127.36" y2="5139.00" stroke="black"/>
    <line x1="5127.36" y1="5139.00" x2="5127.36" y2="5138.00" stroke="black"/>
    <line x1="5127.36" y1="5138.00" x2="5127.36" y2="5137.00" stroke="black"/>
    <line x1="5127.36" y1="5137.00" x2="5127.36" y2="5136.00" stroke="black"/>
    <line x1="5127.36" y1="5136.00" x2="5127.36" y2="5135.00" stroke="black"/>
    <line x1="5127.36" y1="5135.00" x2="5126.49" y2="5134.50" stroke="black"/>
    <line x1="5126.49" y1="5134.50" x2="5125.63" y2="5134.00" stroke="black"/>
    <line x1="5125.63" y1="5134.00" x2="5124.76" y2="5133.50" stroke="black"/>
    <line x1="5124.76" y1="5133.50" x2="5123.89" y2="5133.00" stroke="black"/>
    <line x1="5123.89" y1="5133.00" x2="5123.03" y2="5132.50" stroke="black"/>
    <line x1="5123.03" y1="5132.50" x2="5122.16" y2="5133.00" stroke="black"/>
    <line x1="5122.16" y1="5133.00" x2="5121.30" y2="5133.50" stroke="black"/>
    <line x1="5121.30" y1="5133.50" x2="5120.43" y2="5134.00" stroke="black"/>
    <line x1="5120.43" y1="5134.00" x2="5119.56" y2="5134.50" stroke="black"/>
    <line x1="5119.56" y1="5134.50" x2="5118.70" y2="5135.00" stroke="black"/>
    <line x1="5118.70" y1="5135.00" x2="5117.83" y2="5134.50" stroke="black"/>
    <line x1="5117.83" y1="5134.50" x2="5116.97" y2="5134.00" stroke="black"/>
    <line x1="5116.97" y1="5134.00" x2="5116.10" y2="5133.50" stroke="black"/>
    <line x1="5116.10" y1="5133.50" x2="5115.23" y2="5133.00" stroke="black"/>
    <line x1="5115.23" y1="5133.00" x2="5114.37" y2="5132.50" stroke="black"/>
    <line x1="5114.37" y1="5132.50" x2="5114.37" y2="5131.50" stroke="black"/>
    <line x1="5114.37" y1="5131.50" x2="5114.37" y2="5130.50" stroke="black"/>
    <line x1="5114.37" y1="5130.50" x2="5114.37" y2="5129.50" stroke="black"/>
    <line x1="5114.37" y1="5129.50" x2="5114.37" y2="5128.50" stroke="black"/>
    <line x1="5114.37" y1="5128.50" x2="5114.37" y2="5127.50" stroke="black"/>
    <line x1="5114.37" y1="5127.50" x2="5115.23" y2="5127.00" stroke="black"/>
    <line x1="5115.23" y1="5127.00" x2="5116.10" y2="5126.50" stroke="black"/>
    <line x1="5116.10" y1="5126.50" x2="5116.97" y2="5126.00" stroke="black"/>
    <line x1="5116.97" y1="5126.00" x2="5117.83" y2="5125.50" stroke="black"/>
    <line x1="5117.83" y1="5125.50" x2="5118.70" y2="5125.00" stroke="black"/>
    <line x1="5118.70" y1="5125.00" x2="5119.56" y2="5125.50" stroke="black"/>
    <line x1="5119.56" y1="5125.50" x2="5120.43" y2="5126.00" stroke="black"/>
    <line x1="5120.43" y1="5126.00" x2="5121.30" y2="5126.50" stroke="black"/>
    <line x1="5121.30" y1="5126.50" x2="5122.16" y2="5127.00" stroke="black"/>
    <line x1="5122.16" y1="5127.00" x2="5123.03" y2="5127.50" stroke="black"/>
    <line x1="5123.03" y1="5127.50" x2="5123.89" y2="5127.00" stroke="black"/>
    <line x1="5123.89" y1="5127.00" x2="5124.76" y2="5126.50" stroke="black"/>
    <line x1="5124.76" y1="5126.50" x2="5125.63" y2="5126.00" stroke="black"/>
    <line x1="5125.63" y1="5126.00" x2="5126.49" y2="5125.50" stroke="black"/>
    <line x1="5126.49" y1="5125.50" x2="5127.36" y2="5125.00" stroke="black"/>
    <line x1="5127.36" y1="5125.00" x2="5127.36" y2="5124.00" stroke="black"/>
    <line x1="5127.36" y1="5124.00" x2="5127.36" y2="5123.00" stroke="black"/>
    <line x1="5127.36" y1="5123.00" x2="5127.36" y2="5122.00" stroke="black"/>
    <line x1="5127.36" y1="5122.00" x2="5127.36" y2="5121.00" stroke="black"/>
    <line x1="5127.36" y1="5121.00" x2="5127.36" y2="5120.00" stroke="black"/>
    <line x1="5127.36" y1="5120.00" x2="5126.49" y2="5119.50" stroke="black"/>
    <line x1="5126.49" y1="5119.50" x2="5125.63" y2="5119.00" stroke="black"/>
    <line x1="5125.63" y1="5119.00" x2="5124.76" y2="5118.50" stroke="black"/>
    <line x1="5124.76" y1="5118.50" x2="5123.89" y2="5118.00" stroke="black"/>
    <line x1="5123.89" y1="5118.00" x2="5123.03" y2="5117.50" stroke="black"/>
    <line x1="5123.03" y1="5117.50" x2="5123.03" y2="5116.50" stroke="black"/>
    <line x1="5123.03" y1="5116.50" x2="5123.03" y2="5115.50" stroke="black"/>
    <line x1="5123.03" y1="5115.50" x2="5123.03" y2="5114.50" stroke="black"/>
    <line x1="5123.03" y1="5114.50" x2="5123.03" y2="5113.50" stroke="black"/>
    <line x1="5123.03" y1="5113.50" x2="5123.03" y2="5112.50" stroke="black"/>
    <line x1="5123.03" y1="5112.50" x2="5123.89" y2="5112.00" stroke="black"/>
    <line x1="5123.89" y1="5112.00" x2="5124.76" y2="5111.50" stroke="black"/>
    <line x1="5124.76" y1="5111.50" x2="5125.63" y2="5111.00" stroke="black"/>
    <line x1="5125.63" y1="5111.00" x2="5126.49" y2="5110.50" stroke="black"/>
    <line x1="5126.49" y1="5110.50" x2="5127.36" y2="5110.00" stroke="black"/>
    <line x1="5127.36" y1="5110.00" x2="5127.36" y2="5109.00" stroke="black"/>
    <line x1="5127.36" y1="5109.00" x2="5127.36" y2="5108.00" stroke="black"/>
    <line x1="5127.36" y1="5108.00" x2="5127.36" y2="5107.00" stroke="black"/>
    <line x1="5127.36" y1="5107.00" x2="5127.36" y2="5106.00" stroke="black"/>
    <line x1="5127.36" y1="5106.00" x2="5127.36" y2="5105.00" stroke="black"/>
    <line x1="5127.36" y1="5105.00" x2="5126.49" y2="5104.50" stroke="black"/>
    <line x1="5126.49" y1="5104.50" x2="5125.63" y2="5104.00" stroke="black"/>
    <line x1="5125.63" y1="5104.00" x2="5124.76" y2="5103.50" stroke="black"/>
    <line x1="5124.76" y1="5103.50" x2="5123.89" y2="5103.00" stroke="black"/>
    <line x1="5123.89" y1="5103.00" x2="5123.03" y2="5102.50" stroke="black"/>
    <line x1="5123.03" y1="5102.50" x2="5122.16" y2="5103.00" stroke="black"/>
    <line x1="5122.16" y1="5103.00" x2="5121.30" y2="5103.50" stroke="black"/>
    <line x1="5121.30" y1="5103.50" x2="5120.43" y2="5104.00" stroke="black"/>
    <line x1="5120.43" y1="5104.00" x2="5119.56" y2="5104.50" stroke="black"/>
    <line x1="5119.56" y1="5104.50" x2="5118.70" y2="5105.00" stroke="black"/>
    <line x1="5118.70" y1="5105.00" x2="5118.70" y2="5106.00" stroke="black"/>
    <line x1="5118.70" y1="5106.00" x2="5118.70" y2="5107.00" stroke="black"/>
    <line x1="5118.70" y1="5107.00" x2="5118.70" y2="5108.00" stroke="black"/>
    <line x1="5118.70" y1="5108.00" x2="5118.70" y2="5109.00" stroke="black"/>
    <line x1="5118.70" y1="5109.00" x2="5118.70" y2="5110.00" stroke="black"/>
    <line x1="5118.70" y1="5110.00" x2="5117.83" y2="5110.50" stroke="black"/>
    <line x1="5117.83" y1="5110.50" x2="5116.97" y2="5111.00" stroke="black"/>
    <line x1="5116.97" y1="5111.00" x2="5116.10" y2="5111.50" stroke="black"/>
    <line x1="5116.10" y1="5111.50" x2="5115.23" y2="5112.00" stroke="black"/>
    <line x1="5115.23" y1="5112.00" x2="5114.37" y2="5112.50" stroke="black"/>
    <line x1="5114.37" y1="5112.50" x2="5113.50" y2="5112.00" stroke="black"/>
    <line x1="5113.50" y1="5112.00" x2="5112.64" y2="5111.50" stroke="black"/>
    <line x1="5112.64" y1="5111.50" x2="5111.77" y2="5111.00" stroke="black"/>
    <line x1="5111.77" y1="5111.00" x2="5110.90" y2="5110.50" stroke="black"/>
    <line x1="5110.90" y1="5110.50" x2="5110.04" y2="5110.00" stroke="black"/>
    <line x1="5110.04" y1="5110.00" x2="5109.17" y2="5110.50" stroke="black"/>
    <line x1="5109.17" y1="5110.50" x2="5108.31" y2="5111.00" stroke="black"/>
    <line x1="5108.31" y1="5111.00" x2="5107.44" y2="5111.50" stroke="black"/>
    <line x1="5107.44" y1="5111.50" x2="5106.57" y2="5112.00" stroke="black"/>
    <line x1="5106.57" y1="5112.00" x2="5105.71" y2="5112.50" stroke="black"/>
    <line x1="5105.71" y1="5112.50" x2="5105.71" y2="5113.50" stroke="black"/>
    <line x1="5105.71" y1="5113.50" x2="5105.71" y2="5114.50" stroke="black"/>
    <line x1="5105.71" y1="5114.50" x2="5105.71" y2="5115.50" stroke="black"/>
    <line x1="5105.71" y1="5115.50" x2="5105.71" y2="5116.50" stroke="black"/>
    <line x1="5105.71" y1="5116.50" x2="5105.71" y2="5117.50" stroke="black"/>
    <line x1="5105.71" y1="5117.50" x2="5106.57" y2="5118.00" stroke="black"/>
    <line x1="5106.57" y1="5118.00" x2="5107.44" y2="5118.50" stroke="black"/>
    <line x1="5107.44" y1="5118.50" x2="5108.31" y2="5119.00" stroke="black"/>
    <line x1="5108.31" y1="5119.00" x2="5109.17" y2="5119.50" stroke="black"/>
    <line x1="5109.17" y1="5119.50" x2="5110.04" y2="5120.00" stroke="black"/>
    <line x1="5110.04" y1="5120.00" x2="5110.04" y2="5121.00" stroke="black"/>
    <line x1="5110.04" y1="5121.00" x2="5110.04" y2="5122.00" stroke="black"/>
    <line x1="5110.04" y1="5122.00" x2="5110.04" y2="5123.00" stroke="black"/>
    <line x1="5110.04" y1="5123.00" x2="5110.04" y2="5124.00" stroke="black"/>
    <line x1="5110.04" y1="5124.00" x2="5110.04" y2="5125.00" stroke="black"/>
    <line x1="5110.04" y1="5125.00" x2="5109.17" y2="5125.50" stroke="black"/>
    <line x1="5109.17" y1="5125.50" x2="5108.31" y2="5126.00" stroke="black"/>
    <line x1="5108.31" y1="5126.00" x2="5107.44" y2="5126.50" stroke="black"/>
    <line x1="5107.44" y1="5126.50" x2="5106.57" y2="5127.00" stroke="black"/>
    <line x1="5106.57" y1="5127.00" x2="5105.71" y2="5127.50" stroke="black"/>
    <line x1="5105.71" y1="5127.50" x2="5104.84" y2="5127.00" stroke="black"/>
    <line x1="5104.84" y1="5127.00" x2="5103.98" y2="5126.50" stroke="black"/>
    <line x1="5103.98" y1="5126.50" x2="5103.11" y2="5126.00" stroke="black"/>
    <line x1="5103.11" y1="5126.00" x2="5102.24" y2="5125.50" stroke="black"/>
    <line x1="5102.24" y1="5125.50" x2="5101.38" y2="5125.00" stroke="black"/>
    <line x1="5101.38" y1="5125.00" x2="5101.38" y2="5124.00" stroke="black"/>
    <line x1="5101.38" y1="5124.00" x2="5101.38" y2="5123.00" stroke="black"/>
    <line x1="5101.38" y1="5123.00" x2="5101.38" y2="5122.00" stroke="black"/>
    <line x1="5101.38" y1="5122.00" x2="5101.38" y2="5121.00" stroke="black"/>
    <line x1="5101.38" y1="5121.00" x2="5101.38" y2="5120.00" stroke="black"/>
    <line x1="5101.38" y1="5120.00" x2="5100.51" y2="5119.50" stroke="black"/>
    <line x1="5100.51" y1="5119.50" x2="5099.65" y2="5119.00" stroke="black"/>
    <line x1="5099.65" y1="5119.00" x2="5098.78" y2="5118.50" stroke="black"/>
    <line x1="5098.78" y1="5118.50" x2="5097.91" y2="5118.00" stroke="black"/>
    <line x1="5097.91" y1="5118.00" x2="5097.05" y2="5117.50" stroke="black"/>
    <line x1="5097.05" y1="5117.50" x2="5096.18" y2="5118.00" stroke="black"/>
    <line x1="5096.18" y1="5118.00" x2="5095.32" y2="5118.50" stroke="black"/>
    <line x1="5095.32" y1="5118.50" x2="5094.45" y2="5119.00" stroke="black"/>
    <line x1="5094.45" y1="5119.00" x2="5093.58" y2="5119.50" stroke="black"/>
    <line x1="5093.58" y1="5119.50" x2="5092.72" y2="5120.00" stroke="black"/>
    <line x1="5092.72" y1="5120.00" x2="5091.85" y2="5119.50" stroke="black"/>
    <line x1="5091.85" y1="5119.50" x2="5090.99" y2="5119.00" stroke="black"/>
    <line x1="5090.99" y1="5119.00" x2="5090.12" y2="5118.50" stroke="black"/>
    <line x1="5090.12" y1="5118.50" x2="5089.25" y2="5118.00" stroke="black"/>
    <line x1="5089.25" y1="5118.00" x2="5088.39" y2="5117.50" stroke="black"/>
    <line x1="5088.39" y1="5117.50" x2="5088.39" y2="5116.50" stroke="black"/>
    <line x1="5088.39" y1="5116.50" x2="5088.39" y2="5115.50" stroke="black"/>
    <line x1="5088.39" y1="5115.50" x2="5088.39" y2="5114.50" stroke="black"/>
    <line x1="5088.39" y1="5114.50" x2="5088.39" y2="5113.50" stroke="black"/>
    <line x1="5088.39" y1="5113.50" x2="5088.39" y2="5112.50" stroke="black"/>
    <line x1="5088.39" y1="5112.50" x2="5089.25" y2="5112.00" stroke="black"/>
    <line x1="5089.25" y1="5112.00" x2="5090.12" y2="5111.50" stroke="black"/>
    <line x1="5090.12" y1="5111.50" x2="5090.99" y2="5111.00" stroke="black"/>
    <line x1="5090.99" y1="5111.00" x2="5091.85" y2="5110.50" stroke="black"/>
    <line x1="5091.85" y1="5110.50" x2="5092.72" y2="5110.00" stroke="black"/>
    <line x1="5092.72" y1="5110.00" x2="5092.72" y2="5109.00" stroke="black"/>
    <line x1="5092.72" y1="5109.00" x2="5092.72" y2="5108.00" stroke="black"/>
    <line x1="5092.72" y1="5108.00" x2="5092.72" y2="5107.00" stroke="black"/>
    <line x1="5092.72" y1="5107.00" x2="5092.72" y2="5106.00" stroke="black"/>
    <line x1="5092.72" y1="5106.00" x2="5092.72" y2="5105.00" stroke="black"/>
    <line x1="5092.72" y1="5105.00" x2="5091.85" y2="5104.50" stroke="black"/>
    <line x1="5091.85" y1="5104.50" x2="5090.99" y2="5104.00" stroke="black"/>
    <line x1="5090.99" y1="5104.00" x2="5090.12" y2="5103.50" stroke="black"/>
    <line x1="5090.12" y1="5103.50" x2="5089.25" y2="5103.00" stroke="black"/>
    <line x1="5089.25" y1="5103.00" x2="5088.39" y2="5102.50" stroke="black"/>
    <line x1="5088.39" y1="5102.50" x2="5087.52" y2="5103.00" stroke="black"/>
    <line x1="5087.52" y1="5103.00" x2="5086.66" y2="5103.50" stroke="black"/>
    <line x1="5086.66" y1="5103.50" x2="5085.79" y2="5104.00" stroke="black"/>
    <line x1="5085.79" y1="5104.00" x2="5084.92" y2="5104.50" stroke="black"/>
    <line x1="5084.92" y1="5104.50" x2="5084.06" y2="5105.00" stroke="black"/>
    <line x1="5084.06" y1="5105.00" x2="5084.06" y2="5106.00" stroke="black"/>
    <line x1="5084.06" y1="5106.00" x2="5084.06" y2="5107.00" stroke="black"/>
    <line x1="5084.06" y1="5107.00" x2="5084.06" y2="5108.00" stroke="black"/>
    <line x1="5084.06" y1="5108.00" x2="5084.06" y2="5109.00" stroke="black"/>
    <line x1="5084.06" y1="5109.00" x2="5084.06" y2="5110.00" stroke="black"/>
    <line x1="5084.06" y1="5110.00" x2="5083.19" y2="5110.50" stroke="black"/>
    <line x1="5083.19" y1="5110.50" x2="5082.33" y2="5111.00" stroke="black"/>
    <line x1="5082.33" y1="5111.00" x2="5081.46" y2="5111.50" stroke="black"/>
    <line x1="5081.46" y1="5111.50" x2="5080.59" y2="5112.00" stroke="black"/>
    <line x1="5080.59" y1="5112.00" x2="5079.73" y2="5112.50" stroke="black"/>
    <line x1="5079.73" y1="5112.50" x2="5078.86" y2="5112.00" stroke="black"/>
    <line x1="5078.86" y1="5112.00" x2="5078.00" y2="5111.50" stroke="black"/>
    <line x1="5078.00" y1="5111.50" x2="5077.13" y2="5111.00" stroke="black"/>
    <line x1="5077.13" y1="5111.00" x2="5076.26" y2="5110.50" stroke="black"/>
    <line x1="5076.26" y1="5110.50" x2="5075.40" y2="5110.00" stroke="black"/>
    <line x1="5075.40" y1="5110.00" x2="5075.40" y2="5109.00" stroke="black"/>
    <line x1="5075.40" y1="5109.00" x2="5075.40" y2="5108.00" stroke="black"/>
    <line x1="5075.40" y1="5108.00" x2="5075.40" y2="5107.00" stroke="black"/>
    <line x1="5075.40" y1="5107.00" x2="5075.40" y2="5106.00" stroke="black"/>
    <line x1="5075.40" y1="5106.00" x2="5075.40" y2="5105.00" stroke="black"/>
    <line x1="5075.40" y1="5105.00" x2="5074.53" y2="5104.50" stroke="black"/>
    <line x1="5074.53" y1="5104.50" x2="5073.67" y2="5104.00" stroke="black"/>
    <line x1="5073.67" y1="5104.00" x2="5072.80" y2="5103.50" stroke="black"/>
    <line x1="5072.80" y1="5103.50" x2="5071.93" y2="5103.00" stroke="black"/>
    <line x1="5071.93" y1="5103.00" x2="5071.07" y2="5102.50" stroke="black"/>
    <line x1="5071.07" y1="5102.50" x2="5070.20" y2="5103.00" stroke="black"/>
    <line x1="5070.20" y1="5103.00" x2="5069.34" y2="5103.50" stroke="black"/>
    <line x1="5069.34" y1="5103.50" x2="5068.47" y2="5104.00" stroke="black"/>
    <line x1="5068.47" y1="5104.00" x2="5067.60" y2="5104.50" stroke="black"/>
    <line x1="5067.60" y1="5104.50" x2="5066.74" y2="5105.00" stroke="black"/>
    <line x1="5066.74" y1="5105.00" x2="5065.87" y2="5104.50" stroke="black"/>
    <line x1="5065.87" y1="5104.50" x2="5065.01" y2="5104.00" stroke="black"/>
    <line x1="5065.01" y1="5104.00" x2="5064.14" y2="5103.50" stroke="black"/>
    <line x1="5064.14" y1="5103.50" x2="5063.27" y2="5103.00" stroke="black"/>
    <line x1="5063.27" y1="5103.00" x2="5062.41" y2="5102.50" stroke="black"/>
    <line x1="5062.41" y1="5102.50" x2="5062.41" y2="5101.50" stroke="black"/>
    <line x1="5062.41" y1="5101.50" x2="5062.41" y2="5100.50" stroke="black"/>
    <line x1="5062.41" y1="5100.50" x2="5062.41" y2="5099.50" stroke="black"/>
    <line x1="5062.41" y1="5099.50" x2="5062.41" y2="5098.50" stroke="black"/>
    <line x1="5062.41" y1="5098.50" x2="5062.41" y2="5097.50" stroke="black"/>
    <line x1="5062.41" y1="5097.50" x2="5063.27" y2="5097.00" stroke="black"/>
    <line x1="5063.27" y1="5097.00" x2="5064.14" y2="5096.50" stroke="black"/>
    <line x1="5064.14" y1="5096.50" x2="5065.01" y2="5096.00" stroke="black"/>
    <line x1="5065.01" y1="5096.00" x2="5065.87" y2="5095.50" stroke="black"/>
    <line x1="5065.87" y1="5095.50" x2="5066.74" y2="5095.00" stroke="black"/>
    <line x1="5066.74" y1="5095.00" x2="5067.60" y2="5095.50" stroke="black"/>
    <line x1="5067.60" y1="5095.50" x2="5068.47" y2="5096.00" stroke="black"/>
    <line x1="5068.47" y1="5096.00" x2="5069.34" y2="5096.50" stroke="black"/>
    <line x1="5069.34" y1="5096.50" x2="5070.20" y2="5097.00" stroke="black"/>
    <line x1="5070.20" y1="5097.00" x2="5071.07" y2="5097.50" stroke="black"/>
    <line x1="5071.07" y1="5097.50" x2="5071.93" y2="5097.00" stroke="black"/>
    <line x1="5071.93" y1="5097.00" x2="5072.80" y2="5096.50" stroke="black"/>
    <line x1="5072.80" y1="5096.50" x2="5073.67" y2="5096.00" stroke="black"/>
    <line x1="5073.67" y1="5096.00" x2="5074.53" y2="5095.50" stroke="black"/>
    <line x1="5074.53" y1="5095.50" x2="5075.40" y2="5095.00" stroke="black"/>
    <line x1="5075.40" y1="5095.00" x2="5075.40" y2="5094.00" stroke="black"/>
    <line x1="5075.40" y1="5094.00" x2="5075.40" y2="5093.00" stroke="black"/>
    <line x1="5075.40" y1="5093.00" x2="5075.40" y2="5092.00" stroke="black"/>
    <line x1="5075.40" y1="5092.00" x2="5075.40" y2="5091.00" stroke="black"/>
    <line x1="5075.40" y1="5091.00" x2="5075.40" y2="5090.00" stroke="black"/>
    <line x1="5075.40" y1="5090.00" x2="5076.26" y2="5089.50" stroke="black"/>
    <line x1="5076.26" y1="5089.50" x2="5077.13" y2="5089.00" stroke="black"/>
    <line x1="5077.13" y1="5089.00" x2="5078.00" y2="5088.50" stroke="black"/>
    <line x1="5078.00" y1="5088.50" x2="5078.86" y2="5088.00" stroke="black"/>
    <line x1="5078.86" y1="5088.00" x2="5079.73" y2="5087.50" stroke="black"/>
    <line x1="5079.73" y1="5087.50" x2="5080.59" y2="5088.00" stroke="black"/>
    <line x1="5080.59" y1="5088.00" x2="5081.46" y2="5088.50" stroke="black"/>
    <line x1="5081.46" y1="5088.50" x2="5082.33" y2="5089.00" stroke="black"/>
    <line x1="5082.33" y1="5089.00" x2="5083.19" y2="5089.50" stroke="black"/>
    <line x1="5083.19" y1="5089.50" x2="5084.06" y2="5090.00" stroke="black"/>
    <line x1="5084.06" y1="5090.00" x2="5084.06" y2="5091.00" stroke="black"/>
    <line x1="5084.06" y1="5091.00" x2="5084.06" y2="5092.00" stroke="black"/>
    <line x1="5084.06" y1="5092.00" x2="5084.06" y2="5093.00" stroke="black"/>
    <line x1="5084.06" y1="5093.00" x2="5084.06" y2="5094.00" stroke="black"/>
    <line x1="5084.06" y1="5094.00" x2="5084.06" y2="5095.00" stroke="black"/>
    <line x1="5084.06" y1="5095.00" x2="5084.92" y2="5095.50" stroke="black"/>
    <line x1="5084.92" y1="5095.50" x2="5085.79" y2="5096.00" stroke="black"/>
    <line x1="5085.79" y1="5096.00" x2="5086.66" y2="5096.50" stroke="black"/>
    <line x1="5086.66" y1="5096.50" x2="5087.52" y2="5097.00" stroke="black"/>
    <line x1="5087.52" y1="5097.00" x2="5088.39" y2="5097.50" stroke="black"/>
    <line x1="5088.39" y1="5097.50" x2="5089.25" y2="5097.00" stroke="black"/>
    <line x1="5089.25" y1="5097.00" x2="5090.12" y2="5096.50" stroke="black"/>
    <line x1="5090.12" y1="5096.50" x2="5090.99" y2="5096.00" stroke="black"/>
    <line x1="5090.99" y1="5096.00" x2="5091.85" y2="5095.50" stroke="black"/>
    <line x1="5091.85" y1="5095.50" x2="5092.72" y2="5095.00" stroke="black"/>
    <line x1="5092.72" y1="5095.00" x2="5092.72" y2="5094.00" stroke="black"/>
    <line x1="5092.72" y1="5094.00" x2="5092.72" y2="5093.00" stroke="black"/>
    <line x1="5092.72" y1="5093.00" x2="5092.72" y2="5092.00" stroke="black"/>
    <line x1="5092.72" y1="5092.00" x2="5092.72" y2="5091.00" stroke="black"/>
    <line x1="5092.72" y1="5091.00" x2="5092.72" y2="5090.00" stroke="black"/>
    <line x1="5092.72" y1="5090.00" x2="5091.85" y2="5089.50" stroke="black"/>
    <line x1="5091.85" y1="5089.50" x2="5090.99" y2="5089.00" stroke="black"/>
    <line x1="5090.99" y1="5089.00" x2="5090.12" y2="5088.50" stroke="black"/>
    <line x1="5090.12" y1="5088.50" x2="5089.25" y2="5088.00" stroke="black"/>
    <line x1="5089.25" y1="5088.00" x2="5088.39" y2="5087.50" stroke="black"/>
    <line x1="5088.39" y1="5087.50" x2="5088.39" y2="5086.50" stroke="black"/>
    <line x1="5088.39" y1="5086.50" x2="5088.39" y2="5085.50" stroke="black"/>
    <line x1="5088.39" y1="5085.50" x2="5088.39" y2="5084.50" stroke="black"/>
    <line x1="5088.39" y1="5084.50" x2="5088.39" y2="5083.50" stroke="black"/>
    <line x1="5088.39" y1="5083.50" x2="5088.39" y2="5082.50" stroke="black"/>
    <line x1="5088.39" y1="5082.50" x2="5089.25" y2="5082.00" stroke="black"/>
    <line x1="5089.25" y1="5082.00" x2="5090.12" y2="5081.50" stroke="black"/>
    <line x1="5090.12" y1="5081.50" x2="5090.99" y2="5081.00" stroke="black"/>
    <line x1="5090.99" y1="5081.00" x2="5091.85" y2="5080.50" stroke="black"/>
    <line x1="5091.85" y1="5080.50" x2="5092.72" y2="5080.00" stroke="black"/>
    <line x1="5092.72" y1="5080.00" x2="5092.72" y2="5079.00" stroke="black"/>
    <line x1="5092.72" y1="5079.00" x2="5092.72" y2="5078.00" stroke="black"/>
    <line x1="5092.72" y1="5078.00" x2="5092.72" y2="5077.00" stroke="black"/>
    <line x1="5092.72" y1="5077.00" x2="5092.72" y2="5076.00" stroke="black"/>
    <line x1="5092.72" y1="5076.00" x2="5092.72" y2="5075.00" stroke="black"/>
    <line x1="5092.72" y1="5075.00" x2="5091.85" y2="5074.50" stroke="black"/>
    <line x1="5091.85" y1="5074.50" x2="5090.99" y2="5074.00" stroke="black"/>
    <line x1="5090.99" y1="5074.00" x2="5090.12" y2="5073.50" stroke="black"/>
    <line x1="5090.12" y1="5073.50" x2="5089.25" y2="5073.00" stroke="black"/>
    <line x1="5089.25" y1="5073.00" x2="5088.39" y2="5072.50" stroke="black"/>
    <line x1="5088.39" y1="5072.50" x2="5087.52" y2="5073.00" stroke="black"/>
    <line x1="5087.52" y1="5073.00" x2="5086.66" y2="5073.50" stroke="black"/>
    <line x1="5086.66" y1="5073.50" x2="5085.79" y2="5074.00" stroke="black"/>
    <line x1="5085.79" y1="5074.00" x2="5084.92" y2="5074.50" stroke="black"/>
    <line x1="5084.92" y1="5074.50" x2="5084.06" y2="5075.00" stroke="black"/>
    <line x1="5084.06" y1="5075.00" x2="5083.19" y2="5074.50" stroke="black"/>
    <line x1="5083.19" y1="5074.50" x2="5082.33" y2="5074.00" stroke="black"/>
    <line x1="5082.33" y1="5074.00" x2="5081.46" y2="5073.50" stroke="black"/>
    <line x1="5081.46" y1="5073.50" x2="5080.59" y2="5073.00" stroke="black"/>
    <line x1="5080.59" y1="5073.00" x2="5079.73" y2="5072.50" stroke="black"/>
    <line x1="5079.73" y1="5072.50" x2="5079.73" y2="5071.50" stroke="black"/>
    <line x1="5079.73" y1="5071.50" x2="5079.73" y2="5070.50" stroke="black"/>
    <line x1="5079.73" y1="5070.50" x2="5079.73" y2="5069.50" stroke="black"/>
    <line x1="5079.73" y1="5069.50" x2="5079.73" y2="5068.50" stroke="black"/>
    <line x1="5079.73" y1="5068.50" x2="5079.73" y2="5067.50" stroke="black"/>
    <line x1="5079.73" y1="5067.50" x2="5080.59" y2="5067.00" stroke="black"/>
    <line x1="5080.59" y1="5067.00" x2="5081.46" y2="5066.50" stroke="black"/>
    <line x1="5081.46" y1="5066.50" x2="5082.33" y2="5066.00" stroke="black"/>
    <line x1="5082.33" y1="5066.00" x2="5083.19" y2="5065.50" stroke="black"/>
    <line x1="5083.19" y1="5065.50" x2="5084.06" y2="5065.00" stroke="black"/>
    <line x1="5084.06" y1="5065.00" x2="5084.92" y2="5065.50" stroke="black"/>
    <line x1="5084.92" y1="5065.50" x2="5085.79" y2="5066.00" stroke="black"/>
    <line x1="5085.79" y1="5066.00" x2="5086.66" y2="5066.50" stroke="black"/>
    <line x1="5086.66" y1="5066.50" x2="5087.52" y2="5067.00" stroke="black"/>
    <line x1="5087.52" y1="5067.00" x2="5088.39" y2="5067.50" stroke="black"/>
    <line x1="5088.39" y1="5067.50" x2="5089.25" y2="5067.00" stroke="black"/>
    <line x1="5089.25" y1="5067.00" x2="5090.12" y2="5066.50" stroke="black"/>
    <line x1="5090.12" y1="5066.50" x2="5090.99" y2="5066.00" stroke="black"/>
    <line x1="5090.99" y1="5066.00" x2="5091.85" y2="5065.50" stroke="black"/>
    <line x1="5091.85" y1="5065.50" x2="5092.72" y2="5065.00" stroke="black"/>
    <line x1="5092.72" y1="5065.00" x2="5092.72" y2="5064.00" stroke="black"/>
    <line x1="5092.72" y1="5064.00" x2="5092.72" y2="5063.00" stroke="black"/>
    <line x1="5092.72" y1="5063.00" x2="5092.72" y2="5062.00" stroke="black"/>
    <line x1="5092.72" y1="5062.00" x2="5092.72" y2="5061.00" stroke="black"/>
    <line x1="5092.72" y1="5061.00" x2="5092.72" y2="5060.00" stroke="black"/>
    <line x1="5092.72" y1="5060.00" x2="5091.85" y2="5059.50" stroke="black"/>
    <line x1="5091.85" y1="5059.50" x2="5090.99" y2="5059.00" stroke="black"/>
    <line x1="5090.99" y1="5059.00" x2="5090.12" y2="5058.50" stroke="black"/>
    <line x1="5090.12" y1="5058.50" x2="5089.25" y2="5058.00" stroke="black"/>
    <line x1="5089.25" y1="5058.00" x2="5088.39" y2="5057.50" stroke="black"/>
    <line x1="5088.39" y1="5057.50" x2="5088.39" y2="5056.50" stroke="black"/>
    <line x1="5088.39" y1="5056.50" x2="5088.39" y2="5055.50" stroke="black"/>
    <line x1="5088.39" y1="5055.50" x2="5088.39" y2="5054.50" stroke="black"/>
    <line x1="5088.39" y1="5054.50" x2="5088.39" y2="5053.50" stroke="black"/>
    <line x1="5088.39" y1="5053.50" x2="5088.39" y2="5052.50" stroke="black"/>
    <line x1="5088.39" y1="5052.50" x2="5089.25" y2="5052.00" stroke="black"/>
    <line x1="5089.25" y1="5052.00" x2="5090.12" y2="5051.50" stroke="black"/>
    <line x1="5090.12" y1="5051.50" x2="5090.99" y2="5051.00" stroke="black"/>
    <line x1="5090.99" y1="5051.00" x2="5091.85" y2="5050.50" stroke="black"/>
    <line x1="5091.85" y1="5050.50" x2="5092.72" y2="5050.00" stroke="black"/>
    <line x1="5092.72" y1="5050.00" x2="5092.72" y2="5049.00" stroke="black"/>
    <line x1="5092.72" y1="5049.00" x2="5092.72" y2="5048.00" stroke="black"/>
    <line x1="5092.72" y1="5048.00" x2="5092.72" y2="5047.00" stroke="black"/>
    <line x1="5092.72" y1="5047.00" x2="5092.72" y2="5046.00" stroke="black"/>
    <line x1="5092.72" y1="5046.00" x2="5092.72" y2="5045.00" stroke="black"/>
    <line x1="5092.72" y1="5045.00" x2="5091.85" y2="5044.50" stroke="black"/>
    <line x1="5091.85" y1="5044.50" x2="5090.99" y2="5044.00" stroke="black"/>
    <line x1="5090.99" y1="5044.00" x2="5090.12" y2="5043.50" stroke="black"/>
    <line x1="5090.12" y1="5043.50" x2="5089.25" y2="5043.00" stroke="black"/>
    <line x1="5089.25" y1="5043.00" x2="5088.39" y2="5042.50" stroke="black"/>
    <line x1="5088.39" y1="5042.50" x2="5087.52" y2="5043.00" stroke="black"/>
    <line x1="5087.52" y1="5043.00" x2="5086.66" y2="5043.50" stroke="black"/>
    <line x1="5086.66" y1="5043.50" x2="5085.79" y2="5044.00" stroke="black"/>
    <line x1="5085.79" y1="5044.00" x2="5084.92" y2="5044.50" stroke="black"/>
    <line x1="5084.92" y1="5044.50" x2="5084.06" y2="5045.00" stroke="black"/>
    <line x1="5084.06" y1="5045.00" x2="5084.06" y2="5046.00" stroke="black"/>
    <line x1="5084.06" y1="5046.00" x2="5084.06" y2="5047.00" stroke="black"/>
    <line x1="5084.06" y1="5047.00" x2="5084.06" y2="5048.00" stroke="black"/>
    <line x1="5084.06" y1="5048.00" x2="5084.06" y2="5049.00" stroke="black"/>
    <line x1="5084.06" y1="5049.00" x2="5084.06" y2="5050.00" stroke="black"/>
    <line x1="5084.06" y1="5050.00" x2="5083.19" y2="5050.50" stroke="black"/>
    <line x1="5083.19" y1="5050.50" x2="5082.33" y2="5051.00" stroke="black"/>
    <line x1="5082.33" y1="5051.00" x2="5081.46" y2="5051.50" stroke="black"/>
    <line x1="5081.46" y1="5051.50" x2="5080.59" y2="5052.00" stroke="black"/>
    <line x1="5080.59" y1="5052.00" x2="5079.73" y2="5052.50" stroke="black"/>
    <line x1="5079.73" y1="5052.50" x2="5078.86" y2="5052.00" stroke="black"/>
    <line x1="5078.86" y1="5052.00" x2="5078.00" y2="5051.50" stroke="black"/>
    <line x1="5078.00" y1="5051.50" x2="5077.13" y2="5051.00" stroke="black"/>
    <line x1="5077.13" y1="5051.00" x2="5076.26" y2="5050.50" stroke="black"/>
    <line x1="5076.26" y1="5050.50" x2="5075.40" y2="5050.00" stroke="black"/>
    <line x1="5075.40" y1="5050.00" x2="5074.53" y2="5050.50" stroke="black"/>
    <line x1="5074.53" y1="5050.50" x2="5073.67" y2="5051.00" stroke="black"/>
    <line x1="5073.67" y1="5051.00" x2="5072.80" y2="5051.50" stroke="black"/>
    <line x1="5072.80" y1="5051.50" x2="5071.93" y2="5052.00" stroke="black"/>
    <line x1="5071.93" y1="5052.00" x2="5071.07" y2="5052.50" stroke="black"/>
    <line x1="5071.07" y1="5052.50" x2="5071.07" y2="5053.50" stroke="black"/>
    <line x1="5071.07" y1="5053.50" x2="5071.07" y2="5054.50" stroke="black"/>
    <line x1="5071.07" y1="5054.50" x2="5071.07" y2="5055.50" stroke="black"/>
    <line x1="5071.07" y1="5055.50" x2="5071.07" y2="5056.50" stroke="black"/>
    <line x1="5071.07" y1="5056.50" x2="5071.07" y2="5057.50" stroke="black"/>
    <line x1="5071.07" y1="5057.50" x2="5071.93" y2="5058.00" stroke="black"/>
    <line x1="5071.93" y1="5058.00" x2="5072.80" y2="5058.50" stroke="black"/>
    <line x1="5072.80" y1="5058.50" x2="5073.67" y2="5059.00" stroke="black"/>
    <line x1="5073.67" y1="5059.00" x2="5074.53" y2="5059.50" stroke="black"/>
    <line x1="5074.53" y1="5059.50" x2="5075.40" y2="5060.00" stroke="black"/>
    <line x1="5075.40" y1="5060.00" x2="5075.40" y2="5061.00" stroke="black"/>
    <line x1="5075.40" y1="5061.00" x2="5075.40" y2="5062.00" stroke="black"/>
    <line x1="5075.40" y1="5062.00" x2="5075.40" y2="5063.00" stroke="black"/>
    <line x1="5075.40" y1="5063.00" x2="5075.40" y2="5064.00" stroke="black"/>
    <line x1="5075.40" y1="5064.00" x2="5075.40" y2="5065.00" stroke="black"/>
    <line x1="5075.40" y1="5065.00" x2="5074.53" y2="5065.50" stroke="black"/>
    <line x1="5074.53" y1="5065.50" x2="5073.67" y2="5066.00" stroke="black"/>
    <line x1="5073.67" y1="5066.00" x2="5072.80" y2="5066.50" stroke="black"/>
    <line x1="5072.80" y1="5066.50" x2="5071.93" y2="5067.00" stroke="black"/>
    <line x1="5071.93" y1="5067.00" x2="5071.07" y2="5067.50" stroke="black"/>
    <line x1="5071.07" y1="5067.50" x2="5070.20" y2="5067.00" stroke="black"/>
    <line x1="5070.20" y1="5067.00" x2="5069.34" y2="5066.50" stroke="black"/>
    <line x1="5069.34" y1="5066.50" x2="5068.47" y2="5066.00" stroke="black"/>
    <line x1="5068.47" y1="5066.00" x2="5067.60" y2="5065.50" stroke="black"/>
    <line x1="5067.60" y1="5065.50" x2="5066.74" y2="5065.00" stroke="black"/>
    <line x1="5066.74" y1="5065.00" x2="5066.74" y2="5064.00" stroke="black"/>
    <line x1="5066.74" y1="5064.00" x2="5066.74" y2="5063.00" stroke="black"/>
    <line x1="5066.74" y1="5063.00" x2="5066.74" y2="5062.00" stroke="black"/>
    <line x1="5066.74" y1="5062.00" x2="5066.74" y2="5061.00" stroke="black"/>
    <line x1="5066.74" y1="5061.00" x2="5066.74" y2="5060.00" stroke="black"/>
    <line x1="5066.74" y1="5060.00" x2="5065.87" y2="5059.50" stroke="black"/>
    <line x1="5065.87" y1="5059.50" x2="5065.01" y2="5059.00" stroke="black"/>
    <line x1="5065.01" y1="5059.00" x2="5064.14" y2="5058.50" stroke="black"/>
    <line x1="5064.14" y1="5058.50" x2="5063.27" y2="5058.00" stroke="black"/>
    <line x1="5063.27" y1="5058.00" x2="5062.41" y2="5057.50" stroke="black"/>
    <line x1="5062.41" y1="5057.50" x2="5061.54" y2="5058.00" stroke="black"/>
    <line x1="5061.54" y1="5058.00" x2="5060.68" y2="5058.50" stroke="black"/>
    <line x1="5060.68" y1="5058.50" x2="5059.81" y2="5059.00" stroke="black"/>
    <line x1="5059.81" y1="5059.00" x2="5058.94" y2="5059.50" stroke="black"/>
    <line x1="5058.94" y1="5059.50" x2="5058.08" y2="5060.00" stroke="black"/>
    <line x1="5058.08" y1="5060.00" x2="5058.08" y2="5061.00" stroke="black"/>
    <line x1="5058.08" y1="5061.00" x2="5058.08" y2="5062.00" stroke="black"/>
    <line x1="5058.08" y1="5062.00" x2="5058.08" y2="5063.00" stroke="black"/>
    <line x1="5058.08" y1="5063.00" x2="5058.08" y2="5064.00" stroke="black"/>
    <line x1="5058.08" y1="5064.00" x2="5058.08" y2="5065.00" stroke="black"/>
    <line x1="5058.08" y1="5065.00" x2="5057.21" y2="5065.50" stroke="black"/>
    <line x1="5057.21" y1="5065.50" x2="5056.34" y2="5066.00" stroke="black"/>
    <line x1="5056.34" y1="5066.00" x2="5055.48" y2="5066.50" stroke="black"/>
    <line x1="5055.48" y1="5066.50" x2="5054.61" y2="5067.00" stroke="black"/>
    <line x1="5054.61" y1="5067.00" x2="5053.75" y2="5067.50" stroke="black"/>
    <line x1="5053.75" y1="5067.50" x2="5052.88" y2="5067.00" stroke="black"/>
    <line x1="5052.88" y1="5067.00" x2="5052.01" y2="5066.50" stroke="black"/>
    <line x1="5052.01" y1="5066.50" x2="5051.15" y2="5066.00" stroke="black"/>
    <line x1="5051.15" y1="5066.00" x2="5050.28" y2="5065.50" stroke="black"/>
    <line x1="5050.28" y1="5065.50" x2="5049.42" y2="5065.00" stroke="black"/>
    <line x1="5049.42" y1="5065.00" x2="5048.55" y2="5065.50" stroke="black"/>
    <line x1="5048.55" y1="5065.50" x2="5047.68" y2="5066.00" stroke="black"/>
    <line x1="5047.68" y1="5066.00" x2="5046.82" y2="5066.50" stroke="black"/>
    <line x1="5046.82" y1="5066.50" x2="5045.95" y2="5067.00" stroke="black"/>
    <line x1="5045.95" y1="5067.00" x2="5045.09" y2="5067.50" stroke="black"/>
    <line x1="5045.09" y1="5067.50" x2="5045.09" y2="5068.50" stroke="black"/>
    <line x1="5045.09" y1="5068.50" x2="5045.09" y2="5069.50" stroke="black"/>
    <line x1="5045.09" y1="5069.50" x2="5045.09" y2="5070.50" stroke="black"/>
    <line x1="5045.09" y1="5070.50" x2="5045.09" y2="5071.50" stroke="black"/>
    <line x1="5045.09" y1="5071.50" x2="5045.09" y2="5072.50" stroke="black"/>
    <line x1="5045.09" y1="5072.50" x2="5045.95" y2="5073.00" stroke="black"/>
    <line x1="5045.95" y1="5073.00" x2="5046.82" y2="5073.50" stroke="black"/>
    <line x1="5046.82" y1="5073.50" x2="5047.68" y2="5074.00" stroke="black"/>
    <line x1="5047.68" y1="5074.00" x2="5048.55" y2="5074.50" stroke="black"/>
    <line x1="5048.55" y1="5074.50" x2="5049.42" y2="5075.00" stroke="black"/>
    <line x1="5049.42" y1="5075.00" x2="5050.28" y2="5074.50" stroke="black"/>
    <line x1="5050.28" y1="5074.50" x2="5051.15" y2="5074.00" stroke="black"/>
    <line x1="5051.15" y1="5074.00" x2="5052.01" y2="5073.50" stroke="black"/>
    <line x1="5052.01" y1="5073.50" x2="5052.88" y2="5073.00" stroke="black"/>
    <line x1="5052.88" y1="5073.00" x2="5053.75" y2="5072.50" stroke="black"/>
    <line x1="5053.75" y1="5072.50" x2="5054.61" y2="5073.00" stroke="black"/>
    <line x1="5054.61" y1="5073.00" x2="5055.48" y2="5073.50" stroke="black"/>
    <line x1="5055.48" y1="5073.50" x2="5056.34" y2="5074.00" stroke="black"/>
    <line x1="5056.34" y1="5074.00" x2="5057.21" y2="5074.50" stroke="black"/>
    <line x1="5057.21" y1="5074.50" x2="5058.08" y2="5075.00" stroke="black"/>
    <line x1="5058.08" y1="5075.00" x2="5058.08" y2="5076.00" stroke="black"/>
    <line x1="5058.08" y1="5076.00" x2="5058.08" y2="5077.00" stroke="black"/>
    <line x1="5058.08" y1="5077.00" x2="5058.08" y2="5078.00" stroke="black"/>
    <line x1="5058.08" y1="5078.00" x2="5058.08" y2="5079.00" stroke="black"/>
    <line x1="5058.08" y1="5079.00" x2="5058.08" y2="5080.00" stroke="black"/>
    <line x1="5058.08" y1="5080.00" x2="5057.21" y2="5080.50" stroke="black"/>
    <line x1="5057.21" y1="5080.50" x2="5056.34" y2="5081.00" stroke="black"/>
    <line x1="5056.34" y1="5081.00" x2="5055.48" y2="5081.50" stroke="black"/>
    <line x1="5055.48" y1="5081.50" x2="5054.61" y2="5082.00" stroke="black"/>
    <line x1="5054.61" y1="5082.00" x2="5053.75" y2="5082.50" stroke="black"/>
    <line x1="5053.75" y1="5082.50" x2="5053.75" y2="5083.50" stroke="black"/>
    <line x1="5053.75" y1="5083.50" x2="5053.75" y2="5084.50" stroke="black"/>
    <line x1="5053.75" y1="5084.50" x2="5053.75" y2="5085.50" stroke="black"/>
    <line x1="5053.75" y1="5085.50" x2="5053.75" y2="5086.50" stroke="black"/>
    <line x1="5053.75" y1="5086.50" x2="5053.75" y2="5087.50" stroke="black"/>
    <line x1="5053.75" y1="5087.50" x2="5054.61" y2="5088.00" stroke="black"/>
    <line x1="5054.61" y1="5088.00" x2="5055.48" y2="5088.50" stroke="black"/>
    <line x1="5055.48" y1="5088.50" x2="5056.34" y2="5089.00" stroke="black"/>
    <line x1="5056.34" y1="5089.00" x2="5057.21" y2="5089.50" stroke="black"/>
    <line x1="5057.21" y1="5089.50" x2="5058.08" y2="5090.00" stroke="black"/>
    <line x1="5058.08" y1="5090.00" x2="5058.08" y2="5091.00" stroke="black"/>
    <line x1="5058.08" y1="5091.00" x2="5058.08" y2="5092.00" stroke="black"/>
    <line x1="5058.08" y1="5092.00" x2="5058.08" y2="5093.00" stroke="black"/>
    <line x1="5058.08" y1="5093.00" x2="5058.08" y2="5094.00" stroke="black"/>
    <line x1="5058.08" y1="5094.00" x2="5058.08" y2="5095.00" stroke="black"/>
    <line x1="5058.08" y1="5095.00" x2="5057.21" y2="5095.50" stroke="black"/>
    <line x1="5057.21" y1="5095.50" x2="5056.34" y2="5096.00" stroke="black"/>
    <line x1="5056.34" y1="5096.00" x2="5055.48" y2="5096.50" stroke="black"/>
    <line x1="5055.48" y1="5096.50" x2="5054.61" y2="5097.00" stroke="black"/>
    <line x1="5054.61" y1="5097.00" x2="5053.75" y2="5097.50" stroke="black"/>
    <line x1="5053.75" y1="5097.50" x2="5052.88" y2="5097.00" stroke="black"/>
    <line x1="5052.88" y1="5097.00" x2="5052.01" y2="5096.50" stroke="black"/>
    <line x1="5052.01" y1="5096.50" x2="5051.15" y2="5096.00" stroke="black"/>
    <line x1="5051.15" y1="5096.00" x2="5050.28" y2="5095.50" stroke="black"/>
    <line x1="5050.28" y1="5095.50" x2="5049.42" y2="5095.00" stroke="black"/>
    <line x1="5049.42" y1="5095.00" x2="5049.42" y2="5094.00" stroke="black"/>
    <line x1="5049.42" y1="5094.00" x2="5049.42" y2="5093.00" stroke="black"/>
    <line x1="5049.42" y1="5093.00" x2="5049.42" y2="5092.00" stroke="black"/>
    <line x1="5049.42" y1="5092.00" x2="5049.42" y2="5091.00" stroke="black"/>
    <line x1="5049.42" y1="5091.00" x2="5049.42" y2="5090.00" stroke="black"/>
    <line x1="5049.42" y1="5090.00" x2="5048.55" y2="5089.50" stroke="black"/>
    <line x1="5048.55" y1="5089.50" x2="5047.68" y2="5089.00" stroke="black"/>
    <line x1="5047.68" y1="5089.00" x2="5046.82" y2="5088.50" stroke="black"/>
    <line x1="5046.82" y1="5088.50" x2="5045.95" y2="5088.00" stroke="black"/>
    <line x1="5045.95" y1="5088.00" x2="5045.09" y2="5087.50" stroke="black"/>
    <line x1="5045.09" y1="5087.50" x2="5044.22" y2="5088.00" stroke="black"/>
    <line x1="5044.22" y1="5088.00" x2="5043.35" y2="5088.50" stroke="black"/>
    <line x1="5043.35" y1="5088.50" x2="5042.49" y2="5089.00" stroke="black"/>
    <line x1="5042.49" y1="5089.00" x2="5041.62" y2="5089.50" stroke="black"/>
    <line x1="5041.62" y1="5089.50" x2="5040.76" y2="5090.00" stroke="black"/>
    <line x1="5040.76" y1="5090.00" x2="5039.89" y2="5089.50" stroke="black"/>
    <line x1="5039.89" y1="5089.50" x2="5039.02" y2="5089.00" stroke="black"/>
    <line x1="5039.02" y1="5089.00" x2="5038.16" y2="5088.50" stroke="black"/>
    <line x1="5038.16" y1="5088.50" x2="5037.29" y2="5088.00" stroke="black"/>
    <line x1="5037.29" y1="5088.00" x2="5036.43" y2="5087.50" stroke="black"/>
    <line x1="5036.43" y1="5087.50" x2="5036.43" y2="5086.50" stroke="black"/>
    <line x1="5036.43" y1="5086.50" x2="5036.43" y2="5085.50" stroke="black"/>
    <line x1="5036.43" y1="5085.50" x2="5036.43" y2="5084.50" stroke="black"/>
    <line x1="5036.43" y1="5084.50" x2="5036.43" y2="5083.50" stroke="black"/>
    <line x1="5036.43" y1="5083.50" x2="5036.43" y2="5082.50" stroke="black"/>
    <line x1="5036.43" y1="5082.50" x2="5037.29" y2="5082.00" stroke="black"/>
    <line x1="5037.29" y1="5082.00" x2="5038.16" y2="5081.50" stroke="black"/>
    <line x1="5038.16" y1="5081.50" x2="5039.02" y2="5081.00" stroke="black"/>
    <line x1="5039.02" y1="5081.00" x2="5039.89" y2="5080.50" stroke="black"/>
    <line x1="5039.89" y1="5080.50" x2="5040.76" y2="5080.00" stroke="black"/>
    <line x1="5040.76" y1="5080.00" x2="5040.76" y2="5079.00" stroke="black"/>
    <line x1="5040.76" y1="5079.00" x2="5040.76" y2="5078.00" stroke="black"/>
    <line x1="5040.76" y1="5078.00" x2="5040.76" y2="5077.00" stroke="black"/>
    <line x1="5040.76" y1="5077.00" x2="5040.76" y2="5076.00" stroke="black"/>
    <line x1="5040.76" y1="5076.00" x2="5040.76" y2="5075.00" stroke="black"/>
    <line x1="5040.76" y1="5075.00" x2="5039.89" y2="5074.50" stroke="black"/>
    <line x1="5039.89" y1="5074.50" x2="5039.02" y2="5074.00" stroke="black"/>
    <line x1="5039.02" y1="5074.00" x2="5038.16" y2="5073.50" stroke="black"/>
    <line x1="5038.16" y1="5073.50" x2="5037.29" y2="5073.00" stroke="black"/>
    <line x1="5037.29" y1="5073.00" x2="5036.43" y2="5072.50" stroke="black"/>
    <line x1="5036.43" y1="5072.50" x2="5035.56" y2="5073.00" stroke="black"/>
    <line x1="5035.56" y1="5073.00" x2="5034.69" y2="5073.50" stroke="black"/>
    <line x1="5034.69" y1="5073.50" x2="5033.83" y2="5074.00" stroke="black"/>
    <line x1="5033.83" y1="5074.00" x2="5032.96" y2="5074.50" stroke="black"/>
    <line x1="5032.96" y1="5074.50" x2="5032.10" y2="5075.00" stroke="black"/>
    <line x1="5032.10" y1="5075.00" x2="5032.10" y2="5076.00" stroke="black"/>
    <line x1="5032.10" y1="5076.00" x2="5032.10" y2="5077.00" stroke="black"/>
    <line x1="5032.10" y1="5077.00" x2="5032.10" y2="5078.00" stroke="black"/>
    <line x1="5032.10" y1="5078.00" x2="5032.10" y2="5079.00" stroke="black"/>
    <line x1="5032.10" y1="5079.00" x2="5032.10" y2="5080.00" stroke="black"/>
    <line x1="5032.10" y1="5080.00" x2="5031.23" y2="5080.50" stroke="black"/>
    <line x1="5031.23" y1="5080.50" x2="5030.36" y2="5081.00" stroke="black"/>
    <line x1="5030.36" y1="5081.00" x2="5029.50" y2="5081.50" stroke="black"/>
    <line x1="5029.50" y1="5081.50" x2="5028.63" y2="5082.00" stroke="black"/>
    <line x1="5028.63" y1="5082.00" x2="5027.77" y2="5082.50" stroke="black"/>
    <line x1="5027.77" y1="5082.50" x2="5026.90" y2="5082.00" stroke="black"/>
    <line x1="5026.90" y1="5082.00" x2="5026.03" y2="5081.50" stroke="black"/>
    <line x1="5026.03" y1="5081.50" x2="5025.17" y2="5081.00" stroke="black"/>
    <line x1="5025.17" y1="5081.00" x2="5024.30" y2="5080.50" stroke="black"/>
    <line x1="5024.30" y1="5080.50" x2="5023.44" y2="5080.00" stroke="black"/>
  </symbol>
  <use xlink:href='#fractal' />
</svg>
