<?xml version="1.0" standalone="no"?>
<!DOCTYPE svg PUBLIC "-//W3C//DTD SVG 1.1//EN" 
  "http://www.w3.org/Graphics/SVG/1.1/DTD/svg11.dtd">
<svg viewBox="5000 4920 162 80" height="8000" width="16200" version="1.1"
    id="toplevel" xmlns="http://www.w3.org/2000/svg"
    xmlns:xlink="http://www.w3.org/1999/xlink">
  <g id="fractal">
    <line x1="5000" y1="5000" x2="5000" y2="5000" stroke="black"/>
    <line x1="5000" y1="5000" x2="5001.00" y2="5000.00" stroke="black"/>
    <line x1="5001.00" y1="5000.00" x2="5002.00" y2="5000.00" stroke="black"/>
    <line x1="5002.00" y1="5000.00" x2="5002.00" y2="4999.00" stroke="black"/>
    <line x1="5002.00" y1="4999.00" x2="5002.00" y2="4998.00" stroke="black"/>
    <line x1="5002.00" y1="4998.00" x2="5003.00" y2="4998.00" stroke="black"/>
    <line x1="5003.00" y1="4998.00" x2="5004.00" y2="4998.00" stroke="black"/>
    <line x1="5004.00" y1="4998.00" x2="5004.00" y2="4999.00" stroke="black"/>
    <line x1="5004.00" y1="4999.00" x2="5004.00" y2="5000.00" stroke="black"/>
    <line x1="5004.00" y1="5000.00" x2="5005.00" y2="5000.00" stroke="black"/>
    <line x1="5005.00" y1="5000.00" x2="5006.00" y2="5000.00" stroke="black"/>
    <line x1="5006.00" y1="5000.00" x2="5006.00" y2="4999.00" stroke="black"/>
    <line x1="5006.00" y1="4999.00" x2="5006.00" y2="4998.00" stroke="black"/>
    <line x1="5006.00" y1="4998.00" x2="5005.00" y2="4998.00" stroke="black"/>
    <line x1="5005.00" y1="4998.00" x2="5004.00" y2="4998.00" stroke="black"/>
    <line x1="5004.00" y1="4998.00" x2="5004.00" y2="4997.00" stroke="black"/>
    <line x1="5004.00" y1="4997.00" x2="5004.00" y2="4996.00" stroke="black"/>
    <line x1="5004.00" y1="4996.00" x2="5005.00" y2="4996.00" stroke="black"/>
    <line x1="5005.00" y1="4996.00" x2="5006.00" y2="4996.00" stroke="black"/>
    <line x1="5006.00" y1="4996.00" x2="5006.00" y2="4995.00" stroke="black"/>
    <line x1="5006.00" y1="4995.00" x2="5006.00" y2="4994.00" stroke="black"/>
    <line x1="5006.00" y1="4994.00" x2="5007.00" y2="4994.00" stroke="black"/>
    <line x1="5007.00" y1="4994.00" x2="5008.00" y2="4994.00" stroke="black"/>
    <line x1="5008.00" y1="4994.00" x2="5008.00" y2="4993.00" stroke="black"/>
    <line x1="5008.00" y1="4993.00" x2="5008.00" y2="4992.00" stroke="black"/>
    <line x1="5008.00" y1="4992.00" x2="5009.00" y2="4992.00" stroke="black"/>
    <line x1="5009.00" y1="4992.00" x2="5010.00" y2="4992.00" stroke="black"/>
    <line x1="5010.00" y1="4992.00" x2="5010.00" y2="4993.00" stroke="black"/>
    <line x1="5010.00" y1="4993.00" x2="5010.00" y2="4994.00" stroke="black"/>
    <line x1="5010.00" y1="4994.00" x2="5011.00" y2="4994.00" stroke="black"/>
    <line x1="5011.00" y1="4994.00" x2="5012.00" y2="4994.00" stroke="black"/>
    <line x1="5012.00" y1="4994.00" x2="5012.00" y2="4995.00" stroke="black"/>
    <line x1="5012.00" y1="4995.00" x2="5012.00" y2="4996.00" stroke="black"/>
    <line x1="5012.00" y1="4996.00" x2="5013.00" y2="4996.00" stroke="black"/>
    <line x1="5013.00" y1="4996.00" x2="5014.00" y2="4996.00" stroke="black"/>
    <line x1="5014.00" y1="4996.00" x2="5014.00" y2="4997.00" stroke="black"/>
    <line x1="5014.00" y1="4997.00" x2="5014.00" y2="4998.00" stroke="black"/>
    <line x1="5014.00" y1="4998.00" x2="5013.00" y2="4998.00" stroke="black"/>
    <line x1="5013.00" y1="4998.00" x2="5012.00" y2="4998.00" stroke="black"/>
    <line x1="5012.00" y1="4998.00" x2="5012.00" y2="4999.00" stroke="black"/>
    <line x1="5012.00" y1="4999.00" x2="5012.00" y2="5000.00" stroke="black"/>
    <line x1="5012.00" y1="5000.00" x2="5013.00" y2="5000.00" stroke="black"/>
    <line x1="5013.00" y1="5000.00" x2="5014.00" y2="5000.00" stroke="black"/>
    <line x1="5014.00" y1="5000.00" x2="5014.00" y2="4999.00" stroke="black"/>
    <line x1="5014.00" y1="4999.00" x2="5014.00" y2="4998.00" stroke="black"/>
    <line x1="5014.00" y1="4998.00" x2="5015.00" y2="4998.00" stroke="black"/>
    <line x1="5015.00" y1="4998.00" x2="5016.00" y2="4998.00" stroke="black"/>
    <line x1="5016.00" y1="4998.00" x2="5016.00" y2="4999.00" stroke="black"/>
    <line x1="5016.00" y1="4999.00" x2="5016.00" y2="5000.00" stroke="black"/>
    <line x1="5016.00" y1="5000.00" x2="5017.00" y2="5000.00" stroke="black"/>
    <line x1="5017.00" y1="5000.00" x2="5018.00" y2="5000.00" stroke="black"/>
    <line x1="5018.00" y1="5000.00" x2="5018.00" y2="4999.00" stroke="black"/>
    <line x1="5018.00" y1="4999.00" x2="5018.00" y2="4998.00" stroke="black"/>
    <line x1="5018.00" y1="4998.00" x2="5017.00" y2="4998.00" stroke="black"/>
    <line x1="5017.00" y1="4998.00" x2="5016.00" y2="4998.00" stroke="black"/>
    <line x1="5016.00" y1="4998.00" x2="5016.00" y2="4997.00" stroke="black"/>
    <line x1="5016.00" y1="4997.00" x2="5016.00" y2="4996.00" stroke="black"/>
    <line x1="5016.00" y1="4996.00" x2="5017.00" y2="4996.00" stroke="black"/>
    <line x1="5017.00" y1="4996.00" x2="5018.00" y2="4996.00" stroke="black"/>
    <line x1="5018.00" y1="4996.00" x2="5018.00" y2="4995.00" stroke="black"/>
    <line x1="5018.00" y1="4995.00" x2="5018.00" y2="4994.00" stroke="black"/>
    <line x1="5018.00" y1="4994.00" x2="5017.00" y2="4994.00" stroke="black"/>
    <line x1="5017.00" y1="4994.00" x2="5016.00" y2="4994.00" stroke="black"/>
    <line x1="5016.00" y1="4994.00" x2="5016.00" y2="4995.00" stroke="black"/>
    <line x1="5016.00" y1="4995.00" x2="5016.00" y2="4996.00" stroke="black"/>
    <line x1="5016.00" y1="4996.00" x2="5015.00" y2="4996.00" stroke="black"/>
    <line x1="5015.00" y1="4996.00" x2="5014.00" y2="4996.00" stroke="black"/>
    <line x1="5014.00" y1="4996.00" x2="5014.00" y2="4995.00" stroke="black"/>
    <line x1="5014.00" y1="4995.00" x2="5014.00" y2="4994.00" stroke="black"/>
    <line x1="5014.00" y1="4994.00" x2="5013.00" y2="4994.00" stroke="black"/>
    <line x1="5013.00" y1="4994.00" x2="5012.00" y2="4994.00" stroke="black"/>
    <line x1="5012.00" y1="4994.00" x2="5012.00" y2="4993.00" stroke="black"/>
    <line x1="5012.00" y1="4993.00" x2="5012.00" y2="4992.00" stroke="black"/>
    <line x1="5012.00" y1="4992.00" x2="5011.00" y2="4992.00" stroke="black"/>
    <line x1="5011.00" y1="4992.00" x2="5010.00" y2="4992.00" stroke="black"/>
    <line x1="5010.00" y1="4992.00" x2="5010.00" y2="4991.00" stroke="black"/>
    <line x1="5010.00" y1="4991.00" x2="5010.00" y2="4990.00" stroke="black"/>
    <line x1="5010.00" y1="4990.00" x2="5011.00" y2="4990.00" stroke="black"/>
    <line x1="5011.00" y1="4990.00" x2="5012.00" y2="4990.00" stroke="black"/>
    <line x1="5012.00" y1="4990.00" x2="5012.00" y2="4989.00" stroke="black"/>
    <line x1="5012.00" y1="4989.00" x2="5012.00" y2="4988.00" stroke="black"/>
    <line x1="5012.00" y1="4988.00" x2="5013.00" y2="4988.00" stroke="black"/>
    <line x1="5013.00" y1="4988.00" x2="5014.00" y2="4988.00" stroke="black"/>
    <line x1="5014.00" y1="4988.00" x2="5014.00" y2="4987.00" stroke="black"/>
    <line x1="5014.00" y1="4987.00" x2="5014.00" y2="4986.00" stroke="black"/>
    <line x1="5014.00" y1="4986.00" x2="5015.00" y2="4986.00" stroke="black"/>
    <line x1="5015.00" y1="4986.00" x2="5016.00" y2="4986.00" stroke="black"/>
    <line x1="5016.00" y1="4986.00" x2="5016.00" y2="4987.00" stroke="black"/>
    <line x1="5016.00" y1="4987.00" x2="5016.00" y2="4988.00" stroke="black"/>
    <line x1="5016.00" y1="4988.00" x2="5017.00" y2="4988.00" stroke="black"/>
    <line x1="5017.00" y1="4988.00" x2="5018.00" y2="4988.00" stroke="black"/>
    <line x1="5018.00" y1="4988.00" x2="5018.00" y2="4987.00" stroke="black"/>
    <line x1="5018.00" y1="4987.00" x2="5018.00" y2="4986.00" stroke="black"/>
    <line x1="5018.00" y1="4986.00" x2="5017.00" y2="4986.00" stroke="black"/>
    <line x1="5017.00" y1="4986.00" x2="5016.00" y2="4986.00" stroke="black"/>
    <line x1="5016.00" y1="4986.00" x2="5016.00" y2="4985.00" stroke="black"/>
    <line x1="5016.00" y1="4985.00" x2="5016.00" y2="4984.00" stroke="black"/>
    <line x1="5016.00" y1="4984.00" x2="5017.00" y2="4984.00" stroke="black"/>
    <line x1="5017.00" y1="4984.00" x2="5018.00" y2="4984.00" stroke="black"/>
    <line x1="5018.00" y1="4984.00" x2="5018.00" y2="4983.00" stroke="black"/>
    <line x1="5018.00" y1="4983.00" x2="5018.00" y2="4982.00" stroke="black"/>
    <line x1="5018.00" y1="4982.00" x2="5019.00" y2="4982.00" stroke="black"/>
    <line x1="5019.00" y1="4982.00" x2="5020.00" y2="4982.00" stroke="black"/>
    <line x1="5020.00" y1="4982.00" x2="5020.00" y2="4981.00" stroke="black"/>
    <line x1="5020.00" y1="4981.00" x2="5020.00" y2="4980.00" stroke="black"/>
    <line x1="5020.00" y1="4980.00" x2="5021.00" y2="4980.00" stroke="black"/>
    <line x1="5021.00" y1="4980.00" x2="5022.00" y2="4980.00" stroke="black"/>
    <line x1="5022.00" y1="4980.00" x2="5022.00" y2="4981.00" stroke="black"/>
    <line x1="5022.00" y1="4981.00" x2="5022.00" y2="4982.00" stroke="black"/>
    <line x1="5022.00" y1="4982.00" x2="5023.00" y2="4982.00" stroke="black"/>
    <line x1="5023.00" y1="4982.00" x2="5024.00" y2="4982.00" stroke="black"/>
    <line x1="5024.00" y1="4982.00" x2="5024.00" y2="4981.00" stroke="black"/>
    <line x1="5024.00" y1="4981.00" x2="5024.00" y2="4980.00" stroke="black"/>
    <line x1="5024.00" y1="4980.00" x2="5023.00" y2="4980.00" stroke="black"/>
    <line x1="5023.00" y1="4980.00" x2="5022.00" y2="4980.00" stroke="black"/>
    <line x1="5022.00" y1="4980.00" x2="5022.00" y2="4979.00" stroke="black"/>
    <line x1="5022.00" y1="4979.00" x2="5022.00" y2="4978.00" stroke="black"/>
    <line x1="5022.00" y1="4978.00" x2="5023.00" y2="4978.00" stroke="black"/>
    <line x1="5023.00" y1="4978.00" x2="5024.00" y2="4978.00" stroke="black"/>
    <line x1="5024.00" y1="4978.00" x2="5024.00" y2="4977.00" stroke="black"/>
    <line x1="5024.00" y1="4977.00" x2="5024.00" y2="4976.00" stroke="black"/>
    <line x1="5024.00" y1="4976.00" x2="5025.00" y2="4976.00" stroke="black"/>
    <line x1="5025.00" y1="4976.00" x2="5026.00" y2="4976.00" stroke="black"/>
    <line x1="5026.00" y1="4976.00" x2="5026.00" y2="4975.00" stroke="black"/>
    <line x1="5026.00" y1="4975.00" x2="5026.00" y2="4974.00" stroke="black"/>
    <line x1="5026.00" y1="4974.00" x2="5027.00" y2="4974.00" stroke="black"/>
    <line x1="5027.00" y1="4974.00" x2="5028.00" y2="4974.00" stroke="black"/>
    <line x1="5028.00" y1="4974.00" x2="5028.00" y2="4975.00" stroke="black"/>
    <line x1="5028.00" y1="4975.00" x2="5028.00" y2="4976.00" stroke="black"/>
    <line x1="5028.00" y1="4976.00" x2="5029.00" y2="4976.00" stroke="black"/>
    <line x1="5029.00" y1="4976.00" x2="5030.00" y2="4976.00" stroke="black"/>
    <line x1="5030.00" y1="4976.00" x2="5030.00" y2="4977.00" stroke="black"/>
    <line x1="5030.00" y1="4977.00" x2="5030.00" y2="4978.00" stroke="black"/>
    <line x1="5030.00" y1="4978.00" x2="5031.00" y2="4978.00" stroke="black"/>
    <line x1="5031.00" y1="4978.00" x2="5032.00" y2="4978.00" stroke="black"/>
    <line x1="5032.00" y1="4978.00" x2="5032.00" y2="4979.00" stroke="black"/>
    <line x1="5032.00" y1="4979.00" x2="5032.00" y2="4980.00" stroke="black"/>
    <line x1="5032.00" y1="4980.00" x2="5031.00" y2="4980.00" stroke="black"/>
    <line x1="5031.00" y1="4980.00" x2="5030.00" y2="4980.00" stroke="black"/>
    <line x1="5030.00" y1="4980.00" x2="5030.00" y2="4981.00" stroke="black"/>
    <line x1="5030.00" y1="4981.00" x2="5030.00" y2="4982.00" stroke="black"/>
    <line x1="5030.00" y1="4982.00" x2="5031.00" y2="4982.00" stroke="black"/>
    <line x1="5031.00" y1="4982.00" x2="5032.00" y2="4982.00" stroke="black"/>
    <line x1="5032.00" y1="4982.00" x2="5032.00" y2="4981.00" stroke="black"/>
    <line x1="5032.00" y1="4981.00" x2="5032.00" y2="4980.00" stroke="black"/>
    <line x1="5032.00" y1="4980.00" x2="5033.00" y2="4980.00" stroke="black"/>
    <line x1="5033.00" y1="4980.00" x2="5034.00" y2="4980.00" stroke="black"/>
    <line x1="5034.00" y1="4980.00" x2="5034.00" y2="4981.00" stroke="black"/>
    <line x1="5034.00" y1="4981.00" x2="5034.00" y2="4982.00" stroke="black"/>
    <line x1="5034.00" y1="4982.00" x2="5035.00" y2="4982.00" stroke="black"/>
    <line x1="5035.00" y1="4982.00" x2="5036.00" y2="4982.00" stroke="black"/>
    <line x1="5036.00" y1="4982.00" x2="5036.00" y2="4983.00" stroke="black"/>
    <line x1="5036.00" y1="4983.00" x2="5036.00" y2="4984.00" stroke="black"/>
    <line x1="5036.00" y1="4984.00" x2="5037.00" y2="4984.00" stroke="black"/>
    <line x1="5037.00" y1="4984.00" x2="5038.00" y2="4984.00" stroke="black"/>
    <line x1="5038.00" y1="4984.00" x2="5038.00" y2="4985.00" stroke="black"/>
    <line x1="5038.00" y1="4985.00" x2="5038.00" y2="4986.00" stroke="black"/>
    <line x1="5038.00" y1="4986.00" x2="5037.00" y2="4986.00" stroke="black"/>
    <line x1="5037.00" y1="4986.00" x2="5036.00" y2="4986.00" stroke="black"/>
    <line x1="5036.00" y1="4986.00" x2="5036.00" y2="4987.00" stroke="black"/>
    <line x1="5036.00" y1="4987.00" x2="5036.00" y2="4988.00" stroke="black"/>
    <line x1="5036.00" y1="4988.00" x2="5037.00" y2="4988.00" stroke="black"/>
    <line x1="5037.00" y1="4988.00" x2="5038.00" y2="4988.00" stroke="black"/>
    <line x1="5038.00" y1="4988.00" x2="5038.00" y2="4987.00" stroke="black"/>
    <line x1="5038.00" y1="4987.00" x2="5038.00" y2="4986.00" stroke="black"/>
    <line x1="5038.00" y1="4986.00" x2="5039.00" y2="4986.00" stroke="black"/>
    <line x1="5039.00" y1="4986.00" x2="5040.00" y2="4986.00" stroke="black"/>
    <line x1="5040.00" y1="4986.00" x2="5040.00" y2="4987.00" stroke="black"/>
    <line x1="5040.00" y1="4987.00" x2="5040.00" y2="4988.00" stroke="black"/>
    <line x1="5040.00" y1="4988.00" x2="5041.00" y2="4988.00" stroke="black"/>
    <line x1="5041.00" y1="4988.00" x2="5042.00" y2="4988.00" stroke="black"/>
    <line x1="5042.00" y1="4988.00" x2="5042.00" y2="4989.00" stroke="black"/>
    <line x1="5042.00" y1="4989.00" x2="5042.00" y2="4990.00" stroke="black"/>
    <line x1="5042.00" y1="4990.00" x2="5043.00" y2="4990.00" stroke="black"/>
    <line x1="5043.00" y1="4990.00" x2="5044.00" y2="4990.00" stroke="black"/>
    <line x1="5044.00" y1="4990.00" x2="5044.00" y2="4991.00" stroke="black"/>
    <line x1="5044.00" y1="4991.00" x2="5044.00" y2="4992.00" stroke="black"/>
    <line x1="5044.00" y1="4992.00" x2="5043.00" y2="4992.00" stroke="black"/>
    <line x1="5043.00" y1="4992.00" x2="5042.00" y2="4992.00" stroke="black"/>
    <line x1="5042.00" y1="4992.00" x2="5042.00" y2="4993.00" stroke="black"/>
    <line x1="5042.00" y1="4993.00" x2="5042.00" y2="4994.00" stroke="black"/>
    <line x1="5042.00" y1="4994.00" x2="5041.00" y2="4994.00" stroke="black"/>
    <line x1="5041.00" y1="4994.00" x2="5040.00" y2="4994.00" stroke="black"/>
    <line x1="5040.00" y1="4994.00" x2="5040.00" y2="4995.00" stroke="black"/>
    <line x1="5040.00" y1="4995.00" x2="5040.00" y2="4996.00" stroke="black"/>
    <line x1="5040.00" y1="4996.00" x2="5039.00" y2="4996.00" stroke="black"/>
    <line x1="5039.00" y1="4996.00" x2="5038.00" y2="4996.00" stroke="black"/>
    <line x1="5038.00" y1="4996.00" x2="5038.00" y2="4995.00" stroke="black"/>
    <line x1="5038.00" y1="4995.00" x2="5038.00" y2="4994.00" stroke="black"/>
    <line x1="5038.00" y1="4994.00" x2="5037.00" y2="4994.00" stroke="black"/>
    <line x1="5037.00" y1="4994.00" x2="5036.00" y2="4994.00" stroke="black"/>
    <line x1="5036.00" y1="4994.00" x2="5036.00" y2="4995.00" stroke="black"/>
    <line x1="5036.00" y1="4995.00" x2="5036.00" y2="4996.00" stroke="black"/>
    <line x1="5036.00" y1="4996.00" x2="5037.00" y2="4996.00" stroke="black"/>
    <line x1="5037.00" y1="4996.00" x2="5038.00" y2="4996.00" stroke="black"/>
    <line x1="5038.00" y1="4996.00" x2="5038.00" y2="4997.00" stroke="black"/>
    <line x1="5038.00" y1="4997.00" x2="5038.00" y2="4998.00" stroke="black"/>
    <line x1="5038.00" y1="4998.00" x2="5037.00" y2="4998.00" stroke="black"/>
    <line x1="5037.00" y1="4998.00" x2="5036.00" y2="4998.00" stroke="black"/>
    <line x1="5036.00" y1="4998.00" x2="5036.00" y2="4999.00" stroke="black"/>
    <line x1="5036.00" y1="4999.00" x2="5036.00" y2="5000.00" stroke="black"/>
    <line x1="5036.00" y1="5000.00" x2="5037.00" y2="5000.00" stroke="black"/>
    <line x1="5037.00" y1="5000.00" x2="5038.00" y2="5000.00" stroke="black"/>
    <line x1="5038.00" y1="5000.00" x2="5038.00" y2="4999.00" stroke="black"/>
    <line x1="5038.00" y1="4999.00" x2="5038.00" y2="4998.00" stroke="black"/>
    <line x1="5038.00" y1="4998.00" x2="5039.00" y2="4998.00" stroke="black"/>
    <line x1="5039.00" y1="4998.00" x2="5040.00" y2="4998.00" stroke="black"/>
    <line x1="5040.00" y1="4998.00" x2="5040.00" y2="4999.00" stroke="black"/>
    <line x1="5040.00" y1="4999.00" x2="5040.00" y2="5000.00" stroke="black"/>
    <line x1="5040.00" y1="5000.00" x2="5041.00" y2="5000.00" stroke="black"/>
    <line x1="5041.00" y1="5000.00" x2="5042.00" y2="5000.00" stroke="black"/>
    <line x1="5042.00" y1="5000.00" x2="5042.00" y2="4999.00" stroke="black"/>
    <line x1="5042.00" y1="4999.00" x2="5042.00" y2="4998.00" stroke="black"/>
    <line x1="5042.00" y1="4998.00" x2="5041.00" y2="4998.00" stroke="black"/>
    <line x1="5041.00" y1="4998.00" x2="5040.00" y2="4998.00" stroke="black"/>
    <line x1="5040.00" y1="4998.00" x2="5040.00" y2="4997.00" stroke="black"/>
    <line x1="5040.00" y1="4997.00" x2="5040.00" y2="4996.00" stroke="black"/>
    <line x1="5040.00" y1="4996.00" x2="5041.00" y2="4996.00" stroke="black"/>
    <line x1="5041.00" y1="4996.00" x2="5042.00" y2="4996.00" stroke="black"/>
    <line x1="5042.00" y1="4996.00" x2="5042.00" y2="4995.00" stroke="black"/>
    <line x1="5042.00" y1="4995.00" x2="5042.00" y2="4994.00" stroke="black"/>
    <line x1="5042.00" y1="4994.00" x2="5043.00" y2="4994.00" stroke="black"/>
    <line x1="5043.00" y1="4994.00" x2="5044.00" y2="4994.00" stroke="black"/>
    <line x1="5044.00" y1="4994.00" x2="5044.00" y2="4993.00" stroke="black"/>
    <line x1="5044.00" y1="4993.00" x2="5044.00" y2="4992.00" stroke="black"/>
    <line x1="5044.00" y1="4992.00" x2="5045.00" y2="4992.00" stroke="black"/>
    <line x1="5045.00" y1="4992.00" x2="5046.00" y2="4992.00" stroke="black"/>
    <line x1="5046.00" y1="4992.00" x2="5046.00" y2="4993.00" stroke="black"/>
    <line x1="5046.00" y1="4993.00" x2="5046.00" y2="4994.00" stroke="black"/>
    <line x1="5046.00" y1="4994.00" x2="5047.00" y2="4994.00" stroke="black"/>
    <line x1="5047.00" y1="4994.00" x2="5048.00" y2="4994.00" stroke="black"/>
    <line x1="5048.00" y1="4994.00" x2="5048.00" y2="4995.00" stroke="black"/>
    <line x1="5048.00" y1="4995.00" x2="5048.00" y2="4996.00" stroke="black"/>
    <line x1="5048.00" y1="4996.00" x2="5049.00" y2="4996.00" stroke="black"/>
    <line x1="5049.00" y1="4996.00" x2="5050.00" y2="4996.00" stroke="black"/>
    <line x1="5050.00" y1="4996.00" x2="5050.00" y2="4997.00" stroke="black"/>
    <line x1="5050.00" y1="4997.00" x2="5050.00" y2="4998.00" stroke="black"/>
    <line x1="5050.00" y1="4998.00" x2="5049.00" y2="4998.00" stroke="black"/>
    <line x1="5049.00" y1="4998.00" x2="5048.00" y2="4998.00" stroke="black"/>
    <line x1="5048.00" y1="4998.00" x2="5048.00" y2="4999.00" stroke="black"/>
    <line x1="5048.00" y1="4999.00" x2="5048.00" y2="5000.00" stroke="black"/>
    <line x1="5048.00" y1="5000.00" x2="5049.00" y2="5000.00" stroke="black"/>
    <line x1="5049.00" y1="5000.00" x2="5050.00" y2="5000.00" stroke="black"/>
    <line x1="5050.00" y1="5000.00" x2="5050.00" y2="4999.00" stroke="black"/>
    <line x1="5050.00" y1="4999.00" x2="5050.00" y2="4998.00" stroke="black"/>
    <line x1="5050.00" y1="4998.00" x2="5051.00" y2="4998.00" stroke="black"/>
    <line x1="5051.00" y1="4998.00" x2="5052.00" y2="4998.00" stroke="black"/>
    <line x1="5052.00" y1="4998.00" x2="5052.00" y2="4999.00" stroke="black"/>
    <line x1="5052.00" y1="4999.00" x2="5052.00" y2="5000.00" stroke="black"/>
    <line x1="5052.00" y1="5000.00" x2="5053.00" y2="5000.00" stroke="black"/>
    <line x1="5053.00" y1="5000.00" x2="5054.00" y2="5000.00" stroke="black"/>
    <line x1="5054.00" y1="5000.00" x2="5054.00" y2="4999.00" stroke="black"/>
    <line x1="5054.00" y1="4999.00" x2="5054.00" y2="4998.00" stroke="black"/>
    <line x1="5054.00" y1="4998.00" x2="5053.00" y2="4998.00" stroke="black"/>
    <line x1="5053.00" y1="4998.00" x2="5052.00" y2="4998.00" stroke="black"/>
    <line x1="5052.00" y1="4998.00" x2="5052.00" y2="4997.00" stroke="black"/>
    <line x1="5052.00" y1="4997.00" x2="5052.00" y2="4996.00" stroke="black"/>
    <line x1="5052.00" y1="4996.00" x2="5053.00" y2="4996.00" stroke="black"/>
    <line x1="5053.00" y1="4996.00" x2="5054.00" y2="4996.00" stroke="black"/>
    <line x1="5054.00" y1="4996.00" x2="5054.00" y2="4995.00" stroke="black"/>
    <line x1="5054.00" y1="4995.00" x2="5054.00" y2="4994.00" stroke="black"/>
    <line x1="5054.00" y1="4994.00" x2="5053.00" y2="4994.00" stroke="black"/>
    <line x1="5053.00" y1="4994.00" x2="5052.00" y2="4994.00" stroke="black"/>
    <line x1="5052.00" y1="4994.00" x2="5052.00" y2="4995.00" stroke="black"/>
    <line x1="5052.00" y1="4995.00" x2="5052.00" y2="4996.00" stroke="black"/>
    <line x1="5052.00" y1="4996.00" x2="5051.00" y2="4996.00" stroke="black"/>
    <line x1="5051.00" y1="4996.00" x2="5050.00" y2="4996.00" stroke="black"/>
    <line x1="5050.00" y1="4996.00" x2="5050.00" y2="4995.00" stroke="black"/>
    <line x1="5050.00" y1="4995.00" x2="5050.00" y2="4994.00" stroke="black"/>
    <line x1="5050.00" y1="4994.00" x2="5049.00" y2="4994.00" stroke="black"/>
    <line x1="5049.00" y1="4994.00" x2="5048.00" y2="4994.00" stroke="black"/>
    <line x1="5048.00" y1="4994.00" x2="5048.00" y2="4993.00" stroke="black"/>
    <line x1="5048.00" y1="4993.00" x2="5048.00" y2="4992.00" stroke="black"/>
    <line x1="5048.00" y1="4992.00" x2="5047.00" y2="4992.00" stroke="black"/>
    <line x1="5047.00" y1="4992.00" x2="5046.00" y2="4992.00" stroke="black"/>
    <line x1="5046.00" y1="4992.00" x2="5046.00" y2="4991.00" stroke="black"/>
    <line x1="5046.00" y1="4991.00" x2="5046.00" y2="4990.00" stroke="black"/>
    <line x1="5046.00" y1="4990.00" x2="5047.00" y2="4990.00" stroke="black"/>
    <line x1="5047.00" y1="4990.00" x2="5048.00" y2="4990.00" stroke="black"/>
    <line x1="5048.00" y1="4990.00" x2="5048.00" y2="4989.00" stroke="black"/>
    <line x1="5048.00" y1="4989.00" x2="5048.00" y2="4988.00" stroke="black"/>
    <line x1="5048.00" y1="4988.00" x2="5049.00" y2="4988.00" stroke="black"/>
    <line x1="5049.00" y1="4988.00" x2="5050.00" y2="4988.00" stroke="black"/>
    <line x1="5050.00" y1="4988.00" x2="5050.00" y2="4987.00" stroke="black"/>
    <line x1="5050.00" y1="4987.00" x2="5050.00" y2="4986.00" stroke="black"/>
    <line x1="5050.00" y1="4986.00" x2="5051.00" y2="4986.00" stroke="black"/>
    <line x1="5051.00" y1="4986.00" x2="5052.00" y2="4986.00" stroke="black"/>
    <line x1="5052.00" y1="4986.00" x2="5052.00" y2="4987.00" stroke="black"/>
    <line x1="5052.00" y1="4987.00" x2="5052.00" y2="4988.00" stroke="black"/>
    <line x1="5052.00" y1="4988.00" x2="5053.00" y2="4988.00" stroke="black"/>
    <line x1="5053.00" y1="4988.00" x2="5054.00" y2="4988.00" stroke="black"/>
    <line x1="5054.00" y1="4988.00" x2="5054.00" y2="4987.00" stroke="black"/>
    <line x1="5054.00" y1="4987.00" x2="5054.00" y2="4986.00" stroke="black"/>
    <line x1="5054.00" y1="4986.00" x2="5053.00" y2="4986.00" stroke="black"/>
    <line x1="5053.00" y1="4986.00" x2="5052.00" y2="4986.00" stroke="black"/>
    <line x1="5052.00" y1="4986.00" x2="5052.00" y2="4985.00" stroke="black"/>
    <line x1="5052.00" y1="4985.00" x2="5052.00" y2="4984.00" stroke="black"/>
    <line x1="5052.00" y1="4984.00" x2="5053.00" y2="4984.00" stroke="black"/>
    <line x1="5053.00" y1="4984.00" x2="5054.00" y2="4984.00" stroke="black"/>
    <line x1="5054.00" y1="4984.00" x2="5054.00" y2="4983.00" stroke="black"/>
    <line x1="5054.00" y1="4983.00" x2="5054.00" y2="4982.00" stroke="black"/>
    <line x1="5054.00" y1="4982.00" x2="5053.00" y2="4982.00" stroke="black"/>
    <line x1="5053.00" y1="4982.00" x2="5052.00" y2="4982.00" stroke="black"/>
    <line x1="5052.00" y1="4982.00" x2="5052.00" y2="4983.00" stroke="black"/>
    <line x1="5052.00" y1="4983.00" x2="5052.00" y2="4984.00" stroke="black"/>
    <line x1="5052.00" y1="4984.00" x2="5051.00" y2="4984.00" stroke="black"/>
    <line x1="5051.00" y1="4984.00" x2="5050.00" y2="4984.00" stroke="black"/>
    <line x1="5050.00" y1="4984.00" x2="5050.00" y2="4983.00" stroke="black"/>
    <line x1="5050.00" y1="4983.00" x2="5050.00" y2="4982.00" stroke="black"/>
    <line x1="5050.00" y1="4982.00" x2="5049.00" y2="4982.00" stroke="black"/>
    <line x1="5049.00" y1="4982.00" x2="5048.00" y2="4982.00" stroke="black"/>
    <line x1="5048.00" y1="4982.00" x2="5048.00" y2="4983.00" stroke="black"/>
    <line x1="5048.00" y1="4983.00" x2="5048.00" y2="4984.00" stroke="black"/>
    <line x1="5048.00" y1="4984.00" x2="5049.00" y2="4984.00" stroke="black"/>
    <line x1="5049.00" y1="4984.00" x2="5050.00" y2="4984.00" stroke="black"/>
    <line x1="5050.00" y1="4984.00" x2="5050.00" y2="4985.00" stroke="black"/>
    <line x1="5050.00" y1="4985.00" x2="5050.00" y2="4986.00" stroke="black"/>
    <line x1="5050.00" y1="4986.00" x2="5049.00" y2="4986.00" stroke="black"/>
    <line x1="5049.00" y1="4986.00" x2="5048.00" y2="4986.00" stroke="black"/>
    <line x1="5048.00" y1="4986.00" x2="5048.00" y2="4987.00" stroke="black"/>
    <line x1="5048.00" y1="4987.00" x2="5048.00" y2="4988.00" stroke="black"/>
    <line x1="5048.00" y1="4988.00" x2="5047.00" y2="4988.00" stroke="black"/>
    <line x1="5047.00" y1="4988.00" x2="5046.00" y2="4988.00" stroke="black"/>
    <line x1="5046.00" y1="4988.00" x2="5046.00" y2="4989.00" stroke="black"/>
    <line x1="5046.00" y1="4989.00" x2="5046.00" y2="4990.00" stroke="black"/>
    <line x1="5046.00" y1="4990.00" x2="5045.00" y2="4990.00" stroke="black"/>
    <line x1="5045.00" y1="4990.00" x2="5044.00" y2="4990.00" stroke="black"/>
    <line x1="5044.00" y1="4990.00" x2="5044.00" y2="4989.00" stroke="black"/>
    <line x1="5044.00" y1="4989.00" x2="5044.00" y2="4988.00" stroke="black"/>
    <line x1="5044.00" y1="4988.00" x2="5043.00" y2="4988.00" stroke="black"/>
    <line x1="5043.00" y1="4988.00" x2="5042.00" y2="4988.00" stroke="black"/>
    <line x1="5042.00" y1="4988.00" x2="5042.00" y2="4987.00" stroke="black"/>
    <line x1="5042.00" y1="4987.00" x2="5042.00" y2="4986.00" stroke="black"/>
    <line x1="5042.00" y1="4986.00" x2="5041.00" y2="4986.00" stroke="black"/>
    <line x1="5041.00" y1="4986.00" x2="5040.00" y2="4986.00" stroke="black"/>
    <line x1="5040.00" y1="4986.00" x2="5040.00" y2="4985.00" stroke="black"/>
    <line x1="5040.00" y1="4985.00" x2="5040.00" y2="4984.00" stroke="black"/>
    <line x1="5040.00" y1="4984.00" x2="5041.00" y2="4984.00" stroke="black"/>
    <line x1="5041.00" y1="4984.00" x2="5042.00" y2="4984.00" stroke="black"/>
    <line x1="5042.00" y1="4984.00" x2="5042.00" y2="4983.00" stroke="black"/>
    <line x1="5042.00" y1="4983.00" x2="5042.00" y2="4982.00" stroke="black"/>
    <line x1="5042.00" y1="4982.00" x2="5041.00" y2="4982.00" stroke="black"/>
    <line x1="5041.00" y1="4982.00" x2="5040.00" y2="4982.00" stroke="black"/>
    <line x1="5040.00" y1="4982.00" x2="5040.00" y2="4983.00" stroke="black"/>
    <line x1="5040.00" y1="4983.00" x2="5040.00" y2="4984.00" stroke="black"/>
    <line x1="5040.00" y1="4984.00" x2="5039.00" y2="4984.00" stroke="black"/>
    <line x1="5039.00" y1="4984.00" x2="5038.00" y2="4984.00" stroke="black"/>
    <line x1="5038.00" y1="4984.00" x2="5038.00" y2="4983.00" stroke="black"/>
    <line x1="5038.00" y1="4983.00" x2="5038.00" y2="4982.00" stroke="black"/>
    <line x1="5038.00" y1="4982.00" x2="5037.00" y2="4982.00" stroke="black"/>
    <line x1="5037.00" y1="4982.00" x2="5036.00" y2="4982.00" stroke="black"/>
    <line x1="5036.00" y1="4982.00" x2="5036.00" y2="4981.00" stroke="black"/>
    <line x1="5036.00" y1="4981.00" x2="5036.00" y2="4980.00" stroke="black"/>
    <line x1="5036.00" y1="4980.00" x2="5035.00" y2="4980.00" stroke="black"/>
    <line x1="5035.00" y1="4980.00" x2="5034.00" y2="4980.00" stroke="black"/>
    <line x1="5034.00" y1="4980.00" x2="5034.00" y2="4979.00" stroke="black"/>
    <line x1="5034.00" y1="4979.00" x2="5034.00" y2="4978.00" stroke="black"/>
    <line x1="5034.00" y1="4978.00" x2="5035.00" y2="4978.00" stroke="black"/>
    <line x1="5035.00" y1="4978.00" x2="5036.00" y2="4978.00" stroke="black"/>
    <line x1="5036.00" y1="4978.00" x2="5036.00" y2="4977.00" stroke="black"/>
    <line x1="5036.00" y1="4977.00" x2="5036.00" y2="4976.00" stroke="black"/>
    <line x1="5036.00" y1="4976.00" x2="5035.00" y2="4976.00" stroke="black"/>
    <line x1="5035.00" y1="4976.00" x2="5034.00" y2="4976.00" stroke="black"/>
    <line x1="5034.00" y1="4976.00" x2="5034.00" y2="4977.00" stroke="black"/>
    <line x1="5034.00" y1="4977.00" x2="5034.00" y2="4978.00" stroke="black"/>
    <line x1="5034.00" y1="4978.00" x2="5033.00" y2="4978.00" stroke="black"/>
    <line x1="5033.00" y1="4978.00" x2="5032.00" y2="4978.00" stroke="black"/>
    <line x1="5032.00" y1="4978.00" x2="5032.00" y2="4977.00" stroke="black"/>
    <line x1="5032.00" y1="4977.00" x2="5032.00" y2="4976.00" stroke="black"/>
    <line x1="5032.00" y1="4976.00" x2="5031.00" y2="4976.00" stroke="black"/>
    <line x1="5031.00" y1="4976.00" x2="5030.00" y2="4976.00" stroke="black"/>
    <line x1="5030.00" y1="4976.00" x2="5030.00" y2="4975.00" stroke="black"/>
    <line x1="5030.00" y1="4975.00" x2="5030.00" y2="4974.00" stroke="black"/>
    <line x1="5030.00" y1="4974.00" x2="5029.00" y2="4974.00" stroke="black"/>
    <line x1="5029.00" y1="4974.00" x2="5028.00" y2="4974.00" stroke="black"/>
    <line x1="5028.00" y1="4974.00" x2="5028.00" y2="4973.00" stroke="black"/>
    <line x1="5028.00" y1="4973.00" x2="5028.00" y2="4972.00" stroke="black"/>
    <line x1="5028.00" y1="4972.00" x2="5029.00" y2="4972.00" stroke="black"/>
    <line x1="5029.00" y1="4972.00" x2="5030.00" y2="4972.00" stroke="black"/>
    <line x1="5030.00" y1="4972.00" x2="5030.00" y2="4971.00" stroke="black"/>
    <line x1="5030.00" y1="4971.00" x2="5030.00" y2="4970.00" stroke="black"/>
    <line x1="5030.00" y1="4970.00" x2="5031.00" y2="4970.00" stroke="black"/>
    <line x1="5031.00" y1="4970.00" x2="5032.00" y2="4970.00" stroke="black"/>
    <line x1="5032.00" y1="4970.00" x2="5032.00" y2="4969.00" stroke="black"/>
    <line x1="5032.00" y1="4969.00" x2="5032.00" y2="4968.00" stroke="black"/>
    <line x1="5032.00" y1="4968.00" x2="5033.00" y2="4968.00" stroke="black"/>
    <line x1="5033.00" y1="4968.00" x2="5034.00" y2="4968.00" stroke="black"/>
    <line x1="5034.00" y1="4968.00" x2="5034.00" y2="4969.00" stroke="black"/>
    <line x1="5034.00" y1="4969.00" x2="5034.00" y2="4970.00" stroke="black"/>
    <line x1="5034.00" y1="4970.00" x2="5035.00" y2="4970.00" stroke="black"/>
    <line x1="5035.00" y1="4970.00" x2="5036.00" y2="4970.00" stroke="black"/>
    <line x1="5036.00" y1="4970.00" x2="5036.00" y2="4969.00" stroke="black"/>
    <line x1="5036.00" y1="4969.00" x2="5036.00" y2="4968.00" stroke="black"/>
    <line x1="5036.00" y1="4968.00" x2="5035.00" y2="4968.00" stroke="black"/>
    <line x1="5035.00" y1="4968.00" x2="5034.00" y2="4968.00" stroke="black"/>
    <line x1="5034.00" y1="4968.00" x2="5034.00" y2="4967.00" stroke="black"/>
    <line x1="5034.00" y1="4967.00" x2="5034.00" y2="4966.00" stroke="black"/>
    <line x1="5034.00" y1="4966.00" x2="5035.00" y2="4966.00" stroke="black"/>
    <line x1="5035.00" y1="4966.00" x2="5036.00" y2="4966.00" stroke="black"/>
    <line x1="5036.00" y1="4966.00" x2="5036.00" y2="4965.00" stroke="black"/>
    <line x1="5036.00" y1="4965.00" x2="5036.00" y2="4964.00" stroke="black"/>
    <line x1="5036.00" y1="4964.00" x2="5037.00" y2="4964.00" stroke="black"/>
    <line x1="5037.00" y1="4964.00" x2="5038.00" y2="4964.00" stroke="black"/>
    <line x1="5038.00" y1="4964.00" x2="5038.00" y2="4963.00" stroke="black"/>
    <line x1="5038.00" y1="4963.00" x2="5038.00" y2="4962.00" stroke="black"/>
    <line x1="5038.00" y1="4962.00" x2="5039.00" y2="4962.00" stroke="black"/>
    <line x1="5039.00" y1="4962.00" x2="5040.00" y2="4962.00" stroke="black"/>
    <line x1="5040.00" y1="4962.00" x2="5040.00" y2="4963.00" stroke="black"/>
    <line x1="5040.00" y1="4963.00" x2="5040.00" y2="4964.00" stroke="black"/>
    <line x1="5040.00" y1="4964.00" x2="5041.00" y2="4964.00" stroke="black"/>
    <line x1="5041.00" y1="4964.00" x2="5042.00" y2="4964.00" stroke="black"/>
    <line x1="5042.00" y1="4964.00" x2="5042.00" y2="4963.00" stroke="black"/>
    <line x1="5042.00" y1="4963.00" x2="5042.00" y2="4962.00" stroke="black"/>
    <line x1="5042.00" y1="4962.00" x2="5041.00" y2="4962.00" stroke="black"/>
    <line x1="5041.00" y1="4962.00" x2="5040.00" y2="4962.00" stroke="black"/>
    <line x1="5040.00" y1="4962.00" x2="5040.00" y2="4961.00" stroke="black"/>
    <line x1="5040.00" y1="4961.00" x2="5040.00" y2="4960.00" stroke="black"/>
    <line x1="5040.00" y1="4960.00" x2="5041.00" y2="4960.00" stroke="black"/>
    <line x1="5041.00" y1="4960.00" x2="5042.00" y2="4960.00" stroke="black"/>
    <line x1="5042.00" y1="4960.00" x2="5042.00" y2="4959.00" stroke="black"/>
    <line x1="5042.00" y1="4959.00" x2="5042.00" y2="4958.00" stroke="black"/>
    <line x1="5042.00" y1="4958.00" x2="5043.00" y2="4958.00" stroke="black"/>
    <line x1="5043.00" y1="4958.00" x2="5044.00" y2="4958.00" stroke="black"/>
    <line x1="5044.00" y1="4958.00" x2="5044.00" y2="4957.00" stroke="black"/>
    <line x1="5044.00" y1="4957.00" x2="5044.00" y2="4956.00" stroke="black"/>
    <line x1="5044.00" y1="4956.00" x2="5045.00" y2="4956.00" stroke="black"/>
    <line x1="5045.00" y1="4956.00" x2="5046.00" y2="4956.00" stroke="black"/>
    <line x1="5046.00" y1="4956.00" x2="5046.00" y2="4957.00" stroke="black"/>
    <line x1="5046.00" y1="4957.00" x2="5046.00" y2="4958.00" stroke="black"/>
    <line x1="5046.00" y1="4958.00" x2="5047.00" y2="4958.00" stroke="black"/>
    <line x1="5047.00" y1="4958.00" x2="5048.00" y2="4958.00" stroke="black"/>
    <line x1="5048.00" y1="4958.00" x2="5048.00" y2="4959.00" stroke="black"/>
    <line x1="5048.00" y1="4959.00" x2="5048.00" y2="4960.00" stroke="black"/>
    <line x1="5048.00" y1="4960.00" x2="5049.00" y2="4960.00" stroke="black"/>
    <line x1="5049.00" y1="4960.00" x2="5050.00" y2="4960.00" stroke="black"/>
    <line x1="5050.00" y1="4960.00" x2="5050.00" y2="4961.00" stroke="black"/>
    <line x1="5050.00" y1="4961.00" x2="5050.00" y2="4962.00" stroke="black"/>
    <line x1="5050.00" y1="4962.00" x2="5049.00" y2="4962.00" stroke="black"/>
    <line x1="5049.00" y1="4962.00" x2="5048.00" y2="4962.00" stroke="black"/>
    <line x1="5048.00" y1="4962.00" x2="5048.00" y2="4963.00" stroke="black"/>
    <line x1="5048.00" y1="4963.00" x2="5048.00" y2="4964.00" stroke="black"/>
    <line x1="5048.00" y1="4964.00" x2="5049.00" y2="4964.00" stroke="black"/>
    <line x1="5049.00" y1="4964.00" x2="5050.00" y2="4964.00" stroke="black"/>
    <line x1="5050.00" y1="4964.00" x2="5050.00" y2="4963.00" stroke="black"/>
    <line x1="5050.00" y1="4963.00" x2="5050.00" y2="4962.00" stroke="black"/>
    <line x1="5050.00" y1="4962.00" x2="5051.00" y2="4962.00" stroke="black"/>
    <line x1="5051.00" y1="4962.00" x2="5052.00" y2="4962.00" stroke="black"/>
    <line x1="5052.00" y1="4962.00" x2="5052.00" y2="4963.00" stroke="black"/>
    <line x1="5052.00" y1="4963.00" x2="5052.00" y2="4964.00" stroke="black"/>
    <line x1="5052.00" y1="4964.00" x2="5053.00" y2="4964.00" stroke="black"/>
    <line x1="5053.00" y1="4964.00" x2="5054.00" y2="4964.00" stroke="black"/>
    <line x1="5054.00" y1="4964.00" x2="5054.00" y2="4963.00" stroke="black"/>
    <line x1="5054.00" y1="4963.00" x2="5054.00" y2="4962.00" stroke="black"/>
    <line x1="5054.00" y1="4962.00" x2="5053.00" y2="4962.00" stroke="black"/>
    <line x1="5053.00" y1="4962.00" x2="5052.00" y2="4962.00" stroke="black"/>
    <line x1="5052.00" y1="4962.00" x2="5052.00" y2="4961.00" stroke="black"/>
    <line x1="5052.00" y1="4961.00" x2="5052.00" y2="4960.00" stroke="black"/>
    <line x1="5052.00" y1="4960.00" x2="5053.00" y2="4960.00" stroke="black"/>
    <line x1="5053.00" y1="4960.00" x2="5054.00" y2="4960.00" stroke="black"/>
    <line x1="5054.00" y1="4960.00" x2="5054.00" y2="4959.00" stroke="black"/>
    <line x1="5054.00" y1="4959.00" x2="5054.00" y2="4958.00" stroke="black"/>
    <line x1="5054.00" y1="4958.00" x2="5053.00" y2="4958.00" stroke="black"/>
    <line x1="5053.00" y1="4958.00" x2="5052.00" y2="4958.00" stroke="black"/>
    <line x1="5052.00" y1="4958.00" x2="5052.00" y2="4959.00" stroke="black"/>
    <line x1="5052.00" y1="4959.00" x2="5052.00" y2="4960.00" stroke="black"/>
    <line x1="5052.00" y1="4960.00" x2="5051.00" y2="4960.00" stroke="black"/>
    <line x1="5051.00" y1="4960.00" x2="5050.00" y2="4960.00" stroke="black"/>
    <line x1="5050.00" y1="4960.00" x2="5050.00" y2="4959.00" stroke="black"/>
    <line x1="5050.00" y1="4959.00" x2="5050.00" y2="4958.00" stroke="black"/>
    <line x1="5050.00" y1="4958.00" x2="5049.00" y2="4958.00" stroke="black"/>
    <line x1="5049.00" y1="4958.00" x2="5048.00" y2="4958.00" stroke="black"/>
    <line x1="5048.00" y1="4958.00" x2="5048.00" y2="4957.00" stroke="black"/>
    <line x1="5048.00" y1="4957.00" x2="5048.00" y2="4956.00" stroke="black"/>
    <line x1="5048.00" y1="4956.00" x2="5047.00" y2="4956.00" stroke="black"/>
    <line x1="5047.00" y1="4956.00" x2="5046.00" y2="4956.00" stroke="black"/>
    <line x1="5046.00" y1="4956.00" x2="5046.00" y2="4955.00" stroke="black"/>
    <line x1="5046.00" y1="4955.00" x2="5046.00" y2="4954.00" stroke="black"/>
    <line x1="5046.00" y1="4954.00" x2="5047.00" y2="4954.00" stroke="black"/>
    <line x1="5047.00" y1="4954.00" x2="5048.00" y2="4954.00" stroke="black"/>
    <line x1="5048.00" y1="4954.00" x2="5048.00" y2="4953.00" stroke="black"/>
    <line x1="5048.00" y1="4953.00" x2="5048.00" y2="4952.00" stroke="black"/>
    <line x1="5048.00" y1="4952.00" x2="5049.00" y2="4952.00" stroke="black"/>
    <line x1="5049.00" y1="4952.00" x2="5050.00" y2="4952.00" stroke="black"/>
    <line x1="5050.00" y1="4952.00" x2="5050.00" y2="4951.00" stroke="black"/>
    <line x1="5050.00" y1="4951.00" x2="5050.00" y2="4950.00" stroke="black"/>
    <line x1="5050.00" y1="4950.00" x2="5051.00" y2="4950.00" stroke="black"/>
    <line x1="5051.00" y1="4950.00" x2="5052.00" y2="4950.00" stroke="black"/>
    <line x1="5052.00" y1="4950.00" x2="5052.00" y2="4951.00" stroke="black"/>
    <line x1="5052.00" y1="4951.00" x2="5052.00" y2="4952.00" stroke="black"/>
    <line x1="5052.00" y1="4952.00" x2="5053.00" y2="4952.00" stroke="black"/>
    <line x1="5053.00" y1="4952.00" x2="5054.00" y2="4952.00" stroke="black"/>
    <line x1="5054.00" y1="4952.00" x2="5054.00" y2="4951.00" stroke="black"/>
    <line x1="5054.00" y1="4951.00" x2="5054.00" y2="4950.00" stroke="black"/>
    <line x1="5054.00" y1="4950.00" x2="5053.00" y2="4950.00" stroke="black"/>
    <line x1="5053.00" y1="4950.00" x2="5052.00" y2="4950.00" stroke="black"/>
    <line x1="5052.00" y1="4950.00" x2="5052.00" y2="4949.00" stroke="black"/>
    <line x1="5052.00" y1="4949.00" x2="5052.00" y2="4948.00" stroke="black"/>
    <line x1="5052.00" y1="4948.00" x2="5053.00" y2="4948.00" stroke="black"/>
    <line x1="5053.00" y1="4948.00" x2="5054.00" y2="4948.00" stroke="black"/>
    <line x1="5054.00" y1="4948.00" x2="5054.00" y2="4947.00" stroke="black"/>
    <line x1="5054.00" y1="4947.00" x2="5054.00" y2="4946.00" stroke="black"/>
    <line x1="5054.00" y1="4946.00" x2="5055.00" y2="4946.00" stroke="black"/>
    <line x1="5055.00" y1="4946.00" x2="5056.00" y2="4946.00" stroke="black"/>
    <line x1="5056.00" y1="4946.00" x2="5056.00" y2="4945.00" stroke="black"/>
    <line x1="5056.00" y1="4945.00" x2="5056.00" y2="4944.00" stroke="black"/>
    <line x1="5056.00" y1="4944.00" x2="5057.00" y2="4944.00" stroke="black"/>
    <line x1="5057.00" y1="4944.00" x2="5058.00" y2="4944.00" stroke="black"/>
    <line x1="5058.00" y1="4944.00" x2="5058.00" y2="4945.00" stroke="black"/>
    <line x1="5058.00" y1="4945.00" x2="5058.00" y2="4946.00" stroke="black"/>
    <line x1="5058.00" y1="4946.00" x2="5059.00" y2="4946.00" stroke="black"/>
    <line x1="5059.00" y1="4946.00" x2="5060.00" y2="4946.00" stroke="black"/>
    <line x1="5060.00" y1="4946.00" x2="5060.00" y2="4945.00" stroke="black"/>
    <line x1="5060.00" y1="4945.00" x2="5060.00" y2="4944.00" stroke="black"/>
    <line x1="5060.00" y1="4944.00" x2="5059.00" y2="4944.00" stroke="black"/>
    <line x1="5059.00" y1="4944.00" x2="5058.00" y2="4944.00" stroke="black"/>
    <line x1="5058.00" y1="4944.00" x2="5058.00" y2="4943.00" stroke="black"/>
    <line x1="5058.00" y1="4943.00" x2="5058.00" y2="4942.00" stroke="black"/>
    <line x1="5058.00" y1="4942.00" x2="5059.00" y2="4942.00" stroke="black"/>
    <line x1="5059.00" y1="4942.00" x2="5060.00" y2="4942.00" stroke="black"/>
    <line x1="5060.00" y1="4942.00" x2="5060.00" y2="4941.00" stroke="black"/>
    <line x1="5060.00" y1="4941.00" x2="5060.00" y2="4940.00" stroke="black"/>
    <line x1="5060.00" y1="4940.00" x2="5061.00" y2="4940.00" stroke="black"/>
    <line x1="5061.00" y1="4940.00" x2="5062.00" y2="4940.00" stroke="black"/>
    <line x1="5062.00" y1="4940.00" x2="5062.00" y2="4939.00" stroke="black"/>
    <line x1="5062.00" y1="4939.00" x2="5062.00" y2="4938.00" stroke="black"/>
    <line x1="5062.00" y1="4938.00" x2="5063.00" y2="4938.00" stroke="black"/>
    <line x1="5063.00" y1="4938.00" x2="5064.00" y2="4938.00" stroke="black"/>
    <line x1="5064.00" y1="4938.00" x2="5064.00" y2="4939.00" stroke="black"/>
    <line x1="5064.00" y1="4939.00" x2="5064.00" y2="4940.00" stroke="black"/>
    <line x1="5064.00" y1="4940.00" x2="5065.00" y2="4940.00" stroke="black"/>
    <line x1="5065.00" y1="4940.00" x2="5066.00" y2="4940.00" stroke="black"/>
    <line x1="5066.00" y1="4940.00" x2="5066.00" y2="4941.00" stroke="black"/>
    <line x1="5066.00" y1="4941.00" x2="5066.00" y2="4942.00" stroke="black"/>
    <line x1="5066.00" y1="4942.00" x2="5067.00" y2="4942.00" stroke="black"/>
    <line x1="5067.00" y1="4942.00" x2="5068.00" y2="4942.00" stroke="black"/>
    <line x1="5068.00" y1="4942.00" x2="5068.00" y2="4943.00" stroke="black"/>
    <line x1="5068.00" y1="4943.00" x2="5068.00" y2="4944.00" stroke="black"/>
    <line x1="5068.00" y1="4944.00" x2="5067.00" y2="4944.00" stroke="black"/>
    <line x1="5067.00" y1="4944.00" x2="5066.00" y2="4944.00" stroke="black"/>
    <line x1="5066.00" y1="4944.00" x2="5066.00" y2="4945.00" stroke="black"/>
    <line x1="5066.00" y1="4945.00" x2="5066.00" y2="4946.00" stroke="black"/>
    <line x1="5066.00" y1="4946.00" x2="5067.00" y2="4946.00" stroke="black"/>
    <line x1="5067.00" y1="4946.00" x2="5068.00" y2="4946.00" stroke="black"/>
    <line x1="5068.00" y1="4946.00" x2="5068.00" y2="4945.00" stroke="black"/>
    <line x1="5068.00" y1="4945.00" x2="5068.00" y2="4944.00" stroke="black"/>
    <line x1="5068.00" y1="4944.00" x2="5069.00" y2="4944.00" stroke="black"/>
    <line x1="5069.00" y1="4944.00" x2="5070.00" y2="4944.00" stroke="black"/>
    <line x1="5070.00" y1="4944.00" x2="5070.00" y2="4945.00" stroke="black"/>
    <line x1="5070.00" y1="4945.00" x2="5070.00" y2="4946.00" stroke="black"/>
    <line x1="5070.00" y1="4946.00" x2="5071.00" y2="4946.00" stroke="black"/>
    <line x1="5071.00" y1="4946.00" x2="5072.00" y2="4946.00" stroke="black"/>
    <line x1="5072.00" y1="4946.00" x2="5072.00" y2="4945.00" stroke="black"/>
    <line x1="5072.00" y1="4945.00" x2="5072.00" y2="4944.00" stroke="black"/>
    <line x1="5072.00" y1="4944.00" x2="5071.00" y2="4944.00" stroke="black"/>
    <line x1="5071.00" y1="4944.00" x2="5070.00" y2="4944.00" stroke="black"/>
    <line x1="5070.00" y1="4944.00" x2="5070.00" y2="4943.00" stroke="black"/>
    <line x1="5070.00" y1="4943.00" x2="5070.00" y2="4942.00" stroke="black"/>
    <line x1="5070.00" y1="4942.00" x2="5071.00" y2="4942.00" stroke="black"/>
    <line x1="5071.00" y1="4942.00" x2="5072.00" y2="4942.00" stroke="black"/>
    <line x1="5072.00" y1="4942.00" x2="5072.00" y2="4941.00" stroke="black"/>
    <line x1="5072.00" y1="4941.00" x2="5072.00" y2="4940.00" stroke="black"/>
    <line x1="5072.00" y1="4940.00" x2="5071.00" y2="4940.00" stroke="black"/>
    <line x1="5071.00" y1="4940.00" x2="5070.00" y2="4940.00" stroke="black"/>
    <line x1="5070.00" y1="4940.00" x2="5070.00" y2="4941.00" stroke="black"/>
    <line x1="5070.00" y1="4941.00" x2="5070.00" y2="4942.00" stroke="black"/>
    <line x1="5070.00" y1="4942.00" x2="5069.00" y2="4942.00" stroke="black"/>
    <line x1="5069.00" y1="4942.00" x2="5068.00" y2="4942.00" stroke="black"/>
    <line x1="5068.00" y1="4942.00" x2="5068.00" y2="4941.00" stroke="black"/>
    <line x1="5068.00" y1="4941.00" x2="5068.00" y2="4940.00" stroke="black"/>
    <line x1="5068.00" y1="4940.00" x2="5067.00" y2="4940.00" stroke="black"/>
    <line x1="5067.00" y1="4940.00" x2="5066.00" y2="4940.00" stroke="black"/>
    <line x1="5066.00" y1="4940.00" x2="5066.00" y2="4939.00" stroke="black"/>
    <line x1="5066.00" y1="4939.00" x2="5066.00" y2="4938.00" stroke="black"/>
    <line x1="5066.00" y1="4938.00" x2="5065.00" y2="4938.00" stroke="black"/>
    <line x1="5065.00" y1="4938.00" x2="5064.00" y2="4938.00" stroke="black"/>
    <line x1="5064.00" y1="4938.00" x2="5064.00" y2="4937.00" stroke="black"/>
    <line x1="5064.00" y1="4937.00" x2="5064.00" y2="4936.00" stroke="black"/>
    <line x1="5064.00" y1="4936.00" x2="5065.00" y2="4936.00" stroke="black"/>
    <line x1="5065.00" y1="4936.00" x2="5066.00" y2="4936.00" stroke="black"/>
    <line x1="5066.00" y1="4936.00" x2="5066.00" y2="4935.00" stroke="black"/>
    <line x1="5066.00" y1="4935.00" x2="5066.00" y2="4934.00" stroke="black"/>
    <line x1="5066.00" y1="4934.00" x2="5067.00" y2="4934.00" stroke="black"/>
    <line x1="5067.00" y1="4934.00" x2="5068.00" y2="4934.00" stroke="black"/>
    <line x1="5068.00" y1="4934.00" x2="5068.00" y2="4933.00" stroke="black"/>
    <line x1="5068.00" y1="4933.00" x2="5068.00" y2="4932.00" stroke="black"/>
    <line x1="5068.00" y1="4932.00" x2="5069.00" y2="4932.00" stroke="black"/>
    <line x1="5069.00" y1="4932.00" x2="5070.00" y2="4932.00" stroke="black"/>
    <line x1="5070.00" y1="4932.00" x2="5070.00" y2="4933.00" stroke="black"/>
    <line x1="5070.00" y1="4933.00" x2="5070.00" y2="4934.00" stroke="black"/>
    <line x1="5070.00" y1="4934.00" x2="5071.00" y2="4934.00" stroke="black"/>
    <line x1="5071.00" y1="4934.00" x2="5072.00" y2="4934.00" stroke="black"/>
    <line x1="5072.00" y1="4934.00" x2="5072.00" y2="4933.00" stroke="black"/>
    <line x1="5072.00" y1="4933.00" x2="5072.00" y2="4932.00" stroke="black"/>
    <line x1="5072.00" y1="4932.00" x2="5071.00" y2="4932.00" stroke="black"/>
    <line x1="5071.00" y1="4932.00" x2="5070.00" y2="4932.00" stroke="black"/>
    <line x1="5070.00" y1="4932.00" x2="5070.00" y2="4931.00" stroke="black"/>
    <line x1="5070.00" y1="4931.00" x2="5070.00" y2="4930.00" stroke="black"/>
    <line x1="5070.00" y1="4930.00" x2="5071.00" y2="4930.00" stroke="black"/>
    <line x1="5071.00" y1="4930.00" x2="5072.00" y2="4930.00" stroke="black"/>
    <line x1="5072.00" y1="4930.00" x2="5072.00" y2="4929.00" stroke="black"/>
    <line x1="5072.00" y1="4929.00" x2="5072.00" y2="4928.00" stroke="black"/>
    <line x1="5072.00" y1="4928.00" x2="5073.00" y2="4928.00" stroke="black"/>
    <line x1="5073.00" y1="4928.00" x2="5074.00" y2="4928.00" stroke="black"/>
    <line x1="5074.00" y1="4928.00" x2="5074.00" y2="4927.00" stroke="black"/>
    <line x1="5074.00" y1="4927.00" x2="5074.00" y2="4926.00" stroke="black"/>
    <line x1="5074.00" y1="4926.00" x2="5075.00" y2="4926.00" stroke="black"/>
    <line x1="5075.00" y1="4926.00" x2="5076.00" y2="4926.00" stroke="black"/>
    <line x1="5076.00" y1="4926.00" x2="5076.00" y2="4927.00" stroke="black"/>
    <line x1="5076.00" y1="4927.00" x2="5076.00" y2="4928.00" stroke="black"/>
    <line x1="5076.00" y1="4928.00" x2="5077.00" y2="4928.00" stroke="black"/>
    <line x1="5077.00" y1="4928.00" x2="5078.00" y2="4928.00" stroke="black"/>
    <line x1="5078.00" y1="4928.00" x2="5078.00" y2="4927.00" stroke="black"/>
    <line x1="5078.00" y1="4927.00" x2="5078.00" y2="4926.00" stroke="black"/>
    <line x1="5078.00" y1="4926.00" x2="5077.00" y2="4926.00" stroke="black"/>
    <line x1="5077.00" y1="4926.00" x2="5076.00" y2="4926.00" stroke="black"/>
    <line x1="5076.00" y1="4926.00" x2="5076.00" y2="4925.00" stroke="black"/>
    <line x1="5076.00" y1="4925.00" x2="5076.00" y2="4924.00" stroke="black"/>
    <line x1="5076.00" y1="4924.00" x2="5077.00" y2="4924.00" stroke="black"/>
    <line x1="5077.00" y1="4924.00" x2="5078.00" y2="4924.00" stroke="black"/>
    <line x1="5078.00" y1="4924.00" x2="5078.00" y2="4923.00" stroke="black"/>
    <line x1="5078.00" y1="4923.00" x2="5078.00" y2="4922.00" stroke="black"/>
    <line x1="5078.00" y1="4922.00" x2="5079.00" y2="4922.00" stroke="black"/>
    <line x1="5079.00" y1="4922.00" x2="5080.00" y2="4922.00" stroke="black"/>
    <line x1="5080.00" y1="4922.00" x2="5080.00" y2="4921.00" stroke="black"/>
    <line x1="5080.00" y1="4921.00" x2="5080.00" y2="4920.00" stroke="black"/>
    <line x1="5080.00" y1="4920.00" x2="5081.00" y2="4920.00" stroke="black"/>
    <line x1="5081.00" y1="4920.00" x2="5082.00" y2="4920.00" stroke="black"/>
    <line x1="5082.00" y1="4920.00" x2="5082.00" y2="4921.00" stroke="black"/>
    <line x1="5082.00" y1="4921.00" x2="5082.00" y2="4922.00" stroke="black"/>
    <line x1="5082.00" y1="4922.00" x2="5083.00" y2="4922.00" stroke="black"/>
    <line x1="5083.00" y1="4922.00" x2="5084.00" y2="4922.00" stroke="black"/>
    <line x1="5084.00" y1="4922.00" x2="5084.00" y2="4923.00" stroke="black"/>
    <line x1="5084.00" y1="4923.00" x2="5084.00" y2="4924.00" stroke="black"/>
    <line x1="5084.00" y1="4924.00" x2="5085.00" y2="4924.00" stroke="black"/>
    <line x1="5085.00" y1="4924.00" x2="5086.00" y2="4924.00" stroke="black"/>
    <line x1="5086.00" y1="4924.00" x2="5086.00" y2="4925.00" stroke="black"/>
    <line x1="5086.00" y1="4925.00" x2="5086.00" y2="4926.00" stroke="black"/>
    <line x1="5086.00" y1="4926.00" x2="5085.00" y2="4926.00" stroke="black"/>
    <line x1="5085.00" y1="4926.00" x2="5084.00" y2="4926.00" stroke="black"/>
    <line x1="5084.00" y1="4926.00" x2="5084.00" y2="4927.00" stroke="black"/>
    <line x1="5084.00" y1="4927.00" x2="5084.00" y2="4928.00" stroke="black"/>
    <line x1="5084.00" y1="4928.00" x2="5085.00" y2="4928.00" stroke="black"/>
    <line x1="5085.00" y1="4928.00" x2="5086.00" y2="4928.00" stroke="black"/>
    <line x1="5086.00" y1="4928.00" x2="5086.00" y2="4927.00" stroke="black"/>
    <line x1="5086.00" y1="4927.00" x2="5086.00" y2="4926.00" stroke="black"/>
    <line x1="5086.00" y1="4926.00" x2="5087.00" y2="4926.00" stroke="black"/>
    <line x1="5087.00" y1="4926.00" x2="5088.00" y2="4926.00" stroke="black"/>
    <line x1="5088.00" y1="4926.00" x2="5088.00" y2="4927.00" stroke="black"/>
    <line x1="5088.00" y1="4927.00" x2="5088.00" y2="4928.00" stroke="black"/>
    <line x1="5088.00" y1="4928.00" x2="5089.00" y2="4928.00" stroke="black"/>
    <line x1="5089.00" y1="4928.00" x2="5090.00" y2="4928.00" stroke="black"/>
    <line x1="5090.00" y1="4928.00" x2="5090.00" y2="4929.00" stroke="black"/>
    <line x1="5090.00" y1="4929.00" x2="5090.00" y2="4930.00" stroke="black"/>
    <line x1="5090.00" y1="4930.00" x2="5091.00" y2="4930.00" stroke="black"/>
    <line x1="5091.00" y1="4930.00" x2="5092.00" y2="4930.00" stroke="black"/>
    <line x1="5092.00" y1="4930.00" x2="5092.00" y2="4931.00" stroke="black"/>
    <line x1="5092.00" y1="4931.00" x2="5092.00" y2="4932.00" stroke="black"/>
    <line x1="5092.00" y1="4932.00" x2="5091.00" y2="4932.00" stroke="black"/>
    <line x1="5091.00" y1="4932.00" x2="5090.00" y2="4932.00" stroke="black"/>
    <line x1="5090.00" y1="4932.00" x2="5090.00" y2="4933.00" stroke="black"/>
    <line x1="5090.00" y1="4933.00" x2="5090.00" y2="4934.00" stroke="black"/>
    <line x1="5090.00" y1="4934.00" x2="5091.00" y2="4934.00" stroke="black"/>
    <line x1="5091.00" y1="4934.00" x2="5092.00" y2="4934.00" stroke="black"/>
    <line x1="5092.00" y1="4934.00" x2="5092.00" y2="4933.00" stroke="black"/>
    <line x1="5092.00" y1="4933.00" x2="5092.00" y2="4932.00" stroke="black"/>
    <line x1="5092.00" y1="4932.00" x2="5093.00" y2="4932.00" stroke="black"/>
    <line x1="5093.00" y1="4932.00" x2="5094.00" y2="4932.00" stroke="black"/>
    <line x1="5094.00" y1="4932.00" x2="5094.00" y2="4933.00" stroke="black"/>
    <line x1="5094.00" y1="4933.00" x2="5094.00" y2="4934.00" stroke="black"/>
    <line x1="5094.00" y1="4934.00" x2="5095.00" y2="4934.00" stroke="black"/>
    <line x1="5095.00" y1="4934.00" x2="5096.00" y2="4934.00" stroke="black"/>
    <line x1="5096.00" y1="4934.00" x2="5096.00" y2="4935.00" stroke="black"/>
    <line x1="5096.00" y1="4935.00" x2="5096.00" y2="4936.00" stroke="black"/>
    <line x1="5096.00" y1="4936.00" x2="5097.00" y2="4936.00" stroke="black"/>
    <line x1="5097.00" y1="4936.00" x2="5098.00" y2="4936.00" stroke="black"/>
    <line x1="5098.00" y1="4936.00" x2="5098.00" y2="4937.00" stroke="black"/>
    <line x1="5098.00" y1="4937.00" x2="5098.00" y2="4938.00" stroke="black"/>
    <line x1="5098.00" y1="4938.00" x2="5097.00" y2="4938.00" stroke="black"/>
    <line x1="5097.00" y1="4938.00" x2="5096.00" y2="4938.00" stroke="black"/>
    <line x1="5096.00" y1="4938.00" x2="5096.00" y2="4939.00" stroke="black"/>
    <line x1="5096.00" y1="4939.00" x2="5096.00" y2="4940.00" stroke="black"/>
    <line x1="5096.00" y1="4940.00" x2="5095.00" y2="4940.00" stroke="black"/>
    <line x1="5095.00" y1="4940.00" x2="5094.00" y2="4940.00" stroke="black"/>
    <line x1="5094.00" y1="4940.00" x2="5094.00" y2="4941.00" stroke="black"/>
    <line x1="5094.00" y1="4941.00" x2="5094.00" y2="4942.00" stroke="black"/>
    <line x1="5094.00" y1="4942.00" x2="5093.00" y2="4942.00" stroke="black"/>
    <line x1="5093.00" y1="4942.00" x2="5092.00" y2="4942.00" stroke="black"/>
    <line x1="5092.00" y1="4942.00" x2="5092.00" y2="4941.00" stroke="black"/>
    <line x1="5092.00" y1="4941.00" x2="5092.00" y2="4940.00" stroke="black"/>
    <line x1="5092.00" y1="4940.00" x2="5091.00" y2="4940.00" stroke="black"/>
    <line x1="5091.00" y1="4940.00" x2="5090.00" y2="4940.00" stroke="black"/>
    <line x1="5090.00" y1="4940.00" x2="5090.00" y2="4941.00" stroke="black"/>
    <line x1="5090.00" y1="4941.00" x2="5090.00" y2="4942.00" stroke="black"/>
    <line x1="5090.00" y1="4942.00" x2="5091.00" y2="4942.00" stroke="black"/>
    <line x1="5091.00" y1="4942.00" x2="5092.00" y2="4942.00" stroke="black"/>
    <line x1="5092.00" y1="4942.00" x2="5092.00" y2="4943.00" stroke="black"/>
    <line x1="5092.00" y1="4943.00" x2="5092.00" y2="4944.00" stroke="black"/>
    <line x1="5092.00" y1="4944.00" x2="5091.00" y2="4944.00" stroke="black"/>
    <line x1="5091.00" y1="4944.00" x2="5090.00" y2="4944.00" stroke="black"/>
    <line x1="5090.00" y1="4944.00" x2="5090.00" y2="4945.00" stroke="black"/>
    <line x1="5090.00" y1="4945.00" x2="5090.00" y2="4946.00" stroke="black"/>
    <line x1="5090.00" y1="4946.00" x2="5091.00" y2="4946.00" stroke="black"/>
    <line x1="5091.00" y1="4946.00" x2="5092.00" y2="4946.00" stroke="black"/>
    <line x1="5092.00" y1="4946.00" x2="5092.00" y2="4945.00" stroke="black"/>
    <line x1="5092.00" y1="4945.00" x2="5092.00" y2="4944.00" stroke="black"/>
    <line x1="5092.00" y1="4944.00" x2="5093.00" y2="4944.00" stroke="black"/>
    <line x1="5093.00" y1="4944.00" x2="5094.00" y2="4944.00" stroke="black"/>
    <line x1="5094.00" y1="4944.00" x2="5094.00" y2="4945.00" stroke="black"/>
    <line x1="5094.00" y1="4945.00" x2="5094.00" y2="4946.00" stroke="black"/>
    <line x1="5094.00" y1="4946.00" x2="5095.00" y2="4946.00" stroke="black"/>
    <line x1="5095.00" y1="4946.00" x2="5096.00" y2="4946.00" stroke="black"/>
    <line x1="5096.00" y1="4946.00" x2="5096.00" y2="4945.00" stroke="black"/>
    <line x1="5096.00" y1="4945.00" x2="5096.00" y2="4944.00" stroke="black"/>
    <line x1="5096.00" y1="4944.00" x2="5095.00" y2="4944.00" stroke="black"/>
    <line x1="5095.00" y1="4944.00" x2="5094.00" y2="4944.00" stroke="black"/>
    <line x1="5094.00" y1="4944.00" x2="5094.00" y2="4943.00" stroke="black"/>
    <line x1="5094.00" y1="4943.00" x2="5094.00" y2="4942.00" stroke="black"/>
    <line x1="5094.00" y1="4942.00" x2="5095.00" y2="4942.00" stroke="black"/>
    <line x1="5095.00" y1="4942.00" x2="5096.00" y2="4942.00" stroke="black"/>
    <line x1="5096.00" y1="4942.00" x2="5096.00" y2="4941.00" stroke="black"/>
    <line x1="5096.00" y1="4941.00" x2="5096.00" y2="4940.00" stroke="black"/>
    <line x1="5096.00" y1="4940.00" x2="5097.00" y2="4940.00" stroke="black"/>
    <line x1="5097.00" y1="4940.00" x2="5098.00" y2="4940.00" stroke="black"/>
    <line x1="5098.00" y1="4940.00" x2="5098.00" y2="4939.00" stroke="black"/>
    <line x1="5098.00" y1="4939.00" x2="5098.00" y2="4938.00" stroke="black"/>
    <line x1="5098.00" y1="4938.00" x2="5099.00" y2="4938.00" stroke="black"/>
    <line x1="5099.00" y1="4938.00" x2="5100.00" y2="4938.00" stroke="black"/>
    <line x1="5100.00" y1="4938.00" x2="5100.00" y2="4939.00" stroke="black"/>
    <line x1="5100.00" y1="4939.00" x2="5100.00" y2="4940.00" stroke="black"/>
    <line x1="5100.00" y1="4940.00" x2="5101.00" y2="4940.00" stroke="black"/>
    <line x1="5101.00" y1="4940.00" x2="5102.00" y2="4940.00" stroke="black"/>
    <line x1="5102.00" y1="4940.00" x2="5102.00" y2="4941.00" stroke="black"/>
    <line x1="5102.00" y1="4941.00" x2="5102.00" y2="4942.00" stroke="black"/>
    <line x1="5102.00" y1="4942.00" x2="5103.00" y2="4942.00" stroke="black"/>
    <line x1="5103.00" y1="4942.00" x2="5104.00" y2="4942.00" stroke="black"/>
    <line x1="5104.00" y1="4942.00" x2="5104.00" y2="4943.00" stroke="black"/>
    <line x1="5104.00" y1="4943.00" x2="5104.00" y2="4944.00" stroke="black"/>
    <line x1="5104.00" y1="4944.00" x2="5103.00" y2="4944.00" stroke="black"/>
    <line x1="5103.00" y1="4944.00" x2="5102.00" y2="4944.00" stroke="black"/>
    <line x1="5102.00" y1="4944.00" x2="5102.00" y2="4945.00" stroke="black"/>
    <line x1="5102.00" y1="4945.00" x2="5102.00" y2="4946.00" stroke="black"/>
    <line x1="5102.00" y1="4946.00" x2="5103.00" y2="4946.00" stroke="black"/>
    <line x1="5103.00" y1="4946.00" x2="5104.00" y2="4946.00" stroke="black"/>
    <line x1="5104.00" y1="4946.00" x2="5104.00" y2="4945.00" stroke="black"/>
    <line x1="5104.00" y1="4945.00" x2="5104.00" y2="4944.00" stroke="black"/>
    <line x1="5104.00" y1="4944.00" x2="5105.00" y2="4944.00" stroke="black"/>
    <line x1="5105.00" y1="4944.00" x2="5106.00" y2="4944.00" stroke="black"/>
    <line x1="5106.00" y1="4944.00" x2="5106.00" y2="4945.00" stroke="black"/>
    <line x1="5106.00" y1="4945.00" x2="5106.00" y2="4946.00" stroke="black"/>
    <line x1="5106.00" y1="4946.00" x2="5107.00" y2="4946.00" stroke="black"/>
    <line x1="5107.00" y1="4946.00" x2="5108.00" y2="4946.00" stroke="black"/>
    <line x1="5108.00" y1="4946.00" x2="5108.00" y2="4947.00" stroke="black"/>
    <line x1="5108.00" y1="4947.00" x2="5108.00" y2="4948.00" stroke="black"/>
    <line x1="5108.00" y1="4948.00" x2="5109.00" y2="4948.00" stroke="black"/>
    <line x1="5109.00" y1="4948.00" x2="5110.00" y2="4948.00" stroke="black"/>
    <line x1="5110.00" y1="4948.00" x2="5110.00" y2="4949.00" stroke="black"/>
    <line x1="5110.00" y1="4949.00" x2="5110.00" y2="4950.00" stroke="black"/>
    <line x1="5110.00" y1="4950.00" x2="5109.00" y2="4950.00" stroke="black"/>
    <line x1="5109.00" y1="4950.00" x2="5108.00" y2="4950.00" stroke="black"/>
    <line x1="5108.00" y1="4950.00" x2="5108.00" y2="4951.00" stroke="black"/>
    <line x1="5108.00" y1="4951.00" x2="5108.00" y2="4952.00" stroke="black"/>
    <line x1="5108.00" y1="4952.00" x2="5109.00" y2="4952.00" stroke="black"/>
    <line x1="5109.00" y1="4952.00" x2="5110.00" y2="4952.00" stroke="black"/>
    <line x1="5110.00" y1="4952.00" x2="5110.00" y2="4951.00" stroke="black"/>
    <line x1="5110.00" y1="4951.00" x2="5110.00" y2="4950.00" stroke="black"/>
    <line x1="5110.00" y1="4950.00" x2="5111.00" y2="4950.00" stroke="black"/>
    <line x1="5111.00" y1="4950.00" x2="5112.00" y2="4950.00" stroke="black"/>
    <line x1="5112.00" y1="4950.00" x2="5112.00" y2="4951.00" stroke="black"/>
    <line x1="5112.00" y1="4951.00" x2="5112.00" y2="4952.00" stroke="black"/>
    <line x1="5112.00" y1="4952.00" x2="5113.00" y2="4952.00" stroke="black"/>
    <line x1="5113.00" y1="4952.00" x2="5114.00" y2="4952.00" stroke="black"/>
    <line x1="5114.00" y1="4952.00" x2="5114.00" y2="4953.00" stroke="black"/>
    <line x1="5114.00" y1="4953.00" x2="5114.00" y2="4954.00" stroke="black"/>
    <line x1="5114.00" y1="4954.00" x2="5115.00" y2="4954.00" stroke="black"/>
    <line x1="5115.00" y1="4954.00" x2="5116.00" y2="4954.00" stroke="black"/>
    <line x1="5116.00" y1="4954.00" x2="5116.00" y2="4955.00" stroke="black"/>
    <line x1="5116.00" y1="4955.00" x2="5116.00" y2="4956.00" stroke="black"/>
    <line x1="5116.00" y1="4956.00" x2="5115.00" y2="4956.00" stroke="black"/>
    <line x1="5115.00" y1="4956.00" x2="5114.00" y2="4956.00" stroke="black"/>
    <line x1="5114.00" y1="4956.00" x2="5114.00" y2="4957.00" stroke="black"/>
    <line x1="5114.00" y1="4957.00" x2="5114.00" y2="4958.00" stroke="black"/>
    <line x1="5114.00" y1="4958.00" x2="5113.00" y2="4958.00" stroke="black"/>
    <line x1="5113.00" y1="4958.00" x2="5112.00" y2="4958.00" stroke="black"/>
    <line x1="5112.00" y1="4958.00" x2="5112.00" y2="4959.00" stroke="black"/>
    <line x1="5112.00" y1="4959.00" x2="5112.00" y2="4960.00" stroke="black"/>
    <line x1="5112.00" y1="4960.00" x2="5111.00" y2="4960.00" stroke="black"/>
    <line x1="5111.00" y1="4960.00" x2="5110.00" y2="4960.00" stroke="black"/>
    <line x1="5110.00" y1="4960.00" x2="5110.00" y2="4959.00" stroke="black"/>
    <line x1="5110.00" y1="4959.00" x2="5110.00" y2="4958.00" stroke="black"/>
    <line x1="5110.00" y1="4958.00" x2="5109.00" y2="4958.00" stroke="black"/>
    <line x1="5109.00" y1="4958.00" x2="5108.00" y2="4958.00" stroke="black"/>
    <line x1="5108.00" y1="4958.00" x2="5108.00" y2="4959.00" stroke="black"/>
    <line x1="5108.00" y1="4959.00" x2="5108.00" y2="4960.00" stroke="black"/>
    <line x1="5108.00" y1="4960.00" x2="5109.00" y2="4960.00" stroke="black"/>
    <line x1="5109.00" y1="4960.00" x2="5110.00" y2="4960.00" stroke="black"/>
    <line x1="5110.00" y1="4960.00" x2="5110.00" y2="4961.00" stroke="black"/>
    <line x1="5110.00" y1="4961.00" x2="5110.00" y2="4962.00" stroke="black"/>
    <line x1="5110.00" y1="4962.00" x2="5109.00" y2="4962.00" stroke="black"/>
    <line x1="5109.00" y1="4962.00" x2="5108.00" y2="4962.00" stroke="black"/>
    <line x1="5108.00" y1="4962.00" x2="5108.00" y2="4963.00" stroke="black"/>
    <line x1="5108.00" y1="4963.00" x2="5108.00" y2="4964.00" stroke="black"/>
    <line x1="5108.00" y1="4964.00" x2="5109.00" y2="4964.00" stroke="black"/>
    <line x1="5109.00" y1="4964.00" x2="5110.00" y2="4964.00" stroke="black"/>
    <line x1="5110.00" y1="4964.00" x2="5110.00" y2="4963.00" stroke="black"/>
    <line x1="5110.00" y1="4963.00" x2="5110.00" y2="4962.00" stroke="black"/>
    <line x1="5110.00" y1="4962.00" x2="5111.00" y2="4962.00" stroke="black"/>
    <line x1="5111.00" y1="4962.00" x2="5112.00" y2="4962.00" stroke="black"/>
    <line x1="5112.00" y1="4962.00" x2="5112.00" y2="4963.00" stroke="black"/>
    <line x1="5112.00" y1="4963.00" x2="5112.00" y2="4964.00" stroke="black"/>
    <line x1="5112.00" y1="4964.00" x2="5113.00" y2="4964.00" stroke="black"/>
    <line x1="5113.00" y1="4964.00" x2="5114.00" y2="4964.00" stroke="black"/>
    <line x1="5114.00" y1="4964.00" x2="5114.00" y2="4963.00" stroke="black"/>
    <line x1="5114.00" y1="4963.00" x2="5114.00" y2="4962.00" stroke="black"/>
    <line x1="5114.00" y1="4962.00" x2="5113.00" y2="4962.00" stroke="black"/>
    <line x1="5113.00" y1="4962.00" x2="5112.00" y2="4962.00" stroke="black"/>
    <line x1="5112.00" y1="4962.00" x2="5112.00" y2="4961.00" stroke="black"/>
    <line x1="5112.00" y1="4961.00" x2="5112.00" y2="4960.00" stroke="black"/>
    <line x1="5112.00" y1="4960.00" x2="5113.00" y2="4960.00" stroke="black"/>
    <line x1="5113.00" y1="4960.00" x2="5114.00" y2="4960.00" stroke="black"/>
    <line x1="5114.00" y1="4960.00" x2="5114.00" y2="4959.00" stroke="black"/>
    <line x1="5114.00" y1="4959.00" x2="5114.00" y2="4958.00" stroke="black"/>
    <line x1="5114.00" y1="4958.00" x2="5115.00" y2="4958.00" stroke="black"/>
    <line x1="5115.00" y1="4958.00" x2="5116.00" y2="4958.00" stroke="black"/>
    <line x1="5116.00" y1="4958.00" x2="5116.00" y2="4957.00" stroke="black"/>
    <line x1="5116.00" y1="4957.00" x2="5116.00" y2="4956.00" stroke="black"/>
    <line x1="5116.00" y1="4956.00" x2="5117.00" y2="4956.00" stroke="black"/>
    <line x1="5117.00" y1="4956.00" x2="5118.00" y2="4956.00" stroke="black"/>
    <line x1="5118.00" y1="4956.00" x2="5118.00" y2="4957.00" stroke="black"/>
    <line x1="5118.00" y1="4957.00" x2="5118.00" y2="4958.00" stroke="black"/>
    <line x1="5118.00" y1="4958.00" x2="5119.00" y2="4958.00" stroke="black"/>
    <line x1="5119.00" y1="4958.00" x2="5120.00" y2="4958.00" stroke="black"/>
    <line x1="5120.00" y1="4958.00" x2="5120.00" y2="4959.00" stroke="black"/>
    <line x1="5120.00" y1="4959.00" x2="5120.00" y2="4960.00" stroke="black"/>
    <line x1="5120.00" y1="4960.00" x2="5121.00" y2="4960.00" stroke="black"/>
    <line x1="5121.00" y1="4960.00" x2="5122.00" y2="4960.00" stroke="black"/>
    <line x1="5122.00" y1="4960.00" x2="5122.00" y2="4961.00" stroke="black"/>
    <line x1="5122.00" y1="4961.00" x2="5122.00" y2="4962.00" stroke="black"/>
    <line x1="5122.00" y1="4962.00" x2="5121.00" y2="4962.00" stroke="black"/>
    <line x1="5121.00" y1="4962.00" x2="5120.00" y2="4962.00" stroke="black"/>
    <line x1="5120.00" y1="4962.00" x2="5120.00" y2="4963.00" stroke="black"/>
    <line x1="5120.00" y1="4963.00" x2="5120.00" y2="4964.00" stroke="black"/>
    <line x1="5120.00" y1="4964.00" x2="5121.00" y2="4964.00" stroke="black"/>
    <line x1="5121.00" y1="4964.00" x2="5122.00" y2="4964.00" stroke="black"/>
    <line x1="5122.00" y1="4964.00" x2="5122.00" y2="4963.00" stroke="black"/>
    <line x1="5122.00" y1="4963.00" x2="5122.00" y2="4962.00" stroke="black"/>
    <line x1="5122.00" y1="4962.00" x2="5123.00" y2="4962.00" stroke="black"/>
    <line x1="5123.00" y1="4962.00" x2="5124.00" y2="4962.00" stroke="black"/>
    <line x1="5124.00" y1="4962.00" x2="5124.00" y2="4963.00" stroke="black"/>
    <line x1="5124.00" y1="4963.00" x2="5124.00" y2="4964.00" stroke="black"/>
    <line x1="5124.00" y1="4964.00" x2="5125.00" y2="4964.00" stroke="black"/>
    <line x1="5125.00" y1="4964.00" x2="5126.00" y2="4964.00" stroke="black"/>
    <line x1="5126.00" y1="4964.00" x2="5126.00" y2="4965.00" stroke="black"/>
    <line x1="5126.00" y1="4965.00" x2="5126.00" y2="4966.00" stroke="black"/>
    <line x1="5126.00" y1="4966.00" x2="5127.00" y2="4966.00" stroke="black"/>
    <line x1="5127.00" y1="4966.00" x2="5128.00" y2="4966.00" stroke="black"/>
    <line x1="5128.00" y1="4966.00" x2="5128.00" y2="4967.00" stroke="black"/>
    <line x1="5128.00" y1="4967.00" x2="5128.00" y2="4968.00" stroke="black"/>
    <line x1="5128.00" y1="4968.00" x2="5127.00" y2="4968.00" stroke="black"/>
    <line x1="5127.00" y1="4968.00" x2="5126.00" y2="4968.00" stroke="black"/>
    <line x1="5126.00" y1="4968.00" x2="5126.00" y2="4969.00" stroke="black"/>
    <line x1="5126.00" y1="4969.00" x2="5126.00" y2="4970.00" stroke="black"/>
    <line x1="5126.00" y1="4970.00" x2="5127.00" y2="4970.00" stroke="black"/>
    <line x1="5127.00" y1="4970.00" x2="5128.00" y2="4970.00" stroke="black"/>
    <line x1="5128.00" y1="4970.00" x2="5128.00" y2="4969.00" stroke="black"/>
    <line x1="5128.00" y1="4969.00" x2="5128.00" y2="4968.00" stroke="black"/>
    <line x1="5128.00" y1="4968.00" x2="5129.00" y2="4968.00" stroke="black"/>
    <line x1="5129.00" y1="4968.00" x2="5130.00" y2="4968.00" stroke="black"/>
    <line x1="5130.00" y1="4968.00" x2="5130.00" y2="4969.00" stroke="black"/>
    <line x1="5130.00" y1="4969.00" x2="5130.00" y2="4970.00" stroke="black"/>
    <line x1="5130.00" y1="4970.00" x2="5131.00" y2="4970.00" stroke="black"/>
    <line x1="5131.00" y1="4970.00" x2="5132.00" y2="4970.00" stroke="black"/>
    <line x1="5132.00" y1="4970.00" x2="5132.00" y2="4971.00" stroke="black"/>
    <line x1="5132.00" y1="4971.00" x2="5132.00" y2="4972.00" stroke="black"/>
    <line x1="5132.00" y1="4972.00" x2="5133.00" y2="4972.00" stroke="black"/>
    <line x1="5133.00" y1="4972.00" x2="5134.00" y2="4972.00" stroke="black"/>
    <line x1="5134.00" y1="4972.00" x2="5134.00" y2="4973.00" stroke="black"/>
    <line x1="5134.00" y1="4973.00" x2="5134.00" y2="4974.00" stroke="black"/>
    <line x1="5134.00" y1="4974.00" x2="5133.00" y2="4974.00" stroke="black"/>
    <line x1="5133.00" y1="4974.00" x2="5132.00" y2="4974.00" stroke="black"/>
    <line x1="5132.00" y1="4974.00" x2="5132.00" y2="4975.00" stroke="black"/>
    <line x1="5132.00" y1="4975.00" x2="5132.00" y2="4976.00" stroke="black"/>
    <line x1="5132.00" y1="4976.00" x2="5131.00" y2="4976.00" stroke="black"/>
    <line x1="5131.00" y1="4976.00" x2="5130.00" y2="4976.00" stroke="black"/>
    <line x1="5130.00" y1="4976.00" x2="5130.00" y2="4977.00" stroke="black"/>
    <line x1="5130.00" y1="4977.00" x2="5130.00" y2="4978.00" stroke="black"/>
    <line x1="5130.00" y1="4978.00" x2="5129.00" y2="4978.00" stroke="black"/>
    <line x1="5129.00" y1="4978.00" x2="5128.00" y2="4978.00" stroke="black"/>
    <line x1="5128.00" y1="4978.00" x2="5128.00" y2="4977.00" stroke="black"/>
    <line x1="5128.00" y1="4977.00" x2="5128.00" y2="4976.00" stroke="black"/>
    <line x1="5128.00" y1="4976.00" x2="5127.00" y2="4976.00" stroke="black"/>
    <line x1="5127.00" y1="4976.00" x2="5126.00" y2="4976.00" stroke="black"/>
    <line x1="5126.00" y1="4976.00" x2="5126.00" y2="4977.00" stroke="black"/>
    <line x1="5126.00" y1="4977.00" x2="5126.00" y2="4978.00" stroke="black"/>
    <line x1="5126.00" y1="4978.00" x2="5127.00" y2="4978.00" stroke="black"/>
    <line x1="5127.00" y1="4978.00" x2="5128.00" y2="4978.00" stroke="black"/>
    <line x1="5128.00" y1="4978.00" x2="5128.00" y2="4979.00" stroke="black"/>
    <line x1="5128.00" y1="4979.00" x2="5128.00" y2="4980.00" stroke="black"/>
    <line x1="5128.00" y1="4980.00" x2="5127.00" y2="4980.00" stroke="black"/>
    <line x1="5127.00" y1="4980.00" x2="5126.00" y2="4980.00" stroke="black"/>
    <line x1="5126.00" y1="4980.00" x2="5126.00" y2="4981.00" stroke="black"/>
    <line x1="5126.00" y1="4981.00" x2="5126.00" y2="4982.00" stroke="black"/>
    <line x1="5126.00" y1="4982.00" x2="5125.00" y2="4982.00" stroke="black"/>
    <line x1="5125.00" y1="4982.00" x2="5124.00" y2="4982.00" stroke="black"/>
    <line x1="5124.00" y1="4982.00" x2="5124.00" y2="4983.00" stroke="black"/>
    <line x1="5124.00" y1="4983.00" x2="5124.00" y2="4984.00" stroke="black"/>
    <line x1="5124.00" y1="4984.00" x2="5123.00" y2="4984.00" stroke="black"/>
    <line x1="5123.00" y1="4984.00" x2="5122.00" y2="4984.00" stroke="black"/>
    <line x1="5122.00" y1="4984.00" x2="5122.00" y2="4983.00" stroke="black"/>
    <line x1="5122.00" y1="4983.00" x2="5122.00" y2="4982.00" stroke="black"/>
    <line x1="5122.00" y1="4982.00" x2="5121.00" y2="4982.00" stroke="black"/>
    <line x1="5121.00" y1="4982.00" x2="5120.00" y2="4982.00" stroke="black"/>
    <line x1="5120.00" y1="4982.00" x2="5120.00" y2="4983.00" stroke="black"/>
    <line x1="5120.00" y1="4983.00" x2="5120.00" y2="4984.00" stroke="black"/>
    <line x1="5120.00" y1="4984.00" x2="5121.00" y2="4984.00" stroke="black"/>
    <line x1="5121.00" y1="4984.00" x2="5122.00" y2="4984.00" stroke="black"/>
    <line x1="5122.00" y1="4984.00" x2="5122.00" y2="4985.00" stroke="black"/>
    <line x1="5122.00" y1="4985.00" x2="5122.00" y2="4986.00" stroke="black"/>
    <line x1="5122.00" y1="4986.00" x2="5121.00" y2="4986.00" stroke="black"/>
    <line x1="5121.00" y1="4986.00" x2="5120.00" y2="4986.00" stroke="black"/>
    <line x1="5120.00" y1="4986.00" x2="5120.00" y2="4987.00" stroke="black"/>
    <line x1="5120.00" y1="4987.00" x2="5120.00" y2="4988.00" stroke="black"/>
    <line x1="5120.00" y1="4988.00" x2="5119.00" y2="4988.00" stroke="black"/>
    <line x1="5119.00" y1="4988.00" x2="5118.00" y2="4988.00" stroke="black"/>
    <line x1="5118.00" y1="4988.00" x2="5118.00" y2="4989.00" stroke="black"/>
    <line x1="5118.00" y1="4989.00" x2="5118.00" y2="4990.00" stroke="black"/>
    <line x1="5118.00" y1="4990.00" x2="5117.00" y2="4990.00" stroke="black"/>
    <line x1="5117.00" y1="4990.00" x2="5116.00" y2="4990.00" stroke="black"/>
    <line x1="5116.00" y1="4990.00" x2="5116.00" y2="4989.00" stroke="black"/>
    <line x1="5116.00" y1="4989.00" x2="5116.00" y2="4988.00" stroke="black"/>
    <line x1="5116.00" y1="4988.00" x2="5115.00" y2="4988.00" stroke="black"/>
    <line x1="5115.00" y1="4988.00" x2="5114.00" y2="4988.00" stroke="black"/>
    <line x1="5114.00" y1="4988.00" x2="5114.00" y2="4987.00" stroke="black"/>
    <line x1="5114.00" y1="4987.00" x2="5114.00" y2="4986.00" stroke="black"/>
    <line x1="5114.00" y1="4986.00" x2="5113.00" y2="4986.00" stroke="black"/>
    <line x1="5113.00" y1="4986.00" x2="5112.00" y2="4986.00" stroke="black"/>
    <line x1="5112.00" y1="4986.00" x2="5112.00" y2="4985.00" stroke="black"/>
    <line x1="5112.00" y1="4985.00" x2="5112.00" y2="4984.00" stroke="black"/>
    <line x1="5112.00" y1="4984.00" x2="5113.00" y2="4984.00" stroke="black"/>
    <line x1="5113.00" y1="4984.00" x2="5114.00" y2="4984.00" stroke="black"/>
    <line x1="5114.00" y1="4984.00" x2="5114.00" y2="4983.00" stroke="black"/>
    <line x1="5114.00" y1="4983.00" x2="5114.00" y2="4982.00" stroke="black"/>
    <line x1="5114.00" y1="4982.00" x2="5113.00" y2="4982.00" stroke="black"/>
    <line x1="5113.00" y1="4982.00" x2="5112.00" y2="4982.00" stroke="black"/>
    <line x1="5112.00" y1="4982.00" x2="5112.00" y2="4983.00" stroke="black"/>
    <line x1="5112.00" y1="4983.00" x2="5112.00" y2="4984.00" stroke="black"/>
    <line x1="5112.00" y1="4984.00" x2="5111.00" y2="4984.00" stroke="black"/>
    <line x1="5111.00" y1="4984.00" x2="5110.00" y2="4984.00" stroke="black"/>
    <line x1="5110.00" y1="4984.00" x2="5110.00" y2="4983.00" stroke="black"/>
    <line x1="5110.00" y1="4983.00" x2="5110.00" y2="4982.00" stroke="black"/>
    <line x1="5110.00" y1="4982.00" x2="5109.00" y2="4982.00" stroke="black"/>
    <line x1="5109.00" y1="4982.00" x2="5108.00" y2="4982.00" stroke="black"/>
    <line x1="5108.00" y1="4982.00" x2="5108.00" y2="4983.00" stroke="black"/>
    <line x1="5108.00" y1="4983.00" x2="5108.00" y2="4984.00" stroke="black"/>
    <line x1="5108.00" y1="4984.00" x2="5109.00" y2="4984.00" stroke="black"/>
    <line x1="5109.00" y1="4984.00" x2="5110.00" y2="4984.00" stroke="black"/>
    <line x1="5110.00" y1="4984.00" x2="5110.00" y2="4985.00" stroke="black"/>
    <line x1="5110.00" y1="4985.00" x2="5110.00" y2="4986.00" stroke="black"/>
    <line x1="5110.00" y1="4986.00" x2="5109.00" y2="4986.00" stroke="black"/>
    <line x1="5109.00" y1="4986.00" x2="5108.00" y2="4986.00" stroke="black"/>
    <line x1="5108.00" y1="4986.00" x2="5108.00" y2="4987.00" stroke="black"/>
    <line x1="5108.00" y1="4987.00" x2="5108.00" y2="4988.00" stroke="black"/>
    <line x1="5108.00" y1="4988.00" x2="5109.00" y2="4988.00" stroke="black"/>
    <line x1="5109.00" y1="4988.00" x2="5110.00" y2="4988.00" stroke="black"/>
    <line x1="5110.00" y1="4988.00" x2="5110.00" y2="4987.00" stroke="black"/>
    <line x1="5110.00" y1="4987.00" x2="5110.00" y2="4986.00" stroke="black"/>
    <line x1="5110.00" y1="4986.00" x2="5111.00" y2="4986.00" stroke="black"/>
    <line x1="5111.00" y1="4986.00" x2="5112.00" y2="4986.00" stroke="black"/>
    <line x1="5112.00" y1="4986.00" x2="5112.00" y2="4987.00" stroke="black"/>
    <line x1="5112.00" y1="4987.00" x2="5112.00" y2="4988.00" stroke="black"/>
    <line x1="5112.00" y1="4988.00" x2="5113.00" y2="4988.00" stroke="black"/>
    <line x1="5113.00" y1="4988.00" x2="5114.00" y2="4988.00" stroke="black"/>
    <line x1="5114.00" y1="4988.00" x2="5114.00" y2="4989.00" stroke="black"/>
    <line x1="5114.00" y1="4989.00" x2="5114.00" y2="4990.00" stroke="black"/>
    <line x1="5114.00" y1="4990.00" x2="5115.00" y2="4990.00" stroke="black"/>
    <line x1="5115.00" y1="4990.00" x2="5116.00" y2="4990.00" stroke="black"/>
    <line x1="5116.00" y1="4990.00" x2="5116.00" y2="4991.00" stroke="black"/>
    <line x1="5116.00" y1="4991.00" x2="5116.00" y2="4992.00" stroke="black"/>
    <line x1="5116.00" y1="4992.00" x2="5115.00" y2="4992.00" stroke="black"/>
    <line x1="5115.00" y1="4992.00" x2="5114.00" y2="4992.00" stroke="black"/>
    <line x1="5114.00" y1="4992.00" x2="5114.00" y2="4993.00" stroke="black"/>
    <line x1="5114.00" y1="4993.00" x2="5114.00" y2="4994.00" stroke="black"/>
    <line x1="5114.00" y1="4994.00" x2="5113.00" y2="4994.00" stroke="black"/>
    <line x1="5113.00" y1="4994.00" x2="5112.00" y2="4994.00" stroke="black"/>
    <line x1="5112.00" y1="4994.00" x2="5112.00" y2="4995.00" stroke="black"/>
    <line x1="5112.00" y1="4995.00" x2="5112.00" y2="4996.00" stroke="black"/>
    <line x1="5112.00" y1="4996.00" x2="5111.00" y2="4996.00" stroke="black"/>
    <line x1="5111.00" y1="4996.00" x2="5110.00" y2="4996.00" stroke="black"/>
    <line x1="5110.00" y1="4996.00" x2="5110.00" y2="4995.00" stroke="black"/>
    <line x1="5110.00" y1="4995.00" x2="5110.00" y2="4994.00" stroke="black"/>
    <line x1="5110.00" y1="4994.00" x2="5109.00" y2="4994.00" stroke="black"/>
    <line x1="5109.00" y1="4994.00" x2="5108.00" y2="4994.00" stroke="black"/>
    <line x1="5108.00" y1="4994.00" x2="5108.00" y2="4995.00" stroke="black"/>
    <line x1="5108.00" y1="4995.00" x2="5108.00" y2="4996.00" stroke="black"/>
    <line x1="5108.00" y1="4996.00" x2="5109.00" y2="4996.00" stroke="black"/>
    <line x1="5109.00" y1="4996.00" x2="5110.00" y2="4996.00" stroke="black"/>
    <line x1="5110.00" y1="4996.00" x2="5110.00" y2="4997.00" stroke="black"/>
    <line x1="5110.00" y1="4997.00" x2="5110.00" y2="4998.00" stroke="black"/>
    <line x1="5110.00" y1="4998.00" x2="5109.00" y2="4998.00" stroke="black"/>
    <line x1="5109.00" y1="4998.00" x2="5108.00" y2="4998.00" stroke="black"/>
    <line x1="5108.00" y1="4998.00" x2="5108.00" y2="4999.00" stroke="black"/>
    <line x1="5108.00" y1="4999.00" x2="5108.00" y2="5000.00" stroke="black"/>
    <line x1="5108.00" y1="5000.00" x2="5109.00" y2="5000.00" stroke="black"/>
    <line x1="5109.00" y1="5000.00" x2="5110.00" y2="5000.00" stroke="black"/>
    <line x1="5110.00" y1="5000.00" x2="5110.00" y2="4999.00" stroke="black"/>
    <line x1="5110.00" y1="4999.00" x2="5110.00" y2="4998.00" stroke="black"/>
    <line x1="5110.00" y1="4998.00" x2="5111.00" y2="4998.00" stroke="black"/>
    <line x1="5111.00" y1="4998.00" x2="5112.00" y2="4998.00" stroke="black"/>
    <line x1="5112.00" y1="4998.00" x2="5112.00" y2="4999.00" stroke="black"/>
    <line x1="5112.00" y1="4999.00" x2="5112.00" y2="5000.00" stroke="black"/>
    <line x1="5112.00" y1="5000.00" x2="5113.00" y2="5000.00" stroke="black"/>
    <line x1="5113.00" y1="5000.00" x2="5114.00" y2="5000.00" stroke="black"/>
    <line x1="5114.00" y1="5000.00" x2="5114.00" y2="4999.00" stroke="black"/>
    <line x1="5114.00" y1="4999.00" x2="5114.00" y2="4998.00" stroke="black"/>
    <line x1="5114.00" y1="4998.00" x2="5113.00" y2="4998.00" stroke="black"/>
    <line x1="5113.00" y1="4998.00" x2="5112.00" y2="4998.00" stroke="black"/>
    <line x1="5112.00" y1="4998.00" x2="5112.00" y2="4997.00" stroke="black"/>
    <line x1="5112.00" y1="4997.00" x2="5112.00" y2="4996.00" stroke="black"/>
    <line x1="5112.00" y1="4996.00" x2="5113.00" y2="4996.00" stroke="black"/>
    <line x1="5113.00" y1="4996.00" x2="5114.00" y2="4996.00" stroke="black"/>
    <line x1="5114.00" y1="4996.00" x2="5114.00" y2="4995.00" stroke="black"/>
    <line x1="5114.00" y1="4995.00" x2="5114.00" y2="4994.00" stroke="black"/>
    <line x1="5114.00" y1="4994.00" x2="5115.00" y2="4994.00" stroke="black"/>
    <line x1="5115.00" y1="4994.00" x2="5116.00" y2="4994.00" stroke="black"/>
    <line x1="5116.00" y1="4994.00" x2="5116.00" y2="4993.00" stroke="black"/>
    <line x1="5116.00" y1="4993.00" x2="5116.00" y2="4992.00" stroke="black"/>
    <line x1="5116.00" y1="4992.00" x2="5117.00" y2="4992.00" stroke="black"/>
    <line x1="5117.00" y1="4992.00" x2="5118.00" y2="4992.00" stroke="black"/>
    <line x1="5118.00" y1="4992.00" x2="5118.00" y2="4993.00" stroke="black"/>
    <line x1="5118.00" y1="4993.00" x2="5118.00" y2="4994.00" stroke="black"/>
    <line x1="5118.00" y1="4994.00" x2="5119.00" y2="4994.00" stroke="black"/>
    <line x1="5119.00" y1="4994.00" x2="5120.00" y2="4994.00" stroke="black"/>
    <line x1="5120.00" y1="4994.00" x2="5120.00" y2="4995.00" stroke="black"/>
    <line x1="5120.00" y1="4995.00" x2="5120.00" y2="4996.00" stroke="black"/>
    <line x1="5120.00" y1="4996.00" x2="5121.00" y2="4996.00" stroke="black"/>
    <line x1="5121.00" y1="4996.00" x2="5122.00" y2="4996.00" stroke="black"/>
    <line x1="5122.00" y1="4996.00" x2="5122.00" y2="4997.00" stroke="black"/>
    <line x1="5122.00" y1="4997.00" x2="5122.00" y2="4998.00" stroke="black"/>
    <line x1="5122.00" y1="4998.00" x2="5121.00" y2="4998.00" stroke="black"/>
    <line x1="5121.00" y1="4998.00" x2="5120.00" y2="4998.00" stroke="black"/>
    <line x1="5120.00" y1="4998.00" x2="5120.00" y2="4999.00" stroke="black"/>
    <line x1="5120.00" y1="4999.00" x2="5120.00" y2="5000.00" stroke="black"/>
    <line x1="5120.00" y1="5000.00" x2="5121.00" y2="5000.00" stroke="black"/>
    <line x1="5121.00" y1="5000.00" x2="5122.00" y2="5000.00" stroke="black"/>
    <line x1="5122.00" y1="5000.00" x2="5122.00" y2="4999.00" stroke="black"/>
    <line x1="5122.00" y1="4999.00" x2="5122.00" y2="4998.00" stroke="black"/>
    <line x1="5122.00" y1="4998.00" x2="5123.00" y2="4998.00" stroke="black"/>
    <line x1="5123.00" y1="4998.00" x2="5124.00" y2="4998.00" stroke="black"/>
    <line x1="5124.00" y1="4998.00" x2="5124.00" y2="4999.00" stroke="black"/>
    <line x1="5124.00" y1="4999.00" x2="5124.00" y2="5000.00" stroke="black"/>
    <line x1="5124.00" y1="5000.00" x2="5125.00" y2="5000.00" stroke="black"/>
    <line x1="5125.00" y1="5000.00" x2="5126.00" y2="5000.00" stroke="black"/>
    <line x1="5126.00" y1="5000.00" x2="5126.00" y2="4999.00" stroke="black"/>
    <line x1="5126.00" y1="4999.00" x2="5126.00" y2="4998.00" stroke="black"/>
    <line x1="5126.00" y1="4998.00" x2="5125.00" y2="4998.00" stroke="black"/>
    <line x1="5125.00" y1="4998.00" x2="5124.00" y2="4998.00" stroke="black"/>
    <line x1="5124.00" y1="4998.00" x2="5124.00" y2="4997.00" stroke="black"/>
    <line x1="5124.00" y1="4997.00" x2="5124.00" y2="4996.00" stroke="black"/>
    <line x1="5124.00" y1="4996.00" x2="5125.00" y2="4996.00" stroke="black"/>
    <line x1="5125.00" y1="4996.00" x2="5126.00" y2="4996.00" stroke="black"/>
    <line x1="5126.00" y1="4996.00" x2="5126.00" y2="4995.00" stroke="black"/>
    <line x1="5126.00" y1="4995.00" x2="5126.00" y2="4994.00" stroke="black"/>
    <line x1="5126.00" y1="4994.00" x2="5125.00" y2="4994.00" stroke="black"/>
    <line x1="5125.00" y1="4994.00" x2="5124.00" y2="4994.00" stroke="black"/>
    <line x1="5124.00" y1="4994.00" x2="5124.00" y2="4995.00" stroke="black"/>
    <line x1="5124.00" y1="4995.00" x2="5124.00" y2="4996.00" stroke="black"/>
    <line x1="5124.00" y1="4996.00" x2="5123.00" y2="4996.00" stroke="black"/>
    <line x1="5123.00" y1="4996.00" x2="5122.00" y2="4996.00" stroke="black"/>
    <line x1="5122.00" y1="4996.00" x2="5122.00" y2="4995.00" stroke="black"/>
    <line x1="5122.00" y1="4995.00" x2="5122.00" y2="4994.00" stroke="black"/>
    <line x1="5122.00" y1="4994.00" x2="5121.00" y2="4994.00" stroke="black"/>
    <line x1="5121.00" y1="4994.00" x2="5120.00" y2="4994.00" stroke="black"/>
    <line x1="5120.00" y1="4994.00" x2="5120.00" y2="4993.00" stroke="black"/>
    <line x1="5120.00" y1="4993.00" x2="5120.00" y2="4992.00" stroke="black"/>
    <line x1="5120.00" y1="4992.00" x2="5119.00" y2="4992.00" stroke="black"/>
    <line x1="5119.00" y1="4992.00" x2="5118.00" y2="4992.00" stroke="black"/>
    <line x1="5118.00" y1="4992.00" x2="5118.00" y2="4991.00" stroke="black"/>
    <line x1="5118.00" y1="4991.00" x2="5118.00" y2="4990.00" stroke="black"/>
    <line x1="5118.00" y1="4990.00" x2="5119.00" y2="4990.00" stroke="black"/>
    <line x1="5119.00" y1="4990.00" x2="5120.00" y2="4990.00" stroke="black"/>
    <line x1="5120.00" y1="4990.00" x2="5120.00" y2="4989.00" stroke="black"/>
    <line x1="5120.00" y1="4989.00" x2="5120.00" y2="4988.00" stroke="black"/>
    <line x1="5120.00" y1="4988.00" x2="5121.00" y2="4988.00" stroke="black"/>
    <line x1="5121.00" y1="4988.00" x2="5122.00" y2="4988.00" stroke="black"/>
    <line x1="5122.00" y1="4988.00" x2="5122.00" y2="4987.00" stroke="black"/>
    <line x1="5122.00" y1="4987.00" x2="5122.00" y2="4986.00" stroke="black"/>
    <line x1="5122.00" y1="4986.00" x2="5123.00" y2="4986.00" stroke="black"/>
    <line x1="5123.00" y1="4986.00" x2="5124.00" y2="4986.00" stroke="black"/>
    <line x1="5124.00" y1="4986.00" x2="5124.00" y2="4987.00" stroke="black"/>
    <line x1="5124.00" y1="4987.00" x2="5124.00" y2="4988.00" stroke="black"/>
    <line x1="5124.00" y1="4988.00" x2="5125.00" y2="4988.00" stroke="black"/>
    <line x1="5125.00" y1="4988.00" x2="5126.00" y2="4988.00" stroke="black"/>
    <line x1="5126.00" y1="4988.00" x2="5126.00" y2="4987.00" stroke="black"/>
    <line x1="5126.00" y1="4987.00" x2="5126.00" y2="4986.00" stroke="black"/>
    <line x1="5126.00" y1="4986.00" x2="5125.00" y2="4986.00" stroke="black"/>
    <line x1="5125.00" y1="4986.00" x2="5124.00" y2="4986.00" stroke="black"/>
    <line x1="5124.00" y1="4986.00" x2="5124.00" y2="4985.00" stroke="black"/>
    <line x1="5124.00" y1="4985.00" x2="5124.00" y2="4984.00" stroke="black"/>
    <line x1="5124.00" y1="4984.00" x2="5125.00" y2="4984.00" stroke="black"/>
    <line x1="5125.00" y1="4984.00" x2="5126.00" y2="4984.00" stroke="black"/>
    <line x1="5126.00" y1="4984.00" x2="5126.00" y2="4983.00" stroke="black"/>
    <line x1="5126.00" y1="4983.00" x2="5126.00" y2="4982.00" stroke="black"/>
    <line x1="5126.00" y1="4982.00" x2="5127.00" y2="4982.00" stroke="black"/>
    <line x1="5127.00" y1="4982.00" x2="5128.00" y2="4982.00" stroke="black"/>
    <line x1="5128.00" y1="4982.00" x2="5128.00" y2="4981.00" stroke="black"/>
    <line x1="5128.00" y1="4981.00" x2="5128.00" y2="4980.00" stroke="black"/>
    <line x1="5128.00" y1="4980.00" x2="5129.00" y2="4980.00" stroke="black"/>
    <line x1="5129.00" y1="4980.00" x2="5130.00" y2="4980.00" stroke="black"/>
    <line x1="5130.00" y1="4980.00" x2="5130.00" y2="4981.00" stroke="black"/>
    <line x1="5130.00" y1="4981.00" x2="5130.00" y2="4982.00" stroke="black"/>
    <line x1="5130.00" y1="4982.00" x2="5131.00" y2="4982.00" stroke="black"/>
    <line x1="5131.00" y1="4982.00" x2="5132.00" y2="4982.00" stroke="black"/>
    <line x1="5132.00" y1="4982.00" x2="5132.00" y2="4981.00" stroke="black"/>
    <line x1="5132.00" y1="4981.00" x2="5132.00" y2="4980.00" stroke="black"/>
    <line x1="5132.00" y1="4980.00" x2="5131.00" y2="4980.00" stroke="black"/>
    <line x1="5131.00" y1="4980.00" x2="5130.00" y2="4980.00" stroke="black"/>
    <line x1="5130.00" y1="4980.00" x2="5130.00" y2="4979.00" stroke="black"/>
    <line x1="5130.00" y1="4979.00" x2="5130.00" y2="4978.00" stroke="black"/>
    <line x1="5130.00" y1="4978.00" x2="5131.00" y2="4978.00" stroke="black"/>
    <line x1="5131.00" y1="4978.00" x2="5132.00" y2="4978.00" stroke="black"/>
    <line x1="5132.00" y1="4978.00" x2="5132.00" y2="4977.00" stroke="black"/>
    <line x1="5132.00" y1="4977.00" x2="5132.00" y2="4976.00" stroke="black"/>
    <line x1="5132.00" y1="4976.00" x2="5133.00" y2="4976.00" stroke="black"/>
    <line x1="5133.00" y1="4976.00" x2="5134.00" y2="4976.00" stroke="black"/>
    <line x1="5134.00" y1="4976.00" x2="5134.00" y2="4975.00" stroke="black"/>
    <line x1="5134.00" y1="4975.00" x2="5134.00" y2="4974.00" stroke="black"/>
    <line x1="5134.00" y1="4974.00" x2="5135.00" y2="4974.00" stroke="black"/>
    <line x1="5135.00" y1="4974.00" x2="5136.00" y2="4974.00" stroke="black"/>
    <line x1="5136.00" y1="4974.00" x2="5136.00" y2="4975.00" stroke="black"/>
    <line x1="5136.00" y1="4975.00" x2="5136.00" y2="4976.00" stroke="black"/>
    <line x1="5136.00" y1="4976.00" x2="5137.00" y2="4976.00" stroke="black"/>
    <line x1="5137.00" y1="4976.00" x2="5138.00" y2="4976.00" stroke="black"/>
    <line x1="5138.00" y1="4976.00" x2="5138.00" y2="4977.00" stroke="black"/>
    <line x1="5138.00" y1="4977.00" x2="5138.00" y2="4978.00" stroke="black"/>
    <line x1="5138.00" y1="4978.00" x2="5139.00" y2="4978.00" stroke="black"/>
    <line x1="5139.00" y1="4978.00" x2="5140.00" y2="4978.00" stroke="black"/>
    <line x1="5140.00" y1="4978.00" x2="5140.00" y2="4979.00" stroke="black"/>
    <line x1="5140.00" y1="4979.00" x2="5140.00" y2="4980.00" stroke="black"/>
    <line x1="5140.00" y1="4980.00" x2="5139.00" y2="4980.00" stroke="black"/>
    <line x1="5139.00" y1="4980.00" x2="5138.00" y2="4980.00" stroke="black"/>
    <line x1="5138.00" y1="4980.00" x2="5138.00" y2="4981.00" stroke="black"/>
    <line x1="5138.00" y1="4981.00" x2="5138.00" y2="4982.00" stroke="black"/>
    <line x1="5138.00" y1="4982.00" x2="5139.00" y2="4982.00" stroke="black"/>
    <line x1="5139.00" y1="4982.00" x2="5140.00" y2="4982.00" stroke="black"/>
    <line x1="5140.00" y1="4982.00" x2="5140.00" y2="4981.00" stroke="black"/>
    <line x1="5140.00" y1="4981.00" x2="5140.00" y2="4980.00" stroke="black"/>
    <line x1="5140.00" y1="4980.00" x2="5141.00" y2="4980.00" stroke="black"/>
    <line x1="5141.00" y1="4980.00" x2="5142.00" y2="4980.00" stroke="black"/>
    <line x1="5142.00" y1="4980.00" x2="5142.00" y2="4981.00" stroke="black"/>
    <line x1="5142.00" y1="4981.00" x2="5142.00" y2="4982.00" stroke="black"/>
    <line x1="5142.00" y1="4982.00" x2="5143.00" y2="4982.00" stroke="black"/>
    <line x1="5143.00" y1="4982.00" x2="5144.00" y2="4982.00" stroke="black"/>
    <line x1="5144.00" y1="4982.00" x2="5144.00" y2="4983.00" stroke="black"/>
    <line x1="5144.00" y1="4983.00" x2="5144.00" y2="4984.00" stroke="black"/>
    <line x1="5144.00" y1="4984.00" x2="5145.00" y2="4984.00" stroke="black"/>
    <line x1="5145.00" y1="4984.00" x2="5146.00" y2="4984.00" stroke="black"/>
    <line x1="5146.00" y1="4984.00" x2="5146.00" y2="4985.00" stroke="black"/>
    <line x1="5146.00" y1="4985.00" x2="5146.00" y2="4986.00" stroke="black"/>
    <line x1="5146.00" y1="4986.00" x2="5145.00" y2="4986.00" stroke="black"/>
    <line x1="5145.00" y1="4986.00" x2="5144.00" y2="4986.00" stroke="black"/>
    <line x1="5144.00" y1="4986.00" x2="5144.00" y2="4987.00" stroke="black"/>
    <line x1="5144.00" y1="4987.00" x2="5144.00" y2="4988.00" stroke="black"/>
    <line x1="5144.00" y1="4988.00" x2="5145.00" y2="4988.00" stroke="black"/>
    <line x1="5145.00" y1="4988.00" x2="5146.00" y2="4988.00" stroke="black"/>
    <line x1="5146.00" y1="4988.00" x2="5146.00" y2="4987.00" stroke="black"/>
    <line x1="5146.00" y1="4987.00" x2="5146.00" y2="4986.00" stroke="black"/>
    <line x1="5146.00" y1="4986.00" x2="5147.00" y2="4986.00" stroke="black"/>
    <line x1="5147.00" y1="4986.00" x2="5148.00" y2="4986.00" stroke="black"/>
    <line x1="5148.00" y1="4986.00" x2="5148.00" y2="4987.00" stroke="black"/>
    <line x1="5148.00" y1="4987.00" x2="5148.00" y2="4988.00" stroke="black"/>
    <line x1="5148.00" y1="4988.00" x2="5149.00" y2="4988.00" stroke="black"/>
    <line x1="5149.00" y1="4988.00" x2="5150.00" y2="4988.00" stroke="black"/>
    <line x1="5150.00" y1="4988.00" x2="5150.00" y2="4989.00" stroke="black"/>
    <line x1="5150.00" y1="4989.00" x2="5150.00" y2="4990.00" stroke="black"/>
    <line x1="5150.00" y1="4990.00" x2="5151.00" y2="4990.00" stroke="black"/>
    <line x1="5151.00" y1="4990.00" x2="5152.00" y2="4990.00" stroke="black"/>
    <line x1="5152.00" y1="4990.00" x2="5152.00" y2="4991.00" stroke="black"/>
    <line x1="5152.00" y1="4991.00" x2="5152.00" y2="4992.00" stroke="black"/>
    <line x1="5152.00" y1="4992.00" x2="5151.00" y2="4992.00" stroke="black"/>
    <line x1="5151.00" y1="4992.00" x2="5150.00" y2="4992.00" stroke="black"/>
    <line x1="5150.00" y1="4992.00" x2="5150.00" y2="4993.00" stroke="black"/>
    <line x1="5150.00" y1="4993.00" x2="5150.00" y2="4994.00" stroke="black"/>
    <line x1="5150.00" y1="4994.00" x2="5149.00" y2="4994.00" stroke="black"/>
    <line x1="5149.00" y1="4994.00" x2="5148.00" y2="4994.00" stroke="black"/>
    <line x1="5148.00" y1="4994.00" x2="5148.00" y2="4995.00" stroke="black"/>
    <line x1="5148.00" y1="4995.00" x2="5148.00" y2="4996.00" stroke="black"/>
    <line x1="5148.00" y1="4996.00" x2="5147.00" y2="4996.00" stroke="black"/>
    <line x1="5147.00" y1="4996.00" x2="5146.00" y2="4996.00" stroke="black"/>
    <line x1="5146.00" y1="4996.00" x2="5146.00" y2="4995.00" stroke="black"/>
    <line x1="5146.00" y1="4995.00" x2="5146.00" y2="4994.00" stroke="black"/>
    <line x1="5146.00" y1="4994.00" x2="5145.00" y2="4994.00" stroke="black"/>
    <line x1="5145.00" y1="4994.00" x2="5144.00" y2="4994.00" stroke="black"/>
    <line x1="5144.00" y1="4994.00" x2="5144.00" y2="4995.00" stroke="black"/>
    <line x1="5144.00" y1="4995.00" x2="5144.00" y2="4996.00" stroke="black"/>
    <line x1="5144.00" y1="4996.00" x2="5145.00" y2="4996.00" stroke="black"/>
    <line x1="5145.00" y1="4996.00" x2="5146.00" y2="4996.00" stroke="black"/>
    <line x1="5146.00" y1="4996.00" x2="5146.00" y2="4997.00" stroke="black"/>
    <line x1="5146.00" y1="4997.00" x2="5146.00" y2="4998.00" stroke="black"/>
    <line x1="5146.00" y1="4998.00" x2="5145.00" y2="4998.00" stroke="black"/>
    <line x1="5145.00" y1="4998.00" x2="5144.00" y2="4998.00" stroke="black"/>
    <line x1="5144.00" y1="4998.00" x2="5144.00" y2="4999.00" stroke="black"/>
    <line x1="5144.00" y1="4999.00" x2="5144.00" y2="5000.00" stroke="black"/>
    <line x1="5144.00" y1="5000.00" x2="5145.00" y2="5000.00" stroke="black"/>
    <line x1="5145.00" y1="5000.00" x2="5146.00" y2="5000.00" stroke="black"/>
    <line x1="5146.00" y1="5000.00" x2="5146.00" y2="4999.00" stroke="black"/>
    <line x1="5146.00" y1="4999.00" x2="5146.00" y2="4998.00" stroke="black"/>
    <line x1="5146.00" y1="4998.00" x2="5147.00" y2="4998.00" stroke="black"/>
    <line x1="5147.00" y1="4998.00" x2="5148.00" y2="4998.00" stroke="black"/>
    <line x1="5148.00" y1="4998.00" x2="5148.00" y2="4999.00" stroke="black"/>
    <line x1="5148.00" y1="4999.00" x2="5148.00" y2="5000.00" stroke="black"/>
    <line x1="5148.00" y1="5000.00" x2="5149.00" y2="5000.00" stroke="black"/>
    <line x1="5149.00" y1="5000.00" x2="5150.00" y2="5000.00" stroke="black"/>
    <line x1="5150.00" y1="5000.00" x2="5150.00" y2="4999.00" stroke="black"/>
    <line x1="5150.00" y1="4999.00" x2="5150.00" y2="4998.00" stroke="black"/>
    <line x1="5150.00" y1="4998.00" x2="5149.00" y2="4998.00" stroke="black"/>
    <line x1="5149.00" y1="4998.00" x2="5148.00" y2="4998.00" stroke="black"/>
    <line x1="5148.00" y1="4998.00" x2="5148.00" y2="4997.00" stroke="black"/>
    <line x1="5148.00" y1="4997.00" x2="5148.00" y2="4996.00" stroke="black"/>
    <line x1="5148.00" y1="4996.00" x2="5149.00" y2="4996.00" stroke="black"/>
    <line x1="5149.00" y1="4996.00" x2="5150.00" y2="4996.00" stroke="black"/>
    <line x1="5150.00" y1="4996.00" x2="5150.00" y2="4995.00" stroke="black"/>
    <line x1="5150.00" y1="4995.00" x2="5150.00" y2="4994.00" stroke="black"/>
    <line x1="5150.00" y1="4994.00" x2="5151.00" y2="4994.00" stroke="black"/>
    <line x1="5151.00" y1="4994.00" x2="5152.00" y2="4994.00" stroke="black"/>
    <line x1="5152.00" y1="4994.00" x2="5152.00" y2="4993.00" stroke="black"/>
    <line x1="5152.00" y1="4993.00" x2="5152.00" y2="4992.00" stroke="black"/>
    <line x1="5152.00" y1="4992.00" x2="5153.00" y2="4992.00" stroke="black"/>
    <line x1="5153.00" y1="4992.00" x2="5154.00" y2="4992.00" stroke="black"/>
    <line x1="5154.00" y1="4992.00" x2="5154.00" y2="4993.00" stroke="black"/>
    <line x1="5154.00" y1="4993.00" x2="5154.00" y2="4994.00" stroke="black"/>
    <line x1="5154.00" y1="4994.00" x2="5155.00" y2="4994.00" stroke="black"/>
    <line x1="5155.00" y1="4994.00" x2="5156.00" y2="4994.00" stroke="black"/>
    <line x1="5156.00" y1="4994.00" x2="5156.00" y2="4995.00" stroke="black"/>
    <line x1="5156.00" y1="4995.00" x2="5156.00" y2="4996.00" stroke="black"/>
    <line x1="5156.00" y1="4996.00" x2="5157.00" y2="4996.00" stroke="black"/>
    <line x1="5157.00" y1="4996.00" x2="5158.00" y2="4996.00" stroke="black"/>
    <line x1="5158.00" y1="4996.00" x2="5158.00" y2="4997.00" stroke="black"/>
    <line x1="5158.00" y1="4997.00" x2="5158.00" y2="4998.00" stroke="black"/>
    <line x1="5158.00" y1="4998.00" x2="5157.00" y2="4998.00" stroke="black"/>
    <line x1="5157.00" y1="4998.00" x2="5156.00" y2="4998.00" stroke="black"/>
    <line x1="5156.00" y1="4998.00" x2="5156.00" y2="4999.00" stroke="black"/>
    <line x1="5156.00" y1="4999.00" x2="5156.00" y2="5000.00" stroke="black"/>
    <line x1="5156.00" y1="5000.00" x2="5157.00" y2="5000.00" stroke="black"/>
    <line x1="5157.00" y1="5000.00" x2="5158.00" y2="5000.00" stroke="black"/>
    <line x1="5158.00" y1="5000.00" x2="5158.00" y2="4999.00" stroke="black"/>
    <line x1="5158.00" y1="4999.00" x2="5158.00" y2="4998.00" stroke="black"/>
    <line x1="5158.00" y1="4998.00" x2="5159.00" y2="4998.00" stroke="black"/>
    <line x1="5159.00" y1="4998.00" x2="5160.00" y2="4998.00" stroke="black"/>
    <line x1="5160.00" y1="4998.00" x2="5160.00" y2="4999.00" stroke="black"/>
    <line x1="5160.00" y1="4999.00" x2="5160.00" y2="5000.00" stroke="black"/>
    <line x1="5160.00" y1="5000.00" x2="5161.00" y2="5000.00" stroke="black"/>
    <line x1="5161.00" y1="5000.00" x2="5162.00" y2="5000.00" stroke="black"/>
  </g>
</svg>
