<?xml version="1.0" standalone="no"?>
<!DOCTYPE svg PUBLIC "-//W3C//DTD SVG 1.1//EN" 
  "http://www.w3.org/Graphics/SVG/1.1/DTD/svg11.dtd">
<svg viewBox="4844 4932 156 135" width="10000" height="10000" version="1.1"
    id="toplevel" xmlns="http://www.w3.org/2000/svg"
    xmlns:xlink="http://www.w3.org/1999/xlink">
  <g id="fractal">
    <line x1="5000" y1="5000" x2="5000" y2="5000" stroke="black"/>
    <line x1="5000" y1="5000" x2="4999.13" y2="4999.50" stroke="black"/>
    <line x1="4999.13" y1="4999.50" x2="4998.27" y2="4999.00" stroke="black"/>
    <line x1="4998.27" y1="4999.00" x2="4997.40" y2="4998.50" stroke="black"/>
    <line x1="4997.40" y1="4998.50" x2="4996.54" y2="4998.00" stroke="black"/>
    <line x1="4996.54" y1="4998.00" x2="4995.67" y2="4997.50" stroke="black"/>
    <line x1="4995.67" y1="4997.50" x2="4995.67" y2="4996.50" stroke="black"/>
    <line x1="4995.67" y1="4996.50" x2="4995.67" y2="4995.50" stroke="black"/>
    <line x1="4995.67" y1="4995.50" x2="4995.67" y2="4994.50" stroke="black"/>
    <line x1="4995.67" y1="4994.50" x2="4995.67" y2="4993.50" stroke="black"/>
    <line x1="4995.67" y1="4993.50" x2="4995.67" y2="4992.50" stroke="black"/>
    <line x1="4995.67" y1="4992.50" x2="4994.80" y2="4993.00" stroke="black"/>
    <line x1="4994.80" y1="4993.00" x2="4993.94" y2="4993.50" stroke="black"/>
    <line x1="4993.94" y1="4993.50" x2="4993.07" y2="4994.00" stroke="black"/>
    <line x1="4993.07" y1="4994.00" x2="4992.21" y2="4994.50" stroke="black"/>
    <line x1="4992.21" y1="4994.50" x2="4991.34" y2="4995.00" stroke="black"/>
    <line x1="4991.34" y1="4995.00" x2="4990.47" y2="4994.50" stroke="black"/>
    <line x1="4990.47" y1="4994.50" x2="4989.61" y2="4994.00" stroke="black"/>
    <line x1="4989.61" y1="4994.00" x2="4988.74" y2="4993.50" stroke="black"/>
    <line x1="4988.74" y1="4993.50" x2="4987.88" y2="4993.00" stroke="black"/>
    <line x1="4987.88" y1="4993.00" x2="4987.01" y2="4992.50" stroke="black"/>
    <line x1="4987.01" y1="4992.50" x2="4987.01" y2="4991.50" stroke="black"/>
    <line x1="4987.01" y1="4991.50" x2="4987.01" y2="4990.50" stroke="black"/>
    <line x1="4987.01" y1="4990.50" x2="4987.01" y2="4989.50" stroke="black"/>
    <line x1="4987.01" y1="4989.50" x2="4987.01" y2="4988.50" stroke="black"/>
    <line x1="4987.01" y1="4988.50" x2="4987.01" y2="4987.50" stroke="black"/>
    <line x1="4987.01" y1="4987.50" x2="4987.88" y2="4987.00" stroke="black"/>
    <line x1="4987.88" y1="4987.00" x2="4988.74" y2="4986.50" stroke="black"/>
    <line x1="4988.74" y1="4986.50" x2="4989.61" y2="4986.00" stroke="black"/>
    <line x1="4989.61" y1="4986.00" x2="4990.47" y2="4985.50" stroke="black"/>
    <line x1="4990.47" y1="4985.50" x2="4991.34" y2="4985.00" stroke="black"/>
    <line x1="4991.34" y1="4985.00" x2="4990.47" y2="4984.50" stroke="black"/>
    <line x1="4990.47" y1="4984.50" x2="4989.61" y2="4984.00" stroke="black"/>
    <line x1="4989.61" y1="4984.00" x2="4988.74" y2="4983.50" stroke="black"/>
    <line x1="4988.74" y1="4983.50" x2="4987.88" y2="4983.00" stroke="black"/>
    <line x1="4987.88" y1="4983.00" x2="4987.01" y2="4982.50" stroke="black"/>
    <line x1="4987.01" y1="4982.50" x2="4987.01" y2="4981.50" stroke="black"/>
    <line x1="4987.01" y1="4981.50" x2="4987.01" y2="4980.50" stroke="black"/>
    <line x1="4987.01" y1="4980.50" x2="4987.01" y2="4979.50" stroke="black"/>
    <line x1="4987.01" y1="4979.50" x2="4987.01" y2="4978.50" stroke="black"/>
    <line x1="4987.01" y1="4978.50" x2="4987.01" y2="4977.50" stroke="black"/>
    <line x1="4987.01" y1="4977.50" x2="4986.14" y2="4978.00" stroke="black"/>
    <line x1="4986.14" y1="4978.00" x2="4985.28" y2="4978.50" stroke="black"/>
    <line x1="4985.28" y1="4978.50" x2="4984.41" y2="4979.00" stroke="black"/>
    <line x1="4984.41" y1="4979.00" x2="4983.55" y2="4979.50" stroke="black"/>
    <line x1="4983.55" y1="4979.50" x2="4982.68" y2="4980.00" stroke="black"/>
    <line x1="4982.68" y1="4980.00" x2="4981.81" y2="4979.50" stroke="black"/>
    <line x1="4981.81" y1="4979.50" x2="4980.95" y2="4979.00" stroke="black"/>
    <line x1="4980.95" y1="4979.00" x2="4980.08" y2="4978.50" stroke="black"/>
    <line x1="4980.08" y1="4978.50" x2="4979.22" y2="4978.00" stroke="black"/>
    <line x1="4979.22" y1="4978.00" x2="4978.35" y2="4977.50" stroke="black"/>
    <line x1="4978.35" y1="4977.50" x2="4978.35" y2="4978.50" stroke="black"/>
    <line x1="4978.35" y1="4978.50" x2="4978.35" y2="4979.50" stroke="black"/>
    <line x1="4978.35" y1="4979.50" x2="4978.35" y2="4980.50" stroke="black"/>
    <line x1="4978.35" y1="4980.50" x2="4978.35" y2="4981.50" stroke="black"/>
    <line x1="4978.35" y1="4981.50" x2="4978.35" y2="4982.50" stroke="black"/>
    <line x1="4978.35" y1="4982.50" x2="4977.48" y2="4983.00" stroke="black"/>
    <line x1="4977.48" y1="4983.00" x2="4976.62" y2="4983.50" stroke="black"/>
    <line x1="4976.62" y1="4983.50" x2="4975.75" y2="4984.00" stroke="black"/>
    <line x1="4975.75" y1="4984.00" x2="4974.89" y2="4984.50" stroke="black"/>
    <line x1="4974.89" y1="4984.50" x2="4974.02" y2="4985.00" stroke="black"/>
    <line x1="4974.02" y1="4985.00" x2="4973.15" y2="4984.50" stroke="black"/>
    <line x1="4973.15" y1="4984.50" x2="4972.29" y2="4984.00" stroke="black"/>
    <line x1="4972.29" y1="4984.00" x2="4971.42" y2="4983.50" stroke="black"/>
    <line x1="4971.42" y1="4983.50" x2="4970.56" y2="4983.00" stroke="black"/>
    <line x1="4970.56" y1="4983.00" x2="4969.69" y2="4982.50" stroke="black"/>
    <line x1="4969.69" y1="4982.50" x2="4969.69" y2="4981.50" stroke="black"/>
    <line x1="4969.69" y1="4981.50" x2="4969.69" y2="4980.50" stroke="black"/>
    <line x1="4969.69" y1="4980.50" x2="4969.69" y2="4979.50" stroke="black"/>
    <line x1="4969.69" y1="4979.50" x2="4969.69" y2="4978.50" stroke="black"/>
    <line x1="4969.69" y1="4978.50" x2="4969.69" y2="4977.50" stroke="black"/>
    <line x1="4969.69" y1="4977.50" x2="4968.82" y2="4978.00" stroke="black"/>
    <line x1="4968.82" y1="4978.00" x2="4967.96" y2="4978.50" stroke="black"/>
    <line x1="4967.96" y1="4978.50" x2="4967.09" y2="4979.00" stroke="black"/>
    <line x1="4967.09" y1="4979.00" x2="4966.23" y2="4979.50" stroke="black"/>
    <line x1="4966.23" y1="4979.50" x2="4965.36" y2="4980.00" stroke="black"/>
    <line x1="4965.36" y1="4980.00" x2="4964.49" y2="4979.50" stroke="black"/>
    <line x1="4964.49" y1="4979.50" x2="4963.63" y2="4979.00" stroke="black"/>
    <line x1="4963.63" y1="4979.00" x2="4962.76" y2="4978.50" stroke="black"/>
    <line x1="4962.76" y1="4978.50" x2="4961.89" y2="4978.00" stroke="black"/>
    <line x1="4961.89" y1="4978.00" x2="4961.03" y2="4977.50" stroke="black"/>
    <line x1="4961.03" y1="4977.50" x2="4961.03" y2="4976.50" stroke="black"/>
    <line x1="4961.03" y1="4976.50" x2="4961.03" y2="4975.50" stroke="black"/>
    <line x1="4961.03" y1="4975.50" x2="4961.03" y2="4974.50" stroke="black"/>
    <line x1="4961.03" y1="4974.50" x2="4961.03" y2="4973.50" stroke="black"/>
    <line x1="4961.03" y1="4973.50" x2="4961.03" y2="4972.50" stroke="black"/>
    <line x1="4961.03" y1="4972.50" x2="4961.89" y2="4972.00" stroke="black"/>
    <line x1="4961.89" y1="4972.00" x2="4962.76" y2="4971.50" stroke="black"/>
    <line x1="4962.76" y1="4971.50" x2="4963.63" y2="4971.00" stroke="black"/>
    <line x1="4963.63" y1="4971.00" x2="4964.49" y2="4970.50" stroke="black"/>
    <line x1="4964.49" y1="4970.50" x2="4965.36" y2="4970.00" stroke="black"/>
    <line x1="4965.36" y1="4970.00" x2="4964.49" y2="4969.50" stroke="black"/>
    <line x1="4964.49" y1="4969.50" x2="4963.63" y2="4969.00" stroke="black"/>
    <line x1="4963.63" y1="4969.00" x2="4962.76" y2="4968.50" stroke="black"/>
    <line x1="4962.76" y1="4968.50" x2="4961.89" y2="4968.00" stroke="black"/>
    <line x1="4961.89" y1="4968.00" x2="4961.03" y2="4967.50" stroke="black"/>
    <line x1="4961.03" y1="4967.50" x2="4961.03" y2="4966.50" stroke="black"/>
    <line x1="4961.03" y1="4966.50" x2="4961.03" y2="4965.50" stroke="black"/>
    <line x1="4961.03" y1="4965.50" x2="4961.03" y2="4964.50" stroke="black"/>
    <line x1="4961.03" y1="4964.50" x2="4961.03" y2="4963.50" stroke="black"/>
    <line x1="4961.03" y1="4963.50" x2="4961.03" y2="4962.50" stroke="black"/>
    <line x1="4961.03" y1="4962.50" x2="4961.89" y2="4962.00" stroke="black"/>
    <line x1="4961.89" y1="4962.00" x2="4962.76" y2="4961.50" stroke="black"/>
    <line x1="4962.76" y1="4961.50" x2="4963.63" y2="4961.00" stroke="black"/>
    <line x1="4963.63" y1="4961.00" x2="4964.49" y2="4960.50" stroke="black"/>
    <line x1="4964.49" y1="4960.50" x2="4965.36" y2="4960.00" stroke="black"/>
    <line x1="4965.36" y1="4960.00" x2="4966.23" y2="4960.50" stroke="black"/>
    <line x1="4966.23" y1="4960.50" x2="4967.09" y2="4961.00" stroke="black"/>
    <line x1="4967.09" y1="4961.00" x2="4967.96" y2="4961.50" stroke="black"/>
    <line x1="4967.96" y1="4961.50" x2="4968.82" y2="4962.00" stroke="black"/>
    <line x1="4968.82" y1="4962.00" x2="4969.69" y2="4962.50" stroke="black"/>
    <line x1="4969.69" y1="4962.50" x2="4969.69" y2="4961.50" stroke="black"/>
    <line x1="4969.69" y1="4961.50" x2="4969.69" y2="4960.50" stroke="black"/>
    <line x1="4969.69" y1="4960.50" x2="4969.69" y2="4959.50" stroke="black"/>
    <line x1="4969.69" y1="4959.50" x2="4969.69" y2="4958.50" stroke="black"/>
    <line x1="4969.69" y1="4958.50" x2="4969.69" y2="4957.50" stroke="black"/>
    <line x1="4969.69" y1="4957.50" x2="4970.56" y2="4957.00" stroke="black"/>
    <line x1="4970.56" y1="4957.00" x2="4971.42" y2="4956.50" stroke="black"/>
    <line x1="4971.42" y1="4956.50" x2="4972.29" y2="4956.00" stroke="black"/>
    <line x1="4972.29" y1="4956.00" x2="4973.15" y2="4955.50" stroke="black"/>
    <line x1="4973.15" y1="4955.50" x2="4974.02" y2="4955.00" stroke="black"/>
    <line x1="4974.02" y1="4955.00" x2="4973.15" y2="4954.50" stroke="black"/>
    <line x1="4973.15" y1="4954.50" x2="4972.29" y2="4954.00" stroke="black"/>
    <line x1="4972.29" y1="4954.00" x2="4971.42" y2="4953.50" stroke="black"/>
    <line x1="4971.42" y1="4953.50" x2="4970.56" y2="4953.00" stroke="black"/>
    <line x1="4970.56" y1="4953.00" x2="4969.69" y2="4952.50" stroke="black"/>
    <line x1="4969.69" y1="4952.50" x2="4969.69" y2="4951.50" stroke="black"/>
    <line x1="4969.69" y1="4951.50" x2="4969.69" y2="4950.50" stroke="black"/>
    <line x1="4969.69" y1="4950.50" x2="4969.69" y2="4949.50" stroke="black"/>
    <line x1="4969.69" y1="4949.50" x2="4969.69" y2="4948.50" stroke="black"/>
    <line x1="4969.69" y1="4948.50" x2="4969.69" y2="4947.50" stroke="black"/>
    <line x1="4969.69" y1="4947.50" x2="4968.82" y2="4948.00" stroke="black"/>
    <line x1="4968.82" y1="4948.00" x2="4967.96" y2="4948.50" stroke="black"/>
    <line x1="4967.96" y1="4948.50" x2="4967.09" y2="4949.00" stroke="black"/>
    <line x1="4967.09" y1="4949.00" x2="4966.23" y2="4949.50" stroke="black"/>
    <line x1="4966.23" y1="4949.50" x2="4965.36" y2="4950.00" stroke="black"/>
    <line x1="4965.36" y1="4950.00" x2="4964.49" y2="4949.50" stroke="black"/>
    <line x1="4964.49" y1="4949.50" x2="4963.63" y2="4949.00" stroke="black"/>
    <line x1="4963.63" y1="4949.00" x2="4962.76" y2="4948.50" stroke="black"/>
    <line x1="4962.76" y1="4948.50" x2="4961.89" y2="4948.00" stroke="black"/>
    <line x1="4961.89" y1="4948.00" x2="4961.03" y2="4947.50" stroke="black"/>
    <line x1="4961.03" y1="4947.50" x2="4961.03" y2="4946.50" stroke="black"/>
    <line x1="4961.03" y1="4946.50" x2="4961.03" y2="4945.50" stroke="black"/>
    <line x1="4961.03" y1="4945.50" x2="4961.03" y2="4944.50" stroke="black"/>
    <line x1="4961.03" y1="4944.50" x2="4961.03" y2="4943.50" stroke="black"/>
    <line x1="4961.03" y1="4943.50" x2="4961.03" y2="4942.50" stroke="black"/>
    <line x1="4961.03" y1="4942.50" x2="4961.89" y2="4942.00" stroke="black"/>
    <line x1="4961.89" y1="4942.00" x2="4962.76" y2="4941.50" stroke="black"/>
    <line x1="4962.76" y1="4941.50" x2="4963.63" y2="4941.00" stroke="black"/>
    <line x1="4963.63" y1="4941.00" x2="4964.49" y2="4940.50" stroke="black"/>
    <line x1="4964.49" y1="4940.50" x2="4965.36" y2="4940.00" stroke="black"/>
    <line x1="4965.36" y1="4940.00" x2="4964.49" y2="4939.50" stroke="black"/>
    <line x1="4964.49" y1="4939.50" x2="4963.63" y2="4939.00" stroke="black"/>
    <line x1="4963.63" y1="4939.00" x2="4962.76" y2="4938.50" stroke="black"/>
    <line x1="4962.76" y1="4938.50" x2="4961.89" y2="4938.00" stroke="black"/>
    <line x1="4961.89" y1="4938.00" x2="4961.03" y2="4937.50" stroke="black"/>
    <line x1="4961.03" y1="4937.50" x2="4961.03" y2="4936.50" stroke="black"/>
    <line x1="4961.03" y1="4936.50" x2="4961.03" y2="4935.50" stroke="black"/>
    <line x1="4961.03" y1="4935.50" x2="4961.03" y2="4934.50" stroke="black"/>
    <line x1="4961.03" y1="4934.50" x2="4961.03" y2="4933.50" stroke="black"/>
    <line x1="4961.03" y1="4933.50" x2="4961.03" y2="4932.50" stroke="black"/>
    <line x1="4961.03" y1="4932.50" x2="4960.16" y2="4933.00" stroke="black"/>
    <line x1="4960.16" y1="4933.00" x2="4959.30" y2="4933.50" stroke="black"/>
    <line x1="4959.30" y1="4933.50" x2="4958.43" y2="4934.00" stroke="black"/>
    <line x1="4958.43" y1="4934.00" x2="4957.56" y2="4934.50" stroke="black"/>
    <line x1="4957.56" y1="4934.50" x2="4956.70" y2="4935.00" stroke="black"/>
    <line x1="4956.70" y1="4935.00" x2="4955.83" y2="4934.50" stroke="black"/>
    <line x1="4955.83" y1="4934.50" x2="4954.97" y2="4934.00" stroke="black"/>
    <line x1="4954.97" y1="4934.00" x2="4954.10" y2="4933.50" stroke="black"/>
    <line x1="4954.10" y1="4933.50" x2="4953.23" y2="4933.00" stroke="black"/>
    <line x1="4953.23" y1="4933.00" x2="4952.37" y2="4932.50" stroke="black"/>
    <line x1="4952.37" y1="4932.50" x2="4952.37" y2="4933.50" stroke="black"/>
    <line x1="4952.37" y1="4933.50" x2="4952.37" y2="4934.50" stroke="black"/>
    <line x1="4952.37" y1="4934.50" x2="4952.37" y2="4935.50" stroke="black"/>
    <line x1="4952.37" y1="4935.50" x2="4952.37" y2="4936.50" stroke="black"/>
    <line x1="4952.37" y1="4936.50" x2="4952.37" y2="4937.50" stroke="black"/>
    <line x1="4952.37" y1="4937.50" x2="4951.50" y2="4938.00" stroke="black"/>
    <line x1="4951.50" y1="4938.00" x2="4950.64" y2="4938.50" stroke="black"/>
    <line x1="4950.64" y1="4938.50" x2="4949.77" y2="4939.00" stroke="black"/>
    <line x1="4949.77" y1="4939.00" x2="4948.90" y2="4939.50" stroke="black"/>
    <line x1="4948.90" y1="4939.50" x2="4948.04" y2="4940.00" stroke="black"/>
    <line x1="4948.04" y1="4940.00" x2="4947.17" y2="4939.50" stroke="black"/>
    <line x1="4947.17" y1="4939.50" x2="4946.31" y2="4939.00" stroke="black"/>
    <line x1="4946.31" y1="4939.00" x2="4945.44" y2="4938.50" stroke="black"/>
    <line x1="4945.44" y1="4938.50" x2="4944.57" y2="4938.00" stroke="black"/>
    <line x1="4944.57" y1="4938.00" x2="4943.71" y2="4937.50" stroke="black"/>
    <line x1="4943.71" y1="4937.50" x2="4943.71" y2="4936.50" stroke="black"/>
    <line x1="4943.71" y1="4936.50" x2="4943.71" y2="4935.50" stroke="black"/>
    <line x1="4943.71" y1="4935.50" x2="4943.71" y2="4934.50" stroke="black"/>
    <line x1="4943.71" y1="4934.50" x2="4943.71" y2="4933.50" stroke="black"/>
    <line x1="4943.71" y1="4933.50" x2="4943.71" y2="4932.50" stroke="black"/>
    <line x1="4943.71" y1="4932.50" x2="4942.84" y2="4933.00" stroke="black"/>
    <line x1="4942.84" y1="4933.00" x2="4941.98" y2="4933.50" stroke="black"/>
    <line x1="4941.98" y1="4933.50" x2="4941.11" y2="4934.00" stroke="black"/>
    <line x1="4941.11" y1="4934.00" x2="4940.24" y2="4934.50" stroke="black"/>
    <line x1="4940.24" y1="4934.50" x2="4939.38" y2="4935.00" stroke="black"/>
    <line x1="4939.38" y1="4935.00" x2="4938.51" y2="4934.50" stroke="black"/>
    <line x1="4938.51" y1="4934.50" x2="4937.65" y2="4934.00" stroke="black"/>
    <line x1="4937.65" y1="4934.00" x2="4936.78" y2="4933.50" stroke="black"/>
    <line x1="4936.78" y1="4933.50" x2="4935.91" y2="4933.00" stroke="black"/>
    <line x1="4935.91" y1="4933.00" x2="4935.05" y2="4932.50" stroke="black"/>
    <line x1="4935.05" y1="4932.50" x2="4935.05" y2="4933.50" stroke="black"/>
    <line x1="4935.05" y1="4933.50" x2="4935.05" y2="4934.50" stroke="black"/>
    <line x1="4935.05" y1="4934.50" x2="4935.05" y2="4935.50" stroke="black"/>
    <line x1="4935.05" y1="4935.50" x2="4935.05" y2="4936.50" stroke="black"/>
    <line x1="4935.05" y1="4936.50" x2="4935.05" y2="4937.50" stroke="black"/>
    <line x1="4935.05" y1="4937.50" x2="4934.18" y2="4938.00" stroke="black"/>
    <line x1="4934.18" y1="4938.00" x2="4933.32" y2="4938.50" stroke="black"/>
    <line x1="4933.32" y1="4938.50" x2="4932.45" y2="4939.00" stroke="black"/>
    <line x1="4932.45" y1="4939.00" x2="4931.58" y2="4939.50" stroke="black"/>
    <line x1="4931.58" y1="4939.50" x2="4930.72" y2="4940.00" stroke="black"/>
    <line x1="4930.72" y1="4940.00" x2="4931.58" y2="4940.50" stroke="black"/>
    <line x1="4931.58" y1="4940.50" x2="4932.45" y2="4941.00" stroke="black"/>
    <line x1="4932.45" y1="4941.00" x2="4933.32" y2="4941.50" stroke="black"/>
    <line x1="4933.32" y1="4941.50" x2="4934.18" y2="4942.00" stroke="black"/>
    <line x1="4934.18" y1="4942.00" x2="4935.05" y2="4942.50" stroke="black"/>
    <line x1="4935.05" y1="4942.50" x2="4935.05" y2="4943.50" stroke="black"/>
    <line x1="4935.05" y1="4943.50" x2="4935.05" y2="4944.50" stroke="black"/>
    <line x1="4935.05" y1="4944.50" x2="4935.05" y2="4945.50" stroke="black"/>
    <line x1="4935.05" y1="4945.50" x2="4935.05" y2="4946.50" stroke="black"/>
    <line x1="4935.05" y1="4946.50" x2="4935.05" y2="4947.50" stroke="black"/>
    <line x1="4935.05" y1="4947.50" x2="4934.18" y2="4948.00" stroke="black"/>
    <line x1="4934.18" y1="4948.00" x2="4933.32" y2="4948.50" stroke="black"/>
    <line x1="4933.32" y1="4948.50" x2="4932.45" y2="4949.00" stroke="black"/>
    <line x1="4932.45" y1="4949.00" x2="4931.58" y2="4949.50" stroke="black"/>
    <line x1="4931.58" y1="4949.50" x2="4930.72" y2="4950.00" stroke="black"/>
    <line x1="4930.72" y1="4950.00" x2="4929.85" y2="4949.50" stroke="black"/>
    <line x1="4929.85" y1="4949.50" x2="4928.99" y2="4949.00" stroke="black"/>
    <line x1="4928.99" y1="4949.00" x2="4928.12" y2="4948.50" stroke="black"/>
    <line x1="4928.12" y1="4948.50" x2="4927.25" y2="4948.00" stroke="black"/>
    <line x1="4927.25" y1="4948.00" x2="4926.39" y2="4947.50" stroke="black"/>
    <line x1="4926.39" y1="4947.50" x2="4926.39" y2="4948.50" stroke="black"/>
    <line x1="4926.39" y1="4948.50" x2="4926.39" y2="4949.50" stroke="black"/>
    <line x1="4926.39" y1="4949.50" x2="4926.39" y2="4950.50" stroke="black"/>
    <line x1="4926.39" y1="4950.50" x2="4926.39" y2="4951.50" stroke="black"/>
    <line x1="4926.39" y1="4951.50" x2="4926.39" y2="4952.50" stroke="black"/>
    <line x1="4926.39" y1="4952.50" x2="4925.52" y2="4953.00" stroke="black"/>
    <line x1="4925.52" y1="4953.00" x2="4924.66" y2="4953.50" stroke="black"/>
    <line x1="4924.66" y1="4953.50" x2="4923.79" y2="4954.00" stroke="black"/>
    <line x1="4923.79" y1="4954.00" x2="4922.92" y2="4954.50" stroke="black"/>
    <line x1="4922.92" y1="4954.50" x2="4922.06" y2="4955.00" stroke="black"/>
    <line x1="4922.06" y1="4955.00" x2="4921.19" y2="4954.50" stroke="black"/>
    <line x1="4921.19" y1="4954.50" x2="4920.33" y2="4954.00" stroke="black"/>
    <line x1="4920.33" y1="4954.00" x2="4919.46" y2="4953.50" stroke="black"/>
    <line x1="4919.46" y1="4953.50" x2="4918.59" y2="4953.00" stroke="black"/>
    <line x1="4918.59" y1="4953.00" x2="4917.73" y2="4952.50" stroke="black"/>
    <line x1="4917.73" y1="4952.50" x2="4917.73" y2="4951.50" stroke="black"/>
    <line x1="4917.73" y1="4951.50" x2="4917.73" y2="4950.50" stroke="black"/>
    <line x1="4917.73" y1="4950.50" x2="4917.73" y2="4949.50" stroke="black"/>
    <line x1="4917.73" y1="4949.50" x2="4917.73" y2="4948.50" stroke="black"/>
    <line x1="4917.73" y1="4948.50" x2="4917.73" y2="4947.50" stroke="black"/>
    <line x1="4917.73" y1="4947.50" x2="4916.86" y2="4948.00" stroke="black"/>
    <line x1="4916.86" y1="4948.00" x2="4916.00" y2="4948.50" stroke="black"/>
    <line x1="4916.00" y1="4948.50" x2="4915.13" y2="4949.00" stroke="black"/>
    <line x1="4915.13" y1="4949.00" x2="4914.26" y2="4949.50" stroke="black"/>
    <line x1="4914.26" y1="4949.50" x2="4913.40" y2="4950.00" stroke="black"/>
    <line x1="4913.40" y1="4950.00" x2="4912.53" y2="4949.50" stroke="black"/>
    <line x1="4912.53" y1="4949.50" x2="4911.67" y2="4949.00" stroke="black"/>
    <line x1="4911.67" y1="4949.00" x2="4910.80" y2="4948.50" stroke="black"/>
    <line x1="4910.80" y1="4948.50" x2="4909.93" y2="4948.00" stroke="black"/>
    <line x1="4909.93" y1="4948.00" x2="4909.07" y2="4947.50" stroke="black"/>
    <line x1="4909.07" y1="4947.50" x2="4909.07" y2="4946.50" stroke="black"/>
    <line x1="4909.07" y1="4946.50" x2="4909.07" y2="4945.50" stroke="black"/>
    <line x1="4909.07" y1="4945.50" x2="4909.07" y2="4944.50" stroke="black"/>
    <line x1="4909.07" y1="4944.50" x2="4909.07" y2="4943.50" stroke="black"/>
    <line x1="4909.07" y1="4943.50" x2="4909.07" y2="4942.50" stroke="black"/>
    <line x1="4909.07" y1="4942.50" x2="4909.93" y2="4942.00" stroke="black"/>
    <line x1="4909.93" y1="4942.00" x2="4910.80" y2="4941.50" stroke="black"/>
    <line x1="4910.80" y1="4941.50" x2="4911.67" y2="4941.00" stroke="black"/>
    <line x1="4911.67" y1="4941.00" x2="4912.53" y2="4940.50" stroke="black"/>
    <line x1="4912.53" y1="4940.50" x2="4913.40" y2="4940.00" stroke="black"/>
    <line x1="4913.40" y1="4940.00" x2="4912.53" y2="4939.50" stroke="black"/>
    <line x1="4912.53" y1="4939.50" x2="4911.67" y2="4939.00" stroke="black"/>
    <line x1="4911.67" y1="4939.00" x2="4910.80" y2="4938.50" stroke="black"/>
    <line x1="4910.80" y1="4938.50" x2="4909.93" y2="4938.00" stroke="black"/>
    <line x1="4909.93" y1="4938.00" x2="4909.07" y2="4937.50" stroke="black"/>
    <line x1="4909.07" y1="4937.50" x2="4909.07" y2="4936.50" stroke="black"/>
    <line x1="4909.07" y1="4936.50" x2="4909.07" y2="4935.50" stroke="black"/>
    <line x1="4909.07" y1="4935.50" x2="4909.07" y2="4934.50" stroke="black"/>
    <line x1="4909.07" y1="4934.50" x2="4909.07" y2="4933.50" stroke="black"/>
    <line x1="4909.07" y1="4933.50" x2="4909.07" y2="4932.50" stroke="black"/>
    <line x1="4909.07" y1="4932.50" x2="4908.20" y2="4933.00" stroke="black"/>
    <line x1="4908.20" y1="4933.00" x2="4907.34" y2="4933.50" stroke="black"/>
    <line x1="4907.34" y1="4933.50" x2="4906.47" y2="4934.00" stroke="black"/>
    <line x1="4906.47" y1="4934.00" x2="4905.60" y2="4934.50" stroke="black"/>
    <line x1="4905.60" y1="4934.50" x2="4904.74" y2="4935.00" stroke="black"/>
    <line x1="4904.74" y1="4935.00" x2="4903.87" y2="4934.50" stroke="black"/>
    <line x1="4903.87" y1="4934.50" x2="4903.01" y2="4934.00" stroke="black"/>
    <line x1="4903.01" y1="4934.00" x2="4902.14" y2="4933.50" stroke="black"/>
    <line x1="4902.14" y1="4933.50" x2="4901.27" y2="4933.00" stroke="black"/>
    <line x1="4901.27" y1="4933.00" x2="4900.41" y2="4932.50" stroke="black"/>
    <line x1="4900.41" y1="4932.50" x2="4900.41" y2="4933.50" stroke="black"/>
    <line x1="4900.41" y1="4933.50" x2="4900.41" y2="4934.50" stroke="black"/>
    <line x1="4900.41" y1="4934.50" x2="4900.41" y2="4935.50" stroke="black"/>
    <line x1="4900.41" y1="4935.50" x2="4900.41" y2="4936.50" stroke="black"/>
    <line x1="4900.41" y1="4936.50" x2="4900.41" y2="4937.50" stroke="black"/>
    <line x1="4900.41" y1="4937.50" x2="4899.54" y2="4938.00" stroke="black"/>
    <line x1="4899.54" y1="4938.00" x2="4898.68" y2="4938.50" stroke="black"/>
    <line x1="4898.68" y1="4938.50" x2="4897.81" y2="4939.00" stroke="black"/>
    <line x1="4897.81" y1="4939.00" x2="4896.94" y2="4939.50" stroke="black"/>
    <line x1="4896.94" y1="4939.50" x2="4896.08" y2="4940.00" stroke="black"/>
    <line x1="4896.08" y1="4940.00" x2="4895.21" y2="4939.50" stroke="black"/>
    <line x1="4895.21" y1="4939.50" x2="4894.34" y2="4939.00" stroke="black"/>
    <line x1="4894.34" y1="4939.00" x2="4893.48" y2="4938.50" stroke="black"/>
    <line x1="4893.48" y1="4938.50" x2="4892.61" y2="4938.00" stroke="black"/>
    <line x1="4892.61" y1="4938.00" x2="4891.75" y2="4937.50" stroke="black"/>
    <line x1="4891.75" y1="4937.50" x2="4891.75" y2="4936.50" stroke="black"/>
    <line x1="4891.75" y1="4936.50" x2="4891.75" y2="4935.50" stroke="black"/>
    <line x1="4891.75" y1="4935.50" x2="4891.75" y2="4934.50" stroke="black"/>
    <line x1="4891.75" y1="4934.50" x2="4891.75" y2="4933.50" stroke="black"/>
    <line x1="4891.75" y1="4933.50" x2="4891.75" y2="4932.50" stroke="black"/>
    <line x1="4891.75" y1="4932.50" x2="4890.88" y2="4933.00" stroke="black"/>
    <line x1="4890.88" y1="4933.00" x2="4890.01" y2="4933.50" stroke="black"/>
    <line x1="4890.01" y1="4933.50" x2="4889.15" y2="4934.00" stroke="black"/>
    <line x1="4889.15" y1="4934.00" x2="4888.28" y2="4934.50" stroke="black"/>
    <line x1="4888.28" y1="4934.50" x2="4887.42" y2="4935.00" stroke="black"/>
    <line x1="4887.42" y1="4935.00" x2="4886.55" y2="4934.50" stroke="black"/>
    <line x1="4886.55" y1="4934.50" x2="4885.68" y2="4934.00" stroke="black"/>
    <line x1="4885.68" y1="4934.00" x2="4884.82" y2="4933.50" stroke="black"/>
    <line x1="4884.82" y1="4933.50" x2="4883.95" y2="4933.00" stroke="black"/>
    <line x1="4883.95" y1="4933.00" x2="4883.09" y2="4932.50" stroke="black"/>
    <line x1="4883.09" y1="4932.50" x2="4883.09" y2="4933.50" stroke="black"/>
    <line x1="4883.09" y1="4933.50" x2="4883.09" y2="4934.50" stroke="black"/>
    <line x1="4883.09" y1="4934.50" x2="4883.09" y2="4935.50" stroke="black"/>
    <line x1="4883.09" y1="4935.50" x2="4883.09" y2="4936.50" stroke="black"/>
    <line x1="4883.09" y1="4936.50" x2="4883.09" y2="4937.50" stroke="black"/>
    <line x1="4883.09" y1="4937.50" x2="4882.22" y2="4938.00" stroke="black"/>
    <line x1="4882.22" y1="4938.00" x2="4881.35" y2="4938.50" stroke="black"/>
    <line x1="4881.35" y1="4938.50" x2="4880.49" y2="4939.00" stroke="black"/>
    <line x1="4880.49" y1="4939.00" x2="4879.62" y2="4939.50" stroke="black"/>
    <line x1="4879.62" y1="4939.50" x2="4878.76" y2="4940.00" stroke="black"/>
    <line x1="4878.76" y1="4940.00" x2="4879.62" y2="4940.50" stroke="black"/>
    <line x1="4879.62" y1="4940.50" x2="4880.49" y2="4941.00" stroke="black"/>
    <line x1="4880.49" y1="4941.00" x2="4881.35" y2="4941.50" stroke="black"/>
    <line x1="4881.35" y1="4941.50" x2="4882.22" y2="4942.00" stroke="black"/>
    <line x1="4882.22" y1="4942.00" x2="4883.09" y2="4942.50" stroke="black"/>
    <line x1="4883.09" y1="4942.50" x2="4883.09" y2="4943.50" stroke="black"/>
    <line x1="4883.09" y1="4943.50" x2="4883.09" y2="4944.50" stroke="black"/>
    <line x1="4883.09" y1="4944.50" x2="4883.09" y2="4945.50" stroke="black"/>
    <line x1="4883.09" y1="4945.50" x2="4883.09" y2="4946.50" stroke="black"/>
    <line x1="4883.09" y1="4946.50" x2="4883.09" y2="4947.50" stroke="black"/>
    <line x1="4883.09" y1="4947.50" x2="4882.22" y2="4948.00" stroke="black"/>
    <line x1="4882.22" y1="4948.00" x2="4881.35" y2="4948.50" stroke="black"/>
    <line x1="4881.35" y1="4948.50" x2="4880.49" y2="4949.00" stroke="black"/>
    <line x1="4880.49" y1="4949.00" x2="4879.62" y2="4949.50" stroke="black"/>
    <line x1="4879.62" y1="4949.50" x2="4878.76" y2="4950.00" stroke="black"/>
    <line x1="4878.76" y1="4950.00" x2="4877.89" y2="4949.50" stroke="black"/>
    <line x1="4877.89" y1="4949.50" x2="4877.02" y2="4949.00" stroke="black"/>
    <line x1="4877.02" y1="4949.00" x2="4876.16" y2="4948.50" stroke="black"/>
    <line x1="4876.16" y1="4948.50" x2="4875.29" y2="4948.00" stroke="black"/>
    <line x1="4875.29" y1="4948.00" x2="4874.43" y2="4947.50" stroke="black"/>
    <line x1="4874.43" y1="4947.50" x2="4874.43" y2="4948.50" stroke="black"/>
    <line x1="4874.43" y1="4948.50" x2="4874.43" y2="4949.50" stroke="black"/>
    <line x1="4874.43" y1="4949.50" x2="4874.43" y2="4950.50" stroke="black"/>
    <line x1="4874.43" y1="4950.50" x2="4874.43" y2="4951.50" stroke="black"/>
    <line x1="4874.43" y1="4951.50" x2="4874.43" y2="4952.50" stroke="black"/>
    <line x1="4874.43" y1="4952.50" x2="4873.56" y2="4953.00" stroke="black"/>
    <line x1="4873.56" y1="4953.00" x2="4872.69" y2="4953.50" stroke="black"/>
    <line x1="4872.69" y1="4953.50" x2="4871.83" y2="4954.00" stroke="black"/>
    <line x1="4871.83" y1="4954.00" x2="4870.96" y2="4954.50" stroke="black"/>
    <line x1="4870.96" y1="4954.50" x2="4870.10" y2="4955.00" stroke="black"/>
    <line x1="4870.10" y1="4955.00" x2="4870.96" y2="4955.50" stroke="black"/>
    <line x1="4870.96" y1="4955.50" x2="4871.83" y2="4956.00" stroke="black"/>
    <line x1="4871.83" y1="4956.00" x2="4872.69" y2="4956.50" stroke="black"/>
    <line x1="4872.69" y1="4956.50" x2="4873.56" y2="4957.00" stroke="black"/>
    <line x1="4873.56" y1="4957.00" x2="4874.43" y2="4957.50" stroke="black"/>
    <line x1="4874.43" y1="4957.50" x2="4874.43" y2="4958.50" stroke="black"/>
    <line x1="4874.43" y1="4958.50" x2="4874.43" y2="4959.50" stroke="black"/>
    <line x1="4874.43" y1="4959.50" x2="4874.43" y2="4960.50" stroke="black"/>
    <line x1="4874.43" y1="4960.50" x2="4874.43" y2="4961.50" stroke="black"/>
    <line x1="4874.43" y1="4961.50" x2="4874.43" y2="4962.50" stroke="black"/>
    <line x1="4874.43" y1="4962.50" x2="4875.29" y2="4962.00" stroke="black"/>
    <line x1="4875.29" y1="4962.00" x2="4876.16" y2="4961.50" stroke="black"/>
    <line x1="4876.16" y1="4961.50" x2="4877.02" y2="4961.00" stroke="black"/>
    <line x1="4877.02" y1="4961.00" x2="4877.89" y2="4960.50" stroke="black"/>
    <line x1="4877.89" y1="4960.50" x2="4878.76" y2="4960.00" stroke="black"/>
    <line x1="4878.76" y1="4960.00" x2="4879.62" y2="4960.50" stroke="black"/>
    <line x1="4879.62" y1="4960.50" x2="4880.49" y2="4961.00" stroke="black"/>
    <line x1="4880.49" y1="4961.00" x2="4881.35" y2="4961.50" stroke="black"/>
    <line x1="4881.35" y1="4961.50" x2="4882.22" y2="4962.00" stroke="black"/>
    <line x1="4882.22" y1="4962.00" x2="4883.09" y2="4962.50" stroke="black"/>
    <line x1="4883.09" y1="4962.50" x2="4883.09" y2="4963.50" stroke="black"/>
    <line x1="4883.09" y1="4963.50" x2="4883.09" y2="4964.50" stroke="black"/>
    <line x1="4883.09" y1="4964.50" x2="4883.09" y2="4965.50" stroke="black"/>
    <line x1="4883.09" y1="4965.50" x2="4883.09" y2="4966.50" stroke="black"/>
    <line x1="4883.09" y1="4966.50" x2="4883.09" y2="4967.50" stroke="black"/>
    <line x1="4883.09" y1="4967.50" x2="4882.22" y2="4968.00" stroke="black"/>
    <line x1="4882.22" y1="4968.00" x2="4881.35" y2="4968.50" stroke="black"/>
    <line x1="4881.35" y1="4968.50" x2="4880.49" y2="4969.00" stroke="black"/>
    <line x1="4880.49" y1="4969.00" x2="4879.62" y2="4969.50" stroke="black"/>
    <line x1="4879.62" y1="4969.50" x2="4878.76" y2="4970.00" stroke="black"/>
    <line x1="4878.76" y1="4970.00" x2="4879.62" y2="4970.50" stroke="black"/>
    <line x1="4879.62" y1="4970.50" x2="4880.49" y2="4971.00" stroke="black"/>
    <line x1="4880.49" y1="4971.00" x2="4881.35" y2="4971.50" stroke="black"/>
    <line x1="4881.35" y1="4971.50" x2="4882.22" y2="4972.00" stroke="black"/>
    <line x1="4882.22" y1="4972.00" x2="4883.09" y2="4972.50" stroke="black"/>
    <line x1="4883.09" y1="4972.50" x2="4883.09" y2="4973.50" stroke="black"/>
    <line x1="4883.09" y1="4973.50" x2="4883.09" y2="4974.50" stroke="black"/>
    <line x1="4883.09" y1="4974.50" x2="4883.09" y2="4975.50" stroke="black"/>
    <line x1="4883.09" y1="4975.50" x2="4883.09" y2="4976.50" stroke="black"/>
    <line x1="4883.09" y1="4976.50" x2="4883.09" y2="4977.50" stroke="black"/>
    <line x1="4883.09" y1="4977.50" x2="4882.22" y2="4978.00" stroke="black"/>
    <line x1="4882.22" y1="4978.00" x2="4881.35" y2="4978.50" stroke="black"/>
    <line x1="4881.35" y1="4978.50" x2="4880.49" y2="4979.00" stroke="black"/>
    <line x1="4880.49" y1="4979.00" x2="4879.62" y2="4979.50" stroke="black"/>
    <line x1="4879.62" y1="4979.50" x2="4878.76" y2="4980.00" stroke="black"/>
    <line x1="4878.76" y1="4980.00" x2="4877.89" y2="4979.50" stroke="black"/>
    <line x1="4877.89" y1="4979.50" x2="4877.02" y2="4979.00" stroke="black"/>
    <line x1="4877.02" y1="4979.00" x2="4876.16" y2="4978.50" stroke="black"/>
    <line x1="4876.16" y1="4978.50" x2="4875.29" y2="4978.00" stroke="black"/>
    <line x1="4875.29" y1="4978.00" x2="4874.43" y2="4977.50" stroke="black"/>
    <line x1="4874.43" y1="4977.50" x2="4874.43" y2="4978.50" stroke="black"/>
    <line x1="4874.43" y1="4978.50" x2="4874.43" y2="4979.50" stroke="black"/>
    <line x1="4874.43" y1="4979.50" x2="4874.43" y2="4980.50" stroke="black"/>
    <line x1="4874.43" y1="4980.50" x2="4874.43" y2="4981.50" stroke="black"/>
    <line x1="4874.43" y1="4981.50" x2="4874.43" y2="4982.50" stroke="black"/>
    <line x1="4874.43" y1="4982.50" x2="4873.56" y2="4983.00" stroke="black"/>
    <line x1="4873.56" y1="4983.00" x2="4872.69" y2="4983.50" stroke="black"/>
    <line x1="4872.69" y1="4983.50" x2="4871.83" y2="4984.00" stroke="black"/>
    <line x1="4871.83" y1="4984.00" x2="4870.96" y2="4984.50" stroke="black"/>
    <line x1="4870.96" y1="4984.50" x2="4870.10" y2="4985.00" stroke="black"/>
    <line x1="4870.10" y1="4985.00" x2="4869.23" y2="4984.50" stroke="black"/>
    <line x1="4869.23" y1="4984.50" x2="4868.36" y2="4984.00" stroke="black"/>
    <line x1="4868.36" y1="4984.00" x2="4867.50" y2="4983.50" stroke="black"/>
    <line x1="4867.50" y1="4983.50" x2="4866.63" y2="4983.00" stroke="black"/>
    <line x1="4866.63" y1="4983.00" x2="4865.77" y2="4982.50" stroke="black"/>
    <line x1="4865.77" y1="4982.50" x2="4865.77" y2="4981.50" stroke="black"/>
    <line x1="4865.77" y1="4981.50" x2="4865.77" y2="4980.50" stroke="black"/>
    <line x1="4865.77" y1="4980.50" x2="4865.77" y2="4979.50" stroke="black"/>
    <line x1="4865.77" y1="4979.50" x2="4865.77" y2="4978.50" stroke="black"/>
    <line x1="4865.77" y1="4978.50" x2="4865.77" y2="4977.50" stroke="black"/>
    <line x1="4865.77" y1="4977.50" x2="4864.90" y2="4978.00" stroke="black"/>
    <line x1="4864.90" y1="4978.00" x2="4864.03" y2="4978.50" stroke="black"/>
    <line x1="4864.03" y1="4978.50" x2="4863.17" y2="4979.00" stroke="black"/>
    <line x1="4863.17" y1="4979.00" x2="4862.30" y2="4979.50" stroke="black"/>
    <line x1="4862.30" y1="4979.50" x2="4861.44" y2="4980.00" stroke="black"/>
    <line x1="4861.44" y1="4980.00" x2="4860.57" y2="4979.50" stroke="black"/>
    <line x1="4860.57" y1="4979.50" x2="4859.70" y2="4979.00" stroke="black"/>
    <line x1="4859.70" y1="4979.00" x2="4858.84" y2="4978.50" stroke="black"/>
    <line x1="4858.84" y1="4978.50" x2="4857.97" y2="4978.00" stroke="black"/>
    <line x1="4857.97" y1="4978.00" x2="4857.11" y2="4977.50" stroke="black"/>
    <line x1="4857.11" y1="4977.50" x2="4857.11" y2="4978.50" stroke="black"/>
    <line x1="4857.11" y1="4978.50" x2="4857.11" y2="4979.50" stroke="black"/>
    <line x1="4857.11" y1="4979.50" x2="4857.11" y2="4980.50" stroke="black"/>
    <line x1="4857.11" y1="4980.50" x2="4857.11" y2="4981.50" stroke="black"/>
    <line x1="4857.11" y1="4981.50" x2="4857.11" y2="4982.50" stroke="black"/>
    <line x1="4857.11" y1="4982.50" x2="4856.24" y2="4983.00" stroke="black"/>
    <line x1="4856.24" y1="4983.00" x2="4855.37" y2="4983.50" stroke="black"/>
    <line x1="4855.37" y1="4983.50" x2="4854.51" y2="4984.00" stroke="black"/>
    <line x1="4854.51" y1="4984.00" x2="4853.64" y2="4984.50" stroke="black"/>
    <line x1="4853.64" y1="4984.50" x2="4852.78" y2="4985.00" stroke="black"/>
    <line x1="4852.78" y1="4985.00" x2="4853.64" y2="4985.50" stroke="black"/>
    <line x1="4853.64" y1="4985.50" x2="4854.51" y2="4986.00" stroke="black"/>
    <line x1="4854.51" y1="4986.00" x2="4855.37" y2="4986.50" stroke="black"/>
    <line x1="4855.37" y1="4986.50" x2="4856.24" y2="4987.00" stroke="black"/>
    <line x1="4856.24" y1="4987.00" x2="4857.11" y2="4987.50" stroke="black"/>
    <line x1="4857.11" y1="4987.50" x2="4857.11" y2="4988.50" stroke="black"/>
    <line x1="4857.11" y1="4988.50" x2="4857.11" y2="4989.50" stroke="black"/>
    <line x1="4857.11" y1="4989.50" x2="4857.11" y2="4990.50" stroke="black"/>
    <line x1="4857.11" y1="4990.50" x2="4857.11" y2="4991.50" stroke="black"/>
    <line x1="4857.11" y1="4991.50" x2="4857.11" y2="4992.50" stroke="black"/>
    <line x1="4857.11" y1="4992.50" x2="4856.24" y2="4993.00" stroke="black"/>
    <line x1="4856.24" y1="4993.00" x2="4855.37" y2="4993.50" stroke="black"/>
    <line x1="4855.37" y1="4993.50" x2="4854.51" y2="4994.00" stroke="black"/>
    <line x1="4854.51" y1="4994.00" x2="4853.64" y2="4994.50" stroke="black"/>
    <line x1="4853.64" y1="4994.50" x2="4852.78" y2="4995.00" stroke="black"/>
    <line x1="4852.78" y1="4995.00" x2="4851.91" y2="4994.50" stroke="black"/>
    <line x1="4851.91" y1="4994.50" x2="4851.04" y2="4994.00" stroke="black"/>
    <line x1="4851.04" y1="4994.00" x2="4850.18" y2="4993.50" stroke="black"/>
    <line x1="4850.18" y1="4993.50" x2="4849.31" y2="4993.00" stroke="black"/>
    <line x1="4849.31" y1="4993.00" x2="4848.45" y2="4992.50" stroke="black"/>
    <line x1="4848.45" y1="4992.50" x2="4848.45" y2="4993.50" stroke="black"/>
    <line x1="4848.45" y1="4993.50" x2="4848.45" y2="4994.50" stroke="black"/>
    <line x1="4848.45" y1="4994.50" x2="4848.45" y2="4995.50" stroke="black"/>
    <line x1="4848.45" y1="4995.50" x2="4848.45" y2="4996.50" stroke="black"/>
    <line x1="4848.45" y1="4996.50" x2="4848.45" y2="4997.50" stroke="black"/>
    <line x1="4848.45" y1="4997.50" x2="4847.58" y2="4998.00" stroke="black"/>
    <line x1="4847.58" y1="4998.00" x2="4846.71" y2="4998.50" stroke="black"/>
    <line x1="4846.71" y1="4998.50" x2="4845.85" y2="4999.00" stroke="black"/>
    <line x1="4845.85" y1="4999.00" x2="4844.98" y2="4999.50" stroke="black"/>
    <line x1="4844.98" y1="4999.50" x2="4844.12" y2="5000.00" stroke="black"/>
    <line x1="4844.12" y1="5000.00" x2="4844.98" y2="5000.50" stroke="black"/>
    <line x1="4844.98" y1="5000.50" x2="4845.85" y2="5001.00" stroke="black"/>
    <line x1="4845.85" y1="5001.00" x2="4846.71" y2="5001.50" stroke="black"/>
    <line x1="4846.71" y1="5001.50" x2="4847.58" y2="5002.00" stroke="black"/>
    <line x1="4847.58" y1="5002.00" x2="4848.45" y2="5002.50" stroke="black"/>
    <line x1="4848.45" y1="5002.50" x2="4848.45" y2="5003.50" stroke="black"/>
    <line x1="4848.45" y1="5003.50" x2="4848.45" y2="5004.50" stroke="black"/>
    <line x1="4848.45" y1="5004.50" x2="4848.45" y2="5005.50" stroke="black"/>
    <line x1="4848.45" y1="5005.50" x2="4848.45" y2="5006.50" stroke="black"/>
    <line x1="4848.45" y1="5006.50" x2="4848.45" y2="5007.50" stroke="black"/>
    <line x1="4848.45" y1="5007.50" x2="4849.31" y2="5007.00" stroke="black"/>
    <line x1="4849.31" y1="5007.00" x2="4850.18" y2="5006.50" stroke="black"/>
    <line x1="4850.18" y1="5006.50" x2="4851.04" y2="5006.00" stroke="black"/>
    <line x1="4851.04" y1="5006.00" x2="4851.91" y2="5005.50" stroke="black"/>
    <line x1="4851.91" y1="5005.50" x2="4852.78" y2="5005.00" stroke="black"/>
    <line x1="4852.78" y1="5005.00" x2="4853.64" y2="5005.50" stroke="black"/>
    <line x1="4853.64" y1="5005.50" x2="4854.51" y2="5006.00" stroke="black"/>
    <line x1="4854.51" y1="5006.00" x2="4855.37" y2="5006.50" stroke="black"/>
    <line x1="4855.37" y1="5006.50" x2="4856.24" y2="5007.00" stroke="black"/>
    <line x1="4856.24" y1="5007.00" x2="4857.11" y2="5007.50" stroke="black"/>
    <line x1="4857.11" y1="5007.50" x2="4857.11" y2="5008.50" stroke="black"/>
    <line x1="4857.11" y1="5008.50" x2="4857.11" y2="5009.50" stroke="black"/>
    <line x1="4857.11" y1="5009.50" x2="4857.11" y2="5010.50" stroke="black"/>
    <line x1="4857.11" y1="5010.50" x2="4857.11" y2="5011.50" stroke="black"/>
    <line x1="4857.11" y1="5011.50" x2="4857.11" y2="5012.50" stroke="black"/>
    <line x1="4857.11" y1="5012.50" x2="4856.24" y2="5013.00" stroke="black"/>
    <line x1="4856.24" y1="5013.00" x2="4855.37" y2="5013.50" stroke="black"/>
    <line x1="4855.37" y1="5013.50" x2="4854.51" y2="5014.00" stroke="black"/>
    <line x1="4854.51" y1="5014.00" x2="4853.64" y2="5014.50" stroke="black"/>
    <line x1="4853.64" y1="5014.50" x2="4852.78" y2="5015.00" stroke="black"/>
    <line x1="4852.78" y1="5015.00" x2="4853.64" y2="5015.50" stroke="black"/>
    <line x1="4853.64" y1="5015.50" x2="4854.51" y2="5016.00" stroke="black"/>
    <line x1="4854.51" y1="5016.00" x2="4855.37" y2="5016.50" stroke="black"/>
    <line x1="4855.37" y1="5016.50" x2="4856.24" y2="5017.00" stroke="black"/>
    <line x1="4856.24" y1="5017.00" x2="4857.11" y2="5017.50" stroke="black"/>
    <line x1="4857.11" y1="5017.50" x2="4857.11" y2="5018.50" stroke="black"/>
    <line x1="4857.11" y1="5018.50" x2="4857.11" y2="5019.50" stroke="black"/>
    <line x1="4857.11" y1="5019.50" x2="4857.11" y2="5020.50" stroke="black"/>
    <line x1="4857.11" y1="5020.50" x2="4857.11" y2="5021.50" stroke="black"/>
    <line x1="4857.11" y1="5021.50" x2="4857.11" y2="5022.50" stroke="black"/>
    <line x1="4857.11" y1="5022.50" x2="4857.97" y2="5022.00" stroke="black"/>
    <line x1="4857.97" y1="5022.00" x2="4858.84" y2="5021.50" stroke="black"/>
    <line x1="4858.84" y1="5021.50" x2="4859.70" y2="5021.00" stroke="black"/>
    <line x1="4859.70" y1="5021.00" x2="4860.57" y2="5020.50" stroke="black"/>
    <line x1="4860.57" y1="5020.50" x2="4861.44" y2="5020.00" stroke="black"/>
    <line x1="4861.44" y1="5020.00" x2="4862.30" y2="5020.50" stroke="black"/>
    <line x1="4862.30" y1="5020.50" x2="4863.17" y2="5021.00" stroke="black"/>
    <line x1="4863.17" y1="5021.00" x2="4864.03" y2="5021.50" stroke="black"/>
    <line x1="4864.03" y1="5021.50" x2="4864.90" y2="5022.00" stroke="black"/>
    <line x1="4864.90" y1="5022.00" x2="4865.77" y2="5022.50" stroke="black"/>
    <line x1="4865.77" y1="5022.50" x2="4865.77" y2="5021.50" stroke="black"/>
    <line x1="4865.77" y1="5021.50" x2="4865.77" y2="5020.50" stroke="black"/>
    <line x1="4865.77" y1="5020.50" x2="4865.77" y2="5019.50" stroke="black"/>
    <line x1="4865.77" y1="5019.50" x2="4865.77" y2="5018.50" stroke="black"/>
    <line x1="4865.77" y1="5018.50" x2="4865.77" y2="5017.50" stroke="black"/>
    <line x1="4865.77" y1="5017.50" x2="4866.63" y2="5017.00" stroke="black"/>
    <line x1="4866.63" y1="5017.00" x2="4867.50" y2="5016.50" stroke="black"/>
    <line x1="4867.50" y1="5016.50" x2="4868.36" y2="5016.00" stroke="black"/>
    <line x1="4868.36" y1="5016.00" x2="4869.23" y2="5015.50" stroke="black"/>
    <line x1="4869.23" y1="5015.50" x2="4870.10" y2="5015.00" stroke="black"/>
    <line x1="4870.10" y1="5015.00" x2="4870.96" y2="5015.50" stroke="black"/>
    <line x1="4870.96" y1="5015.50" x2="4871.83" y2="5016.00" stroke="black"/>
    <line x1="4871.83" y1="5016.00" x2="4872.69" y2="5016.50" stroke="black"/>
    <line x1="4872.69" y1="5016.50" x2="4873.56" y2="5017.00" stroke="black"/>
    <line x1="4873.56" y1="5017.00" x2="4874.43" y2="5017.50" stroke="black"/>
    <line x1="4874.43" y1="5017.50" x2="4874.43" y2="5018.50" stroke="black"/>
    <line x1="4874.43" y1="5018.50" x2="4874.43" y2="5019.50" stroke="black"/>
    <line x1="4874.43" y1="5019.50" x2="4874.43" y2="5020.50" stroke="black"/>
    <line x1="4874.43" y1="5020.50" x2="4874.43" y2="5021.50" stroke="black"/>
    <line x1="4874.43" y1="5021.50" x2="4874.43" y2="5022.50" stroke="black"/>
    <line x1="4874.43" y1="5022.50" x2="4875.29" y2="5022.00" stroke="black"/>
    <line x1="4875.29" y1="5022.00" x2="4876.16" y2="5021.50" stroke="black"/>
    <line x1="4876.16" y1="5021.50" x2="4877.02" y2="5021.00" stroke="black"/>
    <line x1="4877.02" y1="5021.00" x2="4877.89" y2="5020.50" stroke="black"/>
    <line x1="4877.89" y1="5020.50" x2="4878.76" y2="5020.00" stroke="black"/>
    <line x1="4878.76" y1="5020.00" x2="4879.62" y2="5020.50" stroke="black"/>
    <line x1="4879.62" y1="5020.50" x2="4880.49" y2="5021.00" stroke="black"/>
    <line x1="4880.49" y1="5021.00" x2="4881.35" y2="5021.50" stroke="black"/>
    <line x1="4881.35" y1="5021.50" x2="4882.22" y2="5022.00" stroke="black"/>
    <line x1="4882.22" y1="5022.00" x2="4883.09" y2="5022.50" stroke="black"/>
    <line x1="4883.09" y1="5022.50" x2="4883.09" y2="5023.50" stroke="black"/>
    <line x1="4883.09" y1="5023.50" x2="4883.09" y2="5024.50" stroke="black"/>
    <line x1="4883.09" y1="5024.50" x2="4883.09" y2="5025.50" stroke="black"/>
    <line x1="4883.09" y1="5025.50" x2="4883.09" y2="5026.50" stroke="black"/>
    <line x1="4883.09" y1="5026.50" x2="4883.09" y2="5027.50" stroke="black"/>
    <line x1="4883.09" y1="5027.50" x2="4882.22" y2="5028.00" stroke="black"/>
    <line x1="4882.22" y1="5028.00" x2="4881.35" y2="5028.50" stroke="black"/>
    <line x1="4881.35" y1="5028.50" x2="4880.49" y2="5029.00" stroke="black"/>
    <line x1="4880.49" y1="5029.00" x2="4879.62" y2="5029.50" stroke="black"/>
    <line x1="4879.62" y1="5029.50" x2="4878.76" y2="5030.00" stroke="black"/>
    <line x1="4878.76" y1="5030.00" x2="4879.62" y2="5030.50" stroke="black"/>
    <line x1="4879.62" y1="5030.50" x2="4880.49" y2="5031.00" stroke="black"/>
    <line x1="4880.49" y1="5031.00" x2="4881.35" y2="5031.50" stroke="black"/>
    <line x1="4881.35" y1="5031.50" x2="4882.22" y2="5032.00" stroke="black"/>
    <line x1="4882.22" y1="5032.00" x2="4883.09" y2="5032.50" stroke="black"/>
    <line x1="4883.09" y1="5032.50" x2="4883.09" y2="5033.50" stroke="black"/>
    <line x1="4883.09" y1="5033.50" x2="4883.09" y2="5034.50" stroke="black"/>
    <line x1="4883.09" y1="5034.50" x2="4883.09" y2="5035.50" stroke="black"/>
    <line x1="4883.09" y1="5035.50" x2="4883.09" y2="5036.50" stroke="black"/>
    <line x1="4883.09" y1="5036.50" x2="4883.09" y2="5037.50" stroke="black"/>
    <line x1="4883.09" y1="5037.50" x2="4882.22" y2="5038.00" stroke="black"/>
    <line x1="4882.22" y1="5038.00" x2="4881.35" y2="5038.50" stroke="black"/>
    <line x1="4881.35" y1="5038.50" x2="4880.49" y2="5039.00" stroke="black"/>
    <line x1="4880.49" y1="5039.00" x2="4879.62" y2="5039.50" stroke="black"/>
    <line x1="4879.62" y1="5039.50" x2="4878.76" y2="5040.00" stroke="black"/>
    <line x1="4878.76" y1="5040.00" x2="4877.89" y2="5039.50" stroke="black"/>
    <line x1="4877.89" y1="5039.50" x2="4877.02" y2="5039.00" stroke="black"/>
    <line x1="4877.02" y1="5039.00" x2="4876.16" y2="5038.50" stroke="black"/>
    <line x1="4876.16" y1="5038.50" x2="4875.29" y2="5038.00" stroke="black"/>
    <line x1="4875.29" y1="5038.00" x2="4874.43" y2="5037.50" stroke="black"/>
    <line x1="4874.43" y1="5037.50" x2="4874.43" y2="5038.50" stroke="black"/>
    <line x1="4874.43" y1="5038.50" x2="4874.43" y2="5039.50" stroke="black"/>
    <line x1="4874.43" y1="5039.50" x2="4874.43" y2="5040.50" stroke="black"/>
    <line x1="4874.43" y1="5040.50" x2="4874.43" y2="5041.50" stroke="black"/>
    <line x1="4874.43" y1="5041.50" x2="4874.43" y2="5042.50" stroke="black"/>
    <line x1="4874.43" y1="5042.50" x2="4873.56" y2="5043.00" stroke="black"/>
    <line x1="4873.56" y1="5043.00" x2="4872.69" y2="5043.50" stroke="black"/>
    <line x1="4872.69" y1="5043.50" x2="4871.83" y2="5044.00" stroke="black"/>
    <line x1="4871.83" y1="5044.00" x2="4870.96" y2="5044.50" stroke="black"/>
    <line x1="4870.96" y1="5044.50" x2="4870.10" y2="5045.00" stroke="black"/>
    <line x1="4870.10" y1="5045.00" x2="4870.96" y2="5045.50" stroke="black"/>
    <line x1="4870.96" y1="5045.50" x2="4871.83" y2="5046.00" stroke="black"/>
    <line x1="4871.83" y1="5046.00" x2="4872.69" y2="5046.50" stroke="black"/>
    <line x1="4872.69" y1="5046.50" x2="4873.56" y2="5047.00" stroke="black"/>
    <line x1="4873.56" y1="5047.00" x2="4874.43" y2="5047.50" stroke="black"/>
    <line x1="4874.43" y1="5047.50" x2="4874.43" y2="5048.50" stroke="black"/>
    <line x1="4874.43" y1="5048.50" x2="4874.43" y2="5049.50" stroke="black"/>
    <line x1="4874.43" y1="5049.50" x2="4874.43" y2="5050.50" stroke="black"/>
    <line x1="4874.43" y1="5050.50" x2="4874.43" y2="5051.50" stroke="black"/>
    <line x1="4874.43" y1="5051.50" x2="4874.43" y2="5052.50" stroke="black"/>
    <line x1="4874.43" y1="5052.50" x2="4875.29" y2="5052.00" stroke="black"/>
    <line x1="4875.29" y1="5052.00" x2="4876.16" y2="5051.50" stroke="black"/>
    <line x1="4876.16" y1="5051.50" x2="4877.02" y2="5051.00" stroke="black"/>
    <line x1="4877.02" y1="5051.00" x2="4877.89" y2="5050.50" stroke="black"/>
    <line x1="4877.89" y1="5050.50" x2="4878.76" y2="5050.00" stroke="black"/>
    <line x1="4878.76" y1="5050.00" x2="4879.62" y2="5050.50" stroke="black"/>
    <line x1="4879.62" y1="5050.50" x2="4880.49" y2="5051.00" stroke="black"/>
    <line x1="4880.49" y1="5051.00" x2="4881.35" y2="5051.50" stroke="black"/>
    <line x1="4881.35" y1="5051.50" x2="4882.22" y2="5052.00" stroke="black"/>
    <line x1="4882.22" y1="5052.00" x2="4883.09" y2="5052.50" stroke="black"/>
    <line x1="4883.09" y1="5052.50" x2="4883.09" y2="5053.50" stroke="black"/>
    <line x1="4883.09" y1="5053.50" x2="4883.09" y2="5054.50" stroke="black"/>
    <line x1="4883.09" y1="5054.50" x2="4883.09" y2="5055.50" stroke="black"/>
    <line x1="4883.09" y1="5055.50" x2="4883.09" y2="5056.50" stroke="black"/>
    <line x1="4883.09" y1="5056.50" x2="4883.09" y2="5057.50" stroke="black"/>
    <line x1="4883.09" y1="5057.50" x2="4882.22" y2="5058.00" stroke="black"/>
    <line x1="4882.22" y1="5058.00" x2="4881.35" y2="5058.50" stroke="black"/>
    <line x1="4881.35" y1="5058.50" x2="4880.49" y2="5059.00" stroke="black"/>
    <line x1="4880.49" y1="5059.00" x2="4879.62" y2="5059.50" stroke="black"/>
    <line x1="4879.62" y1="5059.50" x2="4878.76" y2="5060.00" stroke="black"/>
    <line x1="4878.76" y1="5060.00" x2="4879.62" y2="5060.50" stroke="black"/>
    <line x1="4879.62" y1="5060.50" x2="4880.49" y2="5061.00" stroke="black"/>
    <line x1="4880.49" y1="5061.00" x2="4881.35" y2="5061.50" stroke="black"/>
    <line x1="4881.35" y1="5061.50" x2="4882.22" y2="5062.00" stroke="black"/>
    <line x1="4882.22" y1="5062.00" x2="4883.09" y2="5062.50" stroke="black"/>
    <line x1="4883.09" y1="5062.50" x2="4883.09" y2="5063.50" stroke="black"/>
    <line x1="4883.09" y1="5063.50" x2="4883.09" y2="5064.50" stroke="black"/>
    <line x1="4883.09" y1="5064.50" x2="4883.09" y2="5065.50" stroke="black"/>
    <line x1="4883.09" y1="5065.50" x2="4883.09" y2="5066.50" stroke="black"/>
    <line x1="4883.09" y1="5066.50" x2="4883.09" y2="5067.50" stroke="black"/>
    <line x1="4883.09" y1="5067.50" x2="4883.95" y2="5067.00" stroke="black"/>
    <line x1="4883.95" y1="5067.00" x2="4884.82" y2="5066.50" stroke="black"/>
    <line x1="4884.82" y1="5066.50" x2="4885.68" y2="5066.00" stroke="black"/>
    <line x1="4885.68" y1="5066.00" x2="4886.55" y2="5065.50" stroke="black"/>
    <line x1="4886.55" y1="5065.50" x2="4887.42" y2="5065.00" stroke="black"/>
    <line x1="4887.42" y1="5065.00" x2="4888.28" y2="5065.50" stroke="black"/>
    <line x1="4888.28" y1="5065.50" x2="4889.15" y2="5066.00" stroke="black"/>
    <line x1="4889.15" y1="5066.00" x2="4890.01" y2="5066.50" stroke="black"/>
    <line x1="4890.01" y1="5066.50" x2="4890.88" y2="5067.00" stroke="black"/>
    <line x1="4890.88" y1="5067.00" x2="4891.75" y2="5067.50" stroke="black"/>
    <line x1="4891.75" y1="5067.50" x2="4891.75" y2="5066.50" stroke="black"/>
    <line x1="4891.75" y1="5066.50" x2="4891.75" y2="5065.50" stroke="black"/>
    <line x1="4891.75" y1="5065.50" x2="4891.75" y2="5064.50" stroke="black"/>
    <line x1="4891.75" y1="5064.50" x2="4891.75" y2="5063.50" stroke="black"/>
    <line x1="4891.75" y1="5063.50" x2="4891.75" y2="5062.50" stroke="black"/>
    <line x1="4891.75" y1="5062.50" x2="4892.61" y2="5062.00" stroke="black"/>
    <line x1="4892.61" y1="5062.00" x2="4893.48" y2="5061.50" stroke="black"/>
    <line x1="4893.48" y1="5061.50" x2="4894.34" y2="5061.00" stroke="black"/>
    <line x1="4894.34" y1="5061.00" x2="4895.21" y2="5060.50" stroke="black"/>
    <line x1="4895.21" y1="5060.50" x2="4896.08" y2="5060.00" stroke="black"/>
    <line x1="4896.08" y1="5060.00" x2="4896.94" y2="5060.50" stroke="black"/>
    <line x1="4896.94" y1="5060.50" x2="4897.81" y2="5061.00" stroke="black"/>
    <line x1="4897.81" y1="5061.00" x2="4898.68" y2="5061.50" stroke="black"/>
    <line x1="4898.68" y1="5061.50" x2="4899.54" y2="5062.00" stroke="black"/>
    <line x1="4899.54" y1="5062.00" x2="4900.41" y2="5062.50" stroke="black"/>
    <line x1="4900.41" y1="5062.50" x2="4900.41" y2="5063.50" stroke="black"/>
    <line x1="4900.41" y1="5063.50" x2="4900.41" y2="5064.50" stroke="black"/>
    <line x1="4900.41" y1="5064.50" x2="4900.41" y2="5065.50" stroke="black"/>
    <line x1="4900.41" y1="5065.50" x2="4900.41" y2="5066.50" stroke="black"/>
    <line x1="4900.41" y1="5066.50" x2="4900.41" y2="5067.50" stroke="black"/>
    <line x1="4900.41" y1="5067.50" x2="4901.27" y2="5067.00" stroke="black"/>
    <line x1="4901.27" y1="5067.00" x2="4902.14" y2="5066.50" stroke="black"/>
    <line x1="4902.14" y1="5066.50" x2="4903.01" y2="5066.00" stroke="black"/>
    <line x1="4903.01" y1="5066.00" x2="4903.87" y2="5065.50" stroke="black"/>
    <line x1="4903.87" y1="5065.50" x2="4904.74" y2="5065.00" stroke="black"/>
    <line x1="4904.74" y1="5065.00" x2="4905.60" y2="5065.50" stroke="black"/>
    <line x1="4905.60" y1="5065.50" x2="4906.47" y2="5066.00" stroke="black"/>
    <line x1="4906.47" y1="5066.00" x2="4907.34" y2="5066.50" stroke="black"/>
    <line x1="4907.34" y1="5066.50" x2="4908.20" y2="5067.00" stroke="black"/>
    <line x1="4908.20" y1="5067.00" x2="4909.07" y2="5067.50" stroke="black"/>
    <line x1="4909.07" y1="5067.50" x2="4909.07" y2="5066.50" stroke="black"/>
    <line x1="4909.07" y1="5066.50" x2="4909.07" y2="5065.50" stroke="black"/>
    <line x1="4909.07" y1="5065.50" x2="4909.07" y2="5064.50" stroke="black"/>
    <line x1="4909.07" y1="5064.50" x2="4909.07" y2="5063.50" stroke="black"/>
    <line x1="4909.07" y1="5063.50" x2="4909.07" y2="5062.50" stroke="black"/>
    <line x1="4909.07" y1="5062.50" x2="4909.93" y2="5062.00" stroke="black"/>
    <line x1="4909.93" y1="5062.00" x2="4910.80" y2="5061.50" stroke="black"/>
    <line x1="4910.80" y1="5061.50" x2="4911.67" y2="5061.00" stroke="black"/>
    <line x1="4911.67" y1="5061.00" x2="4912.53" y2="5060.50" stroke="black"/>
    <line x1="4912.53" y1="5060.50" x2="4913.40" y2="5060.00" stroke="black"/>
    <line x1="4913.40" y1="5060.00" x2="4912.53" y2="5059.50" stroke="black"/>
    <line x1="4912.53" y1="5059.50" x2="4911.67" y2="5059.00" stroke="black"/>
    <line x1="4911.67" y1="5059.00" x2="4910.80" y2="5058.50" stroke="black"/>
    <line x1="4910.80" y1="5058.50" x2="4909.93" y2="5058.00" stroke="black"/>
    <line x1="4909.93" y1="5058.00" x2="4909.07" y2="5057.50" stroke="black"/>
    <line x1="4909.07" y1="5057.50" x2="4909.07" y2="5056.50" stroke="black"/>
    <line x1="4909.07" y1="5056.50" x2="4909.07" y2="5055.50" stroke="black"/>
    <line x1="4909.07" y1="5055.50" x2="4909.07" y2="5054.50" stroke="black"/>
    <line x1="4909.07" y1="5054.50" x2="4909.07" y2="5053.50" stroke="black"/>
    <line x1="4909.07" y1="5053.50" x2="4909.07" y2="5052.50" stroke="black"/>
    <line x1="4909.07" y1="5052.50" x2="4909.93" y2="5052.00" stroke="black"/>
    <line x1="4909.93" y1="5052.00" x2="4910.80" y2="5051.50" stroke="black"/>
    <line x1="4910.80" y1="5051.50" x2="4911.67" y2="5051.00" stroke="black"/>
    <line x1="4911.67" y1="5051.00" x2="4912.53" y2="5050.50" stroke="black"/>
    <line x1="4912.53" y1="5050.50" x2="4913.40" y2="5050.00" stroke="black"/>
    <line x1="4913.40" y1="5050.00" x2="4914.26" y2="5050.50" stroke="black"/>
    <line x1="4914.26" y1="5050.50" x2="4915.13" y2="5051.00" stroke="black"/>
    <line x1="4915.13" y1="5051.00" x2="4916.00" y2="5051.50" stroke="black"/>
    <line x1="4916.00" y1="5051.50" x2="4916.86" y2="5052.00" stroke="black"/>
    <line x1="4916.86" y1="5052.00" x2="4917.73" y2="5052.50" stroke="black"/>
    <line x1="4917.73" y1="5052.50" x2="4917.73" y2="5051.50" stroke="black"/>
    <line x1="4917.73" y1="5051.50" x2="4917.73" y2="5050.50" stroke="black"/>
    <line x1="4917.73" y1="5050.50" x2="4917.73" y2="5049.50" stroke="black"/>
    <line x1="4917.73" y1="5049.50" x2="4917.73" y2="5048.50" stroke="black"/>
    <line x1="4917.73" y1="5048.50" x2="4917.73" y2="5047.50" stroke="black"/>
    <line x1="4917.73" y1="5047.50" x2="4918.59" y2="5047.00" stroke="black"/>
    <line x1="4918.59" y1="5047.00" x2="4919.46" y2="5046.50" stroke="black"/>
    <line x1="4919.46" y1="5046.50" x2="4920.33" y2="5046.00" stroke="black"/>
    <line x1="4920.33" y1="5046.00" x2="4921.19" y2="5045.50" stroke="black"/>
    <line x1="4921.19" y1="5045.50" x2="4922.06" y2="5045.00" stroke="black"/>
    <line x1="4922.06" y1="5045.00" x2="4922.92" y2="5045.50" stroke="black"/>
    <line x1="4922.92" y1="5045.50" x2="4923.79" y2="5046.00" stroke="black"/>
    <line x1="4923.79" y1="5046.00" x2="4924.66" y2="5046.50" stroke="black"/>
    <line x1="4924.66" y1="5046.50" x2="4925.52" y2="5047.00" stroke="black"/>
    <line x1="4925.52" y1="5047.00" x2="4926.39" y2="5047.50" stroke="black"/>
    <line x1="4926.39" y1="5047.50" x2="4926.39" y2="5048.50" stroke="black"/>
    <line x1="4926.39" y1="5048.50" x2="4926.39" y2="5049.50" stroke="black"/>
    <line x1="4926.39" y1="5049.50" x2="4926.39" y2="5050.50" stroke="black"/>
    <line x1="4926.39" y1="5050.50" x2="4926.39" y2="5051.50" stroke="black"/>
    <line x1="4926.39" y1="5051.50" x2="4926.39" y2="5052.50" stroke="black"/>
    <line x1="4926.39" y1="5052.50" x2="4927.25" y2="5052.00" stroke="black"/>
    <line x1="4927.25" y1="5052.00" x2="4928.12" y2="5051.50" stroke="black"/>
    <line x1="4928.12" y1="5051.50" x2="4928.99" y2="5051.00" stroke="black"/>
    <line x1="4928.99" y1="5051.00" x2="4929.85" y2="5050.50" stroke="black"/>
    <line x1="4929.85" y1="5050.50" x2="4930.72" y2="5050.00" stroke="black"/>
    <line x1="4930.72" y1="5050.00" x2="4931.58" y2="5050.50" stroke="black"/>
    <line x1="4931.58" y1="5050.50" x2="4932.45" y2="5051.00" stroke="black"/>
    <line x1="4932.45" y1="5051.00" x2="4933.32" y2="5051.50" stroke="black"/>
    <line x1="4933.32" y1="5051.50" x2="4934.18" y2="5052.00" stroke="black"/>
    <line x1="4934.18" y1="5052.00" x2="4935.05" y2="5052.50" stroke="black"/>
    <line x1="4935.05" y1="5052.50" x2="4935.05" y2="5053.50" stroke="black"/>
    <line x1="4935.05" y1="5053.50" x2="4935.05" y2="5054.50" stroke="black"/>
    <line x1="4935.05" y1="5054.50" x2="4935.05" y2="5055.50" stroke="black"/>
    <line x1="4935.05" y1="5055.50" x2="4935.05" y2="5056.50" stroke="black"/>
    <line x1="4935.05" y1="5056.50" x2="4935.05" y2="5057.50" stroke="black"/>
    <line x1="4935.05" y1="5057.50" x2="4934.18" y2="5058.00" stroke="black"/>
    <line x1="4934.18" y1="5058.00" x2="4933.32" y2="5058.50" stroke="black"/>
    <line x1="4933.32" y1="5058.50" x2="4932.45" y2="5059.00" stroke="black"/>
    <line x1="4932.45" y1="5059.00" x2="4931.58" y2="5059.50" stroke="black"/>
    <line x1="4931.58" y1="5059.50" x2="4930.72" y2="5060.00" stroke="black"/>
    <line x1="4930.72" y1="5060.00" x2="4931.58" y2="5060.50" stroke="black"/>
    <line x1="4931.58" y1="5060.50" x2="4932.45" y2="5061.00" stroke="black"/>
    <line x1="4932.45" y1="5061.00" x2="4933.32" y2="5061.50" stroke="black"/>
    <line x1="4933.32" y1="5061.50" x2="4934.18" y2="5062.00" stroke="black"/>
    <line x1="4934.18" y1="5062.00" x2="4935.05" y2="5062.50" stroke="black"/>
    <line x1="4935.05" y1="5062.50" x2="4935.05" y2="5063.50" stroke="black"/>
    <line x1="4935.05" y1="5063.50" x2="4935.05" y2="5064.50" stroke="black"/>
    <line x1="4935.05" y1="5064.50" x2="4935.05" y2="5065.50" stroke="black"/>
    <line x1="4935.05" y1="5065.50" x2="4935.05" y2="5066.50" stroke="black"/>
    <line x1="4935.05" y1="5066.50" x2="4935.05" y2="5067.50" stroke="black"/>
    <line x1="4935.05" y1="5067.50" x2="4935.91" y2="5067.00" stroke="black"/>
    <line x1="4935.91" y1="5067.00" x2="4936.78" y2="5066.50" stroke="black"/>
    <line x1="4936.78" y1="5066.50" x2="4937.65" y2="5066.00" stroke="black"/>
    <line x1="4937.65" y1="5066.00" x2="4938.51" y2="5065.50" stroke="black"/>
    <line x1="4938.51" y1="5065.50" x2="4939.38" y2="5065.00" stroke="black"/>
    <line x1="4939.38" y1="5065.00" x2="4940.24" y2="5065.50" stroke="black"/>
    <line x1="4940.24" y1="5065.50" x2="4941.11" y2="5066.00" stroke="black"/>
    <line x1="4941.11" y1="5066.00" x2="4941.98" y2="5066.50" stroke="black"/>
    <line x1="4941.98" y1="5066.50" x2="4942.84" y2="5067.00" stroke="black"/>
    <line x1="4942.84" y1="5067.00" x2="4943.71" y2="5067.50" stroke="black"/>
    <line x1="4943.71" y1="5067.50" x2="4943.71" y2="5066.50" stroke="black"/>
    <line x1="4943.71" y1="5066.50" x2="4943.71" y2="5065.50" stroke="black"/>
    <line x1="4943.71" y1="5065.50" x2="4943.71" y2="5064.50" stroke="black"/>
    <line x1="4943.71" y1="5064.50" x2="4943.71" y2="5063.50" stroke="black"/>
    <line x1="4943.71" y1="5063.50" x2="4943.71" y2="5062.50" stroke="black"/>
    <line x1="4943.71" y1="5062.50" x2="4944.57" y2="5062.00" stroke="black"/>
    <line x1="4944.57" y1="5062.00" x2="4945.44" y2="5061.50" stroke="black"/>
    <line x1="4945.44" y1="5061.50" x2="4946.31" y2="5061.00" stroke="black"/>
    <line x1="4946.31" y1="5061.00" x2="4947.17" y2="5060.50" stroke="black"/>
    <line x1="4947.17" y1="5060.50" x2="4948.04" y2="5060.00" stroke="black"/>
    <line x1="4948.04" y1="5060.00" x2="4948.90" y2="5060.50" stroke="black"/>
    <line x1="4948.90" y1="5060.50" x2="4949.77" y2="5061.00" stroke="black"/>
    <line x1="4949.77" y1="5061.00" x2="4950.64" y2="5061.50" stroke="black"/>
    <line x1="4950.64" y1="5061.50" x2="4951.50" y2="5062.00" stroke="black"/>
    <line x1="4951.50" y1="5062.00" x2="4952.37" y2="5062.50" stroke="black"/>
    <line x1="4952.37" y1="5062.50" x2="4952.37" y2="5063.50" stroke="black"/>
    <line x1="4952.37" y1="5063.50" x2="4952.37" y2="5064.50" stroke="black"/>
    <line x1="4952.37" y1="5064.50" x2="4952.37" y2="5065.50" stroke="black"/>
    <line x1="4952.37" y1="5065.50" x2="4952.37" y2="5066.50" stroke="black"/>
    <line x1="4952.37" y1="5066.50" x2="4952.37" y2="5067.50" stroke="black"/>
    <line x1="4952.37" y1="5067.50" x2="4953.23" y2="5067.00" stroke="black"/>
    <line x1="4953.23" y1="5067.00" x2="4954.10" y2="5066.50" stroke="black"/>
    <line x1="4954.10" y1="5066.50" x2="4954.97" y2="5066.00" stroke="black"/>
    <line x1="4954.97" y1="5066.00" x2="4955.83" y2="5065.50" stroke="black"/>
    <line x1="4955.83" y1="5065.50" x2="4956.70" y2="5065.00" stroke="black"/>
    <line x1="4956.70" y1="5065.00" x2="4957.56" y2="5065.50" stroke="black"/>
    <line x1="4957.56" y1="5065.50" x2="4958.43" y2="5066.00" stroke="black"/>
    <line x1="4958.43" y1="5066.00" x2="4959.30" y2="5066.50" stroke="black"/>
    <line x1="4959.30" y1="5066.50" x2="4960.16" y2="5067.00" stroke="black"/>
    <line x1="4960.16" y1="5067.00" x2="4961.03" y2="5067.50" stroke="black"/>
    <line x1="4961.03" y1="5067.50" x2="4961.03" y2="5066.50" stroke="black"/>
    <line x1="4961.03" y1="5066.50" x2="4961.03" y2="5065.50" stroke="black"/>
    <line x1="4961.03" y1="5065.50" x2="4961.03" y2="5064.50" stroke="black"/>
    <line x1="4961.03" y1="5064.50" x2="4961.03" y2="5063.50" stroke="black"/>
    <line x1="4961.03" y1="5063.50" x2="4961.03" y2="5062.50" stroke="black"/>
    <line x1="4961.03" y1="5062.50" x2="4961.89" y2="5062.00" stroke="black"/>
    <line x1="4961.89" y1="5062.00" x2="4962.76" y2="5061.50" stroke="black"/>
    <line x1="4962.76" y1="5061.50" x2="4963.63" y2="5061.00" stroke="black"/>
    <line x1="4963.63" y1="5061.00" x2="4964.49" y2="5060.50" stroke="black"/>
    <line x1="4964.49" y1="5060.50" x2="4965.36" y2="5060.00" stroke="black"/>
    <line x1="4965.36" y1="5060.00" x2="4964.49" y2="5059.50" stroke="black"/>
    <line x1="4964.49" y1="5059.50" x2="4963.63" y2="5059.00" stroke="black"/>
    <line x1="4963.63" y1="5059.00" x2="4962.76" y2="5058.50" stroke="black"/>
    <line x1="4962.76" y1="5058.50" x2="4961.89" y2="5058.00" stroke="black"/>
    <line x1="4961.89" y1="5058.00" x2="4961.03" y2="5057.50" stroke="black"/>
    <line x1="4961.03" y1="5057.50" x2="4961.03" y2="5056.50" stroke="black"/>
    <line x1="4961.03" y1="5056.50" x2="4961.03" y2="5055.50" stroke="black"/>
    <line x1="4961.03" y1="5055.50" x2="4961.03" y2="5054.50" stroke="black"/>
    <line x1="4961.03" y1="5054.50" x2="4961.03" y2="5053.50" stroke="black"/>
    <line x1="4961.03" y1="5053.50" x2="4961.03" y2="5052.50" stroke="black"/>
    <line x1="4961.03" y1="5052.50" x2="4961.89" y2="5052.00" stroke="black"/>
    <line x1="4961.89" y1="5052.00" x2="4962.76" y2="5051.50" stroke="black"/>
    <line x1="4962.76" y1="5051.50" x2="4963.63" y2="5051.00" stroke="black"/>
    <line x1="4963.63" y1="5051.00" x2="4964.49" y2="5050.50" stroke="black"/>
    <line x1="4964.49" y1="5050.50" x2="4965.36" y2="5050.00" stroke="black"/>
    <line x1="4965.36" y1="5050.00" x2="4966.23" y2="5050.50" stroke="black"/>
    <line x1="4966.23" y1="5050.50" x2="4967.09" y2="5051.00" stroke="black"/>
    <line x1="4967.09" y1="5051.00" x2="4967.96" y2="5051.50" stroke="black"/>
    <line x1="4967.96" y1="5051.50" x2="4968.82" y2="5052.00" stroke="black"/>
    <line x1="4968.82" y1="5052.00" x2="4969.69" y2="5052.50" stroke="black"/>
    <line x1="4969.69" y1="5052.50" x2="4969.69" y2="5051.50" stroke="black"/>
    <line x1="4969.69" y1="5051.50" x2="4969.69" y2="5050.50" stroke="black"/>
    <line x1="4969.69" y1="5050.50" x2="4969.69" y2="5049.50" stroke="black"/>
    <line x1="4969.69" y1="5049.50" x2="4969.69" y2="5048.50" stroke="black"/>
    <line x1="4969.69" y1="5048.50" x2="4969.69" y2="5047.50" stroke="black"/>
    <line x1="4969.69" y1="5047.50" x2="4970.56" y2="5047.00" stroke="black"/>
    <line x1="4970.56" y1="5047.00" x2="4971.42" y2="5046.50" stroke="black"/>
    <line x1="4971.42" y1="5046.50" x2="4972.29" y2="5046.00" stroke="black"/>
    <line x1="4972.29" y1="5046.00" x2="4973.15" y2="5045.50" stroke="black"/>
    <line x1="4973.15" y1="5045.50" x2="4974.02" y2="5045.00" stroke="black"/>
    <line x1="4974.02" y1="5045.00" x2="4973.15" y2="5044.50" stroke="black"/>
    <line x1="4973.15" y1="5044.50" x2="4972.29" y2="5044.00" stroke="black"/>
    <line x1="4972.29" y1="5044.00" x2="4971.42" y2="5043.50" stroke="black"/>
    <line x1="4971.42" y1="5043.50" x2="4970.56" y2="5043.00" stroke="black"/>
    <line x1="4970.56" y1="5043.00" x2="4969.69" y2="5042.50" stroke="black"/>
    <line x1="4969.69" y1="5042.50" x2="4969.69" y2="5041.50" stroke="black"/>
    <line x1="4969.69" y1="5041.50" x2="4969.69" y2="5040.50" stroke="black"/>
    <line x1="4969.69" y1="5040.50" x2="4969.69" y2="5039.50" stroke="black"/>
    <line x1="4969.69" y1="5039.50" x2="4969.69" y2="5038.50" stroke="black"/>
    <line x1="4969.69" y1="5038.50" x2="4969.69" y2="5037.50" stroke="black"/>
    <line x1="4969.69" y1="5037.50" x2="4968.82" y2="5038.00" stroke="black"/>
    <line x1="4968.82" y1="5038.00" x2="4967.96" y2="5038.50" stroke="black"/>
    <line x1="4967.96" y1="5038.50" x2="4967.09" y2="5039.00" stroke="black"/>
    <line x1="4967.09" y1="5039.00" x2="4966.23" y2="5039.50" stroke="black"/>
    <line x1="4966.23" y1="5039.50" x2="4965.36" y2="5040.00" stroke="black"/>
    <line x1="4965.36" y1="5040.00" x2="4964.49" y2="5039.50" stroke="black"/>
    <line x1="4964.49" y1="5039.50" x2="4963.63" y2="5039.00" stroke="black"/>
    <line x1="4963.63" y1="5039.00" x2="4962.76" y2="5038.50" stroke="black"/>
    <line x1="4962.76" y1="5038.50" x2="4961.89" y2="5038.00" stroke="black"/>
    <line x1="4961.89" y1="5038.00" x2="4961.03" y2="5037.50" stroke="black"/>
    <line x1="4961.03" y1="5037.50" x2="4961.03" y2="5036.50" stroke="black"/>
    <line x1="4961.03" y1="5036.50" x2="4961.03" y2="5035.50" stroke="black"/>
    <line x1="4961.03" y1="5035.50" x2="4961.03" y2="5034.50" stroke="black"/>
    <line x1="4961.03" y1="5034.50" x2="4961.03" y2="5033.50" stroke="black"/>
    <line x1="4961.03" y1="5033.50" x2="4961.03" y2="5032.50" stroke="black"/>
    <line x1="4961.03" y1="5032.50" x2="4961.89" y2="5032.00" stroke="black"/>
    <line x1="4961.89" y1="5032.00" x2="4962.76" y2="5031.50" stroke="black"/>
    <line x1="4962.76" y1="5031.50" x2="4963.63" y2="5031.00" stroke="black"/>
    <line x1="4963.63" y1="5031.00" x2="4964.49" y2="5030.50" stroke="black"/>
    <line x1="4964.49" y1="5030.50" x2="4965.36" y2="5030.00" stroke="black"/>
    <line x1="4965.36" y1="5030.00" x2="4964.49" y2="5029.50" stroke="black"/>
    <line x1="4964.49" y1="5029.50" x2="4963.63" y2="5029.00" stroke="black"/>
    <line x1="4963.63" y1="5029.00" x2="4962.76" y2="5028.50" stroke="black"/>
    <line x1="4962.76" y1="5028.50" x2="4961.89" y2="5028.00" stroke="black"/>
    <line x1="4961.89" y1="5028.00" x2="4961.03" y2="5027.50" stroke="black"/>
    <line x1="4961.03" y1="5027.50" x2="4961.03" y2="5026.50" stroke="black"/>
    <line x1="4961.03" y1="5026.50" x2="4961.03" y2="5025.50" stroke="black"/>
    <line x1="4961.03" y1="5025.50" x2="4961.03" y2="5024.50" stroke="black"/>
    <line x1="4961.03" y1="5024.50" x2="4961.03" y2="5023.50" stroke="black"/>
    <line x1="4961.03" y1="5023.50" x2="4961.03" y2="5022.50" stroke="black"/>
    <line x1="4961.03" y1="5022.50" x2="4961.89" y2="5022.00" stroke="black"/>
    <line x1="4961.89" y1="5022.00" x2="4962.76" y2="5021.50" stroke="black"/>
    <line x1="4962.76" y1="5021.50" x2="4963.63" y2="5021.00" stroke="black"/>
    <line x1="4963.63" y1="5021.00" x2="4964.49" y2="5020.50" stroke="black"/>
    <line x1="4964.49" y1="5020.50" x2="4965.36" y2="5020.00" stroke="black"/>
    <line x1="4965.36" y1="5020.00" x2="4966.23" y2="5020.50" stroke="black"/>
    <line x1="4966.23" y1="5020.50" x2="4967.09" y2="5021.00" stroke="black"/>
    <line x1="4967.09" y1="5021.00" x2="4967.96" y2="5021.50" stroke="black"/>
    <line x1="4967.96" y1="5021.50" x2="4968.82" y2="5022.00" stroke="black"/>
    <line x1="4968.82" y1="5022.00" x2="4969.69" y2="5022.50" stroke="black"/>
    <line x1="4969.69" y1="5022.50" x2="4969.69" y2="5021.50" stroke="black"/>
    <line x1="4969.69" y1="5021.50" x2="4969.69" y2="5020.50" stroke="black"/>
    <line x1="4969.69" y1="5020.50" x2="4969.69" y2="5019.50" stroke="black"/>
    <line x1="4969.69" y1="5019.50" x2="4969.69" y2="5018.50" stroke="black"/>
    <line x1="4969.69" y1="5018.50" x2="4969.69" y2="5017.50" stroke="black"/>
    <line x1="4969.69" y1="5017.50" x2="4970.56" y2="5017.00" stroke="black"/>
    <line x1="4970.56" y1="5017.00" x2="4971.42" y2="5016.50" stroke="black"/>
    <line x1="4971.42" y1="5016.50" x2="4972.29" y2="5016.00" stroke="black"/>
    <line x1="4972.29" y1="5016.00" x2="4973.15" y2="5015.50" stroke="black"/>
    <line x1="4973.15" y1="5015.50" x2="4974.02" y2="5015.00" stroke="black"/>
    <line x1="4974.02" y1="5015.00" x2="4974.89" y2="5015.50" stroke="black"/>
    <line x1="4974.89" y1="5015.50" x2="4975.75" y2="5016.00" stroke="black"/>
    <line x1="4975.75" y1="5016.00" x2="4976.62" y2="5016.50" stroke="black"/>
    <line x1="4976.62" y1="5016.50" x2="4977.48" y2="5017.00" stroke="black"/>
    <line x1="4977.48" y1="5017.00" x2="4978.35" y2="5017.50" stroke="black"/>
    <line x1="4978.35" y1="5017.50" x2="4978.35" y2="5018.50" stroke="black"/>
    <line x1="4978.35" y1="5018.50" x2="4978.35" y2="5019.50" stroke="black"/>
    <line x1="4978.35" y1="5019.50" x2="4978.35" y2="5020.50" stroke="black"/>
    <line x1="4978.35" y1="5020.50" x2="4978.35" y2="5021.50" stroke="black"/>
    <line x1="4978.35" y1="5021.50" x2="4978.35" y2="5022.50" stroke="black"/>
    <line x1="4978.35" y1="5022.50" x2="4979.22" y2="5022.00" stroke="black"/>
    <line x1="4979.22" y1="5022.00" x2="4980.08" y2="5021.50" stroke="black"/>
    <line x1="4980.08" y1="5021.50" x2="4980.95" y2="5021.00" stroke="black"/>
    <line x1="4980.95" y1="5021.00" x2="4981.81" y2="5020.50" stroke="black"/>
    <line x1="4981.81" y1="5020.50" x2="4982.68" y2="5020.00" stroke="black"/>
    <line x1="4982.68" y1="5020.00" x2="4983.55" y2="5020.50" stroke="black"/>
    <line x1="4983.55" y1="5020.50" x2="4984.41" y2="5021.00" stroke="black"/>
    <line x1="4984.41" y1="5021.00" x2="4985.28" y2="5021.50" stroke="black"/>
    <line x1="4985.28" y1="5021.50" x2="4986.14" y2="5022.00" stroke="black"/>
    <line x1="4986.14" y1="5022.00" x2="4987.01" y2="5022.50" stroke="black"/>
    <line x1="4987.01" y1="5022.50" x2="4987.01" y2="5021.50" stroke="black"/>
    <line x1="4987.01" y1="5021.50" x2="4987.01" y2="5020.50" stroke="black"/>
    <line x1="4987.01" y1="5020.50" x2="4987.01" y2="5019.50" stroke="black"/>
    <line x1="4987.01" y1="5019.50" x2="4987.01" y2="5018.50" stroke="black"/>
    <line x1="4987.01" y1="5018.50" x2="4987.01" y2="5017.50" stroke="black"/>
    <line x1="4987.01" y1="5017.50" x2="4987.88" y2="5017.00" stroke="black"/>
    <line x1="4987.88" y1="5017.00" x2="4988.74" y2="5016.50" stroke="black"/>
    <line x1="4988.74" y1="5016.50" x2="4989.61" y2="5016.00" stroke="black"/>
    <line x1="4989.61" y1="5016.00" x2="4990.47" y2="5015.50" stroke="black"/>
    <line x1="4990.47" y1="5015.50" x2="4991.34" y2="5015.00" stroke="black"/>
    <line x1="4991.34" y1="5015.00" x2="4990.47" y2="5014.50" stroke="black"/>
    <line x1="4990.47" y1="5014.50" x2="4989.61" y2="5014.00" stroke="black"/>
    <line x1="4989.61" y1="5014.00" x2="4988.74" y2="5013.50" stroke="black"/>
    <line x1="4988.74" y1="5013.50" x2="4987.88" y2="5013.00" stroke="black"/>
    <line x1="4987.88" y1="5013.00" x2="4987.01" y2="5012.50" stroke="black"/>
    <line x1="4987.01" y1="5012.50" x2="4987.01" y2="5011.50" stroke="black"/>
    <line x1="4987.01" y1="5011.50" x2="4987.01" y2="5010.50" stroke="black"/>
    <line x1="4987.01" y1="5010.50" x2="4987.01" y2="5009.50" stroke="black"/>
    <line x1="4987.01" y1="5009.50" x2="4987.01" y2="5008.50" stroke="black"/>
    <line x1="4987.01" y1="5008.50" x2="4987.01" y2="5007.50" stroke="black"/>
    <line x1="4987.01" y1="5007.50" x2="4987.88" y2="5007.00" stroke="black"/>
    <line x1="4987.88" y1="5007.00" x2="4988.74" y2="5006.50" stroke="black"/>
    <line x1="4988.74" y1="5006.50" x2="4989.61" y2="5006.00" stroke="black"/>
    <line x1="4989.61" y1="5006.00" x2="4990.47" y2="5005.50" stroke="black"/>
    <line x1="4990.47" y1="5005.50" x2="4991.34" y2="5005.00" stroke="black"/>
    <line x1="4991.34" y1="5005.00" x2="4992.21" y2="5005.50" stroke="black"/>
    <line x1="4992.21" y1="5005.50" x2="4993.07" y2="5006.00" stroke="black"/>
    <line x1="4993.07" y1="5006.00" x2="4993.94" y2="5006.50" stroke="black"/>
    <line x1="4993.94" y1="5006.50" x2="4994.80" y2="5007.00" stroke="black"/>
    <line x1="4994.80" y1="5007.00" x2="4995.67" y2="5007.50" stroke="black"/>
    <line x1="4995.67" y1="5007.50" x2="4995.67" y2="5006.50" stroke="black"/>
    <line x1="4995.67" y1="5006.50" x2="4995.67" y2="5005.50" stroke="black"/>
    <line x1="4995.67" y1="5005.50" x2="4995.67" y2="5004.50" stroke="black"/>
    <line x1="4995.67" y1="5004.50" x2="4995.67" y2="5003.50" stroke="black"/>
    <line x1="4995.67" y1="5003.50" x2="4995.67" y2="5002.50" stroke="black"/>
    <line x1="4995.67" y1="5002.50" x2="4996.54" y2="5002.00" stroke="black"/>
    <line x1="4996.54" y1="5002.00" x2="4997.40" y2="5001.50" stroke="black"/>
    <line x1="4997.40" y1="5001.50" x2="4998.27" y2="5001.00" stroke="black"/>
    <line x1="4998.27" y1="5001.00" x2="4999.13" y2="5000.50" stroke="black"/>
    <line x1="4999.13" y1="5000.50" x2="5000.00" y2="5000.00" stroke="black"/>
  </g>
</svg>
