<?xml version="1.0" standalone="no"?>
<!DOCTYPE svg PUBLIC "-//W3C//DTD SVG 1.1//EN" 
  "http://www.w3.org/Graphics/SVG/1.1/DTD/svg11.dtd">
<svg viewBox="4618 4920 642 646" width="10000" height="10000" version="1.1"
    id="toplevel" xmlns="http://www.w3.org/2000/svg"
    xmlns:xlink="http://www.w3.org/1999/xlink">
  <symbol id="fractal">
    <line x1="4773.44" y1="5080.00" x2="4773.44" y2="5080.00" stroke="black"/>
    <line x1="4773.44" y1="5080.00" x2="4772.57" y2="5079.50" stroke="black"/>
    <line x1="4772.57" y1="5079.50" x2="4771.70" y2="5079.00" stroke="black"/>
    <line x1="4771.70" y1="5079.00" x2="4770.84" y2="5078.50" stroke="black"/>
    <line x1="4770.84" y1="5078.50" x2="4769.97" y2="5078.00" stroke="black"/>
    <line x1="4769.97" y1="5078.00" x2="4769.11" y2="5077.50" stroke="black"/>
    <line x1="4769.11" y1="5077.50" x2="4769.11" y2="5076.50" stroke="black"/>
    <line x1="4769.11" y1="5076.50" x2="4769.11" y2="5075.50" stroke="black"/>
    <line x1="4769.11" y1="5075.50" x2="4769.11" y2="5074.50" stroke="black"/>
    <line x1="4769.11" y1="5074.50" x2="4769.11" y2="5073.50" stroke="black"/>
    <line x1="4769.11" y1="5073.50" x2="4769.11" y2="5072.50" stroke="black"/>
    <line x1="4769.11" y1="5072.50" x2="4768.24" y2="5073.00" stroke="black"/>
    <line x1="4768.24" y1="5073.00" x2="4767.37" y2="5073.50" stroke="black"/>
    <line x1="4767.37" y1="5073.50" x2="4766.51" y2="5074.00" stroke="black"/>
    <line x1="4766.51" y1="5074.00" x2="4765.64" y2="5074.50" stroke="black"/>
    <line x1="4765.64" y1="5074.50" x2="4764.78" y2="5075.00" stroke="black"/>
    <line x1="4764.78" y1="5075.00" x2="4763.91" y2="5074.50" stroke="black"/>
    <line x1="4763.91" y1="5074.50" x2="4763.04" y2="5074.00" stroke="black"/>
    <line x1="4763.04" y1="5074.00" x2="4762.18" y2="5073.50" stroke="black"/>
    <line x1="4762.18" y1="5073.50" x2="4761.31" y2="5073.00" stroke="black"/>
    <line x1="4761.31" y1="5073.00" x2="4760.45" y2="5072.50" stroke="black"/>
    <line x1="4760.45" y1="5072.50" x2="4760.45" y2="5071.50" stroke="black"/>
    <line x1="4760.45" y1="5071.50" x2="4760.45" y2="5070.50" stroke="black"/>
    <line x1="4760.45" y1="5070.50" x2="4760.45" y2="5069.50" stroke="black"/>
    <line x1="4760.45" y1="5069.50" x2="4760.45" y2="5068.50" stroke="black"/>
    <line x1="4760.45" y1="5068.50" x2="4760.45" y2="5067.50" stroke="black"/>
    <line x1="4760.45" y1="5067.50" x2="4761.31" y2="5067.00" stroke="black"/>
    <line x1="4761.31" y1="5067.00" x2="4762.18" y2="5066.50" stroke="black"/>
    <line x1="4762.18" y1="5066.50" x2="4763.04" y2="5066.00" stroke="black"/>
    <line x1="4763.04" y1="5066.00" x2="4763.91" y2="5065.50" stroke="black"/>
    <line x1="4763.91" y1="5065.50" x2="4764.78" y2="5065.00" stroke="black"/>
    <line x1="4764.78" y1="5065.00" x2="4763.91" y2="5064.50" stroke="black"/>
    <line x1="4763.91" y1="5064.50" x2="4763.04" y2="5064.00" stroke="black"/>
    <line x1="4763.04" y1="5064.00" x2="4762.18" y2="5063.50" stroke="black"/>
    <line x1="4762.18" y1="5063.50" x2="4761.31" y2="5063.00" stroke="black"/>
    <line x1="4761.31" y1="5063.00" x2="4760.45" y2="5062.50" stroke="black"/>
    <line x1="4760.45" y1="5062.50" x2="4760.45" y2="5061.50" stroke="black"/>
    <line x1="4760.45" y1="5061.50" x2="4760.45" y2="5060.50" stroke="black"/>
    <line x1="4760.45" y1="5060.50" x2="4760.45" y2="5059.50" stroke="black"/>
    <line x1="4760.45" y1="5059.50" x2="4760.45" y2="5058.50" stroke="black"/>
    <line x1="4760.45" y1="5058.50" x2="4760.45" y2="5057.50" stroke="black"/>
    <line x1="4760.45" y1="5057.50" x2="4759.58" y2="5058.00" stroke="black"/>
    <line x1="4759.58" y1="5058.00" x2="4758.71" y2="5058.50" stroke="black"/>
    <line x1="4758.71" y1="5058.50" x2="4757.85" y2="5059.00" stroke="black"/>
    <line x1="4757.85" y1="5059.00" x2="4756.98" y2="5059.50" stroke="black"/>
    <line x1="4756.98" y1="5059.50" x2="4756.12" y2="5060.00" stroke="black"/>
    <line x1="4756.12" y1="5060.00" x2="4755.25" y2="5059.50" stroke="black"/>
    <line x1="4755.25" y1="5059.50" x2="4754.38" y2="5059.00" stroke="black"/>
    <line x1="4754.38" y1="5059.00" x2="4753.52" y2="5058.50" stroke="black"/>
    <line x1="4753.52" y1="5058.50" x2="4752.65" y2="5058.00" stroke="black"/>
    <line x1="4752.65" y1="5058.00" x2="4751.79" y2="5057.50" stroke="black"/>
    <line x1="4751.79" y1="5057.50" x2="4751.79" y2="5058.50" stroke="black"/>
    <line x1="4751.79" y1="5058.50" x2="4751.79" y2="5059.50" stroke="black"/>
    <line x1="4751.79" y1="5059.50" x2="4751.79" y2="5060.50" stroke="black"/>
    <line x1="4751.79" y1="5060.50" x2="4751.79" y2="5061.50" stroke="black"/>
    <line x1="4751.79" y1="5061.50" x2="4751.79" y2="5062.50" stroke="black"/>
    <line x1="4751.79" y1="5062.50" x2="4750.92" y2="5063.00" stroke="black"/>
    <line x1="4750.92" y1="5063.00" x2="4750.05" y2="5063.50" stroke="black"/>
    <line x1="4750.05" y1="5063.50" x2="4749.19" y2="5064.00" stroke="black"/>
    <line x1="4749.19" y1="5064.00" x2="4748.32" y2="5064.50" stroke="black"/>
    <line x1="4748.32" y1="5064.50" x2="4747.46" y2="5065.00" stroke="black"/>
    <line x1="4747.46" y1="5065.00" x2="4746.59" y2="5064.50" stroke="black"/>
    <line x1="4746.59" y1="5064.50" x2="4745.72" y2="5064.00" stroke="black"/>
    <line x1="4745.72" y1="5064.00" x2="4744.86" y2="5063.50" stroke="black"/>
    <line x1="4744.86" y1="5063.50" x2="4743.99" y2="5063.00" stroke="black"/>
    <line x1="4743.99" y1="5063.00" x2="4743.13" y2="5062.50" stroke="black"/>
    <line x1="4743.13" y1="5062.50" x2="4743.13" y2="5061.50" stroke="black"/>
    <line x1="4743.13" y1="5061.50" x2="4743.13" y2="5060.50" stroke="black"/>
    <line x1="4743.13" y1="5060.50" x2="4743.13" y2="5059.50" stroke="black"/>
    <line x1="4743.13" y1="5059.50" x2="4743.13" y2="5058.50" stroke="black"/>
    <line x1="4743.13" y1="5058.50" x2="4743.13" y2="5057.50" stroke="black"/>
    <line x1="4743.13" y1="5057.50" x2="4742.26" y2="5058.00" stroke="black"/>
    <line x1="4742.26" y1="5058.00" x2="4741.39" y2="5058.50" stroke="black"/>
    <line x1="4741.39" y1="5058.50" x2="4740.53" y2="5059.00" stroke="black"/>
    <line x1="4740.53" y1="5059.00" x2="4739.66" y2="5059.50" stroke="black"/>
    <line x1="4739.66" y1="5059.50" x2="4738.79" y2="5060.00" stroke="black"/>
    <line x1="4738.79" y1="5060.00" x2="4737.93" y2="5059.50" stroke="black"/>
    <line x1="4737.93" y1="5059.50" x2="4737.06" y2="5059.00" stroke="black"/>
    <line x1="4737.06" y1="5059.00" x2="4736.20" y2="5058.50" stroke="black"/>
    <line x1="4736.20" y1="5058.50" x2="4735.33" y2="5058.00" stroke="black"/>
    <line x1="4735.33" y1="5058.00" x2="4734.46" y2="5057.50" stroke="black"/>
    <line x1="4734.46" y1="5057.50" x2="4734.46" y2="5056.50" stroke="black"/>
    <line x1="4734.46" y1="5056.50" x2="4734.46" y2="5055.50" stroke="black"/>
    <line x1="4734.46" y1="5055.50" x2="4734.46" y2="5054.50" stroke="black"/>
    <line x1="4734.46" y1="5054.50" x2="4734.46" y2="5053.50" stroke="black"/>
    <line x1="4734.46" y1="5053.50" x2="4734.46" y2="5052.50" stroke="black"/>
    <line x1="4734.46" y1="5052.50" x2="4735.33" y2="5052.00" stroke="black"/>
    <line x1="4735.33" y1="5052.00" x2="4736.20" y2="5051.50" stroke="black"/>
    <line x1="4736.20" y1="5051.50" x2="4737.06" y2="5051.00" stroke="black"/>
    <line x1="4737.06" y1="5051.00" x2="4737.93" y2="5050.50" stroke="black"/>
    <line x1="4737.93" y1="5050.50" x2="4738.79" y2="5050.00" stroke="black"/>
    <line x1="4738.79" y1="5050.00" x2="4737.93" y2="5049.50" stroke="black"/>
    <line x1="4737.93" y1="5049.50" x2="4737.06" y2="5049.00" stroke="black"/>
    <line x1="4737.06" y1="5049.00" x2="4736.20" y2="5048.50" stroke="black"/>
    <line x1="4736.20" y1="5048.50" x2="4735.33" y2="5048.00" stroke="black"/>
    <line x1="4735.33" y1="5048.00" x2="4734.46" y2="5047.50" stroke="black"/>
    <line x1="4734.46" y1="5047.50" x2="4734.46" y2="5046.50" stroke="black"/>
    <line x1="4734.46" y1="5046.50" x2="4734.46" y2="5045.50" stroke="black"/>
    <line x1="4734.46" y1="5045.50" x2="4734.46" y2="5044.50" stroke="black"/>
    <line x1="4734.46" y1="5044.50" x2="4734.46" y2="5043.50" stroke="black"/>
    <line x1="4734.46" y1="5043.50" x2="4734.46" y2="5042.50" stroke="black"/>
    <line x1="4734.46" y1="5042.50" x2="4735.33" y2="5042.00" stroke="black"/>
    <line x1="4735.33" y1="5042.00" x2="4736.20" y2="5041.50" stroke="black"/>
    <line x1="4736.20" y1="5041.50" x2="4737.06" y2="5041.00" stroke="black"/>
    <line x1="4737.06" y1="5041.00" x2="4737.93" y2="5040.50" stroke="black"/>
    <line x1="4737.93" y1="5040.50" x2="4738.79" y2="5040.00" stroke="black"/>
    <line x1="4738.79" y1="5040.00" x2="4739.66" y2="5040.50" stroke="black"/>
    <line x1="4739.66" y1="5040.50" x2="4740.53" y2="5041.00" stroke="black"/>
    <line x1="4740.53" y1="5041.00" x2="4741.39" y2="5041.50" stroke="black"/>
    <line x1="4741.39" y1="5041.50" x2="4742.26" y2="5042.00" stroke="black"/>
    <line x1="4742.26" y1="5042.00" x2="4743.13" y2="5042.50" stroke="black"/>
    <line x1="4743.13" y1="5042.50" x2="4743.13" y2="5041.50" stroke="black"/>
    <line x1="4743.13" y1="5041.50" x2="4743.13" y2="5040.50" stroke="black"/>
    <line x1="4743.13" y1="5040.50" x2="4743.13" y2="5039.50" stroke="black"/>
    <line x1="4743.13" y1="5039.50" x2="4743.13" y2="5038.50" stroke="black"/>
    <line x1="4743.13" y1="5038.50" x2="4743.13" y2="5037.50" stroke="black"/>
    <line x1="4743.13" y1="5037.50" x2="4743.99" y2="5037.00" stroke="black"/>
    <line x1="4743.99" y1="5037.00" x2="4744.86" y2="5036.50" stroke="black"/>
    <line x1="4744.86" y1="5036.50" x2="4745.72" y2="5036.00" stroke="black"/>
    <line x1="4745.72" y1="5036.00" x2="4746.59" y2="5035.50" stroke="black"/>
    <line x1="4746.59" y1="5035.50" x2="4747.46" y2="5035.00" stroke="black"/>
    <line x1="4747.46" y1="5035.00" x2="4746.59" y2="5034.50" stroke="black"/>
    <line x1="4746.59" y1="5034.50" x2="4745.72" y2="5034.00" stroke="black"/>
    <line x1="4745.72" y1="5034.00" x2="4744.86" y2="5033.50" stroke="black"/>
    <line x1="4744.86" y1="5033.50" x2="4743.99" y2="5033.00" stroke="black"/>
    <line x1="4743.99" y1="5033.00" x2="4743.13" y2="5032.50" stroke="black"/>
    <line x1="4743.13" y1="5032.50" x2="4743.13" y2="5031.50" stroke="black"/>
    <line x1="4743.13" y1="5031.50" x2="4743.13" y2="5030.50" stroke="black"/>
    <line x1="4743.13" y1="5030.50" x2="4743.13" y2="5029.50" stroke="black"/>
    <line x1="4743.13" y1="5029.50" x2="4743.13" y2="5028.50" stroke="black"/>
    <line x1="4743.13" y1="5028.50" x2="4743.13" y2="5027.50" stroke="black"/>
    <line x1="4743.13" y1="5027.50" x2="4742.26" y2="5028.00" stroke="black"/>
    <line x1="4742.26" y1="5028.00" x2="4741.39" y2="5028.50" stroke="black"/>
    <line x1="4741.39" y1="5028.50" x2="4740.53" y2="5029.00" stroke="black"/>
    <line x1="4740.53" y1="5029.00" x2="4739.66" y2="5029.50" stroke="black"/>
    <line x1="4739.66" y1="5029.50" x2="4738.79" y2="5030.00" stroke="black"/>
    <line x1="4738.79" y1="5030.00" x2="4737.93" y2="5029.50" stroke="black"/>
    <line x1="4737.93" y1="5029.50" x2="4737.06" y2="5029.00" stroke="black"/>
    <line x1="4737.06" y1="5029.00" x2="4736.20" y2="5028.50" stroke="black"/>
    <line x1="4736.20" y1="5028.50" x2="4735.33" y2="5028.00" stroke="black"/>
    <line x1="4735.33" y1="5028.00" x2="4734.46" y2="5027.50" stroke="black"/>
    <line x1="4734.46" y1="5027.50" x2="4734.46" y2="5026.50" stroke="black"/>
    <line x1="4734.46" y1="5026.50" x2="4734.46" y2="5025.50" stroke="black"/>
    <line x1="4734.46" y1="5025.50" x2="4734.46" y2="5024.50" stroke="black"/>
    <line x1="4734.46" y1="5024.50" x2="4734.46" y2="5023.50" stroke="black"/>
    <line x1="4734.46" y1="5023.50" x2="4734.46" y2="5022.50" stroke="black"/>
    <line x1="4734.46" y1="5022.50" x2="4735.33" y2="5022.00" stroke="black"/>
    <line x1="4735.33" y1="5022.00" x2="4736.20" y2="5021.50" stroke="black"/>
    <line x1="4736.20" y1="5021.50" x2="4737.06" y2="5021.00" stroke="black"/>
    <line x1="4737.06" y1="5021.00" x2="4737.93" y2="5020.50" stroke="black"/>
    <line x1="4737.93" y1="5020.50" x2="4738.79" y2="5020.00" stroke="black"/>
    <line x1="4738.79" y1="5020.00" x2="4737.93" y2="5019.50" stroke="black"/>
    <line x1="4737.93" y1="5019.50" x2="4737.06" y2="5019.00" stroke="black"/>
    <line x1="4737.06" y1="5019.00" x2="4736.20" y2="5018.50" stroke="black"/>
    <line x1="4736.20" y1="5018.50" x2="4735.33" y2="5018.00" stroke="black"/>
    <line x1="4735.33" y1="5018.00" x2="4734.46" y2="5017.50" stroke="black"/>
    <line x1="4734.46" y1="5017.50" x2="4734.46" y2="5016.50" stroke="black"/>
    <line x1="4734.46" y1="5016.50" x2="4734.46" y2="5015.50" stroke="black"/>
    <line x1="4734.46" y1="5015.50" x2="4734.46" y2="5014.50" stroke="black"/>
    <line x1="4734.46" y1="5014.50" x2="4734.46" y2="5013.50" stroke="black"/>
    <line x1="4734.46" y1="5013.50" x2="4734.46" y2="5012.50" stroke="black"/>
    <line x1="4734.46" y1="5012.50" x2="4733.60" y2="5013.00" stroke="black"/>
    <line x1="4733.60" y1="5013.00" x2="4732.73" y2="5013.50" stroke="black"/>
    <line x1="4732.73" y1="5013.50" x2="4731.87" y2="5014.00" stroke="black"/>
    <line x1="4731.87" y1="5014.00" x2="4731.00" y2="5014.50" stroke="black"/>
    <line x1="4731.00" y1="5014.50" x2="4730.13" y2="5015.00" stroke="black"/>
    <line x1="4730.13" y1="5015.00" x2="4729.27" y2="5014.50" stroke="black"/>
    <line x1="4729.27" y1="5014.50" x2="4728.40" y2="5014.00" stroke="black"/>
    <line x1="4728.40" y1="5014.00" x2="4727.54" y2="5013.50" stroke="black"/>
    <line x1="4727.54" y1="5013.50" x2="4726.67" y2="5013.00" stroke="black"/>
    <line x1="4726.67" y1="5013.00" x2="4725.80" y2="5012.50" stroke="black"/>
    <line x1="4725.80" y1="5012.50" x2="4725.80" y2="5013.50" stroke="black"/>
    <line x1="4725.80" y1="5013.50" x2="4725.80" y2="5014.50" stroke="black"/>
    <line x1="4725.80" y1="5014.50" x2="4725.80" y2="5015.50" stroke="black"/>
    <line x1="4725.80" y1="5015.50" x2="4725.80" y2="5016.50" stroke="black"/>
    <line x1="4725.80" y1="5016.50" x2="4725.80" y2="5017.50" stroke="black"/>
    <line x1="4725.80" y1="5017.50" x2="4724.94" y2="5018.00" stroke="black"/>
    <line x1="4724.94" y1="5018.00" x2="4724.07" y2="5018.50" stroke="black"/>
    <line x1="4724.07" y1="5018.50" x2="4723.21" y2="5019.00" stroke="black"/>
    <line x1="4723.21" y1="5019.00" x2="4722.34" y2="5019.50" stroke="black"/>
    <line x1="4722.34" y1="5019.50" x2="4721.47" y2="5020.00" stroke="black"/>
    <line x1="4721.47" y1="5020.00" x2="4720.61" y2="5019.50" stroke="black"/>
    <line x1="4720.61" y1="5019.50" x2="4719.74" y2="5019.00" stroke="black"/>
    <line x1="4719.74" y1="5019.00" x2="4718.88" y2="5018.50" stroke="black"/>
    <line x1="4718.88" y1="5018.50" x2="4718.01" y2="5018.00" stroke="black"/>
    <line x1="4718.01" y1="5018.00" x2="4717.14" y2="5017.50" stroke="black"/>
    <line x1="4717.14" y1="5017.50" x2="4717.14" y2="5016.50" stroke="black"/>
    <line x1="4717.14" y1="5016.50" x2="4717.14" y2="5015.50" stroke="black"/>
    <line x1="4717.14" y1="5015.50" x2="4717.14" y2="5014.50" stroke="black"/>
    <line x1="4717.14" y1="5014.50" x2="4717.14" y2="5013.50" stroke="black"/>
    <line x1="4717.14" y1="5013.50" x2="4717.14" y2="5012.50" stroke="black"/>
    <line x1="4717.14" y1="5012.50" x2="4716.28" y2="5013.00" stroke="black"/>
    <line x1="4716.28" y1="5013.00" x2="4715.41" y2="5013.50" stroke="black"/>
    <line x1="4715.41" y1="5013.50" x2="4714.55" y2="5014.00" stroke="black"/>
    <line x1="4714.55" y1="5014.00" x2="4713.68" y2="5014.50" stroke="black"/>
    <line x1="4713.68" y1="5014.50" x2="4712.81" y2="5015.00" stroke="black"/>
    <line x1="4712.81" y1="5015.00" x2="4711.95" y2="5014.50" stroke="black"/>
    <line x1="4711.95" y1="5014.50" x2="4711.08" y2="5014.00" stroke="black"/>
    <line x1="4711.08" y1="5014.00" x2="4710.22" y2="5013.50" stroke="black"/>
    <line x1="4710.22" y1="5013.50" x2="4709.35" y2="5013.00" stroke="black"/>
    <line x1="4709.35" y1="5013.00" x2="4708.48" y2="5012.50" stroke="black"/>
    <line x1="4708.48" y1="5012.50" x2="4708.48" y2="5013.50" stroke="black"/>
    <line x1="4708.48" y1="5013.50" x2="4708.48" y2="5014.50" stroke="black"/>
    <line x1="4708.48" y1="5014.50" x2="4708.48" y2="5015.50" stroke="black"/>
    <line x1="4708.48" y1="5015.50" x2="4708.48" y2="5016.50" stroke="black"/>
    <line x1="4708.48" y1="5016.50" x2="4708.48" y2="5017.50" stroke="black"/>
    <line x1="4708.48" y1="5017.50" x2="4707.62" y2="5018.00" stroke="black"/>
    <line x1="4707.62" y1="5018.00" x2="4706.75" y2="5018.50" stroke="black"/>
    <line x1="4706.75" y1="5018.50" x2="4705.89" y2="5019.00" stroke="black"/>
    <line x1="4705.89" y1="5019.00" x2="4705.02" y2="5019.50" stroke="black"/>
    <line x1="4705.02" y1="5019.50" x2="4704.15" y2="5020.00" stroke="black"/>
    <line x1="4704.15" y1="5020.00" x2="4705.02" y2="5020.50" stroke="black"/>
    <line x1="4705.02" y1="5020.50" x2="4705.89" y2="5021.00" stroke="black"/>
    <line x1="4705.89" y1="5021.00" x2="4706.75" y2="5021.50" stroke="black"/>
    <line x1="4706.75" y1="5021.50" x2="4707.62" y2="5022.00" stroke="black"/>
    <line x1="4707.62" y1="5022.00" x2="4708.48" y2="5022.50" stroke="black"/>
    <line x1="4708.48" y1="5022.50" x2="4708.48" y2="5023.50" stroke="black"/>
    <line x1="4708.48" y1="5023.50" x2="4708.48" y2="5024.50" stroke="black"/>
    <line x1="4708.48" y1="5024.50" x2="4708.48" y2="5025.50" stroke="black"/>
    <line x1="4708.48" y1="5025.50" x2="4708.48" y2="5026.50" stroke="black"/>
    <line x1="4708.48" y1="5026.50" x2="4708.48" y2="5027.50" stroke="black"/>
    <line x1="4708.48" y1="5027.50" x2="4707.62" y2="5028.00" stroke="black"/>
    <line x1="4707.62" y1="5028.00" x2="4706.75" y2="5028.50" stroke="black"/>
    <line x1="4706.75" y1="5028.50" x2="4705.89" y2="5029.00" stroke="black"/>
    <line x1="4705.89" y1="5029.00" x2="4705.02" y2="5029.50" stroke="black"/>
    <line x1="4705.02" y1="5029.50" x2="4704.15" y2="5030.00" stroke="black"/>
    <line x1="4704.15" y1="5030.00" x2="4703.29" y2="5029.50" stroke="black"/>
    <line x1="4703.29" y1="5029.50" x2="4702.42" y2="5029.00" stroke="black"/>
    <line x1="4702.42" y1="5029.00" x2="4701.56" y2="5028.50" stroke="black"/>
    <line x1="4701.56" y1="5028.50" x2="4700.69" y2="5028.00" stroke="black"/>
    <line x1="4700.69" y1="5028.00" x2="4699.82" y2="5027.50" stroke="black"/>
    <line x1="4699.82" y1="5027.50" x2="4699.82" y2="5028.50" stroke="black"/>
    <line x1="4699.82" y1="5028.50" x2="4699.82" y2="5029.50" stroke="black"/>
    <line x1="4699.82" y1="5029.50" x2="4699.82" y2="5030.50" stroke="black"/>
    <line x1="4699.82" y1="5030.50" x2="4699.82" y2="5031.50" stroke="black"/>
    <line x1="4699.82" y1="5031.50" x2="4699.82" y2="5032.50" stroke="black"/>
    <line x1="4699.82" y1="5032.50" x2="4698.96" y2="5033.00" stroke="black"/>
    <line x1="4698.96" y1="5033.00" x2="4698.09" y2="5033.50" stroke="black"/>
    <line x1="4698.09" y1="5033.50" x2="4697.23" y2="5034.00" stroke="black"/>
    <line x1="4697.23" y1="5034.00" x2="4696.36" y2="5034.50" stroke="black"/>
    <line x1="4696.36" y1="5034.50" x2="4695.49" y2="5035.00" stroke="black"/>
    <line x1="4695.49" y1="5035.00" x2="4694.63" y2="5034.50" stroke="black"/>
    <line x1="4694.63" y1="5034.50" x2="4693.76" y2="5034.00" stroke="black"/>
    <line x1="4693.76" y1="5034.00" x2="4692.90" y2="5033.50" stroke="black"/>
    <line x1="4692.90" y1="5033.50" x2="4692.03" y2="5033.00" stroke="black"/>
    <line x1="4692.03" y1="5033.00" x2="4691.16" y2="5032.50" stroke="black"/>
    <line x1="4691.16" y1="5032.50" x2="4691.16" y2="5031.50" stroke="black"/>
    <line x1="4691.16" y1="5031.50" x2="4691.16" y2="5030.50" stroke="black"/>
    <line x1="4691.16" y1="5030.50" x2="4691.16" y2="5029.50" stroke="black"/>
    <line x1="4691.16" y1="5029.50" x2="4691.16" y2="5028.50" stroke="black"/>
    <line x1="4691.16" y1="5028.50" x2="4691.16" y2="5027.50" stroke="black"/>
    <line x1="4691.16" y1="5027.50" x2="4690.30" y2="5028.00" stroke="black"/>
    <line x1="4690.30" y1="5028.00" x2="4689.43" y2="5028.50" stroke="black"/>
    <line x1="4689.43" y1="5028.50" x2="4688.57" y2="5029.00" stroke="black"/>
    <line x1="4688.57" y1="5029.00" x2="4687.70" y2="5029.50" stroke="black"/>
    <line x1="4687.70" y1="5029.50" x2="4686.83" y2="5030.00" stroke="black"/>
    <line x1="4686.83" y1="5030.00" x2="4685.97" y2="5029.50" stroke="black"/>
    <line x1="4685.97" y1="5029.50" x2="4685.10" y2="5029.00" stroke="black"/>
    <line x1="4685.10" y1="5029.00" x2="4684.24" y2="5028.50" stroke="black"/>
    <line x1="4684.24" y1="5028.50" x2="4683.37" y2="5028.00" stroke="black"/>
    <line x1="4683.37" y1="5028.00" x2="4682.50" y2="5027.50" stroke="black"/>
    <line x1="4682.50" y1="5027.50" x2="4682.50" y2="5026.50" stroke="black"/>
    <line x1="4682.50" y1="5026.50" x2="4682.50" y2="5025.50" stroke="black"/>
    <line x1="4682.50" y1="5025.50" x2="4682.50" y2="5024.50" stroke="black"/>
    <line x1="4682.50" y1="5024.50" x2="4682.50" y2="5023.50" stroke="black"/>
    <line x1="4682.50" y1="5023.50" x2="4682.50" y2="5022.50" stroke="black"/>
    <line x1="4682.50" y1="5022.50" x2="4683.37" y2="5022.00" stroke="black"/>
    <line x1="4683.37" y1="5022.00" x2="4684.24" y2="5021.50" stroke="black"/>
    <line x1="4684.24" y1="5021.50" x2="4685.10" y2="5021.00" stroke="black"/>
    <line x1="4685.10" y1="5021.00" x2="4685.97" y2="5020.50" stroke="black"/>
    <line x1="4685.97" y1="5020.50" x2="4686.83" y2="5020.00" stroke="black"/>
    <line x1="4686.83" y1="5020.00" x2="4685.97" y2="5019.50" stroke="black"/>
    <line x1="4685.97" y1="5019.50" x2="4685.10" y2="5019.00" stroke="black"/>
    <line x1="4685.10" y1="5019.00" x2="4684.24" y2="5018.50" stroke="black"/>
    <line x1="4684.24" y1="5018.50" x2="4683.37" y2="5018.00" stroke="black"/>
    <line x1="4683.37" y1="5018.00" x2="4682.50" y2="5017.50" stroke="black"/>
    <line x1="4682.50" y1="5017.50" x2="4682.50" y2="5016.50" stroke="black"/>
    <line x1="4682.50" y1="5016.50" x2="4682.50" y2="5015.50" stroke="black"/>
    <line x1="4682.50" y1="5015.50" x2="4682.50" y2="5014.50" stroke="black"/>
    <line x1="4682.50" y1="5014.50" x2="4682.50" y2="5013.50" stroke="black"/>
    <line x1="4682.50" y1="5013.50" x2="4682.50" y2="5012.50" stroke="black"/>
    <line x1="4682.50" y1="5012.50" x2="4681.64" y2="5013.00" stroke="black"/>
    <line x1="4681.64" y1="5013.00" x2="4680.77" y2="5013.50" stroke="black"/>
    <line x1="4680.77" y1="5013.50" x2="4679.91" y2="5014.00" stroke="black"/>
    <line x1="4679.91" y1="5014.00" x2="4679.04" y2="5014.50" stroke="black"/>
    <line x1="4679.04" y1="5014.50" x2="4678.17" y2="5015.00" stroke="black"/>
    <line x1="4678.17" y1="5015.00" x2="4677.31" y2="5014.50" stroke="black"/>
    <line x1="4677.31" y1="5014.50" x2="4676.44" y2="5014.00" stroke="black"/>
    <line x1="4676.44" y1="5014.00" x2="4675.58" y2="5013.50" stroke="black"/>
    <line x1="4675.58" y1="5013.50" x2="4674.71" y2="5013.00" stroke="black"/>
    <line x1="4674.71" y1="5013.00" x2="4673.84" y2="5012.50" stroke="black"/>
    <line x1="4673.84" y1="5012.50" x2="4673.84" y2="5013.50" stroke="black"/>
    <line x1="4673.84" y1="5013.50" x2="4673.84" y2="5014.50" stroke="black"/>
    <line x1="4673.84" y1="5014.50" x2="4673.84" y2="5015.50" stroke="black"/>
    <line x1="4673.84" y1="5015.50" x2="4673.84" y2="5016.50" stroke="black"/>
    <line x1="4673.84" y1="5016.50" x2="4673.84" y2="5017.50" stroke="black"/>
    <line x1="4673.84" y1="5017.50" x2="4672.98" y2="5018.00" stroke="black"/>
    <line x1="4672.98" y1="5018.00" x2="4672.11" y2="5018.50" stroke="black"/>
    <line x1="4672.11" y1="5018.50" x2="4671.24" y2="5019.00" stroke="black"/>
    <line x1="4671.24" y1="5019.00" x2="4670.38" y2="5019.50" stroke="black"/>
    <line x1="4670.38" y1="5019.50" x2="4669.51" y2="5020.00" stroke="black"/>
    <line x1="4669.51" y1="5020.00" x2="4668.65" y2="5019.50" stroke="black"/>
    <line x1="4668.65" y1="5019.50" x2="4667.78" y2="5019.00" stroke="black"/>
    <line x1="4667.78" y1="5019.00" x2="4666.91" y2="5018.50" stroke="black"/>
    <line x1="4666.91" y1="5018.50" x2="4666.05" y2="5018.00" stroke="black"/>
    <line x1="4666.05" y1="5018.00" x2="4665.18" y2="5017.50" stroke="black"/>
    <line x1="4665.18" y1="5017.50" x2="4665.18" y2="5016.50" stroke="black"/>
    <line x1="4665.18" y1="5016.50" x2="4665.18" y2="5015.50" stroke="black"/>
    <line x1="4665.18" y1="5015.50" x2="4665.18" y2="5014.50" stroke="black"/>
    <line x1="4665.18" y1="5014.50" x2="4665.18" y2="5013.50" stroke="black"/>
    <line x1="4665.18" y1="5013.50" x2="4665.18" y2="5012.50" stroke="black"/>
    <line x1="4665.18" y1="5012.50" x2="4664.32" y2="5013.00" stroke="black"/>
    <line x1="4664.32" y1="5013.00" x2="4663.45" y2="5013.50" stroke="black"/>
    <line x1="4663.45" y1="5013.50" x2="4662.58" y2="5014.00" stroke="black"/>
    <line x1="4662.58" y1="5014.00" x2="4661.72" y2="5014.50" stroke="black"/>
    <line x1="4661.72" y1="5014.50" x2="4660.85" y2="5015.00" stroke="black"/>
    <line x1="4660.85" y1="5015.00" x2="4659.99" y2="5014.50" stroke="black"/>
    <line x1="4659.99" y1="5014.50" x2="4659.12" y2="5014.00" stroke="black"/>
    <line x1="4659.12" y1="5014.00" x2="4658.25" y2="5013.50" stroke="black"/>
    <line x1="4658.25" y1="5013.50" x2="4657.39" y2="5013.00" stroke="black"/>
    <line x1="4657.39" y1="5013.00" x2="4656.52" y2="5012.50" stroke="black"/>
    <line x1="4656.52" y1="5012.50" x2="4656.52" y2="5013.50" stroke="black"/>
    <line x1="4656.52" y1="5013.50" x2="4656.52" y2="5014.50" stroke="black"/>
    <line x1="4656.52" y1="5014.50" x2="4656.52" y2="5015.50" stroke="black"/>
    <line x1="4656.52" y1="5015.50" x2="4656.52" y2="5016.50" stroke="black"/>
    <line x1="4656.52" y1="5016.50" x2="4656.52" y2="5017.50" stroke="black"/>
    <line x1="4656.52" y1="5017.50" x2="4655.66" y2="5018.00" stroke="black"/>
    <line x1="4655.66" y1="5018.00" x2="4654.79" y2="5018.50" stroke="black"/>
    <line x1="4654.79" y1="5018.50" x2="4653.92" y2="5019.00" stroke="black"/>
    <line x1="4653.92" y1="5019.00" x2="4653.06" y2="5019.50" stroke="black"/>
    <line x1="4653.06" y1="5019.50" x2="4652.19" y2="5020.00" stroke="black"/>
    <line x1="4652.19" y1="5020.00" x2="4653.06" y2="5020.50" stroke="black"/>
    <line x1="4653.06" y1="5020.50" x2="4653.92" y2="5021.00" stroke="black"/>
    <line x1="4653.92" y1="5021.00" x2="4654.79" y2="5021.50" stroke="black"/>
    <line x1="4654.79" y1="5021.50" x2="4655.66" y2="5022.00" stroke="black"/>
    <line x1="4655.66" y1="5022.00" x2="4656.52" y2="5022.50" stroke="black"/>
    <line x1="4656.52" y1="5022.50" x2="4656.52" y2="5023.50" stroke="black"/>
    <line x1="4656.52" y1="5023.50" x2="4656.52" y2="5024.50" stroke="black"/>
    <line x1="4656.52" y1="5024.50" x2="4656.52" y2="5025.50" stroke="black"/>
    <line x1="4656.52" y1="5025.50" x2="4656.52" y2="5026.50" stroke="black"/>
    <line x1="4656.52" y1="5026.50" x2="4656.52" y2="5027.50" stroke="black"/>
    <line x1="4656.52" y1="5027.50" x2="4655.66" y2="5028.00" stroke="black"/>
    <line x1="4655.66" y1="5028.00" x2="4654.79" y2="5028.50" stroke="black"/>
    <line x1="4654.79" y1="5028.50" x2="4653.92" y2="5029.00" stroke="black"/>
    <line x1="4653.92" y1="5029.00" x2="4653.06" y2="5029.50" stroke="black"/>
    <line x1="4653.06" y1="5029.50" x2="4652.19" y2="5030.00" stroke="black"/>
    <line x1="4652.19" y1="5030.00" x2="4651.33" y2="5029.50" stroke="black"/>
    <line x1="4651.33" y1="5029.50" x2="4650.46" y2="5029.00" stroke="black"/>
    <line x1="4650.46" y1="5029.00" x2="4649.59" y2="5028.50" stroke="black"/>
    <line x1="4649.59" y1="5028.50" x2="4648.73" y2="5028.00" stroke="black"/>
    <line x1="4648.73" y1="5028.00" x2="4647.86" y2="5027.50" stroke="black"/>
    <line x1="4647.86" y1="5027.50" x2="4647.86" y2="5028.50" stroke="black"/>
    <line x1="4647.86" y1="5028.50" x2="4647.86" y2="5029.50" stroke="black"/>
    <line x1="4647.86" y1="5029.50" x2="4647.86" y2="5030.50" stroke="black"/>
    <line x1="4647.86" y1="5030.50" x2="4647.86" y2="5031.50" stroke="black"/>
    <line x1="4647.86" y1="5031.50" x2="4647.86" y2="5032.50" stroke="black"/>
    <line x1="4647.86" y1="5032.50" x2="4647.00" y2="5033.00" stroke="black"/>
    <line x1="4647.00" y1="5033.00" x2="4646.13" y2="5033.50" stroke="black"/>
    <line x1="4646.13" y1="5033.50" x2="4645.26" y2="5034.00" stroke="black"/>
    <line x1="4645.26" y1="5034.00" x2="4644.40" y2="5034.50" stroke="black"/>
    <line x1="4644.40" y1="5034.50" x2="4643.53" y2="5035.00" stroke="black"/>
    <line x1="4643.53" y1="5035.00" x2="4644.40" y2="5035.50" stroke="black"/>
    <line x1="4644.40" y1="5035.50" x2="4645.26" y2="5036.00" stroke="black"/>
    <line x1="4645.26" y1="5036.00" x2="4646.13" y2="5036.50" stroke="black"/>
    <line x1="4646.13" y1="5036.50" x2="4647.00" y2="5037.00" stroke="black"/>
    <line x1="4647.00" y1="5037.00" x2="4647.86" y2="5037.50" stroke="black"/>
    <line x1="4647.86" y1="5037.50" x2="4647.86" y2="5038.50" stroke="black"/>
    <line x1="4647.86" y1="5038.50" x2="4647.86" y2="5039.50" stroke="black"/>
    <line x1="4647.86" y1="5039.50" x2="4647.86" y2="5040.50" stroke="black"/>
    <line x1="4647.86" y1="5040.50" x2="4647.86" y2="5041.50" stroke="black"/>
    <line x1="4647.86" y1="5041.50" x2="4647.86" y2="5042.50" stroke="black"/>
    <line x1="4647.86" y1="5042.50" x2="4648.73" y2="5042.00" stroke="black"/>
    <line x1="4648.73" y1="5042.00" x2="4649.59" y2="5041.50" stroke="black"/>
    <line x1="4649.59" y1="5041.50" x2="4650.46" y2="5041.00" stroke="black"/>
    <line x1="4650.46" y1="5041.00" x2="4651.33" y2="5040.50" stroke="black"/>
    <line x1="4651.33" y1="5040.50" x2="4652.19" y2="5040.00" stroke="black"/>
    <line x1="4652.19" y1="5040.00" x2="4653.06" y2="5040.50" stroke="black"/>
    <line x1="4653.06" y1="5040.50" x2="4653.92" y2="5041.00" stroke="black"/>
    <line x1="4653.92" y1="5041.00" x2="4654.79" y2="5041.50" stroke="black"/>
    <line x1="4654.79" y1="5041.50" x2="4655.66" y2="5042.00" stroke="black"/>
    <line x1="4655.66" y1="5042.00" x2="4656.52" y2="5042.50" stroke="black"/>
    <line x1="4656.52" y1="5042.50" x2="4656.52" y2="5043.50" stroke="black"/>
    <line x1="4656.52" y1="5043.50" x2="4656.52" y2="5044.50" stroke="black"/>
    <line x1="4656.52" y1="5044.50" x2="4656.52" y2="5045.50" stroke="black"/>
    <line x1="4656.52" y1="5045.50" x2="4656.52" y2="5046.50" stroke="black"/>
    <line x1="4656.52" y1="5046.50" x2="4656.52" y2="5047.50" stroke="black"/>
    <line x1="4656.52" y1="5047.50" x2="4655.66" y2="5048.00" stroke="black"/>
    <line x1="4655.66" y1="5048.00" x2="4654.79" y2="5048.50" stroke="black"/>
    <line x1="4654.79" y1="5048.50" x2="4653.92" y2="5049.00" stroke="black"/>
    <line x1="4653.92" y1="5049.00" x2="4653.06" y2="5049.50" stroke="black"/>
    <line x1="4653.06" y1="5049.50" x2="4652.19" y2="5050.00" stroke="black"/>
    <line x1="4652.19" y1="5050.00" x2="4653.06" y2="5050.50" stroke="black"/>
    <line x1="4653.06" y1="5050.50" x2="4653.92" y2="5051.00" stroke="black"/>
    <line x1="4653.92" y1="5051.00" x2="4654.79" y2="5051.50" stroke="black"/>
    <line x1="4654.79" y1="5051.50" x2="4655.66" y2="5052.00" stroke="black"/>
    <line x1="4655.66" y1="5052.00" x2="4656.52" y2="5052.50" stroke="black"/>
    <line x1="4656.52" y1="5052.50" x2="4656.52" y2="5053.50" stroke="black"/>
    <line x1="4656.52" y1="5053.50" x2="4656.52" y2="5054.50" stroke="black"/>
    <line x1="4656.52" y1="5054.50" x2="4656.52" y2="5055.50" stroke="black"/>
    <line x1="4656.52" y1="5055.50" x2="4656.52" y2="5056.50" stroke="black"/>
    <line x1="4656.52" y1="5056.50" x2="4656.52" y2="5057.50" stroke="black"/>
    <line x1="4656.52" y1="5057.50" x2="4655.66" y2="5058.00" stroke="black"/>
    <line x1="4655.66" y1="5058.00" x2="4654.79" y2="5058.50" stroke="black"/>
    <line x1="4654.79" y1="5058.50" x2="4653.92" y2="5059.00" stroke="black"/>
    <line x1="4653.92" y1="5059.00" x2="4653.06" y2="5059.50" stroke="black"/>
    <line x1="4653.06" y1="5059.50" x2="4652.19" y2="5060.00" stroke="black"/>
    <line x1="4652.19" y1="5060.00" x2="4651.33" y2="5059.50" stroke="black"/>
    <line x1="4651.33" y1="5059.50" x2="4650.46" y2="5059.00" stroke="black"/>
    <line x1="4650.46" y1="5059.00" x2="4649.59" y2="5058.50" stroke="black"/>
    <line x1="4649.59" y1="5058.50" x2="4648.73" y2="5058.00" stroke="black"/>
    <line x1="4648.73" y1="5058.00" x2="4647.86" y2="5057.50" stroke="black"/>
    <line x1="4647.86" y1="5057.50" x2="4647.86" y2="5058.50" stroke="black"/>
    <line x1="4647.86" y1="5058.50" x2="4647.86" y2="5059.50" stroke="black"/>
    <line x1="4647.86" y1="5059.50" x2="4647.86" y2="5060.50" stroke="black"/>
    <line x1="4647.86" y1="5060.50" x2="4647.86" y2="5061.50" stroke="black"/>
    <line x1="4647.86" y1="5061.50" x2="4647.86" y2="5062.50" stroke="black"/>
    <line x1="4647.86" y1="5062.50" x2="4647.00" y2="5063.00" stroke="black"/>
    <line x1="4647.00" y1="5063.00" x2="4646.13" y2="5063.50" stroke="black"/>
    <line x1="4646.13" y1="5063.50" x2="4645.26" y2="5064.00" stroke="black"/>
    <line x1="4645.26" y1="5064.00" x2="4644.40" y2="5064.50" stroke="black"/>
    <line x1="4644.40" y1="5064.50" x2="4643.53" y2="5065.00" stroke="black"/>
    <line x1="4643.53" y1="5065.00" x2="4642.67" y2="5064.50" stroke="black"/>
    <line x1="4642.67" y1="5064.50" x2="4641.80" y2="5064.00" stroke="black"/>
    <line x1="4641.80" y1="5064.00" x2="4640.93" y2="5063.50" stroke="black"/>
    <line x1="4640.93" y1="5063.50" x2="4640.07" y2="5063.00" stroke="black"/>
    <line x1="4640.07" y1="5063.00" x2="4639.20" y2="5062.50" stroke="black"/>
    <line x1="4639.20" y1="5062.50" x2="4639.20" y2="5061.50" stroke="black"/>
    <line x1="4639.20" y1="5061.50" x2="4639.20" y2="5060.50" stroke="black"/>
    <line x1="4639.20" y1="5060.50" x2="4639.20" y2="5059.50" stroke="black"/>
    <line x1="4639.20" y1="5059.50" x2="4639.20" y2="5058.50" stroke="black"/>
    <line x1="4639.20" y1="5058.50" x2="4639.20" y2="5057.50" stroke="black"/>
    <line x1="4639.20" y1="5057.50" x2="4638.34" y2="5058.00" stroke="black"/>
    <line x1="4638.34" y1="5058.00" x2="4637.47" y2="5058.50" stroke="black"/>
    <line x1="4637.47" y1="5058.50" x2="4636.60" y2="5059.00" stroke="black"/>
    <line x1="4636.60" y1="5059.00" x2="4635.74" y2="5059.50" stroke="black"/>
    <line x1="4635.74" y1="5059.50" x2="4634.87" y2="5060.00" stroke="black"/>
    <line x1="4634.87" y1="5060.00" x2="4634.01" y2="5059.50" stroke="black"/>
    <line x1="4634.01" y1="5059.50" x2="4633.14" y2="5059.00" stroke="black"/>
    <line x1="4633.14" y1="5059.00" x2="4632.27" y2="5058.50" stroke="black"/>
    <line x1="4632.27" y1="5058.50" x2="4631.41" y2="5058.00" stroke="black"/>
    <line x1="4631.41" y1="5058.00" x2="4630.54" y2="5057.50" stroke="black"/>
    <line x1="4630.54" y1="5057.50" x2="4630.54" y2="5058.50" stroke="black"/>
    <line x1="4630.54" y1="5058.50" x2="4630.54" y2="5059.50" stroke="black"/>
    <line x1="4630.54" y1="5059.50" x2="4630.54" y2="5060.50" stroke="black"/>
    <line x1="4630.54" y1="5060.50" x2="4630.54" y2="5061.50" stroke="black"/>
    <line x1="4630.54" y1="5061.50" x2="4630.54" y2="5062.50" stroke="black"/>
    <line x1="4630.54" y1="5062.50" x2="4629.68" y2="5063.00" stroke="black"/>
    <line x1="4629.68" y1="5063.00" x2="4628.81" y2="5063.50" stroke="black"/>
    <line x1="4628.81" y1="5063.50" x2="4627.94" y2="5064.00" stroke="black"/>
    <line x1="4627.94" y1="5064.00" x2="4627.08" y2="5064.50" stroke="black"/>
    <line x1="4627.08" y1="5064.50" x2="4626.21" y2="5065.00" stroke="black"/>
    <line x1="4626.21" y1="5065.00" x2="4627.08" y2="5065.50" stroke="black"/>
    <line x1="4627.08" y1="5065.50" x2="4627.94" y2="5066.00" stroke="black"/>
    <line x1="4627.94" y1="5066.00" x2="4628.81" y2="5066.50" stroke="black"/>
    <line x1="4628.81" y1="5066.50" x2="4629.68" y2="5067.00" stroke="black"/>
    <line x1="4629.68" y1="5067.00" x2="4630.54" y2="5067.50" stroke="black"/>
    <line x1="4630.54" y1="5067.50" x2="4630.54" y2="5068.50" stroke="black"/>
    <line x1="4630.54" y1="5068.50" x2="4630.54" y2="5069.50" stroke="black"/>
    <line x1="4630.54" y1="5069.50" x2="4630.54" y2="5070.50" stroke="black"/>
    <line x1="4630.54" y1="5070.50" x2="4630.54" y2="5071.50" stroke="black"/>
    <line x1="4630.54" y1="5071.50" x2="4630.54" y2="5072.50" stroke="black"/>
    <line x1="4630.54" y1="5072.50" x2="4629.68" y2="5073.00" stroke="black"/>
    <line x1="4629.68" y1="5073.00" x2="4628.81" y2="5073.50" stroke="black"/>
    <line x1="4628.81" y1="5073.50" x2="4627.94" y2="5074.00" stroke="black"/>
    <line x1="4627.94" y1="5074.00" x2="4627.08" y2="5074.50" stroke="black"/>
    <line x1="4627.08" y1="5074.50" x2="4626.21" y2="5075.00" stroke="black"/>
    <line x1="4626.21" y1="5075.00" x2="4625.35" y2="5074.50" stroke="black"/>
    <line x1="4625.35" y1="5074.50" x2="4624.48" y2="5074.00" stroke="black"/>
    <line x1="4624.48" y1="5074.00" x2="4623.61" y2="5073.50" stroke="black"/>
    <line x1="4623.61" y1="5073.50" x2="4622.75" y2="5073.00" stroke="black"/>
    <line x1="4622.75" y1="5073.00" x2="4621.88" y2="5072.50" stroke="black"/>
    <line x1="4621.88" y1="5072.50" x2="4621.88" y2="5073.50" stroke="black"/>
    <line x1="4621.88" y1="5073.50" x2="4621.88" y2="5074.50" stroke="black"/>
    <line x1="4621.88" y1="5074.50" x2="4621.88" y2="5075.50" stroke="black"/>
    <line x1="4621.88" y1="5075.50" x2="4621.88" y2="5076.50" stroke="black"/>
    <line x1="4621.88" y1="5076.50" x2="4621.88" y2="5077.50" stroke="black"/>
    <line x1="4621.88" y1="5077.50" x2="4621.02" y2="5078.00" stroke="black"/>
    <line x1="4621.02" y1="5078.00" x2="4620.15" y2="5078.50" stroke="black"/>
    <line x1="4620.15" y1="5078.50" x2="4619.28" y2="5079.00" stroke="black"/>
    <line x1="4619.28" y1="5079.00" x2="4618.42" y2="5079.50" stroke="black"/>
    <line x1="4618.42" y1="5079.50" x2="4617.55" y2="5080.00" stroke="black"/>
    <line x1="4617.55" y1="5080.00" x2="4618.42" y2="5080.50" stroke="black"/>
    <line x1="4618.42" y1="5080.50" x2="4619.28" y2="5081.00" stroke="black"/>
    <line x1="4619.28" y1="5081.00" x2="4620.15" y2="5081.50" stroke="black"/>
    <line x1="4620.15" y1="5081.50" x2="4621.02" y2="5082.00" stroke="black"/>
    <line x1="4621.02" y1="5082.00" x2="4621.88" y2="5082.50" stroke="black"/>
    <line x1="4621.88" y1="5082.50" x2="4621.88" y2="5083.50" stroke="black"/>
    <line x1="4621.88" y1="5083.50" x2="4621.88" y2="5084.50" stroke="black"/>
    <line x1="4621.88" y1="5084.50" x2="4621.88" y2="5085.50" stroke="black"/>
    <line x1="4621.88" y1="5085.50" x2="4621.88" y2="5086.50" stroke="black"/>
    <line x1="4621.88" y1="5086.50" x2="4621.88" y2="5087.50" stroke="black"/>
    <line x1="4621.88" y1="5087.50" x2="4622.75" y2="5087.00" stroke="black"/>
    <line x1="4622.75" y1="5087.00" x2="4623.61" y2="5086.50" stroke="black"/>
    <line x1="4623.61" y1="5086.50" x2="4624.48" y2="5086.00" stroke="black"/>
    <line x1="4624.48" y1="5086.00" x2="4625.35" y2="5085.50" stroke="black"/>
    <line x1="4625.35" y1="5085.50" x2="4626.21" y2="5085.00" stroke="black"/>
    <line x1="4626.21" y1="5085.00" x2="4627.08" y2="5085.50" stroke="black"/>
    <line x1="4627.08" y1="5085.50" x2="4627.94" y2="5086.00" stroke="black"/>
    <line x1="4627.94" y1="5086.00" x2="4628.81" y2="5086.50" stroke="black"/>
    <line x1="4628.81" y1="5086.50" x2="4629.68" y2="5087.00" stroke="black"/>
    <line x1="4629.68" y1="5087.00" x2="4630.54" y2="5087.50" stroke="black"/>
    <line x1="4630.54" y1="5087.50" x2="4630.54" y2="5088.50" stroke="black"/>
    <line x1="4630.54" y1="5088.50" x2="4630.54" y2="5089.50" stroke="black"/>
    <line x1="4630.54" y1="5089.50" x2="4630.54" y2="5090.50" stroke="black"/>
    <line x1="4630.54" y1="5090.50" x2="4630.54" y2="5091.50" stroke="black"/>
    <line x1="4630.54" y1="5091.50" x2="4630.54" y2="5092.50" stroke="black"/>
    <line x1="4630.54" y1="5092.50" x2="4629.68" y2="5093.00" stroke="black"/>
    <line x1="4629.68" y1="5093.00" x2="4628.81" y2="5093.50" stroke="black"/>
    <line x1="4628.81" y1="5093.50" x2="4627.94" y2="5094.00" stroke="black"/>
    <line x1="4627.94" y1="5094.00" x2="4627.08" y2="5094.50" stroke="black"/>
    <line x1="4627.08" y1="5094.50" x2="4626.21" y2="5095.00" stroke="black"/>
    <line x1="4626.21" y1="5095.00" x2="4627.08" y2="5095.50" stroke="black"/>
    <line x1="4627.08" y1="5095.50" x2="4627.94" y2="5096.00" stroke="black"/>
    <line x1="4627.94" y1="5096.00" x2="4628.81" y2="5096.50" stroke="black"/>
    <line x1="4628.81" y1="5096.50" x2="4629.68" y2="5097.00" stroke="black"/>
    <line x1="4629.68" y1="5097.00" x2="4630.54" y2="5097.50" stroke="black"/>
    <line x1="4630.54" y1="5097.50" x2="4630.54" y2="5098.50" stroke="black"/>
    <line x1="4630.54" y1="5098.50" x2="4630.54" y2="5099.50" stroke="black"/>
    <line x1="4630.54" y1="5099.50" x2="4630.54" y2="5100.50" stroke="black"/>
    <line x1="4630.54" y1="5100.50" x2="4630.54" y2="5101.50" stroke="black"/>
    <line x1="4630.54" y1="5101.50" x2="4630.54" y2="5102.50" stroke="black"/>
    <line x1="4630.54" y1="5102.50" x2="4631.41" y2="5102.00" stroke="black"/>
    <line x1="4631.41" y1="5102.00" x2="4632.27" y2="5101.50" stroke="black"/>
    <line x1="4632.27" y1="5101.50" x2="4633.14" y2="5101.00" stroke="black"/>
    <line x1="4633.14" y1="5101.00" x2="4634.01" y2="5100.50" stroke="black"/>
    <line x1="4634.01" y1="5100.50" x2="4634.87" y2="5100.00" stroke="black"/>
    <line x1="4634.87" y1="5100.00" x2="4635.74" y2="5100.50" stroke="black"/>
    <line x1="4635.74" y1="5100.50" x2="4636.60" y2="5101.00" stroke="black"/>
    <line x1="4636.60" y1="5101.00" x2="4637.47" y2="5101.50" stroke="black"/>
    <line x1="4637.47" y1="5101.50" x2="4638.34" y2="5102.00" stroke="black"/>
    <line x1="4638.34" y1="5102.00" x2="4639.20" y2="5102.50" stroke="black"/>
    <line x1="4639.20" y1="5102.50" x2="4639.20" y2="5101.50" stroke="black"/>
    <line x1="4639.20" y1="5101.50" x2="4639.20" y2="5100.50" stroke="black"/>
    <line x1="4639.20" y1="5100.50" x2="4639.20" y2="5099.50" stroke="black"/>
    <line x1="4639.20" y1="5099.50" x2="4639.20" y2="5098.50" stroke="black"/>
    <line x1="4639.20" y1="5098.50" x2="4639.20" y2="5097.50" stroke="black"/>
    <line x1="4639.20" y1="5097.50" x2="4640.07" y2="5097.00" stroke="black"/>
    <line x1="4640.07" y1="5097.00" x2="4640.93" y2="5096.50" stroke="black"/>
    <line x1="4640.93" y1="5096.50" x2="4641.80" y2="5096.00" stroke="black"/>
    <line x1="4641.80" y1="5096.00" x2="4642.67" y2="5095.50" stroke="black"/>
    <line x1="4642.67" y1="5095.50" x2="4643.53" y2="5095.00" stroke="black"/>
    <line x1="4643.53" y1="5095.00" x2="4644.40" y2="5095.50" stroke="black"/>
    <line x1="4644.40" y1="5095.50" x2="4645.26" y2="5096.00" stroke="black"/>
    <line x1="4645.26" y1="5096.00" x2="4646.13" y2="5096.50" stroke="black"/>
    <line x1="4646.13" y1="5096.50" x2="4647.00" y2="5097.00" stroke="black"/>
    <line x1="4647.00" y1="5097.00" x2="4647.86" y2="5097.50" stroke="black"/>
    <line x1="4647.86" y1="5097.50" x2="4647.86" y2="5098.50" stroke="black"/>
    <line x1="4647.86" y1="5098.50" x2="4647.86" y2="5099.50" stroke="black"/>
    <line x1="4647.86" y1="5099.50" x2="4647.86" y2="5100.50" stroke="black"/>
    <line x1="4647.86" y1="5100.50" x2="4647.86" y2="5101.50" stroke="black"/>
    <line x1="4647.86" y1="5101.50" x2="4647.86" y2="5102.50" stroke="black"/>
    <line x1="4647.86" y1="5102.50" x2="4648.73" y2="5102.00" stroke="black"/>
    <line x1="4648.73" y1="5102.00" x2="4649.59" y2="5101.50" stroke="black"/>
    <line x1="4649.59" y1="5101.50" x2="4650.46" y2="5101.00" stroke="black"/>
    <line x1="4650.46" y1="5101.00" x2="4651.33" y2="5100.50" stroke="black"/>
    <line x1="4651.33" y1="5100.50" x2="4652.19" y2="5100.00" stroke="black"/>
    <line x1="4652.19" y1="5100.00" x2="4653.06" y2="5100.50" stroke="black"/>
    <line x1="4653.06" y1="5100.50" x2="4653.92" y2="5101.00" stroke="black"/>
    <line x1="4653.92" y1="5101.00" x2="4654.79" y2="5101.50" stroke="black"/>
    <line x1="4654.79" y1="5101.50" x2="4655.66" y2="5102.00" stroke="black"/>
    <line x1="4655.66" y1="5102.00" x2="4656.52" y2="5102.50" stroke="black"/>
    <line x1="4656.52" y1="5102.50" x2="4656.52" y2="5103.50" stroke="black"/>
    <line x1="4656.52" y1="5103.50" x2="4656.52" y2="5104.50" stroke="black"/>
    <line x1="4656.52" y1="5104.50" x2="4656.52" y2="5105.50" stroke="black"/>
    <line x1="4656.52" y1="5105.50" x2="4656.52" y2="5106.50" stroke="black"/>
    <line x1="4656.52" y1="5106.50" x2="4656.52" y2="5107.50" stroke="black"/>
    <line x1="4656.52" y1="5107.50" x2="4655.66" y2="5108.00" stroke="black"/>
    <line x1="4655.66" y1="5108.00" x2="4654.79" y2="5108.50" stroke="black"/>
    <line x1="4654.79" y1="5108.50" x2="4653.92" y2="5109.00" stroke="black"/>
    <line x1="4653.92" y1="5109.00" x2="4653.06" y2="5109.50" stroke="black"/>
    <line x1="4653.06" y1="5109.50" x2="4652.19" y2="5110.00" stroke="black"/>
    <line x1="4652.19" y1="5110.00" x2="4653.06" y2="5110.50" stroke="black"/>
    <line x1="4653.06" y1="5110.50" x2="4653.92" y2="5111.00" stroke="black"/>
    <line x1="4653.92" y1="5111.00" x2="4654.79" y2="5111.50" stroke="black"/>
    <line x1="4654.79" y1="5111.50" x2="4655.66" y2="5112.00" stroke="black"/>
    <line x1="4655.66" y1="5112.00" x2="4656.52" y2="5112.50" stroke="black"/>
    <line x1="4656.52" y1="5112.50" x2="4656.52" y2="5113.50" stroke="black"/>
    <line x1="4656.52" y1="5113.50" x2="4656.52" y2="5114.50" stroke="black"/>
    <line x1="4656.52" y1="5114.50" x2="4656.52" y2="5115.50" stroke="black"/>
    <line x1="4656.52" y1="5115.50" x2="4656.52" y2="5116.50" stroke="black"/>
    <line x1="4656.52" y1="5116.50" x2="4656.52" y2="5117.50" stroke="black"/>
    <line x1="4656.52" y1="5117.50" x2="4655.66" y2="5118.00" stroke="black"/>
    <line x1="4655.66" y1="5118.00" x2="4654.79" y2="5118.50" stroke="black"/>
    <line x1="4654.79" y1="5118.50" x2="4653.92" y2="5119.00" stroke="black"/>
    <line x1="4653.92" y1="5119.00" x2="4653.06" y2="5119.50" stroke="black"/>
    <line x1="4653.06" y1="5119.50" x2="4652.19" y2="5120.00" stroke="black"/>
    <line x1="4652.19" y1="5120.00" x2="4651.33" y2="5119.50" stroke="black"/>
    <line x1="4651.33" y1="5119.50" x2="4650.46" y2="5119.00" stroke="black"/>
    <line x1="4650.46" y1="5119.00" x2="4649.59" y2="5118.50" stroke="black"/>
    <line x1="4649.59" y1="5118.50" x2="4648.73" y2="5118.00" stroke="black"/>
    <line x1="4648.73" y1="5118.00" x2="4647.86" y2="5117.50" stroke="black"/>
    <line x1="4647.86" y1="5117.50" x2="4647.86" y2="5118.50" stroke="black"/>
    <line x1="4647.86" y1="5118.50" x2="4647.86" y2="5119.50" stroke="black"/>
    <line x1="4647.86" y1="5119.50" x2="4647.86" y2="5120.50" stroke="black"/>
    <line x1="4647.86" y1="5120.50" x2="4647.86" y2="5121.50" stroke="black"/>
    <line x1="4647.86" y1="5121.50" x2="4647.86" y2="5122.50" stroke="black"/>
    <line x1="4647.86" y1="5122.50" x2="4647.00" y2="5123.00" stroke="black"/>
    <line x1="4647.00" y1="5123.00" x2="4646.13" y2="5123.50" stroke="black"/>
    <line x1="4646.13" y1="5123.50" x2="4645.26" y2="5124.00" stroke="black"/>
    <line x1="4645.26" y1="5124.00" x2="4644.40" y2="5124.50" stroke="black"/>
    <line x1="4644.40" y1="5124.50" x2="4643.53" y2="5125.00" stroke="black"/>
    <line x1="4643.53" y1="5125.00" x2="4644.40" y2="5125.50" stroke="black"/>
    <line x1="4644.40" y1="5125.50" x2="4645.26" y2="5126.00" stroke="black"/>
    <line x1="4645.26" y1="5126.00" x2="4646.13" y2="5126.50" stroke="black"/>
    <line x1="4646.13" y1="5126.50" x2="4647.00" y2="5127.00" stroke="black"/>
    <line x1="4647.00" y1="5127.00" x2="4647.86" y2="5127.50" stroke="black"/>
    <line x1="4647.86" y1="5127.50" x2="4647.86" y2="5128.50" stroke="black"/>
    <line x1="4647.86" y1="5128.50" x2="4647.86" y2="5129.50" stroke="black"/>
    <line x1="4647.86" y1="5129.50" x2="4647.86" y2="5130.50" stroke="black"/>
    <line x1="4647.86" y1="5130.50" x2="4647.86" y2="5131.50" stroke="black"/>
    <line x1="4647.86" y1="5131.50" x2="4647.86" y2="5132.50" stroke="black"/>
    <line x1="4647.86" y1="5132.50" x2="4648.73" y2="5132.00" stroke="black"/>
    <line x1="4648.73" y1="5132.00" x2="4649.59" y2="5131.50" stroke="black"/>
    <line x1="4649.59" y1="5131.50" x2="4650.46" y2="5131.00" stroke="black"/>
    <line x1="4650.46" y1="5131.00" x2="4651.33" y2="5130.50" stroke="black"/>
    <line x1="4651.33" y1="5130.50" x2="4652.19" y2="5130.00" stroke="black"/>
    <line x1="4652.19" y1="5130.00" x2="4653.06" y2="5130.50" stroke="black"/>
    <line x1="4653.06" y1="5130.50" x2="4653.92" y2="5131.00" stroke="black"/>
    <line x1="4653.92" y1="5131.00" x2="4654.79" y2="5131.50" stroke="black"/>
    <line x1="4654.79" y1="5131.50" x2="4655.66" y2="5132.00" stroke="black"/>
    <line x1="4655.66" y1="5132.00" x2="4656.52" y2="5132.50" stroke="black"/>
    <line x1="4656.52" y1="5132.50" x2="4656.52" y2="5133.50" stroke="black"/>
    <line x1="4656.52" y1="5133.50" x2="4656.52" y2="5134.50" stroke="black"/>
    <line x1="4656.52" y1="5134.50" x2="4656.52" y2="5135.50" stroke="black"/>
    <line x1="4656.52" y1="5135.50" x2="4656.52" y2="5136.50" stroke="black"/>
    <line x1="4656.52" y1="5136.50" x2="4656.52" y2="5137.50" stroke="black"/>
    <line x1="4656.52" y1="5137.50" x2="4655.66" y2="5138.00" stroke="black"/>
    <line x1="4655.66" y1="5138.00" x2="4654.79" y2="5138.50" stroke="black"/>
    <line x1="4654.79" y1="5138.50" x2="4653.92" y2="5139.00" stroke="black"/>
    <line x1="4653.92" y1="5139.00" x2="4653.06" y2="5139.50" stroke="black"/>
    <line x1="4653.06" y1="5139.50" x2="4652.19" y2="5140.00" stroke="black"/>
    <line x1="4652.19" y1="5140.00" x2="4653.06" y2="5140.50" stroke="black"/>
    <line x1="4653.06" y1="5140.50" x2="4653.92" y2="5141.00" stroke="black"/>
    <line x1="4653.92" y1="5141.00" x2="4654.79" y2="5141.50" stroke="black"/>
    <line x1="4654.79" y1="5141.50" x2="4655.66" y2="5142.00" stroke="black"/>
    <line x1="4655.66" y1="5142.00" x2="4656.52" y2="5142.50" stroke="black"/>
    <line x1="4656.52" y1="5142.50" x2="4656.52" y2="5143.50" stroke="black"/>
    <line x1="4656.52" y1="5143.50" x2="4656.52" y2="5144.50" stroke="black"/>
    <line x1="4656.52" y1="5144.50" x2="4656.52" y2="5145.50" stroke="black"/>
    <line x1="4656.52" y1="5145.50" x2="4656.52" y2="5146.50" stroke="black"/>
    <line x1="4656.52" y1="5146.50" x2="4656.52" y2="5147.50" stroke="black"/>
    <line x1="4656.52" y1="5147.50" x2="4657.39" y2="5147.00" stroke="black"/>
    <line x1="4657.39" y1="5147.00" x2="4658.25" y2="5146.50" stroke="black"/>
    <line x1="4658.25" y1="5146.50" x2="4659.12" y2="5146.00" stroke="black"/>
    <line x1="4659.12" y1="5146.00" x2="4659.99" y2="5145.50" stroke="black"/>
    <line x1="4659.99" y1="5145.50" x2="4660.85" y2="5145.00" stroke="black"/>
    <line x1="4660.85" y1="5145.00" x2="4661.72" y2="5145.50" stroke="black"/>
    <line x1="4661.72" y1="5145.50" x2="4662.58" y2="5146.00" stroke="black"/>
    <line x1="4662.58" y1="5146.00" x2="4663.45" y2="5146.50" stroke="black"/>
    <line x1="4663.45" y1="5146.50" x2="4664.32" y2="5147.00" stroke="black"/>
    <line x1="4664.32" y1="5147.00" x2="4665.18" y2="5147.50" stroke="black"/>
    <line x1="4665.18" y1="5147.50" x2="4665.18" y2="5146.50" stroke="black"/>
    <line x1="4665.18" y1="5146.50" x2="4665.18" y2="5145.50" stroke="black"/>
    <line x1="4665.18" y1="5145.50" x2="4665.18" y2="5144.50" stroke="black"/>
    <line x1="4665.18" y1="5144.50" x2="4665.18" y2="5143.50" stroke="black"/>
    <line x1="4665.18" y1="5143.50" x2="4665.18" y2="5142.50" stroke="black"/>
    <line x1="4665.18" y1="5142.50" x2="4666.05" y2="5142.00" stroke="black"/>
    <line x1="4666.05" y1="5142.00" x2="4666.91" y2="5141.50" stroke="black"/>
    <line x1="4666.91" y1="5141.50" x2="4667.78" y2="5141.00" stroke="black"/>
    <line x1="4667.78" y1="5141.00" x2="4668.65" y2="5140.50" stroke="black"/>
    <line x1="4668.65" y1="5140.50" x2="4669.51" y2="5140.00" stroke="black"/>
    <line x1="4669.51" y1="5140.00" x2="4670.38" y2="5140.50" stroke="black"/>
    <line x1="4670.38" y1="5140.50" x2="4671.24" y2="5141.00" stroke="black"/>
    <line x1="4671.24" y1="5141.00" x2="4672.11" y2="5141.50" stroke="black"/>
    <line x1="4672.11" y1="5141.50" x2="4672.98" y2="5142.00" stroke="black"/>
    <line x1="4672.98" y1="5142.00" x2="4673.84" y2="5142.50" stroke="black"/>
    <line x1="4673.84" y1="5142.50" x2="4673.84" y2="5143.50" stroke="black"/>
    <line x1="4673.84" y1="5143.50" x2="4673.84" y2="5144.50" stroke="black"/>
    <line x1="4673.84" y1="5144.50" x2="4673.84" y2="5145.50" stroke="black"/>
    <line x1="4673.84" y1="5145.50" x2="4673.84" y2="5146.50" stroke="black"/>
    <line x1="4673.84" y1="5146.50" x2="4673.84" y2="5147.50" stroke="black"/>
    <line x1="4673.84" y1="5147.50" x2="4674.71" y2="5147.00" stroke="black"/>
    <line x1="4674.71" y1="5147.00" x2="4675.58" y2="5146.50" stroke="black"/>
    <line x1="4675.58" y1="5146.50" x2="4676.44" y2="5146.00" stroke="black"/>
    <line x1="4676.44" y1="5146.00" x2="4677.31" y2="5145.50" stroke="black"/>
    <line x1="4677.31" y1="5145.50" x2="4678.17" y2="5145.00" stroke="black"/>
    <line x1="4678.17" y1="5145.00" x2="4679.04" y2="5145.50" stroke="black"/>
    <line x1="4679.04" y1="5145.50" x2="4679.91" y2="5146.00" stroke="black"/>
    <line x1="4679.91" y1="5146.00" x2="4680.77" y2="5146.50" stroke="black"/>
    <line x1="4680.77" y1="5146.50" x2="4681.64" y2="5147.00" stroke="black"/>
    <line x1="4681.64" y1="5147.00" x2="4682.50" y2="5147.50" stroke="black"/>
    <line x1="4682.50" y1="5147.50" x2="4682.50" y2="5146.50" stroke="black"/>
    <line x1="4682.50" y1="5146.50" x2="4682.50" y2="5145.50" stroke="black"/>
    <line x1="4682.50" y1="5145.50" x2="4682.50" y2="5144.50" stroke="black"/>
    <line x1="4682.50" y1="5144.50" x2="4682.50" y2="5143.50" stroke="black"/>
    <line x1="4682.50" y1="5143.50" x2="4682.50" y2="5142.50" stroke="black"/>
    <line x1="4682.50" y1="5142.50" x2="4683.37" y2="5142.00" stroke="black"/>
    <line x1="4683.37" y1="5142.00" x2="4684.24" y2="5141.50" stroke="black"/>
    <line x1="4684.24" y1="5141.50" x2="4685.10" y2="5141.00" stroke="black"/>
    <line x1="4685.10" y1="5141.00" x2="4685.97" y2="5140.50" stroke="black"/>
    <line x1="4685.97" y1="5140.50" x2="4686.83" y2="5140.00" stroke="black"/>
    <line x1="4686.83" y1="5140.00" x2="4685.97" y2="5139.50" stroke="black"/>
    <line x1="4685.97" y1="5139.50" x2="4685.10" y2="5139.00" stroke="black"/>
    <line x1="4685.10" y1="5139.00" x2="4684.24" y2="5138.50" stroke="black"/>
    <line x1="4684.24" y1="5138.50" x2="4683.37" y2="5138.00" stroke="black"/>
    <line x1="4683.37" y1="5138.00" x2="4682.50" y2="5137.50" stroke="black"/>
    <line x1="4682.50" y1="5137.50" x2="4682.50" y2="5136.50" stroke="black"/>
    <line x1="4682.50" y1="5136.50" x2="4682.50" y2="5135.50" stroke="black"/>
    <line x1="4682.50" y1="5135.50" x2="4682.50" y2="5134.50" stroke="black"/>
    <line x1="4682.50" y1="5134.50" x2="4682.50" y2="5133.50" stroke="black"/>
    <line x1="4682.50" y1="5133.50" x2="4682.50" y2="5132.50" stroke="black"/>
    <line x1="4682.50" y1="5132.50" x2="4683.37" y2="5132.00" stroke="black"/>
    <line x1="4683.37" y1="5132.00" x2="4684.24" y2="5131.50" stroke="black"/>
    <line x1="4684.24" y1="5131.50" x2="4685.10" y2="5131.00" stroke="black"/>
    <line x1="4685.10" y1="5131.00" x2="4685.97" y2="5130.50" stroke="black"/>
    <line x1="4685.97" y1="5130.50" x2="4686.83" y2="5130.00" stroke="black"/>
    <line x1="4686.83" y1="5130.00" x2="4687.70" y2="5130.50" stroke="black"/>
    <line x1="4687.70" y1="5130.50" x2="4688.57" y2="5131.00" stroke="black"/>
    <line x1="4688.57" y1="5131.00" x2="4689.43" y2="5131.50" stroke="black"/>
    <line x1="4689.43" y1="5131.50" x2="4690.30" y2="5132.00" stroke="black"/>
    <line x1="4690.30" y1="5132.00" x2="4691.16" y2="5132.50" stroke="black"/>
    <line x1="4691.16" y1="5132.50" x2="4691.16" y2="5131.50" stroke="black"/>
    <line x1="4691.16" y1="5131.50" x2="4691.16" y2="5130.50" stroke="black"/>
    <line x1="4691.16" y1="5130.50" x2="4691.16" y2="5129.50" stroke="black"/>
    <line x1="4691.16" y1="5129.50" x2="4691.16" y2="5128.50" stroke="black"/>
    <line x1="4691.16" y1="5128.50" x2="4691.16" y2="5127.50" stroke="black"/>
    <line x1="4691.16" y1="5127.50" x2="4692.03" y2="5127.00" stroke="black"/>
    <line x1="4692.03" y1="5127.00" x2="4692.90" y2="5126.50" stroke="black"/>
    <line x1="4692.90" y1="5126.50" x2="4693.76" y2="5126.00" stroke="black"/>
    <line x1="4693.76" y1="5126.00" x2="4694.63" y2="5125.50" stroke="black"/>
    <line x1="4694.63" y1="5125.50" x2="4695.49" y2="5125.00" stroke="black"/>
    <line x1="4695.49" y1="5125.00" x2="4696.36" y2="5125.50" stroke="black"/>
    <line x1="4696.36" y1="5125.50" x2="4697.23" y2="5126.00" stroke="black"/>
    <line x1="4697.23" y1="5126.00" x2="4698.09" y2="5126.50" stroke="black"/>
    <line x1="4698.09" y1="5126.50" x2="4698.96" y2="5127.00" stroke="black"/>
    <line x1="4698.96" y1="5127.00" x2="4699.82" y2="5127.50" stroke="black"/>
    <line x1="4699.82" y1="5127.50" x2="4699.82" y2="5128.50" stroke="black"/>
    <line x1="4699.82" y1="5128.50" x2="4699.82" y2="5129.50" stroke="black"/>
    <line x1="4699.82" y1="5129.50" x2="4699.82" y2="5130.50" stroke="black"/>
    <line x1="4699.82" y1="5130.50" x2="4699.82" y2="5131.50" stroke="black"/>
    <line x1="4699.82" y1="5131.50" x2="4699.82" y2="5132.50" stroke="black"/>
    <line x1="4699.82" y1="5132.50" x2="4700.69" y2="5132.00" stroke="black"/>
    <line x1="4700.69" y1="5132.00" x2="4701.56" y2="5131.50" stroke="black"/>
    <line x1="4701.56" y1="5131.50" x2="4702.42" y2="5131.00" stroke="black"/>
    <line x1="4702.42" y1="5131.00" x2="4703.29" y2="5130.50" stroke="black"/>
    <line x1="4703.29" y1="5130.50" x2="4704.15" y2="5130.00" stroke="black"/>
    <line x1="4704.15" y1="5130.00" x2="4705.02" y2="5130.50" stroke="black"/>
    <line x1="4705.02" y1="5130.50" x2="4705.89" y2="5131.00" stroke="black"/>
    <line x1="4705.89" y1="5131.00" x2="4706.75" y2="5131.50" stroke="black"/>
    <line x1="4706.75" y1="5131.50" x2="4707.62" y2="5132.00" stroke="black"/>
    <line x1="4707.62" y1="5132.00" x2="4708.48" y2="5132.50" stroke="black"/>
    <line x1="4708.48" y1="5132.50" x2="4708.48" y2="5133.50" stroke="black"/>
    <line x1="4708.48" y1="5133.50" x2="4708.48" y2="5134.50" stroke="black"/>
    <line x1="4708.48" y1="5134.50" x2="4708.48" y2="5135.50" stroke="black"/>
    <line x1="4708.48" y1="5135.50" x2="4708.48" y2="5136.50" stroke="black"/>
    <line x1="4708.48" y1="5136.50" x2="4708.48" y2="5137.50" stroke="black"/>
    <line x1="4708.48" y1="5137.50" x2="4707.62" y2="5138.00" stroke="black"/>
    <line x1="4707.62" y1="5138.00" x2="4706.75" y2="5138.50" stroke="black"/>
    <line x1="4706.75" y1="5138.50" x2="4705.89" y2="5139.00" stroke="black"/>
    <line x1="4705.89" y1="5139.00" x2="4705.02" y2="5139.50" stroke="black"/>
    <line x1="4705.02" y1="5139.50" x2="4704.15" y2="5140.00" stroke="black"/>
    <line x1="4704.15" y1="5140.00" x2="4705.02" y2="5140.50" stroke="black"/>
    <line x1="4705.02" y1="5140.50" x2="4705.89" y2="5141.00" stroke="black"/>
    <line x1="4705.89" y1="5141.00" x2="4706.75" y2="5141.50" stroke="black"/>
    <line x1="4706.75" y1="5141.50" x2="4707.62" y2="5142.00" stroke="black"/>
    <line x1="4707.62" y1="5142.00" x2="4708.48" y2="5142.50" stroke="black"/>
    <line x1="4708.48" y1="5142.50" x2="4708.48" y2="5143.50" stroke="black"/>
    <line x1="4708.48" y1="5143.50" x2="4708.48" y2="5144.50" stroke="black"/>
    <line x1="4708.48" y1="5144.50" x2="4708.48" y2="5145.50" stroke="black"/>
    <line x1="4708.48" y1="5145.50" x2="4708.48" y2="5146.50" stroke="black"/>
    <line x1="4708.48" y1="5146.50" x2="4708.48" y2="5147.50" stroke="black"/>
    <line x1="4708.48" y1="5147.50" x2="4709.35" y2="5147.00" stroke="black"/>
    <line x1="4709.35" y1="5147.00" x2="4710.22" y2="5146.50" stroke="black"/>
    <line x1="4710.22" y1="5146.50" x2="4711.08" y2="5146.00" stroke="black"/>
    <line x1="4711.08" y1="5146.00" x2="4711.95" y2="5145.50" stroke="black"/>
    <line x1="4711.95" y1="5145.50" x2="4712.81" y2="5145.00" stroke="black"/>
    <line x1="4712.81" y1="5145.00" x2="4713.68" y2="5145.50" stroke="black"/>
    <line x1="4713.68" y1="5145.50" x2="4714.55" y2="5146.00" stroke="black"/>
    <line x1="4714.55" y1="5146.00" x2="4715.41" y2="5146.50" stroke="black"/>
    <line x1="4715.41" y1="5146.50" x2="4716.28" y2="5147.00" stroke="black"/>
    <line x1="4716.28" y1="5147.00" x2="4717.14" y2="5147.50" stroke="black"/>
    <line x1="4717.14" y1="5147.50" x2="4717.14" y2="5146.50" stroke="black"/>
    <line x1="4717.14" y1="5146.50" x2="4717.14" y2="5145.50" stroke="black"/>
    <line x1="4717.14" y1="5145.50" x2="4717.14" y2="5144.50" stroke="black"/>
    <line x1="4717.14" y1="5144.50" x2="4717.14" y2="5143.50" stroke="black"/>
    <line x1="4717.14" y1="5143.50" x2="4717.14" y2="5142.50" stroke="black"/>
    <line x1="4717.14" y1="5142.50" x2="4718.01" y2="5142.00" stroke="black"/>
    <line x1="4718.01" y1="5142.00" x2="4718.88" y2="5141.50" stroke="black"/>
    <line x1="4718.88" y1="5141.50" x2="4719.74" y2="5141.00" stroke="black"/>
    <line x1="4719.74" y1="5141.00" x2="4720.61" y2="5140.50" stroke="black"/>
    <line x1="4720.61" y1="5140.50" x2="4721.47" y2="5140.00" stroke="black"/>
    <line x1="4721.47" y1="5140.00" x2="4722.34" y2="5140.50" stroke="black"/>
    <line x1="4722.34" y1="5140.50" x2="4723.21" y2="5141.00" stroke="black"/>
    <line x1="4723.21" y1="5141.00" x2="4724.07" y2="5141.50" stroke="black"/>
    <line x1="4724.07" y1="5141.50" x2="4724.94" y2="5142.00" stroke="black"/>
    <line x1="4724.94" y1="5142.00" x2="4725.80" y2="5142.50" stroke="black"/>
    <line x1="4725.80" y1="5142.50" x2="4725.80" y2="5143.50" stroke="black"/>
    <line x1="4725.80" y1="5143.50" x2="4725.80" y2="5144.50" stroke="black"/>
    <line x1="4725.80" y1="5144.50" x2="4725.80" y2="5145.50" stroke="black"/>
    <line x1="4725.80" y1="5145.50" x2="4725.80" y2="5146.50" stroke="black"/>
    <line x1="4725.80" y1="5146.50" x2="4725.80" y2="5147.50" stroke="black"/>
    <line x1="4725.80" y1="5147.50" x2="4726.67" y2="5147.00" stroke="black"/>
    <line x1="4726.67" y1="5147.00" x2="4727.54" y2="5146.50" stroke="black"/>
    <line x1="4727.54" y1="5146.50" x2="4728.40" y2="5146.00" stroke="black"/>
    <line x1="4728.40" y1="5146.00" x2="4729.27" y2="5145.50" stroke="black"/>
    <line x1="4729.27" y1="5145.50" x2="4730.13" y2="5145.00" stroke="black"/>
    <line x1="4730.13" y1="5145.00" x2="4731.00" y2="5145.50" stroke="black"/>
    <line x1="4731.00" y1="5145.50" x2="4731.87" y2="5146.00" stroke="black"/>
    <line x1="4731.87" y1="5146.00" x2="4732.73" y2="5146.50" stroke="black"/>
    <line x1="4732.73" y1="5146.50" x2="4733.60" y2="5147.00" stroke="black"/>
    <line x1="4733.60" y1="5147.00" x2="4734.46" y2="5147.50" stroke="black"/>
    <line x1="4734.46" y1="5147.50" x2="4734.46" y2="5146.50" stroke="black"/>
    <line x1="4734.46" y1="5146.50" x2="4734.46" y2="5145.50" stroke="black"/>
    <line x1="4734.46" y1="5145.50" x2="4734.46" y2="5144.50" stroke="black"/>
    <line x1="4734.46" y1="5144.50" x2="4734.46" y2="5143.50" stroke="black"/>
    <line x1="4734.46" y1="5143.50" x2="4734.46" y2="5142.50" stroke="black"/>
    <line x1="4734.46" y1="5142.50" x2="4735.33" y2="5142.00" stroke="black"/>
    <line x1="4735.33" y1="5142.00" x2="4736.20" y2="5141.50" stroke="black"/>
    <line x1="4736.20" y1="5141.50" x2="4737.06" y2="5141.00" stroke="black"/>
    <line x1="4737.06" y1="5141.00" x2="4737.93" y2="5140.50" stroke="black"/>
    <line x1="4737.93" y1="5140.50" x2="4738.79" y2="5140.00" stroke="black"/>
    <line x1="4738.79" y1="5140.00" x2="4737.93" y2="5139.50" stroke="black"/>
    <line x1="4737.93" y1="5139.50" x2="4737.06" y2="5139.00" stroke="black"/>
    <line x1="4737.06" y1="5139.00" x2="4736.20" y2="5138.50" stroke="black"/>
    <line x1="4736.20" y1="5138.50" x2="4735.33" y2="5138.00" stroke="black"/>
    <line x1="4735.33" y1="5138.00" x2="4734.46" y2="5137.50" stroke="black"/>
    <line x1="4734.46" y1="5137.50" x2="4734.46" y2="5136.50" stroke="black"/>
    <line x1="4734.46" y1="5136.50" x2="4734.46" y2="5135.50" stroke="black"/>
    <line x1="4734.46" y1="5135.50" x2="4734.46" y2="5134.50" stroke="black"/>
    <line x1="4734.46" y1="5134.50" x2="4734.46" y2="5133.50" stroke="black"/>
    <line x1="4734.46" y1="5133.50" x2="4734.46" y2="5132.50" stroke="black"/>
    <line x1="4734.46" y1="5132.50" x2="4735.33" y2="5132.00" stroke="black"/>
    <line x1="4735.33" y1="5132.00" x2="4736.20" y2="5131.50" stroke="black"/>
    <line x1="4736.20" y1="5131.50" x2="4737.06" y2="5131.00" stroke="black"/>
    <line x1="4737.06" y1="5131.00" x2="4737.93" y2="5130.50" stroke="black"/>
    <line x1="4737.93" y1="5130.50" x2="4738.79" y2="5130.00" stroke="black"/>
    <line x1="4738.79" y1="5130.00" x2="4739.66" y2="5130.50" stroke="black"/>
    <line x1="4739.66" y1="5130.50" x2="4740.53" y2="5131.00" stroke="black"/>
    <line x1="4740.53" y1="5131.00" x2="4741.39" y2="5131.50" stroke="black"/>
    <line x1="4741.39" y1="5131.50" x2="4742.26" y2="5132.00" stroke="black"/>
    <line x1="4742.26" y1="5132.00" x2="4743.13" y2="5132.50" stroke="black"/>
    <line x1="4743.13" y1="5132.50" x2="4743.13" y2="5131.50" stroke="black"/>
    <line x1="4743.13" y1="5131.50" x2="4743.13" y2="5130.50" stroke="black"/>
    <line x1="4743.13" y1="5130.50" x2="4743.13" y2="5129.50" stroke="black"/>
    <line x1="4743.13" y1="5129.50" x2="4743.13" y2="5128.50" stroke="black"/>
    <line x1="4743.13" y1="5128.50" x2="4743.13" y2="5127.50" stroke="black"/>
    <line x1="4743.13" y1="5127.50" x2="4743.99" y2="5127.00" stroke="black"/>
    <line x1="4743.99" y1="5127.00" x2="4744.86" y2="5126.50" stroke="black"/>
    <line x1="4744.86" y1="5126.50" x2="4745.72" y2="5126.00" stroke="black"/>
    <line x1="4745.72" y1="5126.00" x2="4746.59" y2="5125.50" stroke="black"/>
    <line x1="4746.59" y1="5125.50" x2="4747.46" y2="5125.00" stroke="black"/>
    <line x1="4747.46" y1="5125.00" x2="4746.59" y2="5124.50" stroke="black"/>
    <line x1="4746.59" y1="5124.50" x2="4745.72" y2="5124.00" stroke="black"/>
    <line x1="4745.72" y1="5124.00" x2="4744.86" y2="5123.50" stroke="black"/>
    <line x1="4744.86" y1="5123.50" x2="4743.99" y2="5123.00" stroke="black"/>
    <line x1="4743.99" y1="5123.00" x2="4743.13" y2="5122.50" stroke="black"/>
    <line x1="4743.13" y1="5122.50" x2="4743.13" y2="5121.50" stroke="black"/>
    <line x1="4743.13" y1="5121.50" x2="4743.13" y2="5120.50" stroke="black"/>
    <line x1="4743.13" y1="5120.50" x2="4743.13" y2="5119.50" stroke="black"/>
    <line x1="4743.13" y1="5119.50" x2="4743.13" y2="5118.50" stroke="black"/>
    <line x1="4743.13" y1="5118.50" x2="4743.13" y2="5117.50" stroke="black"/>
    <line x1="4743.13" y1="5117.50" x2="4742.26" y2="5118.00" stroke="black"/>
    <line x1="4742.26" y1="5118.00" x2="4741.39" y2="5118.50" stroke="black"/>
    <line x1="4741.39" y1="5118.50" x2="4740.53" y2="5119.00" stroke="black"/>
    <line x1="4740.53" y1="5119.00" x2="4739.66" y2="5119.50" stroke="black"/>
    <line x1="4739.66" y1="5119.50" x2="4738.79" y2="5120.00" stroke="black"/>
    <line x1="4738.79" y1="5120.00" x2="4737.93" y2="5119.50" stroke="black"/>
    <line x1="4737.93" y1="5119.50" x2="4737.06" y2="5119.00" stroke="black"/>
    <line x1="4737.06" y1="5119.00" x2="4736.20" y2="5118.50" stroke="black"/>
    <line x1="4736.20" y1="5118.50" x2="4735.33" y2="5118.00" stroke="black"/>
    <line x1="4735.33" y1="5118.00" x2="4734.46" y2="5117.50" stroke="black"/>
    <line x1="4734.46" y1="5117.50" x2="4734.46" y2="5116.50" stroke="black"/>
    <line x1="4734.46" y1="5116.50" x2="4734.46" y2="5115.50" stroke="black"/>
    <line x1="4734.46" y1="5115.50" x2="4734.46" y2="5114.50" stroke="black"/>
    <line x1="4734.46" y1="5114.50" x2="4734.46" y2="5113.50" stroke="black"/>
    <line x1="4734.46" y1="5113.50" x2="4734.46" y2="5112.50" stroke="black"/>
    <line x1="4734.46" y1="5112.50" x2="4735.33" y2="5112.00" stroke="black"/>
    <line x1="4735.33" y1="5112.00" x2="4736.20" y2="5111.50" stroke="black"/>
    <line x1="4736.20" y1="5111.50" x2="4737.06" y2="5111.00" stroke="black"/>
    <line x1="4737.06" y1="5111.00" x2="4737.93" y2="5110.50" stroke="black"/>
    <line x1="4737.93" y1="5110.50" x2="4738.79" y2="5110.00" stroke="black"/>
    <line x1="4738.79" y1="5110.00" x2="4737.93" y2="5109.50" stroke="black"/>
    <line x1="4737.93" y1="5109.50" x2="4737.06" y2="5109.00" stroke="black"/>
    <line x1="4737.06" y1="5109.00" x2="4736.20" y2="5108.50" stroke="black"/>
    <line x1="4736.20" y1="5108.50" x2="4735.33" y2="5108.00" stroke="black"/>
    <line x1="4735.33" y1="5108.00" x2="4734.46" y2="5107.50" stroke="black"/>
    <line x1="4734.46" y1="5107.50" x2="4734.46" y2="5106.50" stroke="black"/>
    <line x1="4734.46" y1="5106.50" x2="4734.46" y2="5105.50" stroke="black"/>
    <line x1="4734.46" y1="5105.50" x2="4734.46" y2="5104.50" stroke="black"/>
    <line x1="4734.46" y1="5104.50" x2="4734.46" y2="5103.50" stroke="black"/>
    <line x1="4734.46" y1="5103.50" x2="4734.46" y2="5102.50" stroke="black"/>
    <line x1="4734.46" y1="5102.50" x2="4735.33" y2="5102.00" stroke="black"/>
    <line x1="4735.33" y1="5102.00" x2="4736.20" y2="5101.50" stroke="black"/>
    <line x1="4736.20" y1="5101.50" x2="4737.06" y2="5101.00" stroke="black"/>
    <line x1="4737.06" y1="5101.00" x2="4737.93" y2="5100.50" stroke="black"/>
    <line x1="4737.93" y1="5100.50" x2="4738.79" y2="5100.00" stroke="black"/>
    <line x1="4738.79" y1="5100.00" x2="4739.66" y2="5100.50" stroke="black"/>
    <line x1="4739.66" y1="5100.50" x2="4740.53" y2="5101.00" stroke="black"/>
    <line x1="4740.53" y1="5101.00" x2="4741.39" y2="5101.50" stroke="black"/>
    <line x1="4741.39" y1="5101.50" x2="4742.26" y2="5102.00" stroke="black"/>
    <line x1="4742.26" y1="5102.00" x2="4743.13" y2="5102.50" stroke="black"/>
    <line x1="4743.13" y1="5102.50" x2="4743.13" y2="5101.50" stroke="black"/>
    <line x1="4743.13" y1="5101.50" x2="4743.13" y2="5100.50" stroke="black"/>
    <line x1="4743.13" y1="5100.50" x2="4743.13" y2="5099.50" stroke="black"/>
    <line x1="4743.13" y1="5099.50" x2="4743.13" y2="5098.50" stroke="black"/>
    <line x1="4743.13" y1="5098.50" x2="4743.13" y2="5097.50" stroke="black"/>
    <line x1="4743.13" y1="5097.50" x2="4743.99" y2="5097.00" stroke="black"/>
    <line x1="4743.99" y1="5097.00" x2="4744.86" y2="5096.50" stroke="black"/>
    <line x1="4744.86" y1="5096.50" x2="4745.72" y2="5096.00" stroke="black"/>
    <line x1="4745.72" y1="5096.00" x2="4746.59" y2="5095.50" stroke="black"/>
    <line x1="4746.59" y1="5095.50" x2="4747.46" y2="5095.00" stroke="black"/>
    <line x1="4747.46" y1="5095.00" x2="4748.32" y2="5095.50" stroke="black"/>
    <line x1="4748.32" y1="5095.50" x2="4749.19" y2="5096.00" stroke="black"/>
    <line x1="4749.19" y1="5096.00" x2="4750.05" y2="5096.50" stroke="black"/>
    <line x1="4750.05" y1="5096.50" x2="4750.92" y2="5097.00" stroke="black"/>
    <line x1="4750.92" y1="5097.00" x2="4751.79" y2="5097.50" stroke="black"/>
    <line x1="4751.79" y1="5097.50" x2="4751.79" y2="5098.50" stroke="black"/>
    <line x1="4751.79" y1="5098.50" x2="4751.79" y2="5099.50" stroke="black"/>
    <line x1="4751.79" y1="5099.50" x2="4751.79" y2="5100.50" stroke="black"/>
    <line x1="4751.79" y1="5100.50" x2="4751.79" y2="5101.50" stroke="black"/>
    <line x1="4751.79" y1="5101.50" x2="4751.79" y2="5102.50" stroke="black"/>
    <line x1="4751.79" y1="5102.50" x2="4752.65" y2="5102.00" stroke="black"/>
    <line x1="4752.65" y1="5102.00" x2="4753.52" y2="5101.50" stroke="black"/>
    <line x1="4753.52" y1="5101.50" x2="4754.38" y2="5101.00" stroke="black"/>
    <line x1="4754.38" y1="5101.00" x2="4755.25" y2="5100.50" stroke="black"/>
    <line x1="4755.25" y1="5100.50" x2="4756.12" y2="5100.00" stroke="black"/>
    <line x1="4756.12" y1="5100.00" x2="4756.98" y2="5100.50" stroke="black"/>
    <line x1="4756.98" y1="5100.50" x2="4757.85" y2="5101.00" stroke="black"/>
    <line x1="4757.85" y1="5101.00" x2="4758.71" y2="5101.50" stroke="black"/>
    <line x1="4758.71" y1="5101.50" x2="4759.58" y2="5102.00" stroke="black"/>
    <line x1="4759.58" y1="5102.00" x2="4760.45" y2="5102.50" stroke="black"/>
    <line x1="4760.45" y1="5102.50" x2="4760.45" y2="5101.50" stroke="black"/>
    <line x1="4760.45" y1="5101.50" x2="4760.45" y2="5100.50" stroke="black"/>
    <line x1="4760.45" y1="5100.50" x2="4760.45" y2="5099.50" stroke="black"/>
    <line x1="4760.45" y1="5099.50" x2="4760.45" y2="5098.50" stroke="black"/>
    <line x1="4760.45" y1="5098.50" x2="4760.45" y2="5097.50" stroke="black"/>
    <line x1="4760.45" y1="5097.50" x2="4761.31" y2="5097.00" stroke="black"/>
    <line x1="4761.31" y1="5097.00" x2="4762.18" y2="5096.50" stroke="black"/>
    <line x1="4762.18" y1="5096.50" x2="4763.04" y2="5096.00" stroke="black"/>
    <line x1="4763.04" y1="5096.00" x2="4763.91" y2="5095.50" stroke="black"/>
    <line x1="4763.91" y1="5095.50" x2="4764.78" y2="5095.00" stroke="black"/>
    <line x1="4764.78" y1="5095.00" x2="4763.91" y2="5094.50" stroke="black"/>
    <line x1="4763.91" y1="5094.50" x2="4763.04" y2="5094.00" stroke="black"/>
    <line x1="4763.04" y1="5094.00" x2="4762.18" y2="5093.50" stroke="black"/>
    <line x1="4762.18" y1="5093.50" x2="4761.31" y2="5093.00" stroke="black"/>
    <line x1="4761.31" y1="5093.00" x2="4760.45" y2="5092.50" stroke="black"/>
    <line x1="4760.45" y1="5092.50" x2="4760.45" y2="5091.50" stroke="black"/>
    <line x1="4760.45" y1="5091.50" x2="4760.45" y2="5090.50" stroke="black"/>
    <line x1="4760.45" y1="5090.50" x2="4760.45" y2="5089.50" stroke="black"/>
    <line x1="4760.45" y1="5089.50" x2="4760.45" y2="5088.50" stroke="black"/>
    <line x1="4760.45" y1="5088.50" x2="4760.45" y2="5087.50" stroke="black"/>
    <line x1="4760.45" y1="5087.50" x2="4761.31" y2="5087.00" stroke="black"/>
    <line x1="4761.31" y1="5087.00" x2="4762.18" y2="5086.50" stroke="black"/>
    <line x1="4762.18" y1="5086.50" x2="4763.04" y2="5086.00" stroke="black"/>
    <line x1="4763.04" y1="5086.00" x2="4763.91" y2="5085.50" stroke="black"/>
    <line x1="4763.91" y1="5085.50" x2="4764.78" y2="5085.00" stroke="black"/>
    <line x1="4764.78" y1="5085.00" x2="4765.64" y2="5085.50" stroke="black"/>
    <line x1="4765.64" y1="5085.50" x2="4766.51" y2="5086.00" stroke="black"/>
    <line x1="4766.51" y1="5086.00" x2="4767.37" y2="5086.50" stroke="black"/>
    <line x1="4767.37" y1="5086.50" x2="4768.24" y2="5087.00" stroke="black"/>
    <line x1="4768.24" y1="5087.00" x2="4769.11" y2="5087.50" stroke="black"/>
    <line x1="4769.11" y1="5087.50" x2="4769.11" y2="5086.50" stroke="black"/>
    <line x1="4769.11" y1="5086.50" x2="4769.11" y2="5085.50" stroke="black"/>
    <line x1="4769.11" y1="5085.50" x2="4769.11" y2="5084.50" stroke="black"/>
    <line x1="4769.11" y1="5084.50" x2="4769.11" y2="5083.50" stroke="black"/>
    <line x1="4769.11" y1="5083.50" x2="4769.11" y2="5082.50" stroke="black"/>
    <line x1="4769.11" y1="5082.50" x2="4769.97" y2="5082.00" stroke="black"/>
    <line x1="4769.97" y1="5082.00" x2="4770.84" y2="5081.50" stroke="black"/>
    <line x1="4770.84" y1="5081.50" x2="4771.70" y2="5081.00" stroke="black"/>
    <line x1="4771.70" y1="5081.00" x2="4772.57" y2="5080.50" stroke="black"/>
    <line x1="4772.57" y1="5080.50" x2="4773.44" y2="5080.00" stroke="black"/>
  </symbol>
  <use xlink:href='#fractal' />
</svg>
